<svg width="60" height="59" viewBox="0 0 60 59" fill="none" xmlns="http://www.w3.org/2000/svg">
<g clip-path="url(#clip0_927_284)">
<path d="M30 0C13.7081 0 0.5 13.2081 0.5 29.5C0.5 45.7919 13.7081 59 30 59C46.2919 59 59.5 45.7919 59.5 29.5C59.5 13.2081 46.2919 0 30 0ZM38.5756 17.5748C38.5756 17.7515 38.4315 17.8938 38.2549 17.8921L34.2947 17.8509C33.5349 17.8441 32.9157 18.4564 32.9157 19.2162V23.2244C32.9157 23.3993 33.0581 23.5417 33.233 23.5417H38.2308C38.4161 23.5417 38.5619 23.6995 38.5481 23.8847L38.0851 29.5549C38.0713 29.7178 37.9358 29.8447 37.7729 29.8465L33.2279 29.9116C33.0546 29.9133 32.9157 30.0557 32.9157 30.2289V48.5635C32.9157 48.7385 32.7733 48.8808 32.5984 48.8808H25.5904C25.4155 48.8808 25.2731 48.7385 25.2731 48.5635V30.1723C25.2731 29.9974 25.1325 29.855 24.9576 29.855L21.74 29.8447C21.5651 29.843 21.4244 29.7024 21.4244 29.5274V23.8213C21.4244 23.6463 21.5668 23.5057 21.7417 23.504L25.0502 23.4971C25.2251 23.4971 25.3675 23.353 25.3658 23.1781L25.316 17.7789C25.2817 14.2217 28.1563 11.3198 31.7134 11.3198H38.2583C38.4332 11.3198 38.5756 11.4621 38.5756 11.6371V17.5748Z" fill="#111928" fill-opacity="0.55"/>
</g>
<defs>
<clipPath id="clip0_927_284">
<rect width="59" height="59" fill="white" transform="translate(0.5)"/>
</clipPath>
</defs>
</svg>
