<svg width="60" height="59" viewBox="0 0 60 59" fill="none" xmlns="http://www.w3.org/2000/svg">
<g clip-path="url(#clip0_927_278)">
<path d="M30 0C13.7081 0 0.5 13.2081 0.5 29.5C0.5 45.7919 13.7081 59 30 59C46.2919 59 59.5 45.7919 59.5 29.5C59.5 13.2081 46.2919 0 30 0ZM47.2729 36.4531C47.182 42.3977 42.3883 47.1966 36.4437 47.2875C34.5451 47.3166 32.6258 47.3338 30.686 47.3372C28.2815 47.3406 25.9077 47.3252 23.5683 47.2892C17.6186 47.1966 12.818 42.4028 12.7271 36.4531C12.6928 34.2217 12.6756 31.9612 12.6773 29.6715C12.679 27.6168 12.6962 25.5844 12.7271 23.576C12.818 17.6331 17.61 12.8325 23.5546 12.7416C25.6196 12.709 27.712 12.6936 29.8285 12.6919C32.0599 12.6901 34.2655 12.7073 36.4403 12.7416C42.3866 12.8325 47.182 17.6297 47.2729 23.576C47.3038 25.5844 47.321 27.6168 47.3227 29.6715C47.3244 31.9612 47.3072 34.2217 47.2729 36.4531Z" fill="#111928" fill-opacity="0.55"/>
<path d="M43.9921 23.7183C43.8944 19.5077 40.5001 16.1204 36.2895 16.0243C34.288 15.978 32.247 15.9523 30.1717 15.9506C27.9198 15.9489 25.709 15.9746 23.5411 16.0243C19.3202 16.1204 15.9328 19.5249 15.835 23.7458C15.7973 25.4112 15.7733 27.1006 15.7647 28.814C15.7527 31.4158 15.7767 33.9644 15.835 36.4548C15.9328 40.6774 19.3202 44.0802 23.5411 44.1763C25.709 44.226 27.9198 44.2517 30.1717 44.25C32.247 44.2483 34.288 44.2226 36.2895 44.1763C40.507 44.0802 43.8961 40.6791 43.9921 36.4634C44.0453 34.1342 44.071 31.7554 44.0641 29.3285C44.059 27.4281 44.0333 25.5587 43.9921 23.7183ZM30.0859 38.5901C25.3025 38.5901 21.4246 34.7122 21.4246 29.9288C21.4246 25.1453 25.3025 21.2674 30.0859 21.2674C34.8694 21.2674 38.7473 25.1453 38.7473 29.9288C38.7473 34.7122 34.8694 38.5901 30.0859 38.5901ZM39.0903 22.9826C37.9532 22.9826 37.0322 22.0615 37.0322 20.9244C37.0322 19.7873 37.9532 18.8663 39.0903 18.8663C40.2274 18.8663 41.1484 19.7873 41.1484 20.9244C41.1484 22.0615 40.2274 22.9826 39.0903 22.9826Z" fill="#111928" fill-opacity="0.55"/>
<path d="M30.0002 35.6744C33.1261 35.6744 35.6601 33.1404 35.6601 30.0145C35.6601 26.8887 33.1261 24.3546 30.0002 24.3546C26.8743 24.3546 24.3403 26.8887 24.3403 30.0145C24.3403 33.1404 26.8743 35.6744 30.0002 35.6744Z" fill="#111928" fill-opacity="0.55"/>
</g>
<defs>
<clipPath id="clip0_927_278">
<rect width="59" height="59" fill="white" transform="translate(0.5)"/>
</clipPath>
</defs>
</svg>
