<svg version="1.1" viewBox="0.0 0.0 1000 603.0" fill="none" stroke="none" stroke-linecap="square" stroke-miterlimit="10" width="1000" height="603" xmlns:xlink="http://www.w3.org/1999/xlink" xmlns="http://www.w3.org/2000/svg"><path fill="#ffffff" fill-opacity="0.0" d="M0 0L1226.0 0L1226.0 603.0L0 603.0L0 0Z" fill-rule="nonzero"/><path fill="#98064e" d="M659.99695 78.94217C666.1494 78.48089 672.31696 78.25 678.4867 78.25L678.4867 325.55Z" fill-rule="nonzero"/><path fill="#b7b7b7" d="M607.81537 88.562965C624.81384 83.49389 642.3084 80.268394 659.99695 78.94217L678.4867 325.55Z" fill-rule="nonzero"/><path fill="#cfe2f3" d="M547.8401 115.57678C566.53973 103.94173 586.7099 94.85677 607.81537 88.562965L678.4867 325.55Z" fill-rule="nonzero"/><path fill="#f4cccc" d="M454.13235 221.51909C474.38815 177.83517 506.9563 141.01491 547.8401 115.57678L678.4867 325.55Z" fill-rule="nonzero"/><path fill="#ffd966" d="M565.446 545.50244C447.43832 484.85452 398.31827 341.88837 454.13235 221.51909L678.4867 325.55Z" fill-rule="nonzero"/><path fill="#ed0965" d="M678.4867 78.25C780.9768 78.25 872.8464 141.46895 909.4641 237.19443C946.0819 332.91992 919.8588 441.3127 843.5343 509.71448C767.20984 578.1163 656.6023 592.35065 565.446 545.50244L678.4867 325.55Z" fill-rule="nonzero"/><path fill="#ed0965" d="M42.15 91.25C42.15 94.563705 39.463707 97.25 36.15 97.25C32.836292 97.25 30.15 94.563705 30.15 91.25C30.15 87.936295 32.836292 85.25 36.15 85.25C39.463707 85.25 42.15 87.936295 42.15 91.25Z" fill-rule="nonzero"/><path fill="#ed0965" d="M59.86875 86.703125Q59.7125 86.703125 59.540627 86.625Q58.446877 86.21875 56.65 86.21875Q56.071877 86.21875 55.290627 86.3125Q54.525 86.390625 53.55625 86.5625L53.540627 90.359375Q55.228127 89.921875 56.0875 89.921875Q57.43125 89.921875 58.884377 90.078125Q59.7125 90.15625 59.7125 90.96875Q59.7125 91.375 59.446877 91.640625Q59.196877 91.890625 58.821877 91.890625Q58.36875 91.890625 57.446877 91.8125Q56.540627 91.734375 56.0875 91.734375Q55.478127 91.734375 53.49375 92.234375L53.415627 98.28125Q53.415627 98.65625 53.165627 98.921875Q52.93125 99.1875 52.55625 99.1875Q52.165627 99.1875 51.915627 98.921875Q51.665627 98.65625 51.665627 98.28125Q51.665627 96.546875 51.728127 93.09375Q51.80625 89.625 51.80625 87.890625Q51.80625 87.5 51.790627 86.71875Q51.775 85.9375 51.775 85.5625Q51.775 85.171875 52.009377 84.90625Q52.259377 84.640625 52.65 84.640625Q52.93125 84.640625 53.165627 84.796875Q54.259377 84.609375 55.11875 84.515625Q55.99375 84.421875 56.65 84.421875Q57.665627 84.421875 58.9625 84.71875Q60.728127 85.125 60.728127 85.765625Q60.728127 86.125 60.509377 86.390625Q60.24375 86.703125 59.86875 86.703125ZM69.54063 93.109375Q69.54063 93.75 69.54063 95.015625Q69.55625 96.28125 69.55625 96.90625Q69.55625 97.109375 69.5875 97.5Q69.61875 97.890625 69.61875 98.09375Q69.61875 98.46875 69.36875 98.703125Q69.11875 98.953125 68.74375 98.953125Q68.07188 98.953125 67.88438 98.125Q66.79063 98.6875 65.35313 98.6875Q64.19688 98.6875 63.446877 98.171875Q62.603127 97.609375 62.446877 96.53125Q62.103127 94.203125 62.103127 92.390625Q62.103127 91.1875 62.36875 89.640625Q62.49375 88.875 63.2125 88.875Q63.5875 88.875 63.8375 89.125Q64.0875 89.359375 64.0875 89.734375Q64.0875 90.140625 63.9625 91.03125Q63.8375 91.921875 63.8375 92.390625Q63.8375 93.859375 63.93125 94.90625Q64.04063 95.953125 64.22813 96.578125Q64.50938 96.734375 64.79063 96.828125Q65.07188 96.90625 65.35313 96.90625Q66.525 96.90625 67.8375 96.53125L67.8375 94.75L67.80625 93.03125Q67.80625 91.140625 67.97813 89.734375Q68.07188 88.9375 68.8375 88.9375Q69.2125 88.9375 69.4625 89.1875Q69.7125 89.421875 69.69688 89.796875L69.54063 93.109375ZM78.2125 91.75Q78.15 92.859375 77.3375 92.859375Q76.57188 92.859375 76.57188 91.984375Q76.57188 91.8125 76.55625 91.375L76.525 90.625Q75.13438 90.796875 74.30625 91.40625Q73.50938 91.984375 72.99375 93.140625L73.00938 97.953125Q73.00938 98.84375 72.15 98.84375Q71.36875 98.84375 71.36875 97.953125L71.36875 91.78125Q71.36875 91.484375 71.38438 90.90625Q71.41563 90.328125 71.41563 90.046875Q71.41563 89.15625 72.19688 89.15625Q73.05625 89.15625 73.05625 90.609375Q74.74375 88.984375 76.80625 88.984375Q77.50938 88.984375 77.85313 89.53125Q78.2125 90.0625 78.2125 91.140625Q78.2125 91.59375 78.2125 91.75ZM87.11875 98.875Q86.35313 98.875 86.25938 98.046875L86.00938 96.125Q85.88438 95.09375 85.88438 94.203125Q85.88438 93.953125 85.91563 93.375Q85.94688 92.78125 85.94688 92.53125Q85.94688 90.625 85.24375 90.625Q84.25938 90.625 83.36875 91.796875Q82.55625 92.859375 82.10313 94.484375Q82.0875 94.828125 82.025 95.34375Q81.97813 95.78125 81.97813 96.203125Q81.97813 96.46875 82.025 97.0Q82.07188 97.515625 82.07188 97.78125Q82.07188 98.171875 81.82188 98.421875Q81.5875 98.671875 81.2125 98.671875Q80.82188 98.671875 80.5875 98.421875Q80.35313 98.171875 80.35313 97.78125Q80.35313 97.515625 80.29063 97.0Q80.24375 96.46875 80.24375 96.203125Q80.24375 95.296875 80.36875 93.703125Q80.49375 92.09375 80.49375 91.1875Q80.49375 90.90625 80.4625 90.359375Q80.43125 89.796875 80.43125 89.515625Q80.43125 89.140625 80.68125 88.90625Q80.93125 88.65625 81.30625 88.65625Q82.11875 88.65625 82.19688 89.796875L82.2125 90.828125Q83.69688 88.859375 85.24375 88.859375Q86.65 88.859375 87.2125 90.09375Q87.5875 90.921875 87.61875 92.53125L87.61875 93.421875L87.61875 94.234375Q87.61875 94.96875 87.80625 96.125Q87.99375 97.28125 87.99375 98.0Q87.99375 98.390625 87.74375 98.625Q87.49375 98.875 87.11875 98.875ZM91.05625 87.125Q90.63438 87.125 90.32188 86.828125Q90.00938 86.53125 90.00938 86.109375Q90.00938 85.6875 90.32188 85.390625Q90.63438 85.078125 91.05625 85.078125Q91.47813 85.078125 91.775 85.390625Q92.07188 85.6875 92.07188 86.109375Q92.07188 86.53125 91.775 86.828125Q91.47813 87.125 91.05625 87.125ZM91.44688 94.265625Q91.44688 94.78125 91.47813 95.84375Q91.50938 96.890625 91.50938 97.421875Q91.50938 97.796875 91.275 98.046875Q91.04063 98.296875 90.65 98.296875Q90.275 98.296875 90.025 98.046875Q89.79063 97.796875 89.79063 97.421875Q89.79063 96.890625 89.75938 95.84375Q89.72813 94.78125 89.72813 94.265625Q89.72813 93.4375 89.80625 92.203125Q89.9 90.96875 89.9 90.140625Q89.9 89.734375 90.13438 89.5Q90.38438 89.25 90.75938 89.25Q91.13438 89.25 91.36875 89.5Q91.61875 89.734375 91.61875 90.140625Q91.61875 90.96875 91.525 92.203125Q91.44688 93.4375 91.44688 94.265625ZM99.25938 90.765625Q99.07188 90.765625 98.82188 90.75Q98.57188 90.71875 98.38438 90.71875Q98.18125 90.71875 97.18125 90.859375L97.35313 96.046875L97.36875 96.4375L97.36875 96.890625Q97.4 98.8125 96.44688 98.8125Q96.10313 98.8125 95.8375 98.578125Q95.57188 98.359375 95.57188 98.015625Q95.57188 97.671875 95.60313 97.015625Q95.63438 96.34375 95.63438 96.015625L95.4625 90.875Q94.80625 90.84375 93.50938 90.71875Q92.72813 90.625 92.72813 89.859375Q92.72813 89.46875 92.9625 89.21875Q93.19688 88.953125 93.57188 88.953125L95.41563 89.109375Q95.41563 88.65625 95.36875 87.90625Q95.3375 87.15625 95.3375 86.828125Q95.3375 86.453125 95.5875 86.21875Q95.8375 85.96875 96.2125 85.96875Q97.00938 85.96875 97.13438 87.265625Q97.16563 87.59375 97.16563 88.046875L97.15 88.5625L97.13438 89.09375Q98.22813 88.953125 98.38438 88.953125Q99.29063 88.953125 99.57188 89.046875Q100.11875 89.21875 100.11875 89.875Q100.11875 90.265625 99.86875 90.515625Q99.63438 90.765625 99.25938 90.765625ZM108.54063 93.109375Q108.54063 93.75 108.54063 95.015625Q108.55625 96.28125 108.55625 96.90625Q108.55625 97.109375 108.5875 97.5Q108.61875 97.890625 108.61875 98.09375Q108.61875 98.46875 108.36875 98.703125Q108.11875 98.953125 107.74375 98.953125Q107.07188 98.953125 106.88438 98.125Q105.79063 98.6875 104.35313 98.6875Q103.19688 98.6875 102.44688 98.171875Q101.60313 97.609375 101.44688 96.53125Q101.10313 94.203125 101.10313 92.390625Q101.10313 91.1875 101.36875 89.640625Q101.49375 88.875 102.2125 88.875Q102.5875 88.875 102.8375 89.125Q103.0875 89.359375 103.0875 89.734375Q103.0875 90.140625 102.9625 91.03125Q102.8375 91.921875 102.8375 92.390625Q102.8375 93.859375 102.93125 94.90625Q103.04063 95.953125 103.22813 96.578125Q103.50938 96.734375 103.79063 96.828125Q104.07188 96.90625 104.35313 96.90625Q105.525 96.90625 106.8375 96.53125L106.8375 94.75L106.80625 93.03125Q106.80625 91.140625 106.97813 89.734375Q107.07188 88.9375 107.8375 88.9375Q108.2125 88.9375 108.4625 89.1875Q108.7125 89.421875 108.69688 89.796875L108.54063 93.109375ZM117.2125 91.75Q117.15 92.859375 116.3375 92.859375Q115.57188 92.859375 115.57188 91.984375Q115.57188 91.8125 115.55625 91.375L115.525 90.625Q114.13438 90.796875 113.30625 91.40625Q112.50938 91.984375 111.99375 93.140625L112.00938 97.953125Q112.00938 98.84375 111.15 98.84375Q110.36875 98.84375 110.36875 97.953125L110.36875 91.78125Q110.36875 91.484375 110.38438 90.90625Q110.41563 90.328125 110.41563 90.046875Q110.41563 89.15625 111.19688 89.15625Q112.05625 89.15625 112.05625 90.609375Q113.74375 88.984375 115.80625 88.984375Q116.50938 88.984375 116.85313 89.53125Q117.2125 90.0625 117.2125 91.140625Q117.2125 91.59375 117.2125 91.75ZM123.47813 98.65625Q121.49375 98.65625 120.25938 97.65625Q118.91563 96.5625 118.91563 94.578125Q118.91563 92.296875 120.025 90.75Q121.22813 89.0625 123.24375 89.0625Q124.69688 89.0625 125.61875 89.5625Q126.75938 90.15625 126.75938 91.421875Q126.75938 92.296875 125.75938 93.015625Q125.32188 93.34375 123.9 94.0L120.54063 95.59375Q121.04063 96.328125 121.75938 96.703125Q122.49375 97.0625 123.47813 97.0625Q124.0875 97.0625 124.9 96.828125Q125.93125 96.546875 126.22813 96.078125Q126.54063 95.609375 126.88438 95.609375Q127.18125 95.609375 127.41563 95.84375Q127.66563 96.0625 127.66563 96.375Q127.66563 97.359375 126.10313 98.0625Q124.74375 98.65625 123.47813 98.65625ZM123.24375 90.640625Q122.16563 90.640625 121.44688 91.484375Q120.74375 92.3125 120.38438 93.984375L123.0875 92.6875Q124.68125 91.921875 125.35313 91.34375Q124.60313 90.640625 123.24375 90.640625Z" fill-rule="nonzero"/><path fill="#ffd966" d="M42.15 127.25C42.15 130.5637 39.463707 133.25 36.15 133.25C32.836292 133.25 30.15 130.5637 30.15 127.25C30.15 123.936295 32.836292 121.25 36.15 121.25C39.463707 121.25 42.15 123.936295 42.15 127.25Z" fill-rule="nonzero"/><path fill="#ed0965" d="M57.196877 134.78125Q54.728127 134.78125 52.99375 133.29688Q51.165627 131.71875 51.165627 129.21875Q51.165627 126.1875 52.978127 123.6875Q54.978127 120.9375 57.99375 120.9375Q60.884377 120.9375 62.290627 122.234375Q63.759377 123.59375 63.759377 126.5Q63.759377 129.54688 62.103127 131.98438Q60.2125 134.78125 57.196877 134.78125ZM57.99375 122.734375Q55.8375 122.734375 54.3375 124.875Q52.9625 126.84375 52.9625 129.21875Q52.9625 130.92188 54.2125 131.98438Q55.43125 132.98438 57.196877 132.98438Q59.3375 132.98438 60.728127 130.82812Q61.9625 128.90625 61.9625 126.5Q61.9625 124.40625 61.025 123.546875Q60.11875 122.734375 57.99375 122.734375ZM71.275 121.890625Q69.15 121.890625 68.9 124.84375L68.86875 125.390625Q70.36875 125.28125 70.80625 125.28125Q72.19688 125.28125 72.19688 126.15625Q72.19688 126.8125 71.50938 126.921875Q71.2125 126.984375 70.80625 126.96875Q70.41563 126.953125 68.79063 127.09375L68.72813 129.09375Q68.72813 129.64062 68.75938 130.73438Q68.79063 131.8125 68.79063 132.34375Q68.79063 134.01562 68.60313 134.95312Q68.44688 135.65625 67.775 135.65625Q67.41563 135.65625 67.16563 135.42188Q66.91563 135.1875 66.91563 134.84375Q66.91563 134.76562 66.93125 134.65625Q67.11875 133.51562 67.11875 132.17188L67.0875 129.78125L67.0875 127.234375Q65.99375 127.3125 65.69688 127.3125Q64.80625 127.3125 64.80625 126.46875Q64.80625 125.59375 66.35313 125.546875L67.19688 125.515625Q67.2125 125.03125 67.32188 124.1875Q67.55625 122.234375 68.30625 121.3125Q69.22813 120.203125 71.16563 120.203125Q72.41563 120.203125 72.41563 121.046875Q72.41563 121.890625 71.275 121.890625ZM80.275 121.890625Q78.15 121.890625 77.9 124.84375L77.86875 125.390625Q79.36875 125.28125 79.80625 125.28125Q81.19688 125.28125 81.19688 126.15625Q81.19688 126.8125 80.50938 126.921875Q80.2125 126.984375 79.80625 126.96875Q79.41563 126.953125 77.79063 127.09375L77.72813 129.09375Q77.72813 129.64062 77.75938 130.73438Q77.79063 131.8125 77.79063 132.34375Q77.79063 134.01562 77.60313 134.95312Q77.44688 135.65625 76.775 135.65625Q76.41563 135.65625 76.16563 135.42188Q75.91563 135.1875 75.91563 134.84375Q75.91563 134.76562 75.93125 134.65625Q76.11875 133.51562 76.11875 132.17188L76.0875 129.78125L76.0875 127.234375Q74.99375 127.3125 74.69688 127.3125Q73.80625 127.3125 73.80625 126.46875Q73.80625 125.59375 75.35313 125.546875L76.19688 125.515625Q76.2125 125.03125 76.32188 124.1875Q76.55625 122.234375 77.30625 121.3125Q78.22813 120.203125 80.16563 120.203125Q81.41563 120.203125 81.41563 121.046875Q81.41563 121.890625 80.275 121.890625ZM85.05625 123.125Q84.63438 123.125 84.32188 122.828125Q84.00938 122.53125 84.00938 122.109375Q84.00938 121.6875 84.32188 121.390625Q84.63438 121.078125 85.05625 121.078125Q85.47813 121.078125 85.775 121.390625Q86.07188 121.6875 86.07188 122.109375Q86.07188 122.53125 85.775 122.828125Q85.47813 123.125 85.05625 123.125ZM85.44688 130.26562Q85.44688 130.78125 85.47813 131.84375Q85.50938 132.89062 85.50938 133.42188Q85.50938 133.79688 85.275 134.04688Q85.04063 134.29688 84.65 134.29688Q84.275 134.29688 84.025 134.04688Q83.79063 133.79688 83.79063 133.42188Q83.79063 132.89062 83.75938 131.84375Q83.72813 130.78125 83.72813 130.26562Q83.72813 129.4375 83.80625 128.20312Q83.9 126.96875 83.9 126.140625Q83.9 125.734375 84.13438 125.5Q84.38438 125.25 84.75938 125.25Q85.13438 125.25 85.36875 125.5Q85.61875 125.734375 85.61875 126.140625Q85.61875 126.96875 85.525 128.20312Q85.44688 129.4375 85.44688 130.26562ZM91.3375 134.79688Q89.54063 134.79688 88.3375 133.71875Q87.07188 132.57812 87.07188 130.70312Q87.07188 128.92188 88.25938 127.015625Q89.57188 124.90625 91.22813 124.90625Q92.0875 124.90625 93.15 125.3125Q94.49375 125.828125 94.49375 126.578125Q94.49375 126.90625 94.275 127.171875Q94.05625 127.421875 93.72813 127.421875Q93.47813 127.421875 93.29063 127.28125Q93.10313 127.125 92.93125 126.96875Q92.41563 126.5625 91.22813 126.5625Q90.3375 126.5625 89.4625 128.15625Q88.65 129.625 88.65 130.70312Q88.65 131.85938 89.44688 132.53125Q90.18125 133.15625 91.3375 133.15625Q91.86875 133.15625 92.4625 132.875L93.49375 132.32812Q93.75938 132.1875 93.86875 132.1875Q94.19688 132.1875 94.43125 132.45312Q94.66563 132.70312 94.66563 133.03125Q94.66563 133.67188 93.30625 134.28125Q92.13438 134.79688 91.3375 134.79688ZM100.47813 134.65625Q98.49375 134.65625 97.25938 133.65625Q95.91563 132.5625 95.91563 130.57812Q95.91563 128.29688 97.025 126.75Q98.22813 125.0625 100.24375 125.0625Q101.69688 125.0625 102.61875 125.5625Q103.75938 126.15625 103.75938 127.421875Q103.75938 128.29688 102.75938 129.01562Q102.32188 129.34375 100.9 130.0L97.54063 131.59375Q98.04063 132.32812 98.75938 132.70312Q99.49375 133.0625 100.47813 133.0625Q101.0875 133.0625 101.9 132.82812Q102.93125 132.54688 103.22813 132.07812Q103.54063 131.60938 103.88438 131.60938Q104.18125 131.60938 104.41563 131.84375Q104.66563 132.0625 104.66563 132.375Q104.66563 133.35938 103.10313 134.0625Q101.74375 134.65625 100.47813 134.65625ZM100.24375 126.640625Q99.16563 126.640625 98.44688 127.484375Q97.74375 128.3125 97.38438 129.98438L100.0875 128.6875Q101.68125 127.921875 102.35313 127.34375Q101.60313 126.640625 100.24375 126.640625Z" fill-rule="nonzero"/><path fill="#f4cccc" d="M42.15 163.25C42.15 166.5637 39.463707 169.25 36.15 169.25C32.836292 169.25 30.15 166.5637 30.15 163.25C30.15 159.9363 32.836292 157.25 36.15 157.25C39.463707 157.25 42.15 159.9363 42.15 163.25Z" fill-rule="nonzero"/><path fill="#ed0965" d="M60.290627 170.60938Q58.946877 170.60938 56.478127 168.26562L53.853127 165.625L53.853127 165.73438L53.8375 170.34375Q53.8375 171.21875 53.071877 171.21875Q52.571877 171.21875 52.275 170.78125Q52.025 170.42188 52.025 170.0Q52.025 167.9375 52.15 163.84375Q52.275 159.75 52.275 157.70312Q52.275 157.32812 52.525 157.0625Q52.775 156.79688 53.15 156.79688Q53.525 156.79688 53.775 157.0625Q54.025 157.32812 54.025 157.70312Q54.025 158.54688 53.915627 160.35938Q53.821877 162.09375 53.821877 163.01562Q55.009377 161.90625 56.49375 160.21875L59.009377 157.28125Q59.30625 156.9375 59.68125 156.9375Q60.025 156.9375 60.290627 157.20312Q60.571877 157.46875 60.571877 157.84375Q60.571877 158.42188 58.30625 160.9375Q56.74375 162.65625 55.071877 164.29688Q56.134377 165.40625 58.384377 167.48438L59.30625 168.25Q59.80625 168.64062 60.384377 168.82812Q61.071877 169.0625 61.071877 169.70312Q61.071877 170.0 60.884377 170.28125Q60.665627 170.60938 60.290627 170.60938ZM64.05625 159.125Q63.634377 159.125 63.321877 158.82812Q63.009377 158.53125 63.009377 158.10938Q63.009377 157.6875 63.321877 157.39062Q63.634377 157.07812 64.05625 157.07812Q64.47813 157.07812 64.775 157.39062Q65.07188 157.6875 65.07188 158.10938Q65.07188 158.53125 64.775 158.82812Q64.47813 159.125 64.05625 159.125ZM64.44688 166.26562Q64.44688 166.78125 64.47813 167.84375Q64.50938 168.89062 64.50938 169.42188Q64.50938 169.79688 64.275 170.04688Q64.04063 170.29688 63.65 170.29688Q63.275 170.29688 63.025 170.04688Q62.790627 169.79688 62.790627 169.42188Q62.790627 168.89062 62.759377 167.84375Q62.728127 166.78125 62.728127 166.26562Q62.728127 165.4375 62.80625 164.20312Q62.9 162.96875 62.9 162.14062Q62.9 161.73438 63.134377 161.5Q63.384377 161.25 63.759377 161.25Q64.13438 161.25 64.36875 161.5Q64.61875 161.73438 64.61875 162.14062Q64.61875 162.96875 64.525 164.20312Q64.44688 165.4375 64.44688 166.26562ZM72.25938 162.76562Q72.07188 162.76562 71.82188 162.75Q71.57188 162.71875 71.38438 162.71875Q71.18125 162.71875 70.18125 162.85938L70.35313 168.04688L70.36875 168.4375L70.36875 168.89062Q70.4 170.8125 69.44688 170.8125Q69.10313 170.8125 68.8375 170.57812Q68.57188 170.35938 68.57188 170.01562Q68.57188 169.67188 68.60313 169.01562Q68.63438 168.34375 68.63438 168.01562L68.4625 162.875Q67.80625 162.84375 66.50938 162.71875Q65.72813 162.625 65.72813 161.85938Q65.72813 161.46875 65.9625 161.21875Q66.19688 160.95312 66.57188 160.95312L68.41563 161.10938Q68.41563 160.65625 68.36875 159.90625Q68.3375 159.15625 68.3375 158.82812Q68.3375 158.45312 68.5875 158.21875Q68.8375 157.96875 69.2125 157.96875Q70.00938 157.96875 70.13438 159.26562Q70.16563 159.59375 70.16563 160.04688L70.15 160.5625L70.13438 161.09375Q71.22813 160.95312 71.38438 160.95312Q72.29063 160.95312 72.57188 161.04688Q73.11875 161.21875 73.11875 161.875Q73.11875 162.26562 72.86875 162.51562Q72.63438 162.76562 72.25938 162.76562ZM78.3375 170.79688Q76.54063 170.79688 75.3375 169.71875Q74.07188 168.57812 74.07188 166.70312Q74.07188 164.92188 75.25938 163.01562Q76.57188 160.90625 78.22813 160.90625Q79.0875 160.90625 80.15 161.3125Q81.49375 161.82812 81.49375 162.57812Q81.49375 162.90625 81.275 163.17188Q81.05625 163.42188 80.72813 163.42188Q80.47813 163.42188 80.29063 163.28125Q80.10313 163.125 79.93125 162.96875Q79.41563 162.5625 78.22813 162.5625Q77.3375 162.5625 76.4625 164.15625Q75.65 165.625 75.65 166.70312Q75.65 167.85938 76.44688 168.53125Q77.18125 169.15625 78.3375 169.15625Q78.86875 169.15625 79.4625 168.875L80.49375 168.32812Q80.75938 168.1875 80.86875 168.1875Q81.19688 168.1875 81.43125 168.45312Q81.66563 168.70312 81.66563 169.03125Q81.66563 169.67188 80.30625 170.28125Q79.13438 170.79688 78.3375 170.79688ZM90.72813 170.79688Q90.10313 170.79688 89.91563 170.125Q89.7125 169.40625 89.54063 168.07812Q89.38438 166.79688 89.38438 165.98438Q89.38438 165.76562 89.4 165.29688Q89.43125 164.82812 89.43125 164.59375Q89.43125 162.95312 88.60313 162.95312Q87.47813 162.95312 86.60313 163.95312Q86.16563 164.46875 85.36875 165.9375Q85.36875 169.28125 85.0875 169.89062Q84.85313 170.4375 84.3375 170.4375Q83.9625 170.4375 83.69688 170.20312Q83.43125 169.95312 83.43125 169.59375Q83.43125 169.46875 83.50938 169.21875Q83.57188 169.0 83.60313 167.92188L83.63438 166.625L83.65 160.17188Q83.7125 159.07812 83.7125 158.70312Q83.7125 158.25 83.61875 157.85938Q83.54063 157.45312 83.54063 157.01562Q83.54063 156.65625 83.79063 156.42188Q84.05625 156.17188 84.43125 156.17188Q85.15 156.17188 85.275 156.9375Q85.41563 157.79688 85.41563 158.48438Q85.41563 159.40625 85.35313 160.40625Q85.29063 161.35938 85.30625 162.32812L85.32188 163.10938Q86.04063 162.14062 86.85313 161.65625Q87.68125 161.17188 88.60313 161.17188Q90.05625 161.17188 90.60313 162.125Q90.99375 162.79688 91.04063 164.375L91.11875 166.0625L91.29063 167.89062Q91.41563 168.90625 91.5875 169.70312Q91.61875 169.84375 91.61875 169.95312Q91.61875 170.3125 91.35313 170.54688Q91.10313 170.79688 90.72813 170.79688ZM96.47813 170.65625Q94.49375 170.65625 93.25938 169.65625Q91.91563 168.5625 91.91563 166.57812Q91.91563 164.29688 93.025 162.75Q94.22813 161.0625 96.24375 161.0625Q97.69688 161.0625 98.61875 161.5625Q99.75938 162.15625 99.75938 163.42188Q99.75938 164.29688 98.75938 165.01562Q98.32188 165.34375 96.9 166.0L93.54063 167.59375Q94.04063 168.32812 94.75938 168.70312Q95.49375 169.0625 96.47813 169.0625Q97.0875 169.0625 97.9 168.82812Q98.93125 168.54688 99.22813 168.07812Q99.54063 167.60938 99.88438 167.60938Q100.18125 167.60938 100.41563 167.84375Q100.66563 168.0625 100.66563 168.375Q100.66563 169.35938 99.10313 170.0625Q97.74375 170.65625 96.47813 170.65625ZM96.24375 162.64062Q95.16563 162.64062 94.44688 163.48438Q93.74375 164.3125 93.38438 165.98438L96.0875 164.6875Q97.68125 163.92188 98.35313 163.34375Q97.60313 162.64062 96.24375 162.64062ZM109.11875 170.875Q108.35313 170.875 108.25938 170.04688L108.00938 168.125Q107.88438 167.09375 107.88438 166.20312Q107.88438 165.95312 107.91563 165.375Q107.94688 164.78125 107.94688 164.53125Q107.94688 162.625 107.24375 162.625Q106.25938 162.625 105.36875 163.79688Q104.55625 164.85938 104.10313 166.48438Q104.0875 166.82812 104.025 167.34375Q103.97813 167.78125 103.97813 168.20312Q103.97813 168.46875 104.025 169.0Q104.07188 169.51562 104.07188 169.78125Q104.07188 170.17188 103.82188 170.42188Q103.5875 170.67188 103.2125 170.67188Q102.82188 170.67188 102.5875 170.42188Q102.35313 170.17188 102.35313 169.78125Q102.35313 169.51562 102.29063 169.0Q102.24375 168.46875 102.24375 168.20312Q102.24375 167.29688 102.36875 165.70312Q102.49375 164.09375 102.49375 163.1875Q102.49375 162.90625 102.4625 162.35938Q102.43125 161.79688 102.43125 161.51562Q102.43125 161.14062 102.68125 160.90625Q102.93125 160.65625 103.30625 160.65625Q104.11875 160.65625 104.19688 161.79688L104.2125 162.82812Q105.69688 160.85938 107.24375 160.85938Q108.65 160.85938 109.2125 162.09375Q109.5875 162.92188 109.61875 164.53125L109.61875 165.42188L109.61875 166.23438Q109.61875 166.96875 109.80625 168.125Q109.99375 169.28125 109.99375 170.0Q109.99375 170.39062 109.74375 170.625Q109.49375 170.875 109.11875 170.875Z" fill-rule="nonzero"/><path fill="#cfe2f3" d="M42.15 199.25C42.15 202.5637 39.463707 205.25 36.15 205.25C32.836292 205.25 30.15 202.5637 30.15 199.25C30.15 195.9363 32.836292 193.25 36.15 193.25C39.463707 193.25 42.15 195.9363 42.15 199.25Z" fill-rule="nonzero"/><path fill="#ed0965" d="M57.93125 205.89062Q55.9625 206.67188 52.884377 206.67188Q52.509377 206.67188 52.165627 206.3125Q51.821877 205.95312 51.821877 205.57812L51.821877 203.03125Q51.821877 201.76562 51.99375 199.4375Q52.165627 196.92188 52.18125 195.79688Q52.165627 194.98438 52.275 193.39062Q52.3375 192.95312 52.571877 192.8125Q53.759377 192.4375 55.290627 192.4375Q56.8375 192.4375 58.259377 193.5Q59.9 194.70312 59.9 196.5Q59.9 198.75 58.134377 200.04688Q59.4625 200.60938 60.11875 201.29688Q60.775 201.98438 60.775 202.79688Q60.775 203.85938 59.61875 204.85938Q58.821877 205.5625 57.93125 205.89062ZM55.290627 194.23438Q54.321877 194.23438 53.93125 194.29688L53.915627 195.82812L53.74375 199.23438Q54.99375 199.34375 55.0875 199.32812Q56.415627 199.23438 57.259377 198.5Q58.15 197.71875 58.15 196.5Q58.15 195.65625 57.228127 194.95312Q56.30625 194.23438 55.290627 194.23438ZM56.275 201.28125L55.3375 201.125Q55.228127 201.125 54.99375 201.14062Q54.759377 201.15625 54.634377 201.15625Q54.165627 201.15625 53.61875 201.07812Q53.571877 202.1875 53.571877 203.04688L53.571877 204.875Q55.86875 204.79688 57.321877 204.21875Q57.93125 203.98438 58.49375 203.48438Q59.040627 203.03125 59.040627 202.79688Q59.040627 202.375 57.915627 201.85938Q57.071877 201.46875 56.275 201.28125ZM66.47813 206.65625Q64.49375 206.65625 63.259377 205.65625Q61.915627 204.5625 61.915627 202.57812Q61.915627 200.29688 63.025 198.75Q64.22813 197.0625 66.24375 197.0625Q67.69688 197.0625 68.61875 197.5625Q69.75938 198.15625 69.75938 199.42188Q69.75938 200.29688 68.75938 201.01562Q68.32188 201.34375 66.9 202.0L63.540627 203.59375Q64.04063 204.32812 64.75938 204.70312Q65.49375 205.0625 66.47813 205.0625Q67.0875 205.0625 67.9 204.82812Q68.93125 204.54688 69.22813 204.07812Q69.54063 203.60938 69.88438 203.60938Q70.18125 203.60938 70.41563 203.84375Q70.66563 204.0625 70.66563 204.375Q70.66563 205.35938 69.10313 206.0625Q67.74375 206.65625 66.47813 206.65625ZM66.24375 198.64062Q65.16563 198.64062 64.44688 199.48438Q63.74375 200.3125 63.384377 201.98438L66.0875 200.6875Q67.68125 199.92188 68.35313 199.34375Q67.60313 198.64062 66.24375 198.64062ZM80.4625 198.48438Q80.36875 199.78125 80.36875 201.07812Q80.36875 204.0 80.63438 205.5Q80.65 205.60938 80.65 205.70312Q80.65 206.04688 80.4 206.26562Q80.16563 206.5 79.8375 206.5Q79.29063 206.5 79.04063 205.71875Q78.4 206.17188 77.7125 206.40625Q77.04063 206.65625 76.30625 206.65625Q74.47813 206.65625 73.29063 205.4375Q72.05625 204.20312 72.05625 202.26562Q72.05625 199.90625 73.29063 198.5Q74.54063 197.07812 76.525 197.07812Q77.55625 197.07812 78.10313 197.40625L78.93125 198.0Q79.05625 194.3125 79.2125 193.01562Q79.3375 192.23438 80.025 192.23438Q80.82188 192.23438 80.82188 193.09375Q80.82188 194.3125 80.4625 198.48438ZM76.57188 198.71875Q75.0875 198.71875 74.35313 199.59375Q73.61875 200.46875 73.61875 202.21875Q73.61875 203.35938 74.41563 204.1875Q75.2125 205.0 76.30625 205.0Q77.04063 205.0 77.55625 204.71875Q77.85313 204.5625 78.525 203.98438Q78.65 203.875 78.775 203.71875L78.75938 202.20312L78.75938 201.17188L78.775 200.14062Q78.44688 199.42188 77.88438 199.07812Q77.3375 198.71875 76.57188 198.71875ZM91.4625 198.48438Q91.36875 199.78125 91.36875 201.07812Q91.36875 204.0 91.63438 205.5Q91.65 205.60938 91.65 205.70312Q91.65 206.04688 91.4 206.26562Q91.16563 206.5 90.8375 206.5Q90.29063 206.5 90.04063 205.71875Q89.4 206.17188 88.7125 206.40625Q88.04063 206.65625 87.30625 206.65625Q85.47813 206.65625 84.29063 205.4375Q83.05625 204.20312 83.05625 202.26562Q83.05625 199.90625 84.29063 198.5Q85.54063 197.07812 87.525 197.07812Q88.55625 197.07812 89.10313 197.40625L89.93125 198.0Q90.05625 194.3125 90.2125 193.01562Q90.3375 192.23438 91.025 192.23438Q91.82188 192.23438 91.82188 193.09375Q91.82188 194.3125 91.4625 198.48438ZM87.57188 198.71875Q86.0875 198.71875 85.35313 199.59375Q84.61875 200.46875 84.61875 202.21875Q84.61875 203.35938 85.41563 204.1875Q86.2125 205.0 87.30625 205.0Q88.04063 205.0 88.55625 204.71875Q88.85313 204.5625 89.525 203.98438Q89.65 203.875 89.775 203.71875L89.75938 202.20312L89.75938 201.17188L89.775 200.14062Q89.44688 199.42188 88.88438 199.07812Q88.3375 198.71875 87.57188 198.71875ZM96.05625 195.125Q95.63438 195.125 95.32188 194.82812Q95.00938 194.53125 95.00938 194.10938Q95.00938 193.6875 95.32188 193.39062Q95.63438 193.07812 96.05625 193.07812Q96.47813 193.07812 96.775 193.39062Q97.07188 193.6875 97.07188 194.10938Q97.07188 194.53125 96.775 194.82812Q96.47813 195.125 96.05625 195.125ZM96.44688 202.26562Q96.44688 202.78125 96.47813 203.84375Q96.50938 204.89062 96.50938 205.42188Q96.50938 205.79688 96.275 206.04688Q96.04063 206.29688 95.65 206.29688Q95.275 206.29688 95.025 206.04688Q94.79063 205.79688 94.79063 205.42188Q94.79063 204.89062 94.75938 203.84375Q94.72813 202.78125 94.72813 202.26562Q94.72813 201.4375 94.80625 200.20312Q94.9 198.96875 94.9 198.14062Q94.9 197.73438 95.13438 197.5Q95.38438 197.25 95.75938 197.25Q96.13438 197.25 96.36875 197.5Q96.61875 197.73438 96.61875 198.14062Q96.61875 198.96875 96.525 200.20312Q96.44688 201.4375 96.44688 202.26562ZM105.11875 206.875Q104.35313 206.875 104.25938 206.04688L104.00938 204.125Q103.88438 203.09375 103.88438 202.20312Q103.88438 201.95312 103.91563 201.375Q103.94688 200.78125 103.94688 200.53125Q103.94688 198.625 103.24375 198.625Q102.25938 198.625 101.36875 199.79688Q100.55625 200.85938 100.10313 202.48438Q100.0875 202.82812 100.025 203.34375Q99.97813 203.78125 99.97813 204.20312Q99.97813 204.46875 100.025 205.0Q100.07188 205.51562 100.07188 205.78125Q100.07188 206.17188 99.82188 206.42188Q99.5875 206.67188 99.2125 206.67188Q98.82188 206.67188 98.5875 206.42188Q98.35313 206.17188 98.35313 205.78125Q98.35313 205.51562 98.29063 205.0Q98.24375 204.46875 98.24375 204.20312Q98.24375 203.29688 98.36875 201.70312Q98.49375 200.09375 98.49375 199.1875Q98.49375 198.90625 98.4625 198.35938Q98.43125 197.79688 98.43125 197.51562Q98.43125 197.14062 98.68125 196.90625Q98.93125 196.65625 99.30625 196.65625Q100.11875 196.65625 100.19688 197.79688L100.2125 198.82812Q101.69688 196.85938 103.24375 196.85938Q104.65 196.85938 105.2125 198.09375Q105.5875 198.92188 105.61875 200.53125L105.61875 201.42188L105.61875 202.23438Q105.61875 202.96875 105.80625 204.125Q105.99375 205.28125 105.99375 206.0Q105.99375 206.39062 105.74375 206.625Q105.49375 206.875 105.11875 206.875ZM114.60313 202.46875L114.4 205.42188Q114.35313 207.17188 114.04063 208.29688Q113.65 209.71875 112.775 210.39062Q111.72813 211.20312 109.72813 211.20312Q108.55625 211.20312 107.775 211.04688Q106.66563 210.82812 106.66563 210.14062Q106.66563 209.35938 107.43125 209.35938Q107.74375 209.35938 108.47813 209.5Q109.2125 209.65625 110.11875 209.64062Q111.80625 209.60938 112.44688 208.01562Q112.86875 206.9375 112.88438 204.71875Q112.41563 205.59375 111.75938 206.03125Q111.10313 206.46875 110.25938 206.46875Q108.66563 206.46875 107.66563 205.39062Q106.68125 204.29688 106.68125 202.5625Q106.68125 200.1875 108.04063 198.75Q109.44688 197.25 111.86875 197.25Q112.69688 197.25 113.24375 197.46875Q113.79063 197.67188 114.0875 198.09375Q115.025 198.125 115.025 199.14062Q115.025 199.76562 114.8375 200.8125Q114.63438 202.01562 114.60313 202.46875ZM111.79063 198.65625Q110.11875 198.65625 109.19688 199.8125Q108.38438 200.84375 108.38438 202.4375Q108.38438 203.71875 108.86875 204.35938Q109.35313 205.0 110.32188 205.0Q111.19688 205.0 112.04063 204.0Q112.79063 203.07812 112.9 202.17188Q113.0875 201.21875 113.29063 199.1875Q112.94688 198.92188 112.55625 198.79688Q112.18125 198.65625 111.79063 198.65625ZM123.30625 199.48438Q122.82188 199.48438 122.63438 199.15625Q122.49375 198.92188 122.4 198.20312Q121.74375 198.375 120.36875 198.82812Q118.94688 199.39062 118.94688 200.21875Q119.2125 200.3125 119.4625 200.35938Q121.47813 200.71875 122.4625 201.34375Q123.9 202.26562 123.9 204.01562Q123.9 205.45312 122.66563 206.17188Q121.63438 206.78125 120.05625 206.78125Q118.91563 206.78125 117.86875 206.39062Q116.50938 205.89062 116.50938 205.01562Q116.50938 204.67188 116.79063 204.40625Q117.07188 204.14062 117.41563 204.14062Q117.68125 204.14062 118.11875 204.5625Q118.3375 204.76562 119.07188 204.89062Q119.65 205.0 120.05625 205.0Q120.80625 205.0 121.36875 204.82812Q122.18125 204.57812 122.18125 204.01562Q122.18125 202.82812 120.50938 202.40625L119.60313 202.20312Q118.43125 201.9375 117.93125 201.59375Q117.22813 201.10938 117.22813 200.10938Q117.22813 198.28125 118.94688 197.5Q119.47813 197.26562 120.63438 196.9375Q121.80625 196.59375 122.30625 196.375Q122.66563 196.21875 123.0875 196.21875Q123.4625 196.21875 123.69688 196.46875Q123.94688 196.70312 123.94688 197.09375Q123.94688 197.35938 124.05625 197.85938Q124.16563 198.34375 124.16563 198.59375Q124.16563 198.98438 123.91563 199.23438Q123.68125 199.48438 123.30625 199.48438Z" fill-rule="nonzero"/><path fill="#b7b7b7" d="M42.15 235.25C42.15 238.5637 39.463707 241.25 36.15 241.25C32.836292 241.25 30.15 238.5637 30.15 235.25C30.15 231.9363 32.836292 229.25 36.15 229.25C39.463707 229.25 42.15 231.9363 42.15 235.25Z" fill-rule="nonzero"/><path fill="#ed0965" d="M57.93125 241.89062Q55.9625 242.67188 52.884377 242.67188Q52.509377 242.67188 52.165627 242.3125Q51.821877 241.95312 51.821877 241.57812L51.821877 239.03125Q51.821877 237.76562 51.99375 235.4375Q52.165627 232.92188 52.18125 231.79688Q52.165627 230.98438 52.275 229.39062Q52.3375 228.95312 52.571877 228.8125Q53.759377 228.4375 55.290627 228.4375Q56.8375 228.4375 58.259377 229.5Q59.9 230.70312 59.9 232.5Q59.9 234.75 58.134377 236.04688Q59.4625 236.60938 60.11875 237.29688Q60.775 237.98438 60.775 238.79688Q60.775 239.85938 59.61875 240.85938Q58.821877 241.5625 57.93125 241.89062ZM55.290627 230.23438Q54.321877 230.23438 53.93125 230.29688L53.915627 231.82812L53.74375 235.23438Q54.99375 235.34375 55.0875 235.32812Q56.415627 235.23438 57.259377 234.5Q58.15 233.71875 58.15 232.5Q58.15 231.65625 57.228127 230.95312Q56.30625 230.23438 55.290627 230.23438ZM56.275 237.28125L55.3375 237.125Q55.228127 237.125 54.99375 237.14062Q54.759377 237.15625 54.634377 237.15625Q54.165627 237.15625 53.61875 237.07812Q53.571877 238.1875 53.571877 239.04688L53.571877 240.875Q55.86875 240.79688 57.321877 240.21875Q57.93125 239.98438 58.49375 239.48438Q59.040627 239.03125 59.040627 238.79688Q59.040627 238.375 57.915627 237.85938Q57.071877 237.46875 56.275 237.28125ZM64.05625 231.125Q63.634377 231.125 63.321877 230.82812Q63.009377 230.53125 63.009377 230.10938Q63.009377 229.6875 63.321877 229.39062Q63.634377 229.07812 64.05625 229.07812Q64.47813 229.07812 64.775 229.39062Q65.07188 229.6875 65.07188 230.10938Q65.07188 230.53125 64.775 230.82812Q64.47813 231.125 64.05625 231.125ZM64.44688 238.26562Q64.44688 238.78125 64.47813 239.84375Q64.50938 240.89062 64.50938 241.42188Q64.50938 241.79688 64.275 242.04688Q64.04063 242.29688 63.65 242.29688Q63.275 242.29688 63.025 242.04688Q62.790627 241.79688 62.790627 241.42188Q62.790627 240.89062 62.759377 239.84375Q62.728127 238.78125 62.728127 238.26562Q62.728127 237.4375 62.80625 236.20312Q62.9 234.96875 62.9 234.14062Q62.9 233.73438 63.134377 233.5Q63.384377 233.25 63.759377 233.25Q64.13438 233.25 64.36875 233.5Q64.61875 233.73438 64.61875 234.14062Q64.61875 234.96875 64.525 236.20312Q64.44688 237.4375 64.44688 238.26562ZM73.69688 242.60938Q73.2125 242.60938 72.94688 242.09375Q72.49375 241.21875 71.57188 240.0L70.00938 237.875Q69.49375 238.28125 68.43125 239.01562Q68.3375 240.375 68.3375 241.67188Q68.3375 242.0625 68.0875 242.3125Q67.85313 242.5625 67.47813 242.5625Q66.5875 242.5625 66.5875 241.35938Q66.5875 240.625 66.68125 239.17188Q66.79063 237.71875 66.79063 237.0Q66.79063 235.65625 66.82188 233.9375Q66.86875 232.21875 66.86875 230.90625Q66.86875 230.5 66.82188 229.96875Q66.79063 229.4375 66.79063 229.04688Q66.79063 228.64062 67.025 228.40625Q67.275 228.15625 67.65 228.15625Q68.025 228.15625 68.25938 228.40625Q68.50938 228.64062 68.50938 229.04688Q68.50938 229.4375 68.55625 230.0Q68.60313 230.54688 68.60313 230.95312L68.54063 233.78125Q68.49375 235.3125 68.50938 236.82812Q69.69688 235.92188 70.80625 234.82812L72.74375 232.84375Q73.04063 232.53125 73.36875 232.53125Q73.7125 232.53125 73.97813 232.8125Q74.25938 233.07812 74.25938 233.4375Q74.25938 233.73438 74.00938 234.03125Q72.93125 235.29688 71.35313 236.75L73.25938 239.35938Q74.60313 241.1875 74.60313 241.75Q74.60313 242.09375 74.32188 242.34375Q74.05625 242.60938 73.69688 242.60938ZM80.47813 242.65625Q78.49375 242.65625 77.25938 241.65625Q75.91563 240.5625 75.91563 238.57812Q75.91563 236.29688 77.025 234.75Q78.22813 233.0625 80.24375 233.0625Q81.69688 233.0625 82.61875 233.5625Q83.75938 234.15625 83.75938 235.42188Q83.75938 236.29688 82.75938 237.01562Q82.32188 237.34375 80.9 238.0L77.54063 239.59375Q78.04063 240.32812 78.75938 240.70312Q79.49375 241.0625 80.47813 241.0625Q81.0875 241.0625 81.9 240.82812Q82.93125 240.54688 83.22813 240.07812Q83.54063 239.60938 83.88438 239.60938Q84.18125 239.60938 84.41563 239.84375Q84.66563 240.0625 84.66563 240.375Q84.66563 241.35938 83.10313 242.0625Q81.74375 242.65625 80.47813 242.65625ZM80.24375 234.64062Q79.16563 234.64062 78.44688 235.48438Q77.74375 236.3125 77.38438 237.98438L80.0875 236.6875Q81.68125 235.92188 82.35313 235.34375Q81.60313 234.64062 80.24375 234.64062ZM92.30625 235.48438Q91.82188 235.48438 91.63438 235.15625Q91.49375 234.92188 91.4 234.20312Q90.74375 234.375 89.36875 234.82812Q87.94688 235.39062 87.94688 236.21875Q88.2125 236.3125 88.4625 236.35938Q90.47813 236.71875 91.4625 237.34375Q92.9 238.26562 92.9 240.01562Q92.9 241.45312 91.66563 242.17188Q90.63438 242.78125 89.05625 242.78125Q87.91563 242.78125 86.86875 242.39062Q85.50938 241.89062 85.50938 241.01562Q85.50938 240.67188 85.79063 240.40625Q86.07188 240.14062 86.41563 240.14062Q86.68125 240.14062 87.11875 240.5625Q87.3375 240.76562 88.07188 240.89062Q88.65 241.0 89.05625 241.0Q89.80625 241.0 90.36875 240.82812Q91.18125 240.57812 91.18125 240.01562Q91.18125 238.82812 89.50938 238.40625L88.60313 238.20312Q87.43125 237.9375 86.93125 237.59375Q86.22813 237.10938 86.22813 236.10938Q86.22813 234.28125 87.94688 233.5Q88.47813 233.26562 89.63438 232.9375Q90.80625 232.59375 91.30625 232.375Q91.66563 232.21875 92.0875 232.21875Q92.4625 232.21875 92.69688 232.46875Q92.94688 232.70312 92.94688 233.09375Q92.94688 233.35938 93.05625 233.85938Q93.16563 234.34375 93.16563 234.59375Q93.16563 234.98438 92.91563 235.23438Q92.68125 235.48438 92.30625 235.48438Z" fill-rule="nonzero"/><path fill="#98064e" d="M42.15 271.25C42.15 274.56372 39.463707 277.25 36.15 277.25C32.836292 277.25 30.15 274.56372 30.15 271.25C30.15 267.93628 32.836292 265.25 36.15 265.25C39.463707 265.25 42.15 267.93628 42.15 271.25Z" fill-rule="nonzero"/><path fill="#ed0965" d="M57.196877 278.78125Q54.728127 278.78125 52.99375 277.29688Q51.165627 275.71875 51.165627 273.21875Q51.165627 270.1875 52.978127 267.6875Q54.978127 264.9375 57.99375 264.9375Q60.884377 264.9375 62.290627 266.23438Q63.759377 267.59375 63.759377 270.5Q63.759377 273.54688 62.103127 275.98438Q60.2125 278.78125 57.196877 278.78125ZM57.99375 266.73438Q55.8375 266.73438 54.3375 268.875Q52.9625 270.84375 52.9625 273.21875Q52.9625 274.92188 54.2125 275.98438Q55.43125 276.98438 57.196877 276.98438Q59.3375 276.98438 60.728127 274.82812Q61.9625 272.90625 61.9625 270.5Q61.9625 268.40625 61.025 267.54688Q60.11875 266.73438 57.99375 266.73438ZM71.25938 270.76562Q71.07188 270.76562 70.82188 270.75Q70.57188 270.71875 70.38438 270.71875Q70.18125 270.71875 69.18125 270.85938L69.35313 276.04688L69.36875 276.4375L69.36875 276.89062Q69.4 278.8125 68.44688 278.8125Q68.10313 278.8125 67.8375 278.57812Q67.57188 278.35938 67.57188 278.01562Q67.57188 277.67188 67.60313 277.01562Q67.63438 276.34375 67.63438 276.01562L67.4625 270.875Q66.80625 270.84375 65.50938 270.71875Q64.72813 270.625 64.72813 269.85938Q64.72813 269.46875 64.9625 269.21875Q65.19688 268.95312 65.57188 268.95312L67.41563 269.10938Q67.41563 268.65625 67.36875 267.90625Q67.3375 267.15625 67.3375 266.82812Q67.3375 266.45312 67.5875 266.21875Q67.8375 265.96875 68.2125 265.96875Q69.00938 265.96875 69.13438 267.26562Q69.16563 267.59375 69.16563 268.04688L69.15 268.5625L69.13438 269.09375Q70.22813 268.95312 70.38438 268.95312Q71.29063 268.95312 71.57188 269.04688Q72.11875 269.21875 72.11875 269.875Q72.11875 270.26562 71.86875 270.51562Q71.63438 270.76562 71.25938 270.76562ZM80.72813 278.79688Q80.10313 278.79688 79.91563 278.125Q79.7125 277.40625 79.54063 276.07812Q79.38438 274.79688 79.38438 273.98438Q79.38438 273.76562 79.4 273.29688Q79.43125 272.82812 79.43125 272.59375Q79.43125 270.95312 78.60313 270.95312Q77.47813 270.95312 76.60313 271.95312Q76.16563 272.46875 75.36875 273.9375Q75.36875 277.28125 75.0875 277.89062Q74.85313 278.4375 74.3375 278.4375Q73.9625 278.4375 73.69688 278.20312Q73.43125 277.95312 73.43125 277.59375Q73.43125 277.46875 73.50938 277.21875Q73.57188 277.0 73.60313 275.92188L73.63438 274.625L73.65 268.17188Q73.7125 267.07812 73.7125 266.70312Q73.7125 266.25 73.61875 265.85938Q73.54063 265.45312 73.54063 265.01562Q73.54063 264.65625 73.79063 264.42188Q74.05625 264.17188 74.43125 264.17188Q75.15 264.17188 75.275 264.9375Q75.41563 265.79688 75.41563 266.48438Q75.41563 267.40625 75.35313 268.40625Q75.29063 269.35938 75.30625 270.32812L75.32188 271.10938Q76.04063 270.14062 76.85313 269.65625Q77.68125 269.17188 78.60313 269.17188Q80.05625 269.17188 80.60313 270.125Q80.99375 270.79688 81.04063 272.375L81.11875 274.0625L81.29063 275.89062Q81.41563 276.90625 81.5875 277.70312Q81.61875 277.84375 81.61875 277.95312Q81.61875 278.3125 81.35313 278.54688Q81.10313 278.79688 80.72813 278.79688ZM86.47813 278.65625Q84.49375 278.65625 83.25938 277.65625Q81.91563 276.5625 81.91563 274.57812Q81.91563 272.29688 83.025 270.75Q84.22813 269.0625 86.24375 269.0625Q87.69688 269.0625 88.61875 269.5625Q89.75938 270.15625 89.75938 271.42188Q89.75938 272.29688 88.75938 273.01562Q88.32188 273.34375 86.9 274.0L83.54063 275.59375Q84.04063 276.32812 84.75938 276.70312Q85.49375 277.0625 86.47813 277.0625Q87.0875 277.0625 87.9 276.82812Q88.93125 276.54688 89.22813 276.07812Q89.54063 275.60938 89.88438 275.60938Q90.18125 275.60938 90.41563 275.84375Q90.66563 276.0625 90.66563 276.375Q90.66563 277.35938 89.10313 278.0625Q87.74375 278.65625 86.47813 278.65625ZM86.24375 270.64062Q85.16563 270.64062 84.44688 271.48438Q83.74375 272.3125 83.38438 273.98438L86.0875 272.6875Q87.68125 271.92188 88.35313 271.34375Q87.60313 270.64062 86.24375 270.64062ZM99.2125 271.75Q99.15 272.85938 98.3375 272.85938Q97.57188 272.85938 97.57188 271.98438Q97.57188 271.8125 97.55625 271.375L97.525 270.625Q96.13438 270.79688 95.30625 271.40625Q94.50938 271.98438 93.99375 273.14062L94.00938 277.95312Q94.00938 278.84375 93.15 278.84375Q92.36875 278.84375 92.36875 277.95312L92.36875 271.78125Q92.36875 271.48438 92.38438 270.90625Q92.41563 270.32812 92.41563 270.04688Q92.41563 269.15625 93.19688 269.15625Q94.05625 269.15625 94.05625 270.60938Q95.74375 268.98438 97.80625 268.98438Q98.50938 268.98438 98.85313 269.53125Q99.2125 270.0625 99.2125 271.14062Q99.2125 271.59375 99.2125 271.75Z" fill-rule="nonzero"/><path fill="#ed0965" d="M338.53125 46.415627Q338.26562 46.415627 337.34375 46.290627Q337.26562 47.759377 337.26562 51.4625Q337.26562 51.853127 337.0 52.11875Q336.75 52.384377 336.375 52.384377Q335.98438 52.384377 335.73438 52.11875Q335.48438 51.853127 335.48438 51.4625L335.48438 48.5875Q335.48438 47.15 335.65625 44.540627Q335.84375 41.7125 335.875 40.49375L335.875 39.15Q335.875 38.18125 335.98438 37.74375Q336.20312 36.884377 336.9375 37.009377Q337.25 36.9 337.82812 36.853127Q338.40625 36.80625 339.25 36.80625Q341.03125 36.80625 342.59375 38.025Q344.3125 39.36875 344.3125 41.275Q344.3125 43.696877 342.48438 45.134377Q340.84375 46.415627 338.53125 46.415627ZM339.01562 38.665627Q338.59375 38.665627 338.25 38.68125Q337.92188 38.696877 337.6875 38.74375L337.67188 40.540627L337.45312 44.43125L338.53125 44.55625Q340.17188 44.55625 341.29688 43.728127Q342.53125 42.80625 342.53125 41.275Q342.53125 40.18125 341.35938 39.384377Q340.26562 38.665627 339.01562 38.665627ZM349.51562 52.728127Q347.875 52.728127 346.70312 51.509377Q345.375 50.165627 345.3125 47.884377Q345.25 45.68125 346.42188 44.009377Q347.79688 42.025 350.23438 42.025Q352.1875 42.025 353.1875 43.80625Q354.0 45.259377 353.96875 47.290627Q353.9375 49.446877 352.82812 50.99375Q351.57812 52.728127 349.51562 52.728127ZM350.10938 44.009377Q348.67188 43.99375 347.875 45.36875Q347.23438 46.478127 347.23438 47.884377Q347.23438 49.30625 348.0 50.103127Q348.65625 50.759377 349.51562 50.759377Q350.53125 50.759377 351.26562 50.009377Q352.09375 49.196877 352.14062 47.790627Q352.28125 44.009377 350.10938 44.009377ZM363.39062 43.821877Q363.1875 43.821877 362.90625 43.80625Q362.625 43.790627 362.42188 43.790627Q362.20312 43.790627 361.09375 43.93125L361.28125 49.7125L361.29688 50.134377L361.29688 50.634377Q361.34375 52.775 360.28125 52.775Q359.89062 52.775 359.59375 52.525Q359.3125 52.275 359.3125 51.884377Q359.3125 51.509377 359.34375 50.775Q359.375 50.025 359.375 49.665627L359.17188 43.9625Q358.45312 43.93125 357.0 43.790627Q356.14062 43.665627 356.14062 42.821877Q356.14062 42.4 356.39062 42.11875Q356.65625 41.821877 357.07812 41.821877L359.125 41.99375Q359.125 41.49375 359.07812 40.665627Q359.03125 39.821877 359.03125 39.446877Q359.03125 39.040627 359.3125 38.775Q359.60938 38.509377 360.01562 38.509377Q360.89062 38.509377 361.03125 39.946877Q361.0625 40.30625 361.0625 40.80625L361.04688 41.384377L361.03125 41.978127Q362.25 41.821877 362.42188 41.821877Q363.4375 41.821877 363.75 41.93125Q364.34375 42.11875 364.34375 42.8375Q364.34375 43.275 364.07812 43.55625Q363.8125 43.821877 363.39062 43.821877ZM369.42188 52.603127Q367.21875 52.603127 365.84375 51.49375Q364.34375 50.275 364.34375 48.071877Q364.34375 45.540627 365.57812 43.821877Q366.92188 41.946877 369.15625 41.946877Q370.78125 41.946877 371.79688 42.49375Q373.0625 43.165627 373.0625 44.55625Q373.0625 45.540627 371.95312 46.3375Q371.46875 46.696877 369.89062 47.43125L366.15625 49.196877Q366.70312 50.009377 367.51562 50.43125Q368.32812 50.8375 369.42188 50.8375Q370.09375 50.8375 371.0 50.571877Q372.15625 50.259377 372.48438 49.74375Q372.8125 49.2125 373.20312 49.2125Q373.54688 49.2125 373.8125 49.478127Q374.07812 49.728127 374.07812 50.071877Q374.07812 51.15 372.32812 51.93125Q370.82812 52.603127 369.42188 52.603127ZM369.15625 43.696877Q367.96875 43.696877 367.17188 44.61875Q366.375 45.540627 365.98438 47.4L368.98438 45.978127Q370.75 45.11875 371.51562 44.478127Q370.67188 43.696877 369.15625 43.696877ZM383.34375 52.8375Q382.51562 52.8375 382.40625 51.93125L382.125 49.790627Q381.98438 48.65 381.98438 47.65Q381.98438 47.36875 382.01562 46.728127Q382.0625 46.071877 382.0625 45.790627Q382.0625 43.68125 381.28125 43.68125Q380.1875 43.68125 379.1875 44.978127Q378.29688 46.165627 377.78125 47.9625Q377.76562 48.353127 377.6875 48.93125Q377.64062 49.415627 377.64062 49.86875Q377.64062 50.165627 377.6875 50.759377Q377.75 51.3375 377.75 51.634377Q377.75 52.071877 377.48438 52.3375Q377.21875 52.61875 376.79688 52.61875Q376.35938 52.61875 376.09375 52.3375Q375.84375 52.071877 375.84375 51.634377Q375.84375 51.3375 375.78125 50.759377Q375.71875 50.165627 375.71875 49.86875Q375.71875 48.86875 375.85938 47.0875Q376.0 45.30625 376.0 44.290627Q376.0 43.978127 375.95312 43.36875Q375.92188 42.759377 375.92188 42.446877Q375.92188 42.025 376.20312 41.759377Q376.48438 41.478127 376.89062 41.478127Q377.79688 41.478127 377.875 42.759377L377.90625 43.9Q379.54688 41.7125 381.28125 41.7125Q382.84375 41.7125 383.45312 43.0875Q383.875 44.009377 383.92188 45.80625L383.92188 46.790627L383.90625 47.696877Q383.90625 48.509377 384.10938 49.790627Q384.32812 51.071877 384.32812 51.86875Q384.32812 52.30625 384.04688 52.571877Q383.76562 52.8375 383.34375 52.8375ZM392.39062 43.821877Q392.1875 43.821877 391.90625 43.80625Q391.625 43.790627 391.42188 43.790627Q391.20312 43.790627 390.09375 43.93125L390.28125 49.7125L390.29688 50.134377L390.29688 50.634377Q390.34375 52.775 389.28125 52.775Q388.89062 52.775 388.59375 52.525Q388.3125 52.275 388.3125 51.884377Q388.3125 51.509377 388.34375 50.775Q388.375 50.025 388.375 49.665627L388.17188 43.9625Q387.45312 43.93125 386.0 43.790627Q385.14062 43.665627 385.14062 42.821877Q385.14062 42.4 385.39062 42.11875Q385.65625 41.821877 386.07812 41.821877L388.125 41.99375Q388.125 41.49375 388.07812 40.665627Q388.03125 39.821877 388.03125 39.446877Q388.03125 39.040627 388.3125 38.775Q388.60938 38.509377 389.01562 38.509377Q389.89062 38.509377 390.03125 39.946877Q390.0625 40.30625 390.0625 40.80625L390.04688 41.384377L390.03125 41.978127Q391.25 41.821877 391.42188 41.821877Q392.4375 41.821877 392.75 41.93125Q393.34375 42.11875 393.34375 42.8375Q393.34375 43.275 393.07812 43.55625Q392.8125 43.821877 392.39062 43.821877ZM395.71875 39.790627Q395.25 39.790627 394.90625 39.4625Q394.57812 39.11875 394.57812 38.65Q394.57812 38.18125 394.90625 37.853127Q395.25 37.525 395.71875 37.525Q396.1875 37.525 396.51562 37.853127Q396.85938 38.18125 396.85938 38.65Q396.85938 39.11875 396.51562 39.4625Q396.1875 39.790627 395.71875 39.790627ZM396.15625 47.7125Q396.15625 48.30625 396.1875 49.478127Q396.23438 50.634377 396.23438 51.228127Q396.23438 51.65 395.96875 51.93125Q395.70312 52.196877 395.28125 52.196877Q394.85938 52.196877 394.57812 51.93125Q394.3125 51.65 394.3125 51.228127Q394.3125 50.634377 394.28125 49.478127Q394.25 48.30625 394.25 47.7125Q394.25 46.790627 394.34375 45.43125Q394.4375 44.05625 394.4375 43.134377Q394.4375 42.696877 394.70312 42.43125Q394.98438 42.15 395.40625 42.15Q395.82812 42.15 396.09375 42.43125Q396.35938 42.696877 396.35938 43.134377Q396.35938 44.05625 396.25 45.43125Q396.15625 46.790627 396.15625 47.7125ZM407.48438 52.790627Q407.29688 52.790627 406.8125 52.36875Q406.375 51.9625 406.15625 51.65Q405.21875 52.165627 404.5 52.415627Q403.79688 52.68125 403.3125 52.68125Q401.03125 52.68125 399.98438 51.384377Q399.0 50.18125 399.0 47.68125Q399.0 45.30625 400.625 43.634377Q402.25 41.946877 404.5 41.946877Q405.35938 41.946877 406.40625 42.4Q407.73438 42.946877 407.73438 43.7125Q407.73438 43.978127 407.54688 44.18125Q407.45312 44.55625 407.39062 45.4Q407.34375 46.24375 407.32812 47.571877Q407.3125 48.790627 407.5 49.49375Q407.59375 49.915627 408.10938 51.2125Q408.17188 51.384377 408.32812 51.728127L408.39062 51.9Q408.39062 52.290627 408.10938 52.540627Q407.84375 52.790627 407.48438 52.790627ZM405.45312 46.009377Q405.45312 45.5875 405.5 45.103127Q405.5625 44.603127 405.67188 44.040627Q405.3125 43.853127 405.04688 43.775Q404.79688 43.68125 404.64062 43.68125Q403.125 43.68125 402.01562 44.915627Q400.92188 46.15 400.92188 47.759377Q400.92188 49.36875 401.48438 50.165627Q402.0625 50.9625 403.1875 50.9625Q404.125 50.9625 404.78125 50.61875Q405.125 50.446877 405.76562 49.884377Q405.45312 47.290627 405.45312 46.009377ZM412.34375 44.478127L412.1875 49.321877Q412.1875 50.103127 412.10938 51.5875Q412.01562 52.571877 411.15625 52.571877Q410.20312 52.571877 410.20312 51.571877Q410.20312 50.384377 410.3125 48.025Q410.42188 45.65 410.42188 44.478127Q410.42188 42.93125 410.46875 40.946877Q410.51562 38.9625 410.51562 37.415627Q410.51562 36.43125 411.46875 36.43125Q412.4375 36.43125 412.4375 37.415627Q412.4375 38.9625 412.39062 40.946877Q412.34375 42.93125 412.34375 44.478127ZM430.39062 39.009377Q430.25 39.009377 430.09375 38.9625Q428.4375 38.49375 426.90625 38.49375Q426.10938 38.49375 425.15625 38.634377Q424.20312 38.775 423.10938 39.0875Q423.20312 39.7125 423.20312 40.103127Q423.20312 41.4625 423.03125 43.821877L427.3125 43.415627Q429.20312 43.228127 429.625 43.228127Q430.0625 43.228127 430.34375 43.509377Q430.64062 43.775 430.64062 44.228127Q430.64062 45.11875 429.75 45.228127L427.42188 45.43125L422.90625 45.8375Q422.875 46.540627 422.84375 47.165627Q422.82812 47.775 422.82812 48.30625Q422.82812 50.4625 423.14062 50.853127Q423.375 51.11875 424.67188 51.11875Q425.26562 51.11875 426.48438 51.0875Q427.70312 51.05625 428.3125 51.05625Q428.51562 51.05625 428.89062 50.99375Q429.28125 50.93125 429.46875 50.93125Q430.5 50.93125 430.5 51.946877Q430.5 52.759377 429.67188 52.93125Q428.75 53.11875 425.6875 53.11875Q422.67188 53.11875 421.8125 52.321877Q420.875 51.446877 420.875 48.30625Q420.875 47.68125 420.89062 46.946877Q420.92188 46.196877 420.96875 45.3375Q420.875 45.11875 420.875 44.86875Q420.875 44.525 421.04688 44.275Q421.25 41.446877 421.25 40.103127Q421.25 39.74375 421.14062 39.040627Q421.04688 38.3375 421.04688 37.978127Q421.04688 36.821877 422.03125 36.821877Q422.4375 36.821877 422.73438 37.103127Q423.90625 36.790627 424.9375 36.634377Q425.98438 36.478127 426.90625 36.478127Q429.28125 36.478127 430.6875 37.040627Q431.34375 37.30625 431.34375 37.978127Q431.34375 38.36875 431.09375 38.665627Q430.8125 39.009377 430.39062 39.009377ZM445.26562 52.9625Q444.45312 52.9625 444.32812 52.103127Q444.14062 51.040627 443.96875 49.0875L443.64062 46.05625Q443.54688 45.384377 443.3125 44.74375Q442.96875 43.853127 442.57812 43.853127Q442.21875 43.853127 441.23438 44.478127Q440.29688 45.040627 440.0 45.384377Q440.0 46.30625 440.0625 47.2125L440.34375 49.821877Q440.53125 51.36875 440.53125 52.36875Q440.53125 52.80625 440.26562 53.0875Q440.0 53.36875 439.57812 53.36875Q439.15625 53.36875 438.89062 53.0875Q438.625 52.80625 438.625 52.36875Q438.625 51.196877 438.375 48.884377Q438.14062 46.571877 438.14062 45.384377Q438.14062 44.353127 437.84375 43.775Q437.17188 44.0875 436.46875 44.790627L435.3125 46.0875Q435.15625 46.321877 434.8125 46.696877Q434.8125 47.290627 434.70312 48.43125Q434.59375 49.571877 434.59375 50.11875Q434.59375 50.415627 434.6875 50.946877Q434.78125 51.4625 434.78125 51.696877Q434.78125 52.103127 434.48438 52.36875Q434.1875 52.65 433.78125 52.65Q432.6875 52.65 432.6875 50.134377Q432.6875 49.55625 432.78125 48.4Q432.89062 47.228127 432.89062 46.634377Q432.89062 46.11875 432.79688 45.0875Q432.71875 44.05625 432.71875 43.525Q432.71875 41.30625 433.70312 41.30625Q434.09375 41.30625 434.40625 41.65Q434.71875 41.978127 434.71875 42.36875Q434.71875 42.55625 434.67188 42.946877Q434.625 43.3375 434.625 43.540627L434.64062 44.55625Q435.15625 43.509377 436.14062 42.665627Q437.125 41.821877 437.8125 41.821877Q439.35938 41.821877 439.92188 43.353127Q440.46875 42.634377 441.20312 42.290627Q441.95312 41.93125 442.90625 41.93125Q444.53125 41.93125 445.14062 43.68125Q445.25 44.040627 445.53125 46.43125Q445.8125 48.103127 446.23438 52.025Q446.26562 52.415627 445.96875 52.68125Q445.6875 52.9625 445.26562 52.9625ZM449.71875 39.790627Q449.25 39.790627 448.90625 39.4625Q448.57812 39.11875 448.57812 38.65Q448.57812 38.18125 448.90625 37.853127Q449.25 37.525 449.71875 37.525Q450.1875 37.525 450.51562 37.853127Q450.85938 38.18125 450.85938 38.65Q450.85938 39.11875 450.51562 39.4625Q450.1875 39.790627 449.71875 39.790627ZM450.15625 47.7125Q450.15625 48.30625 450.1875 49.478127Q450.23438 50.634377 450.23438 51.228127Q450.23438 51.65 449.96875 51.93125Q449.70312 52.196877 449.28125 52.196877Q448.85938 52.196877 448.57812 51.93125Q448.3125 51.65 448.3125 51.228127Q448.3125 50.634377 448.28125 49.478127Q448.25 48.30625 448.25 47.7125Q448.25 46.790627 448.34375 45.43125Q448.4375 44.05625 448.4375 43.134377Q448.4375 42.696877 448.70312 42.43125Q448.98438 42.15 449.40625 42.15Q449.82812 42.15 450.09375 42.43125Q450.35938 42.696877 450.35938 43.134377Q450.35938 44.05625 450.25 45.43125Q450.15625 46.790627 450.15625 47.7125ZM460.45312 44.634377Q459.90625 44.634377 459.70312 44.275Q459.54688 44.009377 459.4375 43.2125Q458.71875 43.4 457.1875 43.9Q455.60938 44.525 455.60938 45.446877Q455.90625 45.540627 456.1875 45.603127Q458.42188 45.99375 459.51562 46.696877Q461.10938 47.728127 461.10938 49.665627Q461.10938 51.259377 459.73438 52.071877Q458.59375 52.74375 456.84375 52.74375Q455.5625 52.74375 454.40625 52.30625Q452.90625 51.759377 452.90625 50.775Q452.90625 50.384377 453.20312 50.103127Q453.51562 49.80625 453.90625 49.80625Q454.20312 49.80625 454.6875 50.275Q454.92188 50.49375 455.75 50.65Q456.39062 50.759377 456.84375 50.759377Q457.67188 50.759377 458.29688 50.571877Q459.20312 50.290627 459.20312 49.665627Q459.20312 48.3375 457.34375 47.86875L456.32812 47.65Q455.03125 47.36875 454.48438 46.978127Q453.6875 46.43125 453.6875 45.3375Q453.6875 43.290627 455.60938 42.415627Q456.20312 42.165627 457.48438 41.80625Q458.78125 41.43125 459.34375 41.165627Q459.73438 40.99375 460.20312 40.99375Q460.625 40.99375 460.89062 41.275Q461.15625 41.540627 461.15625 41.978127Q461.15625 42.259377 461.28125 42.80625Q461.40625 43.353127 461.40625 43.65Q461.40625 44.0875 461.14062 44.36875Q460.875 44.634377 460.45312 44.634377ZM470.45312 44.634377Q469.90625 44.634377 469.70312 44.275Q469.54688 44.009377 469.4375 43.2125Q468.71875 43.4 467.1875 43.9Q465.60938 44.525 465.60938 45.446877Q465.90625 45.540627 466.1875 45.603127Q468.42188 45.99375 469.51562 46.696877Q471.10938 47.728127 471.10938 49.665627Q471.10938 51.259377 469.73438 52.071877Q468.59375 52.74375 466.84375 52.74375Q465.5625 52.74375 464.40625 52.30625Q462.90625 51.759377 462.90625 50.775Q462.90625 50.384377 463.20312 50.103127Q463.51562 49.80625 463.90625 49.80625Q464.20312 49.80625 464.6875 50.275Q464.92188 50.49375 465.75 50.65Q466.39062 50.759377 466.84375 50.759377Q467.67188 50.759377 468.29688 50.571877Q469.20312 50.290627 469.20312 49.665627Q469.20312 48.3375 467.34375 47.86875L466.32812 47.65Q465.03125 47.36875 464.48438 46.978127Q463.6875 46.43125 463.6875 45.3375Q463.6875 43.290627 465.60938 42.415627Q466.20312 42.165627 467.48438 41.80625Q468.78125 41.43125 469.34375 41.165627Q469.73438 40.99375 470.20312 40.99375Q470.625 40.99375 470.89062 41.275Q471.15625 41.540627 471.15625 41.978127Q471.15625 42.259377 471.28125 42.80625Q471.40625 43.353127 471.40625 43.65Q471.40625 44.0875 471.14062 44.36875Q470.875 44.634377 470.45312 44.634377ZM475.71875 39.790627Q475.25 39.790627 474.90625 39.4625Q474.57812 39.11875 474.57812 38.65Q474.57812 38.18125 474.90625 37.853127Q475.25 37.525 475.71875 37.525Q476.1875 37.525 476.51562 37.853127Q476.85938 38.18125 476.85938 38.65Q476.85938 39.11875 476.51562 39.4625Q476.1875 39.790627 475.71875 39.790627ZM476.15625 47.7125Q476.15625 48.30625 476.1875 49.478127Q476.23438 50.634377 476.23438 51.228127Q476.23438 51.65 475.96875 51.93125Q475.70312 52.196877 475.28125 52.196877Q474.85938 52.196877 474.57812 51.93125Q474.3125 51.65 474.3125 51.228127Q474.3125 50.634377 474.28125 49.478127Q474.25 48.30625 474.25 47.7125Q474.25 46.790627 474.34375 45.43125Q474.4375 44.05625 474.4375 43.134377Q474.4375 42.696877 474.70312 42.43125Q474.98438 42.15 475.40625 42.15Q475.82812 42.15 476.09375 42.43125Q476.35938 42.696877 476.35938 43.134377Q476.35938 44.05625 476.25 45.43125Q476.15625 46.790627 476.15625 47.7125ZM483.51562 52.728127Q481.875 52.728127 480.70312 51.509377Q479.375 50.165627 479.3125 47.884377Q479.25 45.68125 480.42188 44.009377Q481.79688 42.025 484.23438 42.025Q486.1875 42.025 487.1875 43.80625Q488.0 45.259377 487.96875 47.290627Q487.9375 49.446877 486.82812 50.99375Q485.57812 52.728127 483.51562 52.728127ZM484.10938 44.009377Q482.67188 43.99375 481.875 45.36875Q481.23438 46.478127 481.23438 47.884377Q481.23438 49.30625 482.0 50.103127Q482.65625 50.759377 483.51562 50.759377Q484.53125 50.759377 485.26562 50.009377Q486.09375 49.196877 486.14062 47.790627Q486.28125 44.009377 484.10938 44.009377ZM498.34375 52.8375Q497.51562 52.8375 497.40625 51.93125L497.125 49.790627Q496.98438 48.65 496.98438 47.65Q496.98438 47.36875 497.01562 46.728127Q497.0625 46.071877 497.0625 45.790627Q497.0625 43.68125 496.28125 43.68125Q495.1875 43.68125 494.1875 44.978127Q493.29688 46.165627 492.78125 47.9625Q492.76562 48.353127 492.6875 48.93125Q492.64062 49.415627 492.64062 49.86875Q492.64062 50.165627 492.6875 50.759377Q492.75 51.3375 492.75 51.634377Q492.75 52.071877 492.48438 52.3375Q492.21875 52.61875 491.79688 52.61875Q491.35938 52.61875 491.09375 52.3375Q490.84375 52.071877 490.84375 51.634377Q490.84375 51.3375 490.78125 50.759377Q490.71875 50.165627 490.71875 49.86875Q490.71875 48.86875 490.85938 47.0875Q491.0 45.30625 491.0 44.290627Q491.0 43.978127 490.95312 43.36875Q490.92188 42.759377 490.92188 42.446877Q490.92188 42.025 491.20312 41.759377Q491.48438 41.478127 491.89062 41.478127Q492.79688 41.478127 492.875 42.759377L492.90625 43.9Q494.54688 41.7125 496.28125 41.7125Q497.84375 41.7125 498.45312 43.0875Q498.875 44.009377 498.92188 45.80625L498.92188 46.790627L498.90625 47.696877Q498.90625 48.509377 499.10938 49.790627Q499.32812 51.071877 499.32812 51.86875Q499.32812 52.30625 499.04688 52.571877Q498.76562 52.8375 498.34375 52.8375ZM507.45312 44.634377Q506.90625 44.634377 506.70312 44.275Q506.54688 44.009377 506.4375 43.2125Q505.71875 43.4 504.1875 43.9Q502.60938 44.525 502.60938 45.446877Q502.90625 45.540627 503.1875 45.603127Q505.42188 45.99375 506.51562 46.696877Q508.10938 47.728127 508.10938 49.665627Q508.10938 51.259377 506.73438 52.071877Q505.59375 52.74375 503.84375 52.74375Q502.5625 52.74375 501.40625 52.30625Q499.90625 51.759377 499.90625 50.775Q499.90625 50.384377 500.20312 50.103127Q500.51562 49.80625 500.90625 49.80625Q501.20312 49.80625 501.6875 50.275Q501.92188 50.49375 502.75 50.65Q503.39062 50.759377 503.84375 50.759377Q504.67188 50.759377 505.29688 50.571877Q506.20312 50.290627 506.20312 49.665627Q506.20312 48.3375 504.34375 47.86875L503.32812 47.65Q502.03125 47.36875 501.48438 46.978127Q500.6875 46.43125 500.6875 45.3375Q500.6875 43.290627 502.60938 42.415627Q503.20312 42.165627 504.48438 41.80625Q505.78125 41.43125 506.34375 41.165627Q506.73438 40.99375 507.20312 40.99375Q507.625 40.99375 507.89062 41.275Q508.15625 41.540627 508.15625 41.978127Q508.15625 42.259377 508.28125 42.80625Q508.40625 43.353127 508.40625 43.65Q508.40625 44.0875 508.14062 44.36875Q507.875 44.634377 507.45312 44.634377ZM516.8125 49.7125Q516.7969 49.30625 517.0781 49.05625Q517.375 48.790627 517.7969 48.790627Q518.28125 48.790627 518.6406 49.3375Q519.1406 50.071877 519.53125 50.3375Q520.3594 50.884377 521.9375 50.884377Q523.4531 50.884377 524.75 50.228127Q526.40625 49.4 526.40625 47.9Q526.40625 46.665627 525.0156 45.9625Q523.8281 45.3375 522.09375 45.290627Q520.5469 45.228127 519.46875 44.61875Q518.0781 43.821877 518.0781 42.353127Q518.0781 40.61875 520.0469 39.18125Q521.9375 37.821877 523.9531 37.821877Q524.8906 37.821877 526.09375 38.15Q527.6719 38.571877 527.6719 39.2125Q527.6719 40.071877 526.7969 40.071877Q526.40625 40.071877 525.4219 39.86875Q524.4531 39.665627 523.90625 39.665627Q522.3906 39.68125 521.3281 40.415627Q520.2344 41.165627 520.2344 42.24375Q520.2344 43.05625 521.6719 43.384377Q522.2031 43.509377 523.75 43.61875Q525.9844 43.790627 527.25 45.025Q528.40625 46.165627 528.40625 47.790627Q528.40625 50.11875 526.25 51.509377Q524.3906 52.7125 521.9219 52.7125Q520.1406 52.7125 518.65625 52.025Q516.84375 51.18125 516.8125 49.7125ZM538.4844 52.790627Q538.2969 52.790627 537.8125 52.36875Q537.375 51.9625 537.15625 51.65Q536.21875 52.165627 535.5 52.415627Q534.7969 52.68125 534.3125 52.68125Q532.03125 52.68125 530.9844 51.384377Q530.0 50.18125 530.0 47.68125Q530.0 45.30625 531.625 43.634377Q533.25 41.946877 535.5 41.946877Q536.3594 41.946877 537.40625 42.4Q538.7344 42.946877 538.7344 43.7125Q538.7344 43.978127 538.5469 44.18125Q538.4531 44.55625 538.3906 45.4Q538.34375 46.24375 538.3281 47.571877Q538.3125 48.790627 538.5 49.49375Q538.59375 49.915627 539.1094 51.2125Q539.1719 51.384377 539.3281 51.728127L539.3906 51.9Q539.3906 52.290627 539.1094 52.540627Q538.84375 52.790627 538.4844 52.790627ZM536.4531 46.009377Q536.4531 45.5875 536.5 45.103127Q536.5625 44.603127 536.6719 44.040627Q536.3125 43.853127 536.0469 43.775Q535.7969 43.68125 535.6406 43.68125Q534.125 43.68125 533.0156 44.915627Q531.9219 46.15 531.9219 47.759377Q531.9219 49.36875 532.4844 50.165627Q533.0625 50.9625 534.1875 50.9625Q535.125 50.9625 535.78125 50.61875Q536.125 50.446877 536.7656 49.884377Q536.4531 47.290627 536.4531 46.009377ZM545.3594 51.634377Q545.3281 52.540627 544.46875 52.540627Q543.7656 52.540627 543.4375 51.696877L541.9375 47.728127L540.2031 43.259377Q540.1094 42.99375 540.1094 42.80625Q540.1094 42.4 540.40625 42.11875Q540.71875 41.8375 541.1094 41.8375Q541.7031 41.8375 541.9531 42.43125L544.4375 49.259377Q545.1719 47.696877 546.28125 44.728127Q546.5469 43.946877 547.1094 42.525Q547.40625 41.9 547.96875 41.9Q548.375 41.9 548.6719 42.18125Q548.96875 42.4625 548.96875 42.853127Q548.96875 43.228127 547.3594 47.025L545.3594 51.634377ZM555.4219 52.603127Q553.21875 52.603127 551.84375 51.49375Q550.34375 50.275 550.34375 48.071877Q550.34375 45.540627 551.5781 43.821877Q552.9219 41.946877 555.15625 41.946877Q556.78125 41.946877 557.7969 42.49375Q559.0625 43.165627 559.0625 44.55625Q559.0625 45.540627 557.9531 46.3375Q557.46875 46.696877 555.8906 47.43125L552.15625 49.196877Q552.7031 50.009377 553.5156 50.43125Q554.3281 50.8375 555.4219 50.8375Q556.09375 50.8375 557.0 50.571877Q558.15625 50.259377 558.4844 49.74375Q558.8125 49.2125 559.2031 49.2125Q559.5469 49.2125 559.8125 49.478127Q560.0781 49.728127 560.0781 50.071877Q560.0781 51.15 558.3281 51.93125Q556.8281 52.603127 555.4219 52.603127ZM555.15625 43.696877Q553.96875 43.696877 553.1719 44.61875Q552.375 45.540627 551.9844 47.4L554.9844 45.978127Q556.75 45.11875 557.5156 44.478127Q556.6719 43.696877 555.15625 43.696877ZM570.8594 43.525Q570.7344 44.9625 570.7344 46.4Q570.7344 49.65 571.03125 51.30625Q571.0625 51.446877 571.0625 51.540627Q571.0625 51.93125 570.78125 52.18125Q570.5156 52.43125 570.15625 52.43125Q569.5469 52.43125 569.2656 51.55625Q568.5625 52.071877 567.7969 52.3375Q567.0469 52.603127 566.21875 52.603127Q564.2031 52.603127 562.875 51.24375Q561.5 49.86875 561.5 47.7125Q561.5 45.103127 562.875 43.540627Q564.2656 41.9625 566.4844 41.9625Q567.6094 41.9625 568.21875 42.321877L569.1406 42.99375Q569.28125 38.884377 569.46875 37.446877Q569.59375 36.5875 570.3594 36.5875Q571.25 36.5875 571.25 37.525Q571.25 38.884377 570.8594 43.525ZM566.5156 43.775Q564.875 43.775 564.0469 44.759377Q563.2344 45.728127 563.2344 47.68125Q563.2344 48.93125 564.125 49.853127Q565.0156 50.759377 566.21875 50.759377Q567.0469 50.759377 567.6094 50.446877Q567.9375 50.275 568.6875 49.634377Q568.84375 49.509377 568.9844 49.3375L568.9531 47.65L568.9531 46.509377L568.9844 45.36875Q568.6094 44.571877 567.9844 44.18125Q567.375 43.775 566.5156 43.775ZM584.0156 52.49375Q583.03125 52.49375 581.8594 52.18125L581.84375 56.853127Q581.84375 57.275 581.5625 57.540627Q581.2969 57.821877 580.8906 57.821877Q580.46875 57.821877 580.1875 57.540627Q579.9219 57.275 579.9219 56.853127L579.9531 52.946877L579.9531 49.040627Q579.9219 46.9 579.8125 45.15L579.65625 43.165627Q579.65625 42.478127 579.9219 41.99375Q580.2031 41.415627 580.7656 41.415627Q581.1406 41.415627 581.40625 41.68125Q581.6719 41.946877 581.6719 42.3375Q581.6719 42.43125 581.6406 42.665627Q581.59375 42.9625 581.5625 43.228127Q582.40625 42.65 583.1875 42.36875Q583.96875 42.071877 584.6875 42.071877Q586.6875 42.071877 587.6094 43.853127Q588.34375 45.259377 588.34375 47.571877Q588.34375 49.68125 587.21875 51.040627Q586.0156 52.49375 584.0156 52.49375ZM584.6875 44.025Q583.78125 44.025 583.0625 44.43125Q582.5469 44.7125 581.75 45.4625Q581.875 47.68125 581.875 50.11875Q582.9375 50.525 584.0156 50.525Q585.2344 50.525 585.875 49.61875Q586.4375 48.821877 586.4375 47.571877Q586.4375 45.790627 586.0 44.915627Q585.5625 44.025 584.6875 44.025ZM595.4219 52.603127Q593.21875 52.603127 591.84375 51.49375Q590.34375 50.275 590.34375 48.071877Q590.34375 45.540627 591.5781 43.821877Q592.9219 41.946877 595.15625 41.946877Q596.78125 41.946877 597.7969 42.49375Q599.0625 43.165627 599.0625 44.55625Q599.0625 45.540627 597.9531 46.3375Q597.46875 46.696877 595.8906 47.43125L592.15625 49.196877Q592.7031 50.009377 593.5156 50.43125Q594.3281 50.8375 595.4219 50.8375Q596.09375 50.8375 597.0 50.571877Q598.15625 50.259377 598.4844 49.74375Q598.8125 49.2125 599.2031 49.2125Q599.5469 49.2125 599.8125 49.478127Q600.0781 49.728127 600.0781 50.071877Q600.0781 51.15 598.3281 51.93125Q596.8281 52.603127 595.4219 52.603127ZM595.15625 43.696877Q593.96875 43.696877 593.1719 44.61875Q592.375 45.540627 591.9844 47.4L594.9844 45.978127Q596.75 45.11875 597.5156 44.478127Q596.6719 43.696877 595.15625 43.696877ZM609.4531 44.93125Q609.3906 46.15 608.4844 46.15Q607.6406 46.15 607.6406 45.18125Q607.6406 44.99375 607.6094 44.509377L607.5781 43.68125Q606.03125 43.86875 605.1094 44.55625Q604.2344 45.18125 603.6719 46.4625L603.6875 51.821877Q603.6875 52.80625 602.71875 52.80625Q601.8594 52.80625 601.8594 51.821877L601.8594 44.9625Q601.8594 44.634377 601.875 43.99375Q601.90625 43.353127 601.90625 43.025Q601.90625 42.040627 602.7656 42.040627Q603.71875 42.040627 603.7344 43.665627Q605.6094 41.853127 607.8906 41.853127Q608.6875 41.853127 609.0781 42.446877Q609.46875 43.040627 609.46875 44.24375Q609.46875 44.759377 609.4531 44.93125ZM627.28125 41.196877Q626.65625 41.196877 626.34375 40.4625Q626.0781 39.8375 625.84375 39.696877Q625.625 39.5875 624.8281 39.5875Q623.40625 39.5875 621.6719 41.759377Q619.3281 44.665627 619.3281 47.275Q619.3281 48.540627 620.1406 49.446877Q620.96875 50.384377 622.1406 50.384377Q623.15625 50.384377 624.1719 49.86875Q624.7344 49.571877 625.90625 48.7125Q626.46875 48.30625 626.75 48.30625Q627.1719 48.30625 627.4531 48.61875Q627.7344 48.93125 627.7344 49.321877Q627.7344 49.759377 627.3594 50.103127Q624.78125 52.384377 622.1406 52.384377Q620.125 52.384377 618.7344 50.8375Q617.375 49.321877 617.375 47.275Q617.375 43.9625 620.15625 40.49375Q622.46875 37.5875 624.8281 37.5875Q625.2969 37.5875 625.6719 37.634377Q626.0625 37.68125 626.3594 37.775Q626.7031 37.275 627.25 37.275Q627.9219 37.275 628.09375 38.165627Q628.25 38.9625 628.25 40.103127Q628.25 40.509377 628.03125 40.80625Q627.7656 41.196877 627.28125 41.196877ZM637.4844 52.790627Q637.2969 52.790627 636.8125 52.36875Q636.375 51.9625 636.15625 51.65Q635.21875 52.165627 634.5 52.415627Q633.7969 52.68125 633.3125 52.68125Q631.03125 52.68125 629.9844 51.384377Q629.0 50.18125 629.0 47.68125Q629.0 45.30625 630.625 43.634377Q632.25 41.946877 634.5 41.946877Q635.3594 41.946877 636.40625 42.4Q637.7344 42.946877 637.7344 43.7125Q637.7344 43.978127 637.5469 44.18125Q637.4531 44.55625 637.3906 45.4Q637.34375 46.24375 637.3281 47.571877Q637.3125 48.790627 637.5 49.49375Q637.59375 49.915627 638.1094 51.2125Q638.1719 51.384377 638.3281 51.728127L638.3906 51.9Q638.3906 52.290627 638.1094 52.540627Q637.84375 52.790627 637.4844 52.790627ZM635.4531 46.009377Q635.4531 45.5875 635.5 45.103127Q635.5625 44.603127 635.6719 44.040627Q635.3125 43.853127 635.0469 43.775Q634.7969 43.68125 634.6406 43.68125Q633.125 43.68125 632.0156 44.915627Q630.9219 46.15 630.9219 47.759377Q630.9219 49.36875 631.4844 50.165627Q632.0625 50.9625 633.1875 50.9625Q634.125 50.9625 634.78125 50.61875Q635.125 50.446877 635.7656 49.884377Q635.4531 47.290627 635.4531 46.009377ZM646.3906 43.821877Q646.1875 43.821877 645.90625 43.80625Q645.625 43.790627 645.4219 43.790627Q645.2031 43.790627 644.09375 43.93125L644.28125 49.7125L644.2969 50.134377L644.2969 50.634377Q644.34375 52.775 643.28125 52.775Q642.8906 52.775 642.59375 52.525Q642.3125 52.275 642.3125 51.884377Q642.3125 51.509377 642.34375 50.775Q642.375 50.025 642.375 49.665627L642.1719 43.9625Q641.4531 43.93125 640.0 43.790627Q639.1406 43.665627 639.1406 42.821877Q639.1406 42.4 639.3906 42.11875Q639.65625 41.821877 640.0781 41.821877L642.125 41.99375Q642.125 41.49375 642.0781 40.665627Q642.03125 39.821877 642.03125 39.446877Q642.03125 39.040627 642.3125 38.775Q642.6094 38.509377 643.0156 38.509377Q643.8906 38.509377 644.03125 39.946877Q644.0625 40.30625 644.0625 40.80625L644.0469 41.384377L644.03125 41.978127Q645.25 41.821877 645.4219 41.821877Q646.4375 41.821877 646.75 41.93125Q647.34375 42.11875 647.34375 42.8375Q647.34375 43.275 647.0781 43.55625Q646.8125 43.821877 646.3906 43.821877ZM652.4219 52.603127Q650.21875 52.603127 648.84375 51.49375Q647.34375 50.275 647.34375 48.071877Q647.34375 45.540627 648.5781 43.821877Q649.9219 41.946877 652.15625 41.946877Q653.78125 41.946877 654.7969 42.49375Q656.0625 43.165627 656.0625 44.55625Q656.0625 45.540627 654.9531 46.3375Q654.46875 46.696877 652.8906 47.43125L649.15625 49.196877Q649.7031 50.009377 650.5156 50.43125Q651.3281 50.8375 652.4219 50.8375Q653.09375 50.8375 654.0 50.571877Q655.15625 50.259377 655.4844 49.74375Q655.8125 49.2125 656.2031 49.2125Q656.5469 49.2125 656.8125 49.478127Q657.0781 49.728127 657.0781 50.071877Q657.0781 51.15 655.3281 51.93125Q653.8281 52.603127 652.4219 52.603127ZM652.15625 43.696877Q650.96875 43.696877 650.1719 44.61875Q649.375 45.540627 648.9844 47.4L651.9844 45.978127Q653.75 45.11875 654.5156 44.478127Q653.6719 43.696877 652.15625 43.696877ZM666.8906 47.946877L666.6719 51.228127Q666.6094 53.18125 666.2656 54.415627Q665.8281 55.99375 664.8594 56.74375Q663.6875 57.665627 661.46875 57.665627Q660.1719 57.665627 659.2969 57.478127Q658.0625 57.24375 658.0625 56.4625Q658.0625 55.603127 658.9219 55.603127Q659.2656 55.603127 660.0781 55.775Q660.90625 55.946877 661.90625 55.915627Q663.78125 55.884377 664.5 54.103127Q664.96875 52.915627 664.9844 50.446877Q664.46875 51.415627 663.7344 51.915627Q663.0156 52.4 662.0781 52.4Q660.2969 52.4 659.1875 51.196877Q658.09375 49.978127 658.09375 48.05625Q658.09375 45.415627 659.59375 43.80625Q661.15625 42.15 663.8594 42.15Q664.7656 42.15 665.375 42.384377Q666.0 42.61875 666.3125 43.0875Q667.3594 43.11875 667.3594 44.24375Q667.3594 44.946877 667.15625 46.103127Q666.9375 47.446877 666.8906 47.946877ZM663.7656 43.7125Q661.90625 43.7125 660.8906 44.99375Q659.9844 46.15 659.9844 47.915627Q659.9844 49.3375 660.5156 50.05625Q661.0625 50.759377 662.125 50.759377Q663.1094 50.759377 664.0469 49.65Q664.8906 48.61875 665.0 47.61875Q665.2031 46.55625 665.4375 44.30625Q665.0469 44.009377 664.625 43.86875Q664.2031 43.7125 663.7656 43.7125ZM673.5156 52.728127Q671.875 52.728127 670.7031 51.509377Q669.375 50.165627 669.3125 47.884377Q669.25 45.68125 670.4219 44.009377Q671.7969 42.025 674.2344 42.025Q676.1875 42.025 677.1875 43.80625Q678.0 45.259377 677.96875 47.290627Q677.9375 49.446877 676.8281 50.99375Q675.5781 52.728127 673.5156 52.728127ZM674.1094 44.009377Q672.6719 43.99375 671.875 45.36875Q671.2344 46.478127 671.2344 47.884377Q671.2344 49.30625 672.0 50.103127Q672.65625 50.759377 673.5156 50.759377Q674.53125 50.759377 675.2656 50.009377Q676.09375 49.196877 676.1406 47.790627Q676.28125 44.009377 674.1094 44.009377ZM688.4531 44.93125Q688.3906 46.15 687.4844 46.15Q686.6406 46.15 686.6406 45.18125Q686.6406 44.99375 686.6094 44.509377L686.5781 43.68125Q685.03125 43.86875 684.1094 44.55625Q683.2344 45.18125 682.6719 46.4625L682.6875 51.821877Q682.6875 52.80625 681.71875 52.80625Q680.8594 52.80625 680.8594 51.821877L680.8594 44.9625Q680.8594 44.634377 680.875 43.99375Q680.90625 43.353127 680.90625 43.025Q680.90625 42.040627 681.7656 42.040627Q682.71875 42.040627 682.7344 43.665627Q684.6094 41.853127 686.8906 41.853127Q687.6875 41.853127 688.0781 42.446877Q688.46875 43.040627 688.46875 44.24375Q688.46875 44.759377 688.4531 44.93125ZM699.375 43.43125L696.0 50.74375Q694.75 53.415627 694.0781 55.2125L693.4375 57.103127Q693.1875 57.80625 692.5625 57.80625Q692.1406 57.80625 691.84375 57.540627Q691.5469 57.275 691.5469 56.86875Q691.5469 55.884377 693.65625 51.2125L690.1719 44.478127L689.71875 43.775Q689.4531 43.321877 689.4531 43.025Q689.4531 42.61875 689.7656 42.321877Q690.0781 42.009377 690.4531 42.009377Q690.90625 42.009377 691.15625 42.353127Q692.8125 44.665627 694.71875 48.915627L696.15625 45.540627Q696.9375 43.80625 697.6719 42.540627Q697.9844 41.99375 698.4844 41.99375Q698.8906 41.99375 699.1875 42.275Q699.5 42.55625 699.5 42.946877Q699.5 43.165627 699.375 43.43125ZM710.5156 52.728127Q708.875 52.728127 707.7031 51.509377Q706.375 50.165627 706.3125 47.884377Q706.25 45.68125 707.4219 44.009377Q708.7969 42.025 711.2344 42.025Q713.1875 42.025 714.1875 43.80625Q715.0 45.259377 714.96875 47.290627Q714.9375 49.446877 713.8281 50.99375Q712.5781 52.728127 710.5156 52.728127ZM711.1094 44.009377Q709.6719 43.99375 708.875 45.36875Q708.2344 46.478127 708.2344 47.884377Q708.2344 49.30625 709.0 50.103127Q709.65625 50.759377 710.5156 50.759377Q711.53125 50.759377 712.2656 50.009377Q713.09375 49.196877 713.1406 47.790627Q713.28125 44.009377 711.1094 44.009377ZM724.4219 38.415627Q722.0625 38.415627 721.78125 41.696877L721.75 42.30625Q723.40625 42.18125 723.8906 42.18125Q725.4531 42.18125 725.4531 43.165627Q725.4531 43.884377 724.6875 44.009377Q724.3594 44.071877 723.90625 44.05625Q723.46875 44.040627 721.65625 44.196877L721.5781 46.415627Q721.5781 47.025 721.6094 48.24375Q721.65625 49.446877 721.65625 50.040627Q721.65625 51.9 721.4375 52.93125Q721.28125 53.7125 720.53125 53.7125Q720.1406 53.7125 719.84375 53.446877Q719.5625 53.196877 719.5625 52.80625Q719.5625 52.728127 719.59375 52.603127Q719.7969 51.3375 719.7969 49.8375L719.7656 47.18125L719.7656 44.353127Q718.5469 44.446877 718.21875 44.446877Q717.2344 44.446877 717.2344 43.49375Q717.2344 42.525 718.9375 42.478127L719.875 42.446877Q719.90625 41.9 720.03125 40.9625Q720.28125 38.80625 721.125 37.775Q722.1406 36.540627 724.2969 36.540627Q725.6875 36.540627 725.6875 37.478127Q725.6875 38.415627 724.4219 38.415627ZM741.84375 39.978127Q741.21875 39.978127 740.28125 39.853127L738.7031 39.65Q738.4844 42.49375 738.4844 45.071877Q738.4844 45.759377 738.5156 46.775Q738.5625 47.775 738.5625 48.4625Q738.5625 49.36875 738.4844 50.134377L741.5625 50.0875Q741.96875 50.0875 742.25 50.384377Q742.53125 50.665627 742.53125 51.0875Q742.53125 51.509377 742.25 51.80625Q741.96875 52.0875 741.5625 52.0875Q741.0156 52.0875 739.9219 52.11875Q738.8281 52.134377 738.28125 52.134377Q737.6406 52.134377 736.34375 52.321877Q735.0625 52.509377 734.4219 52.509377Q734.0 52.509377 733.71875 52.2125Q733.4531 51.93125 733.4531 51.509377Q733.4531 51.0875 733.71875 50.790627Q734.0 50.49375 734.4219 50.49375Q735.0469 50.49375 736.5156 50.290627Q736.6094 49.509377 736.6094 48.49375Q736.6094 47.80625 736.5469 46.8375Q736.4844 45.86875 736.4844 45.2125Q736.4844 42.946877 736.7656 39.571877L735.4844 39.603127L734.21875 39.634377Q733.7969 39.634377 733.5156 39.353127Q733.2344 39.071877 733.2344 38.634377Q733.2344 37.728127 734.15625 37.634377Q734.9375 37.55625 737.1094 37.55625Q739.0469 37.55625 741.9844 37.978127Q742.8594 38.103127 742.8594 39.025Q742.8594 39.478127 742.5156 39.759377Q742.2344 39.978127 741.84375 39.978127ZM751.3906 43.821877Q751.1875 43.821877 750.90625 43.80625Q750.625 43.790627 750.4219 43.790627Q750.2031 43.790627 749.09375 43.93125L749.28125 49.7125L749.2969 50.134377L749.2969 50.634377Q749.34375 52.775 748.28125 52.775Q747.8906 52.775 747.59375 52.525Q747.3125 52.275 747.3125 51.884377Q747.3125 51.509377 747.34375 50.775Q747.375 50.025 747.375 49.665627L747.1719 43.9625Q746.4531 43.93125 745.0 43.790627Q744.1406 43.665627 744.1406 42.821877Q744.1406 42.4 744.3906 42.11875Q744.65625 41.821877 745.0781 41.821877L747.125 41.99375Q747.125 41.49375 747.0781 40.665627Q747.03125 39.821877 747.03125 39.446877Q747.03125 39.040627 747.3125 38.775Q747.6094 38.509377 748.0156 38.509377Q748.8906 38.509377 749.03125 39.946877Q749.0625 40.30625 749.0625 40.80625L749.0469 41.384377L749.03125 41.978127Q750.25 41.821877 750.4219 41.821877Q751.4375 41.821877 751.75 41.93125Q752.34375 42.11875 752.34375 42.8375Q752.34375 43.275 752.0781 43.55625Q751.8125 43.821877 751.3906 43.821877ZM757.4219 52.603127Q755.21875 52.603127 753.84375 51.49375Q752.34375 50.275 752.34375 48.071877Q752.34375 45.540627 753.5781 43.821877Q754.9219 41.946877 757.15625 41.946877Q758.78125 41.946877 759.7969 42.49375Q761.0625 43.165627 761.0625 44.55625Q761.0625 45.540627 759.9531 46.3375Q759.46875 46.696877 757.8906 47.43125L754.15625 49.196877Q754.7031 50.009377 755.5156 50.43125Q756.3281 50.8375 757.4219 50.8375Q758.09375 50.8375 759.0 50.571877Q760.15625 50.259377 760.4844 49.74375Q760.8125 49.2125 761.2031 49.2125Q761.5469 49.2125 761.8125 49.478127Q762.0781 49.728127 762.0781 50.071877Q762.0781 51.15 760.3281 51.93125Q758.8281 52.603127 757.4219 52.603127ZM757.15625 43.696877Q755.96875 43.696877 755.1719 44.61875Q754.375 45.540627 753.9844 47.4L756.9844 45.978127Q758.75 45.11875 759.5156 44.478127Q758.6719 43.696877 757.15625 43.696877ZM776.2656 52.9625Q775.4531 52.9625 775.3281 52.103127Q775.1406 51.040627 774.96875 49.0875L774.6406 46.05625Q774.5469 45.384377 774.3125 44.74375Q773.96875 43.853127 773.5781 43.853127Q773.21875 43.853127 772.2344 44.478127Q771.2969 45.040627 771.0 45.384377Q771.0 46.30625 771.0625 47.2125L771.34375 49.821877Q771.53125 51.36875 771.53125 52.36875Q771.53125 52.80625 771.2656 53.0875Q771.0 53.36875 770.5781 53.36875Q770.15625 53.36875 769.8906 53.0875Q769.625 52.80625 769.625 52.36875Q769.625 51.196877 769.375 48.884377Q769.1406 46.571877 769.1406 45.384377Q769.1406 44.353127 768.84375 43.775Q768.1719 44.0875 767.46875 44.790627L766.3125 46.0875Q766.15625 46.321877 765.8125 46.696877Q765.8125 47.290627 765.7031 48.43125Q765.59375 49.571877 765.59375 50.11875Q765.59375 50.415627 765.6875 50.946877Q765.78125 51.4625 765.78125 51.696877Q765.78125 52.103127 765.4844 52.36875Q765.1875 52.65 764.78125 52.65Q763.6875 52.65 763.6875 50.134377Q763.6875 49.55625 763.78125 48.4Q763.8906 47.228127 763.8906 46.634377Q763.8906 46.11875 763.7969 45.0875Q763.71875 44.05625 763.71875 43.525Q763.71875 41.30625 764.7031 41.30625Q765.09375 41.30625 765.40625 41.65Q765.71875 41.978127 765.71875 42.36875Q765.71875 42.55625 765.6719 42.946877Q765.625 43.3375 765.625 43.540627L765.6406 44.55625Q766.15625 43.509377 767.1406 42.665627Q768.125 41.821877 768.8125 41.821877Q770.3594 41.821877 770.9219 43.353127Q771.46875 42.634377 772.2031 42.290627Q772.9531 41.93125 773.90625 41.93125Q775.53125 41.93125 776.1406 43.68125Q776.25 44.040627 776.53125 46.43125Q776.8125 48.103127 777.2344 52.025Q777.2656 52.415627 776.96875 52.68125Q776.6875 52.9625 776.2656 52.9625ZM785.4531 44.634377Q784.90625 44.634377 784.7031 44.275Q784.5469 44.009377 784.4375 43.2125Q783.71875 43.4 782.1875 43.9Q780.6094 44.525 780.6094 45.446877Q780.90625 45.540627 781.1875 45.603127Q783.4219 45.99375 784.5156 46.696877Q786.1094 47.728127 786.1094 49.665627Q786.1094 51.259377 784.7344 52.071877Q783.59375 52.74375 781.84375 52.74375Q780.5625 52.74375 779.40625 52.30625Q777.90625 51.759377 777.90625 50.775Q777.90625 50.384377 778.2031 50.103127Q778.5156 49.80625 778.90625 49.80625Q779.2031 49.80625 779.6875 50.275Q779.9219 50.49375 780.75 50.65Q781.3906 50.759377 781.84375 50.759377Q782.6719 50.759377 783.2969 50.571877Q784.2031 50.290627 784.2031 49.665627Q784.2031 48.3375 782.34375 47.86875L781.3281 47.65Q780.03125 47.36875 779.4844 46.978127Q778.6875 46.43125 778.6875 45.3375Q778.6875 43.290627 780.6094 42.415627Q781.2031 42.165627 782.4844 41.80625Q783.78125 41.43125 784.34375 41.165627Q784.7344 40.99375 785.2031 40.99375Q785.625 40.99375 785.8906 41.275Q786.15625 41.540627 786.15625 41.978127Q786.15625 42.259377 786.28125 42.80625Q786.40625 43.353127 786.40625 43.65Q786.40625 44.0875 786.1406 44.36875Q785.875 44.634377 785.4531 44.634377ZM801.4531 44.634377Q800.90625 44.634377 800.7031 44.275Q800.5469 44.009377 800.4375 43.2125Q799.71875 43.4 798.1875 43.9Q796.6094 44.525 796.6094 45.446877Q796.90625 45.540627 797.1875 45.603127Q799.4219 45.99375 800.5156 46.696877Q802.1094 47.728127 802.1094 49.665627Q802.1094 51.259377 800.7344 52.071877Q799.59375 52.74375 797.84375 52.74375Q796.5625 52.74375 795.40625 52.30625Q793.90625 51.759377 793.90625 50.775Q793.90625 50.384377 794.2031 50.103127Q794.5156 49.80625 794.90625 49.80625Q795.2031 49.80625 795.6875 50.275Q795.9219 50.49375 796.75 50.65Q797.3906 50.759377 797.84375 50.759377Q798.6719 50.759377 799.2969 50.571877Q800.2031 50.290627 800.2031 49.665627Q800.2031 48.3375 798.34375 47.86875L797.3281 47.65Q796.03125 47.36875 795.4844 46.978127Q794.6875 46.43125 794.6875 45.3375Q794.6875 43.290627 796.6094 42.415627Q797.2031 42.165627 798.4844 41.80625Q799.78125 41.43125 800.34375 41.165627Q800.7344 40.99375 801.2031 40.99375Q801.625 40.99375 801.8906 41.275Q802.15625 41.540627 802.15625 41.978127Q802.15625 42.259377 802.28125 42.80625Q802.40625 43.353127 802.40625 43.65Q802.40625 44.0875 802.1406 44.36875Q801.875 44.634377 801.4531 44.634377ZM806.71875 39.790627Q806.25 39.790627 805.90625 39.4625Q805.5781 39.11875 805.5781 38.65Q805.5781 38.18125 805.90625 37.853127Q806.25 37.525 806.71875 37.525Q807.1875 37.525 807.5156 37.853127Q807.8594 38.18125 807.8594 38.65Q807.8594 39.11875 807.5156 39.4625Q807.1875 39.790627 806.71875 39.790627ZM807.15625 47.7125Q807.15625 48.30625 807.1875 49.478127Q807.2344 50.634377 807.2344 51.228127Q807.2344 51.65 806.96875 51.93125Q806.7031 52.196877 806.28125 52.196877Q805.8594 52.196877 805.5781 51.93125Q805.3125 51.65 805.3125 51.228127Q805.3125 50.634377 805.28125 49.478127Q805.25 48.30625 805.25 47.7125Q805.25 46.790627 805.34375 45.43125Q805.4375 44.05625 805.4375 43.134377Q805.4375 42.696877 805.7031 42.43125Q805.9844 42.15 806.40625 42.15Q806.8281 42.15 807.09375 42.43125Q807.3594 42.696877 807.3594 43.134377Q807.3594 44.05625 807.25 45.43125Q807.15625 46.790627 807.15625 47.7125ZM818.34375 52.8375Q817.5156 52.8375 817.40625 51.93125L817.125 49.790627Q816.9844 48.65 816.9844 47.65Q816.9844 47.36875 817.0156 46.728127Q817.0625 46.071877 817.0625 45.790627Q817.0625 43.68125 816.28125 43.68125Q815.1875 43.68125 814.1875 44.978127Q813.2969 46.165627 812.78125 47.9625Q812.7656 48.353127 812.6875 48.93125Q812.6406 49.415627 812.6406 49.86875Q812.6406 50.165627 812.6875 50.759377Q812.75 51.3375 812.75 51.634377Q812.75 52.071877 812.4844 52.3375Q812.21875 52.61875 811.7969 52.61875Q811.3594 52.61875 811.09375 52.3375Q810.84375 52.071877 810.84375 51.634377Q810.84375 51.3375 810.78125 50.759377Q810.71875 50.165627 810.71875 49.86875Q810.71875 48.86875 810.8594 47.0875Q811.0 45.30625 811.0 44.290627Q811.0 43.978127 810.9531 43.36875Q810.9219 42.759377 810.9219 42.446877Q810.9219 42.025 811.2031 41.759377Q811.4844 41.478127 811.8906 41.478127Q812.7969 41.478127 812.875 42.759377L812.90625 43.9Q814.5469 41.7125 816.28125 41.7125Q817.84375 41.7125 818.4531 43.0875Q818.875 44.009377 818.9219 45.80625L818.9219 46.790627L818.90625 47.696877Q818.90625 48.509377 819.1094 49.790627Q819.3281 51.071877 819.3281 51.86875Q819.3281 52.30625 819.0469 52.571877Q818.7656 52.8375 818.34375 52.8375ZM825.2656 52.759377Q823.2656 52.759377 821.9375 51.55625Q820.53125 50.290627 820.53125 48.196877Q820.53125 46.228127 821.84375 44.11875Q823.3125 41.775 825.1406 41.775Q826.1094 41.775 827.28125 42.2125Q828.78125 42.790627 828.78125 43.61875Q828.78125 43.99375 828.53125 44.290627Q828.2969 44.571877 827.9219 44.571877Q827.6406 44.571877 827.4219 44.4Q827.21875 44.228127 827.03125 44.05625Q826.4531 43.603127 825.1406 43.603127Q824.15625 43.603127 823.1719 45.384377Q822.28125 47.009377 822.28125 48.196877Q822.28125 49.49375 823.15625 50.228127Q823.9844 50.93125 825.2656 50.93125Q825.8594 50.93125 826.5156 50.61875L827.65625 50.009377Q827.9531 49.853127 828.0781 49.853127Q828.4375 49.853127 828.7031 50.15Q828.96875 50.43125 828.96875 50.80625Q828.96875 51.509377 827.4531 52.18125Q826.1406 52.759377 825.2656 52.759377ZM835.4219 52.603127Q833.21875 52.603127 831.84375 51.49375Q830.34375 50.275 830.34375 48.071877Q830.34375 45.540627 831.5781 43.821877Q832.9219 41.946877 835.15625 41.946877Q836.78125 41.946877 837.7969 42.49375Q839.0625 43.165627 839.0625 44.55625Q839.0625 45.540627 837.9531 46.3375Q837.46875 46.696877 835.8906 47.43125L832.15625 49.196877Q832.7031 50.009377 833.5156 50.43125Q834.3281 50.8375 835.4219 50.8375Q836.09375 50.8375 837.0 50.571877Q838.15625 50.259377 838.4844 49.74375Q838.8125 49.2125 839.2031 49.2125Q839.5469 49.2125 839.8125 49.478127Q840.0781 49.728127 840.0781 50.071877Q840.0781 51.15 838.3281 51.93125Q836.8281 52.603127 835.4219 52.603127ZM835.15625 43.696877Q833.96875 43.696877 833.1719 44.61875Q832.375 45.540627 831.9844 47.4L834.9844 45.978127Q836.75 45.11875 837.5156 44.478127Q836.6719 43.696877 835.15625 43.696877ZM856.34375 52.165627Q856.09375 52.165627 855.65625 52.025Q855.21875 51.86875 854.9844 51.86875Q854.4844 51.86875 853.4844 51.93125Q852.4844 51.978127 851.9844 51.978127Q851.59375 51.978127 850.84375 52.0875Q850.1094 52.18125 849.71875 52.18125Q849.6094 52.18125 849.40625 52.15Q849.2031 52.103127 849.09375 52.103127Q848.4219 52.103127 848.21875 51.446877Q848.1094 51.103127 848.1094 50.275Q848.1094 47.99375 849.34375 46.61875Q849.90625 45.978127 852.40625 44.275Q853.7969 43.30625 854.2656 42.775Q855.1094 41.8375 855.1094 40.571877Q855.1094 39.946877 854.2969 39.4625Q853.5781 39.025 852.8906 39.025Q852.0 39.025 851.1875 39.540627L849.7969 40.634377Q849.375 40.9625 849.125 40.9625Q848.1094 40.9625 848.1094 40.165627Q848.1094 39.7125 848.4844 39.36875Q849.625 38.30625 850.46875 37.821877Q851.6406 37.15 852.8906 37.15Q854.4844 37.15 855.71875 38.009377Q857.1094 38.978127 857.1094 40.49375Q857.1094 41.478127 856.8281 42.321877Q856.5469 43.165627 855.96875 43.853127Q855.2344 44.74375 853.4844 45.821877Q851.6406 46.978127 851.0781 47.571877Q849.9844 48.696877 850.0 50.290627L852.0156 50.103127Q854.09375 49.99375 854.9844 49.99375Q855.71875 49.99375 856.3906 50.24375Q857.2656 50.5875 857.2656 51.196877Q857.2656 51.571877 857.0 51.86875Q856.7344 52.165627 856.34375 52.165627ZM864.46875 52.525Q861.5 52.525 860.125 49.821877Q859.09375 47.728127 859.09375 44.36875Q859.09375 41.540627 860.4375 39.43125Q862.03125 36.9625 864.7656 36.9625Q867.34375 36.9625 868.78125 39.15Q870.0156 41.040627 870.0156 43.775Q870.0156 48.15 868.625 50.3375Q867.2344 52.525 864.46875 52.525ZM864.7656 38.853127Q862.9375 38.853127 861.875 40.696877Q860.9844 42.24375 860.9844 44.2125Q860.9844 47.43125 861.8594 49.040627Q862.7344 50.65 864.46875 50.65Q866.53125 50.65 867.4375 48.290627Q868.0625 46.65 868.0625 44.134377Q868.0625 41.478127 867.2344 40.165627Q866.40625 38.853127 864.7656 38.853127ZM877.375 52.165627L875.4375 52.165627L873.5 52.15Q872.8125 52.15 872.5469 52.05625Q872.0469 51.884377 872.0469 51.321877Q872.0469 50.3375 873.5781 50.3375L874.0469 50.3375L874.4531 50.36875Q874.4531 49.9 874.3594 48.978127Q874.28125 48.05625 874.28125 47.603127Q874.28125 46.353127 874.5 43.821877Q874.71875 41.3375 874.7031 40.05625Q873.40625 41.071877 873.0469 41.071877Q872.65625 41.071877 872.3594 40.775Q872.0781 40.478127 872.0781 40.103127Q872.0781 39.634377 872.90625 38.978127Q873.4375 38.61875 874.40625 37.790627Q875.2656 36.93125 876.0469 36.93125Q876.7031 36.93125 876.7031 37.68125Q876.7031 37.9 876.6406 38.353127Q876.5781 38.790627 876.5781 39.009377Q876.5781 39.3375 876.6094 39.99375Q876.65625 40.65 876.65625 40.9625Q876.65625 42.0875 876.4219 44.290627Q876.1875 46.49375 876.1875 47.603127Q876.1875 48.165627 876.2656 48.978127Q876.34375 49.790627 876.34375 50.30625L877.375 50.290627Q877.78125 50.290627 878.0469 50.55625Q878.3281 50.821877 878.3281 51.228127Q878.3281 51.634377 878.0469 51.9Q877.78125 52.165627 877.375 52.165627ZM887.15625 50.9625Q886.4375 51.49375 884.875 52.24375Q883.125 53.071877 882.4375 53.071877Q882.0469 53.071877 881.78125 52.775Q881.5156 52.49375 881.5156 52.103127Q881.5156 51.525 882.1875 51.228127L883.8125 50.68125Q885.3281 50.05625 886.2031 49.259377Q887.09375 48.4625 887.8125 46.978127L888.2344 46.15Q887.6875 46.4625 886.8281 46.728127Q885.96875 46.978127 885.4219 46.978127Q883.5781 46.978127 882.2344 45.9625Q880.59375 44.7125 880.59375 42.4Q880.59375 39.68125 882.28125 38.30625Q883.7031 37.15 886.0469 37.15Q887.84375 37.15 889.2656 38.61875Q890.7656 40.165627 890.78125 42.36875Q890.7969 44.8375 889.8594 47.18125Q888.8594 49.696877 887.15625 50.9625ZM885.7656 38.821877Q884.125 38.821877 883.2969 39.68125Q882.4844 40.525 882.46875 42.228127Q882.46875 43.665627 883.46875 44.446877Q884.3594 45.15 885.71875 45.15Q886.5 45.15 887.34375 44.68125Q887.7344 44.4625 888.75 43.7125Q888.875 42.86875 888.875 42.36875Q888.8594 41.15 887.84375 39.99375Q886.8281 38.821877 885.7656 38.821877Z" fill-rule="nonzero"/></svg>