<svg width="663" height="373" viewBox="0 0 663 373" fill="none" xmlns="http://www.w3.org/2000/svg">
<g clip-path="url(#clip0_441_3093)">
<path d="M263.411 16.9725C264.027 17.2501 264.643 17.5267 265.259 17.8042C265.277 18.022 265.362 18.1083 265.566 17.9622C277.832 23.7655 289.432 30.7065 300.172 38.9736C311.259 47.5074 321.282 57.1976 330.241 67.9775C338.766 78.2356 346.013 89.341 352.186 101.124C358.047 112.31 362.617 124.049 366.061 136.204C368.281 144.042 369.964 152.005 371.144 160.064C372.899 172.049 373.297 184.09 372.801 196.197C372.42 205.464 371.118 214.602 369.329 223.65C367.436 233.226 364.777 242.635 361.289 251.779C357.631 261.368 353.319 270.644 348.193 279.549C343.424 287.834 338.126 295.767 332.121 303.182C324.854 312.155 316.865 320.453 308.052 327.974C298.834 335.841 288.975 342.759 278.47 348.749C269.713 353.741 260.561 357.923 251.097 361.433C242.998 364.435 234.761 366.987 226.324 368.779C212.878 371.635 199.277 373.226 185.496 372.975C178.543 372.849 171.591 372.764 164.691 371.75C164.788 371.159 164.911 370.571 164.98 369.975C165.57 364.902 166.141 359.826 166.737 354.753C167.234 350.516 167.781 346.284 168.265 342.045C168.742 337.865 169.146 333.677 169.622 329.497C170.119 325.137 170.672 320.785 171.185 316.427C171.669 312.309 172.124 308.187 172.605 304.069C173.093 299.891 173.602 295.715 174.092 291.538C174.533 287.778 174.955 284.016 175.396 280.256C175.922 275.779 176.467 271.305 176.991 266.828C177.445 262.949 177.87 259.067 178.327 255.189C178.96 249.817 179.618 244.447 180.252 239.075C180.724 235.077 181.173 231.077 181.638 227.077C182.144 222.72 182.655 218.362 183.166 214.004C183.613 210.185 184.034 206.362 184.52 202.547C184.975 198.981 185.523 195.426 185.555 191.82C185.58 191.485 185.605 191.152 185.63 190.817C186.186 190.18 186.398 189.468 186.103 188.645C186.094 188.404 186.085 188.161 186.075 187.92C186.148 187.681 186.22 187.442 186.292 187.203C186.914 186.948 186.787 186.468 186.658 185.986C186.749 185.594 186.84 185.201 186.93 184.809C187.233 184.367 187.613 183.959 187.829 183.478C190.208 178.2 192.545 172.901 194.925 167.624C201.197 153.717 207.51 139.83 213.758 125.913C220.007 111.993 226.168 98.0348 232.421 84.1174C238.452 70.6953 244.567 57.3114 250.615 43.8972C254.309 35.7066 257.929 27.4837 261.63 19.297C262.025 18.4221 262.152 17.2324 263.41 16.9716L263.411 16.9725Z" fill="#EC0865"/>
<path d="M3.71301 224.197C2.66379 220.739 2.25647 217.176 1.85405 213.599C1.47127 210.202 0.962853 206.826 0.695886 203.406C0.443642 200.171 0.0412284 196.953 0.0588954 193.697C0.0844143 189.194 -0.0657546 184.693 0.036321 180.187C0.185508 173.627 0.959909 167.147 1.75983 160.642C2.66379 153.289 4.22633 146.076 6.04602 138.942C7.5644 132.988 9.49107 127.114 11.7142 121.346C13.6124 116.422 15.6519 111.563 17.9084 106.806C21.2818 99.6943 25.0743 92.813 29.3693 86.1868C33.1353 80.3757 37.1202 74.7391 41.4633 69.3673C47.3435 62.0928 53.8076 55.3606 60.735 49.0522C65.3726 44.8299 70.1829 40.8263 75.2042 37.1003C82.7902 31.4706 90.705 26.3145 99.1409 22.0128C105.672 18.683 112.272 15.4945 119.15 12.9278C125.603 10.5189 132.09 8.18858 138.786 6.53595C144.499 5.12558 150.265 3.96138 156.055 2.87074C162.929 1.5761 169.886 1.2544 176.802 0.487423C179.551 0.182398 182.36 0.440345 185.142 0.410922C186.026 0.401114 186.32 0.821872 186.274 1.63593C186.248 2.1175 186.272 2.60299 186.272 3.08553C186.272 63.2148 186.271 123.343 186.284 183.472C186.284 184.291 186.014 185.177 186.636 185.917C186.505 186.229 186.373 186.541 186.242 186.852C186.122 186.964 186.002 187.077 185.883 187.189C181.296 187.408 176.892 188.684 172.433 189.6C166.5 190.818 160.551 191.952 154.641 193.298C147.517 194.92 140.3 196.131 133.139 197.599C127.375 198.779 121.645 200.128 115.879 201.308C110.002 202.51 104.093 203.556 98.2134 204.748C92.7416 205.857 87.2992 207.105 81.8293 208.224C74.3591 209.753 66.8379 211.05 59.411 212.761C54.0333 213.998 48.5949 214.914 43.2261 216.189C38.5561 217.299 33.8214 218.138 29.1181 219.108C23.8886 220.187 18.6671 221.3 13.4337 222.357C10.2017 223.009 6.95292 223.584 3.71202 224.194L3.71301 224.197Z" fill="#F9D6EC"/>
<path d="M3.51669 224.197C6.75759 223.587 10.0054 223.012 13.2384 222.36C18.4718 221.303 23.6933 220.189 28.9227 219.111C33.6261 218.141 38.3608 217.302 43.0308 216.192C48.3986 214.917 53.838 214.001 59.2156 212.764C66.6426 211.053 74.1638 209.756 81.634 208.227C87.1039 207.108 92.5462 205.86 98.0181 204.751C103.897 203.559 109.807 202.513 115.684 201.311C121.448 200.131 127.178 198.782 132.944 197.602C140.105 196.134 147.322 194.922 154.445 193.301C160.356 191.955 166.305 190.821 172.238 189.603C176.697 188.687 181.101 187.411 185.687 187.191C185.797 187.196 185.906 187.202 186.016 187.211L186.155 187.223L186.294 187.204C186.221 187.444 186.15 187.683 186.077 187.922C185.535 187.905 185.182 188.238 184.849 188.597C181.698 192.001 178.506 195.369 175.409 198.823C170.991 203.749 166.658 208.75 162.262 213.695C159.782 216.486 157.228 219.209 154.743 221.996C150.138 227.159 145.568 232.354 140.966 237.52C137.725 241.16 134.439 244.764 131.201 248.407C126.684 253.488 122.208 258.605 117.684 263.679C114.239 267.544 110.72 271.342 107.28 275.212C102.965 280.068 98.7208 284.987 94.4013 289.84C90.8787 293.797 87.2717 297.679 83.7373 301.625C77.8356 308.214 71.9044 314.777 66.1195 321.468C64.8651 322.92 62.9983 323.999 62.6273 326.137C59.9851 324.499 58.0368 322.067 55.7853 319.998C53.0469 317.482 50.7355 314.51 48.1532 311.816C42.9748 306.416 38.4226 300.514 34.0726 294.45C30.4941 289.46 27.0913 284.342 24.1291 278.968C20.2728 271.97 16.6835 264.829 13.6654 257.415C9.85029 248.044 6.67515 238.475 4.50212 228.581C4.18117 227.119 3.71594 225.688 3.51669 224.197Z" fill="#FEBAE2"/>
<path d="M62.6273 326.137C62.9973 323.999 64.8641 322.92 66.1195 321.468C71.9034 314.777 77.8346 308.214 83.7373 301.625C87.2727 297.678 90.8787 293.796 94.4013 289.84C98.7209 284.988 102.965 280.068 107.28 275.212C110.72 271.343 114.238 267.544 117.684 263.679C122.208 258.606 126.684 253.489 131.201 248.407C134.439 244.764 137.725 241.16 140.966 237.52C145.568 232.353 150.138 227.159 154.743 221.996C157.228 219.209 159.782 216.486 162.262 213.695C166.658 208.75 170.991 203.749 175.409 198.823C178.506 195.369 181.698 192.001 184.849 188.597C185.181 188.238 185.534 187.905 186.077 187.922C186.087 188.163 186.096 188.406 186.105 188.647C185.629 189.302 185.158 189.958 185.632 190.819C185.607 191.154 185.582 191.487 185.558 191.822C184.773 192.205 184.811 193.016 184.654 193.685C183.717 197.666 182.861 201.666 181.904 205.641C179.708 214.764 177.435 223.87 175.258 232.998C173.081 242.125 171.011 251.278 168.842 260.406C166.409 270.645 163.898 280.864 161.457 291.1C159.255 300.337 157.113 309.588 154.92 318.828C153.116 326.434 151.268 334.029 149.457 341.633C147.381 350.353 145.325 359.076 143.261 367.797C140.228 367.667 137.386 366.678 134.526 365.806C124.795 362.837 115.229 359.413 106.057 354.991C98.2969 351.25 90.7992 347.045 83.6156 342.262C77.0995 337.923 70.8886 333.194 64.766 328.336C63.972 327.706 63.3369 326.875 62.6293 326.137H62.6273Z" fill="#F2A1F9"/>
<path d="M263.362 16.9882C262.097 17.2501 261.969 18.4467 261.572 19.3264C257.85 27.5602 254.208 35.8312 250.494 44.0688C244.41 57.5605 238.26 71.0209 232.195 84.5205C225.905 98.5183 219.709 112.557 213.423 126.556C207.14 140.553 200.79 154.52 194.482 168.506C192.089 173.814 189.738 179.143 187.346 184.452C187.128 184.936 186.746 185.346 186.441 185.791C186.385 185.251 186.279 184.712 186.279 184.173C186.275 123.006 186.279 61.8378 186.283 0.670857C188.722 0.520797 191.192 1.10829 193.606 0.368774C194.808 0.378582 196.011 0.38839 197.213 0.398198C198.404 1.73207 199.938 0.813072 201.3 1.02296C201.899 1.03179 202.498 1.04061 203.097 1.04944C203.328 1.42606 203.571 1.43882 203.826 1.07396C204.544 1.08867 205.26 1.10437 205.978 1.11908C206.301 2.0165 206.84 1.95373 207.477 1.45647C208.329 1.56239 209.181 1.66832 210.033 1.77425C210.202 2.08908 210.476 2.15577 210.802 2.09791C219.052 2.89529 227.136 4.56263 235.099 6.82531C241.653 8.68783 248.158 10.72 254.513 13.1847C257.504 14.345 260.415 15.7132 263.361 16.9873L263.362 16.9882Z" fill="#FEACDE"/>
<path d="M143.259 367.796C145.323 359.075 147.38 350.351 149.455 341.632C151.266 334.028 153.114 326.433 154.918 318.827C157.11 309.588 159.252 300.336 161.455 291.099C163.896 280.863 166.407 270.644 168.84 260.405C171.009 251.276 173.079 242.125 175.256 232.997C177.433 223.869 179.705 214.764 181.902 205.64C182.859 201.664 183.715 197.665 184.652 193.684C184.809 193.015 184.771 192.204 185.556 191.821C185.524 195.426 184.976 198.981 184.521 202.547C184.034 206.361 183.614 210.184 183.167 214.004C182.656 218.362 182.145 222.72 181.639 227.077C181.174 231.076 180.725 235.077 180.253 239.075C179.619 244.447 178.961 249.817 178.328 255.189C177.871 259.067 177.446 262.949 176.992 266.828C176.468 271.305 175.923 275.779 175.397 280.256C174.956 284.015 174.534 287.777 174.093 291.538C173.603 295.716 173.094 299.891 172.606 304.069C172.125 308.188 171.67 312.309 171.186 316.427C170.673 320.785 170.12 325.138 169.623 329.497C169.147 333.677 168.743 337.865 168.266 342.045C167.782 346.284 167.235 350.516 166.738 354.753C166.142 359.826 165.571 364.902 164.981 369.975C164.912 370.57 164.789 371.159 164.692 371.751C161.71 372.124 158.892 371.061 156.012 370.651C152.05 370.087 148.156 369.052 144.236 368.202C143.897 368.128 143.584 367.934 143.258 367.797L143.259 367.796Z" fill="#F558B1"/>
<path d="M194.056 0.449225C191.655 1.18482 189.199 0.600266 186.775 0.749346C186.898 0.55515 187.02 0.195201 187.148 0.193239C189.454 0.154007 191.782 -0.351099 194.057 0.449225H194.056Z" fill="#FDD7ED"/>
<path d="M201.705 1.09946C200.351 0.891532 198.825 1.80465 197.642 0.47862C198.998 0.674778 200.526 -0.246183 201.705 1.09946Z" fill="#FDD7ED"/>
<path d="M207.848 1.53002C207.213 2.02434 206.678 2.08613 206.357 1.19459C206.882 1.17988 207.45 0.976859 207.848 1.53002Z" fill="#FDD7ED"/>
<path d="M186.046 186.855C186.177 186.543 186.309 186.232 186.44 185.92C186.518 185.927 186.591 185.95 186.659 185.987C186.788 186.469 186.914 186.949 186.293 187.204L186.155 187.223C186.155 187.223 186.016 187.211 186.017 187.211C186.059 187.095 186.069 186.977 186.048 186.855H186.046Z" fill="#F558B1"/>
<path d="M204.217 1.15044C203.963 1.51333 203.721 1.50058 203.492 1.12592C203.746 0.771853 203.987 0.790488 204.217 1.15044Z" fill="#FDD7ED"/>
<path d="M211.153 2.16851C210.829 2.22638 210.556 2.15968 210.389 1.84681C210.908 1.32699 211.028 1.75462 211.153 2.16851Z" fill="#FDD7ED"/>
<path d="M265.566 17.9604C265.362 18.1068 265.278 18.0199 265.26 17.8033C265.363 17.856 265.464 17.9077 265.566 17.9604Z" fill="#FEACDE"/>
<path d="M185.63 190.818C185.157 189.957 185.627 189.301 186.103 188.646C186.397 189.468 186.185 190.181 185.63 190.818Z" fill="#F558B1"/>
<path d="M186.044 186.855C186.065 186.976 186.055 187.094 186.013 187.209C185.904 187.201 185.796 187.195 185.686 187.19C185.805 187.079 185.925 186.966 186.044 186.855Z" fill="#F2A1F9"/>
</g>
<circle cx="443.5" cy="95.5" r="12.5" fill="#EC0865"/>
<path d="M467.56 96.37H470.56V93.595C470.56 93.1 470.605 92.275 470.635 91.765H470.575C470.335 92.215 470.065 92.635 469.795 93.115L467.56 96.37ZM470.56 100V97.36H466.255V96.535L470.35 90.43H471.73V96.37H473.035V97.36H471.73V100H470.56ZM476.966 100.18C475.436 100.18 474.491 99.535 473.831 98.875L474.431 98.05C475.001 98.62 475.721 99.145 476.846 99.145C478.016 99.145 478.931 98.305 478.931 96.97C478.931 95.65 478.136 94.885 476.906 94.885C476.246 94.885 475.841 95.08 475.271 95.455L474.611 95.035L474.926 90.43H479.726V91.51H476.021L475.766 94.33C476.216 94.09 476.651 93.94 477.236 93.94C478.856 93.94 480.191 94.87 480.191 96.94C480.191 99.01 478.631 100.18 476.966 100.18ZM482.787 100.18C482.292 100.18 481.887 99.79 481.887 99.235C481.887 98.665 482.292 98.275 482.787 98.275C483.282 98.275 483.687 98.665 483.687 99.235C483.687 99.79 483.282 100.18 482.787 100.18ZM485.847 100V98.965H488.037V91.945H486.282V91.135C487.167 90.985 487.797 90.745 488.322 90.43H489.282V98.965H491.247V100H485.847ZM494.878 96.19C493.528 96.19 492.643 95.065 492.643 93.07C492.643 91.105 493.528 89.98 494.878 89.98C496.213 89.98 497.113 91.105 497.113 93.07C497.113 95.065 496.213 96.19 494.878 96.19ZM494.878 95.425C495.643 95.425 496.168 94.63 496.168 93.07C496.168 91.51 495.643 90.745 494.878 90.745C494.113 90.745 493.573 91.51 493.573 93.07C493.573 94.63 494.113 95.425 494.878 95.425ZM495.163 100.18L500.593 89.98H501.433L496.003 100.18H495.163ZM501.733 100.18C500.383 100.18 499.498 99.055 499.498 97.06C499.498 95.095 500.383 93.97 501.733 93.97C503.068 93.97 503.968 95.095 503.968 97.06C503.968 99.055 503.068 100.18 501.733 100.18ZM501.733 99.415C502.498 99.415 503.023 98.62 503.023 97.06C503.023 95.5 502.498 94.735 501.733 94.735C500.968 94.735 500.428 95.5 500.428 97.06C500.428 98.62 500.968 99.415 501.733 99.415ZM511.117 96.715V95.755H514.567V96.715H511.117ZM522.606 100V93.715H521.616V92.785L522.606 92.71V91.57C522.606 90.085 523.281 89.14 524.736 89.14C525.186 89.14 525.651 89.245 525.951 89.38L525.681 90.295C525.396 90.205 525.126 90.145 524.871 90.145C524.181 90.145 523.851 90.64 523.851 91.57V92.71H525.381V93.715H523.851V100H522.606ZM528.906 100.18C527.361 100.18 526.671 99.19 526.671 97.33V92.71H527.916V97.165C527.916 98.515 528.336 99.1 529.296 99.1C530.031 99.1 530.556 98.725 531.231 97.87V92.71H532.476V100H531.456L531.351 98.86H531.306C530.631 99.655 529.911 100.18 528.906 100.18ZM534.935 100V92.71H535.955L536.06 94.03H536.105C536.615 93.115 537.365 92.53 538.175 92.53C538.505 92.53 538.73 92.575 538.955 92.68L538.685 93.745C538.475 93.685 538.31 93.655 538.025 93.655C537.41 93.655 536.675 94.09 536.18 95.32V100H534.935ZM540.15 100V92.71H541.17L541.275 93.76H541.32C542.01 93.07 542.76 92.53 543.765 92.53C545.31 92.53 546 93.52 546 95.38V100H544.755V95.545C544.755 94.18 544.335 93.61 543.375 93.61C542.64 93.61 542.115 93.985 541.395 94.72V100H540.15ZM548.353 100V92.71H549.598V100H548.353ZM548.983 91.21C548.503 91.21 548.158 90.895 548.158 90.4C548.158 89.92 548.503 89.59 548.983 89.59C549.463 89.59 549.808 89.92 549.808 90.4C549.808 90.895 549.463 91.21 548.983 91.21ZM554.354 100.18C552.794 100.18 552.269 99.19 552.269 97.735V93.715H551.189V92.785L552.329 92.71L552.479 90.37H553.514V92.71H555.494V93.715H553.514V97.765C553.514 98.65 553.814 99.16 554.639 99.16C554.909 99.16 555.179 99.115 555.479 98.98L555.734 99.865C555.344 100.045 554.849 100.18 554.354 100.18ZM559.272 100.18C557.727 100.18 557.037 99.19 557.037 97.33V92.71H558.282V97.165C558.282 98.515 558.702 99.1 559.662 99.1C560.397 99.1 560.922 98.725 561.597 97.87V92.71H562.842V100H561.822L561.717 98.86H561.672C560.997 99.655 560.277 100.18 559.272 100.18ZM565.301 100V92.71H566.321L566.426 94.03H566.471C566.981 93.115 567.731 92.53 568.541 92.53C568.871 92.53 569.096 92.575 569.321 92.68L569.051 93.745C568.841 93.685 568.676 93.655 568.391 93.655C567.776 93.655 567.041 94.09 566.546 95.32V100H565.301ZM573.31 100.18C571.36 100.18 569.83 98.77 569.83 96.355C569.83 93.985 571.435 92.53 573.1 92.53C574.96 92.53 576.025 93.85 576.025 95.95C576.025 96.22 576.01 96.445 575.965 96.685H571.06C571.165 98.185 572.08 99.175 573.46 99.175C574.165 99.175 574.78 98.98 575.29 98.635L575.725 99.43C575.095 99.88 574.315 100.18 573.31 100.18ZM571.06 95.725H574.915C574.915 94.285 574.24 93.52 573.13 93.52C572.11 93.52 571.21 94.33 571.06 95.725Z" fill="black"/>
<circle cx="443.5" cy="135.5" r="12.5" fill="#F558B1"/>
<path d="M475.185 140V138.965H477.375V131.945H475.62V131.135C476.505 130.985 477.135 130.745 477.66 130.43H478.62V138.965H480.585V140H475.185ZM483.331 140.18C482.836 140.18 482.431 139.79 482.431 139.235C482.431 138.665 482.836 138.275 483.331 138.275C483.826 138.275 484.231 138.665 484.231 139.235C484.231 139.79 483.826 140.18 483.331 140.18ZM486.976 133.325C486.976 134.57 487.561 135.35 488.731 135.35C489.361 135.35 490.126 134.975 490.726 134.09C490.576 132.23 489.841 131.24 488.626 131.24C487.696 131.24 486.976 132.065 486.976 133.325ZM488.281 140.18C487.261 140.18 486.496 139.745 485.971 139.175L486.661 138.395C487.051 138.845 487.636 139.145 488.236 139.145C489.586 139.145 490.696 138.11 490.756 135.08C490.156 135.83 489.301 136.28 488.521 136.28C486.871 136.28 485.806 135.29 485.806 133.325C485.806 131.495 487.096 130.25 488.626 130.25C490.516 130.25 491.941 131.78 491.941 134.855C491.941 138.695 490.201 140.18 488.281 140.18ZM495.422 136.19C494.072 136.19 493.187 135.065 493.187 133.07C493.187 131.105 494.072 129.98 495.422 129.98C496.757 129.98 497.657 131.105 497.657 133.07C497.657 135.065 496.757 136.19 495.422 136.19ZM495.422 135.425C496.187 135.425 496.712 134.63 496.712 133.07C496.712 131.51 496.187 130.745 495.422 130.745C494.657 130.745 494.117 131.51 494.117 133.07C494.117 134.63 494.657 135.425 495.422 135.425ZM495.707 140.18L501.137 129.98H501.977L496.547 140.18H495.707ZM502.277 140.18C500.927 140.18 500.042 139.055 500.042 137.06C500.042 135.095 500.927 133.97 502.277 133.97C503.612 133.97 504.512 135.095 504.512 137.06C504.512 139.055 503.612 140.18 502.277 140.18ZM502.277 139.415C503.042 139.415 503.567 138.62 503.567 137.06C503.567 135.5 503.042 134.735 502.277 134.735C501.512 134.735 500.972 135.5 500.972 137.06C500.972 138.62 501.512 139.415 502.277 139.415ZM511.661 136.715V135.755H515.111V136.715H511.661ZM522.94 140V129.32H524.185V132.23L524.14 133.73C524.815 133.07 525.55 132.53 526.555 132.53C528.1 132.53 528.79 133.52 528.79 135.38V140H527.545V135.545C527.545 134.18 527.125 133.61 526.165 133.61C525.43 133.61 524.905 133.985 524.185 134.72V140H522.94ZM533.934 140.18C532.149 140.18 530.559 138.785 530.559 136.37C530.559 133.925 532.149 132.53 533.934 132.53C535.719 132.53 537.324 133.925 537.324 136.37C537.324 138.785 535.719 140.18 533.934 140.18ZM533.934 139.145C535.194 139.145 536.034 138.035 536.034 136.37C536.034 134.69 535.194 133.565 533.934 133.565C532.689 133.565 531.849 134.69 531.849 136.37C531.849 138.035 532.689 139.145 533.934 139.145ZM542.454 140.18C541.779 140.18 541.029 139.835 540.384 139.25H540.339L540.219 140H539.229V129.32H540.474V132.23L540.429 133.535C541.104 132.965 541.914 132.53 542.724 132.53C544.599 132.53 545.619 133.985 545.619 136.235C545.619 138.725 544.119 140.18 542.454 140.18ZM542.244 139.13C543.444 139.13 544.329 138.05 544.329 136.25C544.329 134.645 543.774 133.58 542.409 133.58C541.794 133.58 541.164 133.91 540.474 134.57V138.38C541.104 138.935 541.764 139.13 542.244 139.13ZM550.76 140.18C550.085 140.18 549.335 139.835 548.69 139.25H548.645L548.525 140H547.535V129.32H548.78V132.23L548.735 133.535C549.41 132.965 550.22 132.53 551.03 132.53C552.905 132.53 553.925 133.985 553.925 136.235C553.925 138.725 552.425 140.18 550.76 140.18ZM550.55 139.13C551.75 139.13 552.635 138.05 552.635 136.25C552.635 134.645 552.08 133.58 550.715 133.58C550.1 133.58 549.47 133.91 548.78 134.57V138.38C549.41 138.935 550.07 139.13 550.55 139.13ZM555.84 140V132.71H557.085V140H555.84ZM556.47 131.21C555.99 131.21 555.645 130.895 555.645 130.4C555.645 129.92 555.99 129.59 556.47 129.59C556.95 129.59 557.295 129.92 557.295 130.4C557.295 130.895 556.95 131.21 556.47 131.21ZM562.486 140.18C560.536 140.18 559.006 138.77 559.006 136.355C559.006 133.985 560.611 132.53 562.276 132.53C564.136 132.53 565.201 133.85 565.201 135.95C565.201 136.22 565.186 136.445 565.141 136.685H560.236C560.341 138.185 561.256 139.175 562.636 139.175C563.341 139.175 563.956 138.98 564.466 138.635L564.901 139.43C564.271 139.88 563.491 140.18 562.486 140.18ZM560.236 135.725H564.091C564.091 134.285 563.416 133.52 562.306 133.52C561.286 133.52 560.386 134.33 560.236 135.725ZM568.893 140.18C567.828 140.18 566.853 139.79 566.178 139.13L566.748 138.41C567.378 138.935 568.038 139.205 568.938 139.205C569.898 139.205 570.363 138.71 570.363 138.08C570.363 137.33 569.553 137.015 568.728 136.715C567.633 136.325 566.583 135.8 566.583 134.6C566.583 133.43 567.513 132.53 569.103 132.53C570.018 132.53 570.798 132.875 571.368 133.355L570.798 134.075C570.288 133.7 569.763 133.49 569.118 133.49C568.188 133.49 567.783 134 567.783 134.54C567.783 135.2 568.413 135.47 569.328 135.785C570.468 136.19 571.563 136.685 571.563 138.005C571.563 139.19 570.618 140.18 568.893 140.18Z" fill="black"/>
<circle cx="443.5" cy="175.5" r="12.5" fill="#F2A1F9"/>
<path d="M476.565 180C476.73 176.4 477.495 174.15 479.43 171.51H474.66V170.43H480.825V171.195C478.53 174.105 478.005 176.265 477.84 180H476.565ZM483.331 180.18C482.836 180.18 482.431 179.79 482.431 179.235C482.431 178.665 482.836 178.275 483.331 178.275C483.826 178.275 484.231 178.665 484.231 179.235C484.231 179.79 483.826 180.18 483.331 180.18ZM486.976 173.325C486.976 174.57 487.561 175.35 488.731 175.35C489.361 175.35 490.126 174.975 490.726 174.09C490.576 172.23 489.841 171.24 488.626 171.24C487.696 171.24 486.976 172.065 486.976 173.325ZM488.281 180.18C487.261 180.18 486.496 179.745 485.971 179.175L486.661 178.395C487.051 178.845 487.636 179.145 488.236 179.145C489.586 179.145 490.696 178.11 490.756 175.08C490.156 175.83 489.301 176.28 488.521 176.28C486.871 176.28 485.806 175.29 485.806 173.325C485.806 171.495 487.096 170.25 488.626 170.25C490.516 170.25 491.941 171.78 491.941 174.855C491.941 178.695 490.201 180.18 488.281 180.18ZM495.422 176.19C494.072 176.19 493.187 175.065 493.187 173.07C493.187 171.105 494.072 169.98 495.422 169.98C496.757 169.98 497.657 171.105 497.657 173.07C497.657 175.065 496.757 176.19 495.422 176.19ZM495.422 175.425C496.187 175.425 496.712 174.63 496.712 173.07C496.712 171.51 496.187 170.745 495.422 170.745C494.657 170.745 494.117 171.51 494.117 173.07C494.117 174.63 494.657 175.425 495.422 175.425ZM495.707 180.18L501.137 169.98H501.977L496.547 180.18H495.707ZM502.277 180.18C500.927 180.18 500.042 179.055 500.042 177.06C500.042 175.095 500.927 173.97 502.277 173.97C503.612 173.97 504.512 175.095 504.512 177.06C504.512 179.055 503.612 180.18 502.277 180.18ZM502.277 179.415C503.042 179.415 503.567 178.62 503.567 177.06C503.567 175.5 503.042 174.735 502.277 174.735C501.512 174.735 500.972 175.5 500.972 177.06C500.972 178.62 501.512 179.415 502.277 179.415ZM511.661 176.715V175.755H515.111V176.715H511.661ZM522.94 180V169.32H524.17V176.52H524.215L527.29 172.71H528.685L526.255 175.65L529 180H527.65L525.52 176.505L524.17 178.08V180H522.94ZM530.367 180V172.71H531.612V180H530.367ZM530.997 171.21C530.517 171.21 530.172 170.895 530.172 170.4C530.172 169.92 530.517 169.59 530.997 169.59C531.477 169.59 531.822 169.92 531.822 170.4C531.822 170.895 531.477 171.21 530.997 171.21ZM536.368 180.18C534.808 180.18 534.283 179.19 534.283 177.735V173.715H533.203V172.785L534.343 172.71L534.493 170.37H535.528V172.71H537.508V173.715H535.528V177.765C535.528 178.65 535.828 179.16 536.653 179.16C536.923 179.16 537.193 179.115 537.493 178.98L537.748 179.865C537.358 180.045 536.863 180.18 536.368 180.18ZM541.831 180.18C539.896 180.18 538.411 178.785 538.411 176.37C538.411 173.925 540.046 172.53 541.921 172.53C542.881 172.53 543.541 172.905 544.051 173.385L543.436 174.165C543.031 173.79 542.566 173.565 541.981 173.565C540.661 173.565 539.701 174.69 539.701 176.37C539.701 178.035 540.601 179.145 541.936 179.145C542.611 179.145 543.211 178.845 543.646 178.455L544.186 179.25C543.526 179.85 542.701 180.18 541.831 180.18ZM545.792 180V169.32H547.037V172.23L546.992 173.73C547.667 173.07 548.402 172.53 549.407 172.53C550.952 172.53 551.642 173.52 551.642 175.38V180H550.397V175.545C550.397 174.18 549.977 173.61 549.017 173.61C548.282 173.61 547.757 173.985 547.037 174.72V180H545.792ZM556.891 180.18C554.941 180.18 553.411 178.77 553.411 176.355C553.411 173.985 555.016 172.53 556.681 172.53C558.541 172.53 559.606 173.85 559.606 175.95C559.606 176.22 559.591 176.445 559.546 176.685H554.641C554.746 178.185 555.661 179.175 557.041 179.175C557.746 179.175 558.361 178.98 558.871 178.635L559.306 179.43C558.676 179.88 557.896 180.18 556.891 180.18ZM554.641 175.725H558.496C558.496 174.285 557.821 173.52 556.711 173.52C555.691 173.52 554.791 174.33 554.641 175.725ZM561.392 180V172.71H562.412L562.517 173.76H562.562C563.252 173.07 564.002 172.53 565.007 172.53C566.552 172.53 567.242 173.52 567.242 175.38V180H565.997V175.545C565.997 174.18 565.577 173.61 564.617 173.61C563.882 173.61 563.357 173.985 562.637 174.72V180H561.392Z" fill="black"/>
<circle cx="443.5" cy="215.5" r="12.5" fill="#FEBAE2"/>
<path d="M468.185 220V218.965H470.375V211.945H468.62V211.135C469.505 210.985 470.135 210.745 470.66 210.43H471.62V218.965H473.585V220H468.185ZM478.191 220.18C476.271 220.18 475.116 218.395 475.116 215.185C475.116 211.975 476.271 210.25 478.191 210.25C480.096 210.25 481.251 211.975 481.251 215.185C481.251 218.395 480.096 220.18 478.191 220.18ZM478.191 219.175C479.301 219.175 480.051 217.99 480.051 215.185C480.051 212.38 479.301 211.255 478.191 211.255C477.081 211.255 476.331 212.38 476.331 215.185C476.331 217.99 477.081 219.175 478.191 219.175ZM483.787 220.18C483.292 220.18 482.887 219.79 482.887 219.235C482.887 218.665 483.292 218.275 483.787 218.275C484.282 218.275 484.687 218.665 484.687 219.235C484.687 219.79 484.282 220.18 483.787 220.18ZM486.262 220V219.235C489.112 216.445 490.762 214.675 490.762 213.13C490.762 212.035 490.162 211.27 488.947 211.27C488.152 211.27 487.462 211.78 486.922 212.41L486.217 211.735C487.012 210.835 487.867 210.25 489.097 210.25C490.867 210.25 491.977 211.375 491.977 213.055C491.977 214.915 490.297 216.64 487.972 219.01C488.497 218.965 489.082 218.935 489.577 218.935H492.442V220H486.262ZM495.878 216.19C494.528 216.19 493.643 215.065 493.643 213.07C493.643 211.105 494.528 209.98 495.878 209.98C497.213 209.98 498.113 211.105 498.113 213.07C498.113 215.065 497.213 216.19 495.878 216.19ZM495.878 215.425C496.643 215.425 497.168 214.63 497.168 213.07C497.168 211.51 496.643 210.745 495.878 210.745C495.113 210.745 494.573 211.51 494.573 213.07C494.573 214.63 495.113 215.425 495.878 215.425ZM496.163 220.18L501.593 209.98H502.433L497.003 220.18H496.163ZM502.733 220.18C501.383 220.18 500.498 219.055 500.498 217.06C500.498 215.095 501.383 213.97 502.733 213.97C504.068 213.97 504.968 215.095 504.968 217.06C504.968 219.055 504.068 220.18 502.733 220.18ZM502.733 219.415C503.498 219.415 504.023 218.62 504.023 217.06C504.023 215.5 503.498 214.735 502.733 214.735C501.968 214.735 501.428 215.5 501.428 217.06C501.428 218.62 501.968 219.415 502.733 219.415ZM512.117 216.715V215.755H515.567V216.715H512.117ZM524.701 220.18C523.771 220.18 523.396 219.58 523.396 218.53V209.32H524.641V218.62C524.641 219.01 524.806 219.145 525.001 219.145C525.076 219.145 525.136 219.145 525.256 219.115L525.421 220.045C525.241 220.135 525.016 220.18 524.701 220.18ZM527.219 220V212.71H528.464V220H527.219ZM527.849 211.21C527.369 211.21 527.024 210.895 527.024 210.4C527.024 209.92 527.369 209.59 527.849 209.59C528.329 209.59 528.674 209.92 528.674 210.4C528.674 210.895 528.329 211.21 527.849 211.21ZM532.5 220L529.875 212.71H531.165L532.53 216.835C532.755 217.555 532.98 218.29 533.205 218.995H533.265C533.475 218.29 533.715 217.555 533.94 216.835L535.305 212.71H536.535L533.955 220H532.5ZM537.942 220V212.71H539.187V220H537.942ZM538.572 211.21C538.092 211.21 537.747 210.895 537.747 210.4C537.747 209.92 538.092 209.59 538.572 209.59C539.052 209.59 539.397 209.92 539.397 210.4C539.397 210.895 539.052 211.21 538.572 211.21ZM541.648 220V212.71H542.668L542.773 213.76H542.818C543.508 213.07 544.258 212.53 545.263 212.53C546.808 212.53 547.498 213.52 547.498 215.38V220H546.253V215.545C546.253 214.18 545.833 213.61 544.873 213.61C544.138 213.61 543.613 213.985 542.893 214.72V220H541.648ZM552.311 223.36C550.526 223.36 549.296 222.655 549.296 221.395C549.296 220.78 549.701 220.195 550.361 219.745V219.685C550.001 219.46 549.716 219.07 549.716 218.5C549.716 217.885 550.136 217.405 550.511 217.15V217.09C550.031 216.7 549.566 215.995 549.566 215.125C549.566 213.535 550.826 212.53 552.311 212.53C552.716 212.53 553.076 212.605 553.346 212.71H555.881V213.67H554.396C554.741 214 554.981 214.54 554.981 215.155C554.981 216.715 553.796 217.69 552.311 217.69C551.951 217.69 551.561 217.6 551.231 217.435C550.961 217.66 550.766 217.9 550.766 218.305C550.766 218.755 551.066 219.085 552.041 219.085H553.451C555.146 219.085 556.001 219.625 556.001 220.825C556.001 222.19 554.576 223.36 552.311 223.36ZM552.311 216.85C553.151 216.85 553.856 216.19 553.856 215.125C553.856 214.075 553.166 213.43 552.311 213.43C551.456 213.43 550.766 214.06 550.766 215.125C550.766 216.19 551.471 216.85 552.311 216.85ZM552.491 222.49C553.871 222.49 554.786 221.77 554.786 221.02C554.786 220.345 554.276 220.12 553.316 220.12H552.071C551.786 220.12 551.441 220.09 551.126 220C550.601 220.375 550.376 220.81 550.376 221.23C550.376 222.01 551.171 222.49 552.491 222.49ZM557.424 220V212.71H558.444L558.549 214.03H558.594C559.104 213.115 559.854 212.53 560.664 212.53C560.994 212.53 561.219 212.575 561.444 212.68L561.174 213.745C560.964 213.685 560.799 213.655 560.514 213.655C559.899 213.655 559.164 214.09 558.669 215.32V220H557.424ZM565.328 220.18C563.543 220.18 561.953 218.785 561.953 216.37C561.953 213.925 563.543 212.53 565.328 212.53C567.113 212.53 568.718 213.925 568.718 216.37C568.718 218.785 567.113 220.18 565.328 220.18ZM565.328 219.145C566.588 219.145 567.428 218.035 567.428 216.37C567.428 214.69 566.588 213.565 565.328 213.565C564.083 213.565 563.243 214.69 563.243 216.37C563.243 218.035 564.083 219.145 565.328 219.145ZM573.458 220.18C571.673 220.18 570.083 218.785 570.083 216.37C570.083 213.925 571.673 212.53 573.458 212.53C575.243 212.53 576.848 213.925 576.848 216.37C576.848 218.785 575.243 220.18 573.458 220.18ZM573.458 219.145C574.718 219.145 575.558 218.035 575.558 216.37C575.558 214.69 574.718 213.565 573.458 213.565C572.213 213.565 571.373 214.69 571.373 216.37C571.373 218.035 572.213 219.145 573.458 219.145ZM578.752 220V212.71H579.772L579.877 213.76H579.922C580.567 213.07 581.317 212.53 582.187 212.53C583.312 212.53 583.912 213.055 584.212 213.91C584.962 213.1 585.727 212.53 586.612 212.53C588.112 212.53 588.832 213.52 588.832 215.38V220H587.587V215.545C587.587 214.18 587.152 213.61 586.237 213.61C585.667 213.61 585.082 213.97 584.407 214.72V220H583.162V215.545C583.162 214.18 582.742 213.61 581.812 213.61C581.272 213.61 580.672 213.97 579.997 214.72V220H578.752ZM590.109 222.4L594.099 209.35H594.999L591.009 222.4H590.109ZM598.454 220.18C596.624 220.18 595.439 218.8 595.439 216.37C595.439 214 596.939 212.53 598.604 212.53C599.444 212.53 599.999 212.845 600.644 213.37L600.584 212.125V209.32H601.829V220H600.809L600.704 219.145H600.659C600.089 219.7 599.309 220.18 598.454 220.18ZM598.724 219.13C599.399 219.13 599.984 218.8 600.584 218.14V214.33C599.969 213.775 599.414 213.58 598.814 213.58C597.659 213.58 596.729 214.69 596.729 216.355C596.729 218.095 597.449 219.13 598.724 219.13ZM607.225 220.18C605.275 220.18 603.745 218.77 603.745 216.355C603.745 213.985 605.35 212.53 607.015 212.53C608.875 212.53 609.94 213.85 609.94 215.95C609.94 216.22 609.925 216.445 609.88 216.685H604.975C605.08 218.185 605.995 219.175 607.375 219.175C608.08 219.175 608.695 218.98 609.205 218.635L609.64 219.43C609.01 219.88 608.23 220.18 607.225 220.18ZM604.975 215.725H608.83C608.83 214.285 608.155 213.52 607.045 213.52C606.025 213.52 605.125 214.33 604.975 215.725ZM614.606 220.18C612.671 220.18 611.186 218.785 611.186 216.37C611.186 213.925 612.821 212.53 614.696 212.53C615.656 212.53 616.316 212.905 616.826 213.385L616.211 214.165C615.806 213.79 615.341 213.565 614.756 213.565C613.436 213.565 612.476 214.69 612.476 216.37C612.476 218.035 613.376 219.145 614.711 219.145C615.386 219.145 615.986 218.845 616.421 218.455L616.961 219.25C616.301 219.85 615.476 220.18 614.606 220.18ZM621.08 220.18C619.295 220.18 617.705 218.785 617.705 216.37C617.705 213.925 619.295 212.53 621.08 212.53C622.865 212.53 624.47 213.925 624.47 216.37C624.47 218.785 622.865 220.18 621.08 220.18ZM621.08 219.145C622.34 219.145 623.18 218.035 623.18 216.37C623.18 214.69 622.34 213.565 621.08 213.565C619.835 213.565 618.995 214.69 618.995 216.37C618.995 218.035 619.835 219.145 621.08 219.145ZM626.375 220V212.71H627.395L627.5 214.03H627.545C628.055 213.115 628.805 212.53 629.615 212.53C629.945 212.53 630.17 212.575 630.395 212.68L630.125 213.745C629.915 213.685 629.75 213.655 629.465 213.655C628.85 213.655 628.115 214.09 627.62 215.32V220H626.375ZM632.903 220.18C631.688 220.18 630.773 219.43 630.773 218.11C630.773 216.49 632.123 215.71 635.243 215.365C635.228 214.45 634.928 213.565 633.743 213.565C632.903 213.565 632.138 213.94 631.568 214.315L631.088 213.475C631.763 213.025 632.783 212.53 633.953 212.53C635.723 212.53 636.488 213.715 636.488 215.515V220H635.468L635.348 219.13H635.303C634.613 219.715 633.818 220.18 632.903 220.18ZM633.248 219.16C633.953 219.16 634.538 218.845 635.243 218.23V216.25C632.783 216.535 631.988 217.09 631.988 218.035C631.988 218.845 632.543 219.16 633.248 219.16ZM640.872 220.18C639.312 220.18 638.787 219.19 638.787 217.735V213.715H637.707V212.785L638.847 212.71L638.997 210.37H640.032V212.71H642.012V213.715H640.032V217.765C640.032 218.65 640.332 219.16 641.157 219.16C641.427 219.16 641.697 219.115 641.997 218.98L642.252 219.865C641.862 220.045 641.367 220.18 640.872 220.18ZM643.66 220V212.71H644.905V220H643.66ZM644.29 211.21C643.81 211.21 643.465 210.895 643.465 210.4C643.465 209.92 643.81 209.59 644.29 209.59C644.77 209.59 645.115 209.92 645.115 210.4C645.115 210.895 644.77 211.21 644.29 211.21ZM650.201 220.18C648.416 220.18 646.826 218.785 646.826 216.37C646.826 213.925 648.416 212.53 650.201 212.53C651.986 212.53 653.591 213.925 653.591 216.37C653.591 218.785 651.986 220.18 650.201 220.18ZM650.201 219.145C651.461 219.145 652.301 218.035 652.301 216.37C652.301 214.69 651.461 213.565 650.201 213.565C648.956 213.565 648.116 214.69 648.116 216.37C648.116 218.035 648.956 219.145 650.201 219.145ZM655.496 220V212.71H656.516L656.621 213.76H656.666C657.356 213.07 658.106 212.53 659.111 212.53C660.656 212.53 661.346 213.52 661.346 215.38V220H660.101V215.545C660.101 214.18 659.681 213.61 658.721 213.61C657.986 213.61 657.461 213.985 656.741 214.72V220H655.496Z" fill="black"/>
<circle cx="444.5" cy="255.5" r="12.5" fill="#F9D6EC"/>
<path d="M467.6 260V259.235C470.45 256.445 472.1 254.675 472.1 253.13C472.1 252.035 471.5 251.27 470.285 251.27C469.49 251.27 468.8 251.78 468.26 252.41L467.555 251.735C468.35 250.835 469.205 250.25 470.435 250.25C472.205 250.25 473.315 251.375 473.315 253.055C473.315 254.915 471.635 256.64 469.31 259.01C469.835 258.965 470.42 258.935 470.915 258.935H473.78V260H467.6ZM478.206 260.18C476.406 260.18 475.071 259.07 475.071 257.555C475.071 256.31 475.971 255.455 476.871 254.975V254.915C476.166 254.42 475.536 253.715 475.536 252.71C475.536 251.24 476.706 250.25 478.251 250.25C479.916 250.25 480.951 251.315 480.951 252.8C480.951 253.805 480.231 254.66 479.631 255.11V255.17C480.486 255.665 481.296 256.34 481.296 257.63C481.296 259.055 480.066 260.18 478.206 260.18ZM478.881 254.78C479.526 254.21 479.886 253.565 479.886 252.86C479.886 251.93 479.271 251.18 478.221 251.18C477.336 251.18 476.676 251.78 476.676 252.71C476.676 253.85 477.726 254.33 478.881 254.78ZM478.236 259.25C479.346 259.25 480.111 258.575 480.111 257.585C480.111 256.355 478.896 255.92 477.516 255.365C476.766 255.86 476.196 256.565 476.196 257.435C476.196 258.485 477.066 259.25 478.236 259.25ZM483.787 260.18C483.292 260.18 482.887 259.79 482.887 259.235C482.887 258.665 483.292 258.275 483.787 258.275C484.282 258.275 484.687 258.665 484.687 259.235C484.687 259.79 484.282 260.18 483.787 260.18ZM486.262 260V259.235C489.112 256.445 490.762 254.675 490.762 253.13C490.762 252.035 490.162 251.27 488.947 251.27C488.152 251.27 487.462 251.78 486.922 252.41L486.217 251.735C487.012 250.835 487.867 250.25 489.097 250.25C490.867 250.25 491.977 251.375 491.977 253.055C491.977 254.915 490.297 256.64 487.972 259.01C488.497 258.965 489.082 258.935 489.577 258.935H492.442V260H486.262ZM495.878 256.19C494.528 256.19 493.643 255.065 493.643 253.07C493.643 251.105 494.528 249.98 495.878 249.98C497.213 249.98 498.113 251.105 498.113 253.07C498.113 255.065 497.213 256.19 495.878 256.19ZM495.878 255.425C496.643 255.425 497.168 254.63 497.168 253.07C497.168 251.51 496.643 250.745 495.878 250.745C495.113 250.745 494.573 251.51 494.573 253.07C494.573 254.63 495.113 255.425 495.878 255.425ZM496.163 260.18L501.593 249.98H502.433L497.003 260.18H496.163ZM502.733 260.18C501.383 260.18 500.498 259.055 500.498 257.06C500.498 255.095 501.383 253.97 502.733 253.97C504.068 253.97 504.968 255.095 504.968 257.06C504.968 259.055 504.068 260.18 502.733 260.18ZM502.733 259.415C503.498 259.415 504.023 258.62 504.023 257.06C504.023 255.5 503.498 254.735 502.733 254.735C501.968 254.735 501.428 255.5 501.428 257.06C501.428 258.62 501.968 259.415 502.733 259.415ZM512.117 256.715V255.755H515.567V256.715H512.117ZM526.231 260.18C524.446 260.18 522.856 258.785 522.856 256.37C522.856 253.925 524.446 252.53 526.231 252.53C528.016 252.53 529.621 253.925 529.621 256.37C529.621 258.785 528.016 260.18 526.231 260.18ZM526.231 259.145C527.491 259.145 528.331 258.035 528.331 256.37C528.331 254.69 527.491 253.565 526.231 253.565C524.986 253.565 524.146 254.69 524.146 256.37C524.146 258.035 524.986 259.145 526.231 259.145ZM536.011 260V253.715H532.981V260H531.736V253.715H530.746V252.785L531.736 252.71V251.75C531.736 250.235 532.486 249.29 534.001 249.29C534.496 249.29 534.976 249.395 535.351 249.56L535.081 250.505C534.766 250.355 534.481 250.295 534.106 250.295C533.386 250.295 532.981 250.82 532.981 251.78V252.71H536.011V251.57C536.011 250.085 536.686 249.14 538.156 249.14C538.606 249.14 539.041 249.245 539.371 249.38L539.101 250.34C538.831 250.205 538.546 250.145 538.276 250.145C537.601 250.145 537.256 250.625 537.256 251.57V252.71H538.801V253.715H537.256V260H536.011ZM540.198 260V252.71H541.443V260H540.198ZM540.828 251.21C540.348 251.21 540.003 250.895 540.003 250.4C540.003 249.92 540.348 249.59 540.828 249.59C541.308 249.59 541.653 249.92 541.653 250.4C541.653 250.895 541.308 251.21 540.828 251.21ZM546.784 260.18C544.849 260.18 543.364 258.785 543.364 256.37C543.364 253.925 544.999 252.53 546.874 252.53C547.834 252.53 548.494 252.905 549.004 253.385L548.389 254.165C547.984 253.79 547.519 253.565 546.934 253.565C545.614 253.565 544.654 254.69 544.654 256.37C544.654 258.035 545.554 259.145 546.889 259.145C547.564 259.145 548.164 258.845 548.599 258.455L549.139 259.25C548.479 259.85 547.654 260.18 546.784 260.18ZM553.362 260.18C551.412 260.18 549.882 258.77 549.882 256.355C549.882 253.985 551.487 252.53 553.152 252.53C555.012 252.53 556.077 253.85 556.077 255.95C556.077 256.22 556.062 256.445 556.017 256.685H551.112C551.217 258.185 552.132 259.175 553.512 259.175C554.217 259.175 554.832 258.98 555.342 258.635L555.777 259.43C555.147 259.88 554.367 260.18 553.362 260.18ZM551.112 255.725H554.967C554.967 254.285 554.292 253.52 553.182 253.52C552.162 253.52 551.262 254.33 551.112 255.725ZM560.867 260V252.71H562.112V260H560.867ZM561.497 251.21C561.017 251.21 560.672 250.895 560.672 250.4C560.672 249.92 561.017 249.59 561.497 249.59C561.977 249.59 562.322 249.92 562.322 250.4C562.322 250.895 561.977 251.21 561.497 251.21ZM566.868 260.18C565.308 260.18 564.783 259.19 564.783 257.735V253.715H563.703V252.785L564.843 252.71L564.993 250.37H566.028V252.71H568.008V253.715H566.028V257.765C566.028 258.65 566.328 259.16 567.153 259.16C567.423 259.16 567.693 259.115 567.993 258.98L568.248 259.865C567.858 260.045 567.363 260.18 566.868 260.18ZM572.391 260.18C570.441 260.18 568.911 258.77 568.911 256.355C568.911 253.985 570.516 252.53 572.181 252.53C574.041 252.53 575.106 253.85 575.106 255.95C575.106 256.22 575.091 256.445 575.046 256.685H570.141C570.246 258.185 571.161 259.175 572.541 259.175C573.246 259.175 573.861 258.98 574.371 258.635L574.806 259.43C574.176 259.88 573.396 260.18 572.391 260.18ZM570.141 255.725H573.996C573.996 254.285 573.321 253.52 572.211 253.52C571.191 253.52 570.291 254.33 570.141 255.725ZM576.892 260V252.71H577.912L578.017 253.76H578.062C578.707 253.07 579.457 252.53 580.327 252.53C581.452 252.53 582.052 253.055 582.352 253.91C583.102 253.1 583.867 252.53 584.752 252.53C586.252 252.53 586.972 253.52 586.972 255.38V260H585.727V255.545C585.727 254.18 585.292 253.61 584.377 253.61C583.807 253.61 583.222 253.97 582.547 254.72V260H581.302V255.545C581.302 254.18 580.882 253.61 579.952 253.61C579.412 253.61 578.812 253.97 578.137 254.72V260H576.892ZM591.234 260.18C590.169 260.18 589.194 259.79 588.519 259.13L589.089 258.41C589.719 258.935 590.379 259.205 591.279 259.205C592.239 259.205 592.704 258.71 592.704 258.08C592.704 257.33 591.894 257.015 591.069 256.715C589.974 256.325 588.924 255.8 588.924 254.6C588.924 253.43 589.854 252.53 591.444 252.53C592.359 252.53 593.139 252.875 593.709 253.355L593.139 254.075C592.629 253.7 592.104 253.49 591.459 253.49C590.529 253.49 590.124 254 590.124 254.54C590.124 255.2 590.754 255.47 591.669 255.785C592.809 256.19 593.904 256.685 593.904 258.005C593.904 259.19 592.959 260.18 591.234 260.18Z" fill="black"/>
<circle cx="444.5" cy="295.5" r="12.5" fill="#FEACDE"/>
<path d="M477.915 295.08C477.3 295.08 476.52 295.455 475.92 296.355C476.085 298.215 476.82 299.205 478.02 299.205C478.965 299.205 479.685 298.365 479.685 297.105C479.685 295.86 479.1 295.08 477.915 295.08ZM478.02 300.18C476.145 300.18 474.72 298.65 474.72 295.575C474.72 291.735 476.46 290.25 478.365 290.25C479.4 290.25 480.15 290.685 480.675 291.27L479.985 292.05C479.61 291.585 479.01 291.285 478.41 291.285C477.075 291.285 475.935 292.335 475.89 295.38C476.49 294.63 477.345 294.15 478.125 294.15C479.79 294.15 480.855 295.14 480.855 297.105C480.855 298.935 479.565 300.18 478.02 300.18ZM483.331 300.18C482.836 300.18 482.431 299.79 482.431 299.235C482.431 298.665 482.836 298.275 483.331 298.275C483.826 298.275 484.231 298.665 484.231 299.235C484.231 299.79 483.826 300.18 483.331 300.18ZM487.771 300C487.936 296.4 488.701 294.15 490.636 291.51H485.866V290.43H492.031V291.195C489.736 294.105 489.211 296.265 489.046 300H487.771ZM495.422 296.19C494.072 296.19 493.187 295.065 493.187 293.07C493.187 291.105 494.072 289.98 495.422 289.98C496.757 289.98 497.657 291.105 497.657 293.07C497.657 295.065 496.757 296.19 495.422 296.19ZM495.422 295.425C496.187 295.425 496.712 294.63 496.712 293.07C496.712 291.51 496.187 290.745 495.422 290.745C494.657 290.745 494.117 291.51 494.117 293.07C494.117 294.63 494.657 295.425 495.422 295.425ZM495.707 300.18L501.137 289.98H501.977L496.547 300.18H495.707ZM502.277 300.18C500.927 300.18 500.042 299.055 500.042 297.06C500.042 295.095 500.927 293.97 502.277 293.97C503.612 293.97 504.512 295.095 504.512 297.06C504.512 299.055 503.612 300.18 502.277 300.18ZM502.277 299.415C503.042 299.415 503.567 298.62 503.567 297.06C503.567 295.5 503.042 294.735 502.277 294.735C501.512 294.735 500.972 295.5 500.972 297.06C500.972 298.62 501.512 299.415 502.277 299.415ZM511.661 296.715V295.755H515.111V296.715H511.661ZM526.165 300.18C525.49 300.18 524.74 299.835 524.095 299.25H524.05L523.93 300H522.94V289.32H524.185V292.23L524.14 293.535C524.815 292.965 525.625 292.53 526.435 292.53C528.31 292.53 529.33 293.985 529.33 296.235C529.33 298.725 527.83 300.18 526.165 300.18ZM525.955 299.13C527.155 299.13 528.04 298.05 528.04 296.25C528.04 294.645 527.485 293.58 526.12 293.58C525.505 293.58 524.875 293.91 524.185 294.57V298.38C524.815 298.935 525.475 299.13 525.955 299.13ZM531.246 300V292.71H532.491V300H531.246ZM531.876 291.21C531.396 291.21 531.051 290.895 531.051 290.4C531.051 289.92 531.396 289.59 531.876 289.59C532.356 289.59 532.701 289.92 532.701 290.4C532.701 290.895 532.356 291.21 531.876 291.21ZM534.952 300V289.32H536.182V296.52H536.227L539.302 292.71H540.697L538.267 295.65L541.012 300H539.662L537.532 296.505L536.182 298.08V300H534.952ZM545.055 300.18C543.105 300.18 541.575 298.77 541.575 296.355C541.575 293.985 543.18 292.53 544.845 292.53C546.705 292.53 547.77 293.85 547.77 295.95C547.77 296.22 547.755 296.445 547.71 296.685H542.805C542.91 298.185 543.825 299.175 545.205 299.175C545.91 299.175 546.525 298.98 547.035 298.635L547.47 299.43C546.84 299.88 546.06 300.18 545.055 300.18ZM542.805 295.725H546.66C546.66 294.285 545.985 293.52 544.875 293.52C543.855 293.52 542.955 294.33 542.805 295.725ZM551.461 300.18C550.396 300.18 549.421 299.79 548.746 299.13L549.316 298.41C549.946 298.935 550.606 299.205 551.506 299.205C552.466 299.205 552.931 298.71 552.931 298.08C552.931 297.33 552.121 297.015 551.296 296.715C550.201 296.325 549.151 295.8 549.151 294.6C549.151 293.43 550.081 292.53 551.671 292.53C552.586 292.53 553.366 292.875 553.936 293.355L553.366 294.075C552.856 293.7 552.331 293.49 551.686 293.49C550.756 293.49 550.351 294 550.351 294.54C550.351 295.2 550.981 295.47 551.896 295.785C553.036 296.19 554.131 296.685 554.131 298.005C554.131 299.19 553.186 300.18 551.461 300.18Z" fill="black"/>
<defs>
<clipPath id="clip0_441_3093">
<rect width="373" height="373" fill="white"/>
</clipPath>
</defs>
</svg>
