<svg version="1.1" viewBox="0.0 0.0 990.0 450.0" fill="none" stroke="none" stroke-linecap="square" stroke-miterlimit="10" width="997" height="494" xmlns:xlink="http://www.w3.org/1999/xlink" xmlns="http://www.w3.org/2000/svg"><path fill="#ffffff" fill-opacity="0.0" d="M0 0L997.0 0L997.0 494.0L0 494.0L0 0Z" fill-rule="nonzero"/><path fill="#ed0965" d="M559.4711 65.166664C662.1674 65.166664 748.53015 142.19673 760.2236 244.22516C771.91705 346.25357 705.2216 440.8256 605.1882 464.0604L559.4711 267.23334Z" fill-rule="nonzero"/><path fill="#98064e" d="M519.60284 69.13876C532.72784 66.49724 546.08295 65.166664 559.4711 65.166664L559.4711 267.23334Z" fill-rule="nonzero"/><path fill="#b7b7b7" d="M473.39447 84.417175C488.12546 77.48128 503.64075 72.35127 519.60284 69.13876L559.4711 267.23334Z" fill-rule="nonzero"/><path fill="#cfe2f3" d="M396.3816 147.93227C416.3366 120.65294 442.81555 98.814865 473.39447 84.417175L559.4711 267.23334Z" fill-rule="nonzero"/><path fill="#f4cccc" d="M357.4267 270.23148C356.775 226.31483 370.45013 183.38162 396.3816 147.93227L559.4711 267.23334Z" fill-rule="nonzero"/><path fill="#ffd966" d="M605.1882 464.0604C545.6689 477.88495 483.09042 464.03424 434.9642 426.3841C386.83798 388.73398 358.3333 331.3285 357.4267 270.23148L559.4711 267.23334Z" fill-rule="nonzero"/><path fill="#ed0965" d="M36.7 75.666664C36.7 78.98038 34.01371 81.666664 30.7 81.666664C27.386292 81.666664 24.7 78.98038 24.7 75.666664C24.7 72.35296 27.386292 69.666664 30.7 69.666664C34.01371 69.666664 36.7 72.35296 36.7 75.666664Z" fill-rule="nonzero"/><path fill="#ed0965" d="M46.184376 82.166664L46.184376 69.27604L54.871876 69.27604L54.871876 70.80729L47.8875 70.80729L47.8875 74.791664L53.934376 74.791664L53.934376 76.30729L47.8875 76.30729L47.8875 82.166664L46.184376 82.166664ZM62.996876 82.166664L62.996876 80.791664Q61.91875 82.385414 60.04375 82.385414Q59.215626 82.385414 58.496876 82.072914Q57.778126 81.74479 57.434376 81.27604Q57.090626 80.791664 56.95 80.08854Q56.85625 79.61979 56.85625 78.61979L56.85625 72.83854L58.434376 72.83854L58.434376 78.010414Q58.434376 79.24479 58.528126 79.68229Q58.684376 80.30729 59.16875 80.666664Q59.653126 81.010414 60.35625 81.010414Q61.075 81.010414 61.7 80.65104Q62.325 80.291664 62.575 79.666664Q62.840626 79.02604 62.840626 77.83854L62.840626 72.83854L64.41875 72.83854L64.41875 82.166664L62.996876 82.166664ZM66.87187 82.166664L66.87187 72.83854L68.29375 72.83854L68.29375 74.24479Q68.84062 73.260414 69.29375 72.947914Q69.7625 72.61979 70.30937 72.61979Q71.12187 72.61979 71.93437 73.135414L71.40312 74.604164Q70.80937 74.260414 70.23125 74.260414Q69.71562 74.260414 69.29375 74.572914Q68.8875 74.885414 68.71562 75.43229Q68.45 76.27604 68.45 77.27604L68.45 82.166664L66.87187 82.166664ZM72.8875 82.166664L72.8875 72.83854L74.30937 72.83854L74.30937 74.166664Q75.34062 72.61979 77.27812 72.61979Q78.12187 72.61979 78.825 72.93229Q79.54375 73.229164 79.8875 73.729164Q80.24687 74.21354 80.3875 74.885414Q80.46562 75.322914 80.46562 76.43229L80.46562 82.166664L78.8875 82.166664L78.8875 76.49479Q78.8875 75.52604 78.7 75.041664Q78.52812 74.55729 78.04375 74.27604Q77.575 73.99479 76.95 73.99479Q75.93437 73.99479 75.2 74.635414Q74.46562 75.27604 74.46562 77.072914L74.46562 82.166664L72.8875 82.166664ZM82.90312 71.104164L82.90312 69.27604L84.48125 69.27604L84.48125 71.104164L82.90312 71.104164ZM82.90312 82.166664L82.90312 72.83854L84.48125 72.83854L84.48125 82.166664L82.90312 82.166664ZM90.34062 80.74479L90.575 82.15104Q89.90312 82.291664 89.37187 82.291664Q88.5125 82.291664 88.02812 82.02604Q87.55937 81.74479 87.37187 81.30729Q87.18437 80.854164 87.18437 79.43229L87.18437 74.05729L86.0125 74.05729L86.0125 72.83854L87.18437 72.83854L87.18437 70.52604L88.74687 69.572914L88.74687 72.83854L90.34062 72.83854L90.34062 74.05729L88.74687 74.05729L88.74687 79.52604Q88.74687 80.197914 88.825 80.40104Q88.91875 80.58854 89.10625 80.697914Q89.29375 80.80729 89.65312 80.80729Q89.90312 80.80729 90.34062 80.74479ZM97.99687 82.166664L97.99687 80.791664Q96.91875 82.385414 95.04375 82.385414Q94.21562 82.385414 93.49687 82.072914Q92.77812 81.74479 92.43437 81.27604Q92.09062 80.791664 91.95 80.08854Q91.85625 79.61979 91.85625 78.61979L91.85625 72.83854L93.43437 72.83854L93.43437 78.010414Q93.43437 79.24479 93.52812 79.68229Q93.68437 80.30729 94.16875 80.666664Q94.65312 81.010414 95.35625 81.010414Q96.075 81.010414 96.7 80.65104Q97.325 80.291664 97.575 79.666664Q97.84062 79.02604 97.84062 77.83854L97.84062 72.83854L99.41875 72.83854L99.41875 82.166664L97.99687 82.166664ZM101.87187 82.166664L101.87187 72.83854L103.29375 72.83854L103.29375 74.24479Q103.84062 73.260414 104.29375 72.947914Q104.7625 72.61979 105.30937 72.61979Q106.12187 72.61979 106.93437 73.135414L106.40312 74.604164Q105.80937 74.260414 105.23125 74.260414Q104.71562 74.260414 104.29375 74.572914Q103.8875 74.885414 103.71562 75.43229Q103.45 76.27604 103.45 77.27604L103.45 82.166664L101.87187 82.166664ZM114.27812 79.166664L115.91875 79.36979Q115.52812 80.791664 114.48125 81.58854Q113.43437 82.385414 111.80937 82.385414Q109.7625 82.385414 108.55937 81.11979Q107.35625 79.854164 107.35625 77.572914Q107.35625 75.229164 108.55937 73.93229Q109.77812 72.61979 111.71562 72.61979Q113.59062 72.61979 114.77812 73.90104Q115.96562 75.166664 115.96562 77.479164Q115.96562 77.61979 115.95 77.90104L108.99687 77.90104Q109.075 79.447914 109.85625 80.260414Q110.65312 81.072914 111.80937 81.072914Q112.68437 81.072914 113.29375 80.61979Q113.91875 80.166664 114.27812 79.166664ZM109.075 76.604164L114.29375 76.604164Q114.18437 75.43229 113.7 74.83854Q112.93437 73.916664 111.73125 73.916664Q110.65312 73.916664 109.90312 74.65104Q109.16875 75.385414 109.075 76.604164Z" fill-rule="nonzero"/><path fill="#ffd966" d="M36.7 106.666664C36.7 109.98038 34.01371 112.666664 30.7 112.666664C27.386292 112.666664 24.7 109.98038 24.7 106.666664C24.7 103.35296 27.386292 100.666664 30.7 100.666664C34.01371 100.666664 36.7 103.35296 36.7 106.666664Z" fill-rule="nonzero"/><path fill="#ed0965" d="M45.575 106.885414Q45.575 103.68229 47.29375 101.86979Q49.0125 100.05729 51.746876 100.05729Q53.528126 100.05729 54.95 100.916664Q56.3875 101.760414 57.1375 103.291664Q57.8875 104.80729 57.8875 106.74479Q57.8875 108.697914 57.090626 110.24479Q56.309376 111.791664 54.85625 112.58854Q53.403126 113.385414 51.73125 113.385414Q49.91875 113.385414 48.48125 112.510414Q47.04375 111.635414 46.309376 110.11979Q45.575 108.58854 45.575 106.885414ZM47.325 106.916664Q47.325 109.24479 48.575 110.58854Q49.840626 111.93229 51.715626 111.93229Q53.653126 111.93229 54.8875 110.572914Q56.1375 109.21354 56.1375 106.729164Q56.1375 105.166664 55.60625 103.99479Q55.075 102.80729 54.04375 102.166664Q53.028126 101.52604 51.746876 101.52604Q49.934376 101.52604 48.621876 102.77604Q47.325 104.010414 47.325 106.916664ZM60.2625 113.166664L60.2625 105.05729L58.871876 105.05729L58.871876 103.83854L60.2625 103.83854L60.2625 102.83854Q60.2625 101.90104 60.434376 101.447914Q60.653126 100.822914 61.23125 100.447914Q61.809376 100.05729 62.85625 100.05729Q63.5125 100.05729 64.325 100.21354L64.09062 101.604164Q63.590626 101.510414 63.153126 101.510414Q62.434376 101.510414 62.1375 101.822914Q61.840626 102.11979 61.840626 102.96354L61.840626 103.83854L63.653126 103.83854L63.653126 105.05729L61.840626 105.05729L61.840626 113.166664L60.2625 113.166664ZM65.2625 113.166664L65.2625 105.05729L63.871876 105.05729L63.871876 103.83854L65.2625 103.83854L65.2625 102.83854Q65.2625 101.90104 65.43437 101.447914Q65.65312 100.822914 66.23125 100.447914Q66.80937 100.05729 67.85625 100.05729Q68.5125 100.05729 69.325 100.21354L69.09062 101.604164Q68.59062 101.510414 68.15312 101.510414Q67.43437 101.510414 67.1375 101.822914Q66.84062 102.11979 66.84062 102.96354L66.84062 103.83854L68.65312 103.83854L68.65312 105.05729L66.84062 105.05729L66.84062 113.166664L65.2625 113.166664ZM69.90312 102.104164L69.90312 100.27604L71.48125 100.27604L71.48125 102.104164L69.90312 102.104164ZM69.90312 113.166664L69.90312 103.83854L71.48125 103.83854L71.48125 113.166664L69.90312 113.166664ZM79.98125 109.74479L81.52812 109.947914Q81.27812 111.55729 80.23125 112.479164Q79.18437 113.385414 77.65312 113.385414Q75.73125 113.385414 74.55937 112.135414Q73.40312 110.86979 73.40312 108.541664Q73.40312 107.02604 73.90312 105.90104Q74.40312 104.760414 75.41875 104.197914Q76.45 103.61979 77.65312 103.61979Q79.18437 103.61979 80.1375 104.40104Q81.10625 105.166664 81.3875 106.572914L79.84062 106.80729Q79.62187 105.86979 79.05937 105.40104Q78.5125 104.916664 77.71562 104.916664Q76.52812 104.916664 75.77812 105.77604Q75.02812 106.635414 75.02812 108.49479Q75.02812 110.36979 75.74687 111.229164Q76.46562 112.072914 77.6375 112.072914Q78.55937 112.072914 79.18437 111.510414Q79.80937 110.93229 79.98125 109.74479ZM89.27812 110.166664L90.91875 110.36979Q90.52812 111.791664 89.48125 112.58854Q88.43437 113.385414 86.80937 113.385414Q84.7625 113.385414 83.55937 112.11979Q82.35625 110.854164 82.35625 108.572914Q82.35625 106.229164 83.55937 104.93229Q84.77812 103.61979 86.71562 103.61979Q88.59062 103.61979 89.77812 104.90104Q90.96562 106.166664 90.96562 108.479164Q90.96562 108.61979 90.95 108.90104L83.99687 108.90104Q84.075 110.447914 84.85625 111.260414Q85.65312 112.072914 86.80937 112.072914Q87.68437 112.072914 88.29375 111.61979Q88.91875 111.166664 89.27812 110.166664ZM84.075 107.604164L89.29375 107.604164Q89.18437 106.43229 88.7 105.83854Q87.93437 104.916664 86.73125 104.916664Q85.65312 104.916664 84.90312 105.65104Q84.16875 106.385414 84.075 107.604164Z" fill-rule="nonzero"/><path fill="#f4cccc" d="M36.7 137.66667C36.7 140.98038 34.01371 143.66667 30.7 143.66667C27.386292 143.66667 24.7 140.98038 24.7 137.66667C24.7 134.35295 27.386292 131.66667 30.7 131.66667C34.01371 131.66667 36.7 134.35295 36.7 137.66667Z" fill-rule="nonzero"/><path fill="#ed0965" d="M46.0125 144.16667L46.0125 131.27605L47.73125 131.27605L47.73125 137.66667L54.121876 131.27605L56.434376 131.27605L51.028126 136.4948L56.66875 144.16667L54.41875 144.16667L49.840626 137.65105L47.73125 139.69792L47.73125 144.16667L46.0125 144.16667ZM57.903126 133.10417L57.903126 131.27605L59.48125 131.27605L59.48125 133.10417L57.903126 133.10417ZM57.903126 144.16667L57.903126 134.83855L59.48125 134.83855L59.48125 144.16667L57.903126 144.16667ZM65.34062 142.7448L65.575 144.15105Q64.90312 144.29167 64.37187 144.29167Q63.5125 144.29167 63.028126 144.02605Q62.559376 143.7448 62.371876 143.3073Q62.184376 142.85417 62.184376 141.4323L62.184376 136.0573L61.0125 136.0573L61.0125 134.83855L62.184376 134.83855L62.184376 132.52605L63.746876 131.57292L63.746876 134.83855L65.34062 134.83855L65.34062 136.0573L63.746876 136.0573L63.746876 141.52605Q63.746876 142.19792 63.825 142.40105Q63.91875 142.58855 64.10625 142.69792Q64.29375 142.8073 64.65312 142.8073Q64.90312 142.8073 65.34062 142.7448ZM72.98125 140.7448L74.52812 140.94792Q74.27812 142.5573 73.23125 143.47917Q72.18437 144.38542 70.65312 144.38542Q68.73125 144.38542 67.55937 143.13542Q66.40312 141.8698 66.40312 139.54167Q66.40312 138.02605 66.90312 136.90105Q67.40312 135.76042 68.41875 135.19792Q69.45 134.6198 70.65312 134.6198Q72.18437 134.6198 73.1375 135.40105Q74.10625 136.16667 74.3875 137.57292L72.84062 137.8073Q72.62187 136.8698 72.05937 136.40105Q71.5125 135.91667 70.71562 135.91667Q69.52812 135.91667 68.77812 136.77605Q68.02812 137.63542 68.02812 139.4948Q68.02812 141.3698 68.74687 142.22917Q69.46562 143.07292 70.6375 143.07292Q71.55937 143.07292 72.18437 142.51042Q72.80937 141.9323 72.98125 140.7448ZM75.8875 144.16667L75.8875 131.27605L77.46562 131.27605L77.46562 135.90105Q78.575 134.6198 80.2625 134.6198Q81.29375 134.6198 82.05937 135.02605Q82.825 135.4323 83.15312 136.16667Q83.49687 136.88542 83.49687 138.2448L83.49687 144.16667L81.90312 144.16667L81.90312 138.2448Q81.90312 137.0573 81.3875 136.52605Q80.87187 135.97917 79.93437 135.97917Q79.23125 135.97917 78.60625 136.35417Q77.99687 136.71355 77.73125 137.33855Q77.46562 137.96355 77.46562 139.0573L77.46562 144.16667L75.8875 144.16667ZM92.27812 141.16667L93.91875 141.3698Q93.52812 142.79167 92.48125 143.58855Q91.43437 144.38542 89.80937 144.38542Q87.7625 144.38542 86.55937 143.1198Q85.35625 141.85417 85.35625 139.57292Q85.35625 137.22917 86.55937 135.9323Q87.77812 134.6198 89.71562 134.6198Q91.59062 134.6198 92.77812 135.90105Q93.96562 137.16667 93.96562 139.47917Q93.96562 139.6198 93.95 139.90105L86.99687 139.90105Q87.075 141.44792 87.85625 142.26042Q88.65312 143.07292 89.80937 143.07292Q90.68437 143.07292 91.29375 142.6198Q91.91875 142.16667 92.27812 141.16667ZM87.075 138.60417L92.29375 138.60417Q92.18437 137.4323 91.7 136.83855Q90.93437 135.91667 89.73125 135.91667Q88.65312 135.91667 87.90312 136.65105Q87.16875 137.38542 87.075 138.60417ZM95.8875 144.16667L95.8875 134.83855L97.30937 134.83855L97.30937 136.16667Q98.34062 134.6198 100.27812 134.6198Q101.12187 134.6198 101.825 134.9323Q102.54375 135.22917 102.8875 135.72917Q103.24687 136.21355 103.3875 136.88542Q103.46562 137.32292 103.46562 138.4323L103.46562 144.16667L101.8875 144.16667L101.8875 138.4948Q101.8875 137.52605 101.7 137.04167Q101.52812 136.5573 101.04375 136.27605Q100.575 135.9948 99.95 135.9948Q98.93437 135.9948 98.2 136.63542Q97.46562 137.27605 97.46562 139.07292L97.46562 144.16667L95.8875 144.16667Z" fill-rule="nonzero"/><path fill="#cfe2f3" d="M36.7 168.66667C36.7 171.98038 34.01371 174.66667 30.7 174.66667C27.386292 174.66667 24.7 171.98038 24.7 168.66667C24.7 165.35295 27.386292 162.66667 30.7 162.66667C34.01371 162.66667 36.7 165.35295 36.7 168.66667Z" fill-rule="nonzero"/><path fill="#ed0965" d="M46.0125 175.16667L46.0125 162.27605L50.85625 162.27605Q52.325 162.27605 53.215626 162.66667Q54.10625 163.0573 54.60625 163.8698Q55.121876 164.6823 55.121876 165.57292Q55.121876 166.40105 54.66875 167.13542Q54.23125 167.8698 53.325 168.3073Q54.496876 168.65105 55.121876 169.47917Q55.746876 170.3073 55.746876 171.4323Q55.746876 172.33855 55.35625 173.1198Q54.98125 173.88542 54.41875 174.3073Q53.85625 174.72917 53.0125 174.94792Q52.16875 175.16667 50.934376 175.16667L46.0125 175.16667ZM47.73125 167.69792L50.5125 167.69792Q51.6375 167.69792 52.1375 167.54167Q52.79375 167.35417 53.121876 166.91667Q53.45 166.46355 53.45 165.77605Q53.45 165.13542 53.1375 164.65105Q52.825 164.16667 52.246876 163.9948Q51.684376 163.8073 50.29375 163.8073L47.73125 163.8073L47.73125 167.69792ZM47.73125 173.65105L50.934376 173.65105Q51.7625 173.65105 52.090626 173.58855Q52.684376 173.47917 53.075 173.22917Q53.465626 172.97917 53.715626 172.51042Q53.98125 172.04167 53.98125 171.4323Q53.98125 170.71355 53.60625 170.1823Q53.246876 169.65105 52.590626 169.4323Q51.934376 169.21355 50.7 169.21355L47.73125 169.21355L47.73125 173.65105ZM64.27812 172.16667L65.91875 172.3698Q65.52812 173.79167 64.48125 174.58855Q63.434376 175.38542 61.809376 175.38542Q59.7625 175.38542 58.559376 174.1198Q57.35625 172.85417 57.35625 170.57292Q57.35625 168.22917 58.559376 166.9323Q59.778126 165.6198 61.715626 165.6198Q63.590626 165.6198 64.77812 166.90105Q65.96562 168.16667 65.96562 170.47917Q65.96562 170.6198 65.95 170.90105L58.996876 170.90105Q59.075 172.44792 59.85625 173.26042Q60.653126 174.07292 61.809376 174.07292Q62.684376 174.07292 63.29375 173.6198Q63.91875 173.16667 64.27812 172.16667ZM59.075 169.60417L64.29375 169.60417Q64.18437 168.4323 63.7 167.83855Q62.934376 166.91667 61.73125 166.91667Q60.653126 166.91667 59.903126 167.65105Q59.16875 168.38542 59.075 169.60417ZM73.95 175.16667L73.95 173.9948Q73.05937 175.38542 71.325 175.38542Q70.21562 175.38542 69.27812 174.77605Q68.34062 174.15105 67.825 173.0573Q67.30937 171.94792 67.30937 170.51042Q67.30937 169.10417 67.77812 167.97917Q68.24687 166.83855 69.16875 166.22917Q70.10625 165.6198 71.2625 165.6198Q72.10625 165.6198 72.7625 165.97917Q73.41875 166.33855 73.84062 166.90105L73.84062 162.27605L75.40312 162.27605L75.40312 175.16667L73.95 175.16667ZM68.93437 170.51042Q68.93437 172.3073 69.68437 173.19792Q70.45 174.07292 71.48125 174.07292Q72.5125 174.07292 73.23125 173.22917Q73.96562 172.38542 73.96562 170.63542Q73.96562 168.72917 73.23125 167.83855Q72.49687 166.9323 71.41875 166.9323Q70.35625 166.9323 69.6375 167.79167Q68.93437 168.65105 68.93437 170.51042ZM83.95 175.16667L83.95 173.9948Q83.05937 175.38542 81.325 175.38542Q80.21562 175.38542 79.27812 174.77605Q78.34062 174.15105 77.825 173.0573Q77.30937 171.94792 77.30937 170.51042Q77.30937 169.10417 77.77812 167.97917Q78.24687 166.83855 79.16875 166.22917Q80.10625 165.6198 81.2625 165.6198Q82.10625 165.6198 82.7625 165.97917Q83.41875 166.33855 83.84062 166.90105L83.84062 162.27605L85.40312 162.27605L85.40312 175.16667L83.95 175.16667ZM78.93437 170.51042Q78.93437 172.3073 79.68437 173.19792Q80.45 174.07292 81.48125 174.07292Q82.5125 174.07292 83.23125 173.22917Q83.96562 172.38542 83.96562 170.63542Q83.96562 168.72917 83.23125 167.83855Q82.49687 166.9323 81.41875 166.9323Q80.35625 166.9323 79.6375 167.79167Q78.93437 168.65105 78.93437 170.51042ZM87.90312 164.10417L87.90312 162.27605L89.48125 162.27605L89.48125 164.10417L87.90312 164.10417ZM87.90312 175.16667L87.90312 165.83855L89.48125 165.83855L89.48125 175.16667L87.90312 175.16667ZM91.8875 175.16667L91.8875 165.83855L93.30937 165.83855L93.30937 167.16667Q94.34062 165.6198 96.27812 165.6198Q97.12187 165.6198 97.825 165.9323Q98.54375 166.22917 98.8875 166.72917Q99.24687 167.21355 99.3875 167.88542Q99.46562 168.32292 99.46562 169.4323L99.46562 175.16667L97.8875 175.16667L97.8875 169.4948Q97.8875 168.52605 97.7 168.04167Q97.52812 167.5573 97.04375 167.27605Q96.575 166.9948 95.95 166.9948Q94.93437 166.9948 94.2 167.63542Q93.46562 168.27605 93.46562 170.07292L93.46562 175.16667L91.8875 175.16667ZM101.59062 175.94792L103.1375 176.16667Q103.23125 176.88542 103.66875 177.21355Q104.2625 177.65105 105.27812 177.65105Q106.37187 177.65105 106.96562 177.19792Q107.575 176.76042 107.77812 175.97917Q107.90312 175.4948 107.90312 173.94792Q106.85625 175.16667 105.30937 175.16667Q103.3875 175.16667 102.325 173.77605Q101.27812 172.38542 101.27812 170.44792Q101.27812 169.10417 101.7625 167.97917Q102.24687 166.85417 103.16875 166.2448Q104.09062 165.6198 105.325 165.6198Q106.98125 165.6198 108.04375 166.96355L108.04375 165.83855L109.5125 165.83855L109.5125 173.90105Q109.5125 176.08855 109.05937 176.9948Q108.62187 177.90105 107.65312 178.41667Q106.7 178.94792 105.29375 178.94792Q103.62187 178.94792 102.59062 178.19792Q101.55937 177.44792 101.59062 175.94792ZM102.90312 170.33855Q102.90312 172.16667 103.6375 173.01042Q104.37187 173.85417 105.46562 173.85417Q106.55937 173.85417 107.29375 173.02605Q108.02812 172.1823 108.02812 170.38542Q108.02812 168.66667 107.2625 167.8073Q106.5125 166.9323 105.43437 166.9323Q104.3875 166.9323 103.6375 167.79167Q102.90312 168.65105 102.90312 170.33855ZM111.24687 172.38542L112.825 172.13542Q112.95 173.07292 113.54375 173.57292Q114.15312 174.07292 115.23125 174.07292Q116.325 174.07292 116.85625 173.63542Q117.3875 173.1823 117.3875 172.58855Q117.3875 172.0573 116.91875 171.7448Q116.59062 171.54167 115.29375 171.21355Q113.55937 170.77605 112.8875 170.46355Q112.21562 170.13542 111.85625 169.57292Q111.5125 168.9948 111.5125 168.3073Q111.5125 167.6823 111.79375 167.15105Q112.09062 166.6198 112.575 166.27605Q112.95 165.9948 113.59062 165.8073Q114.23125 165.6198 114.95 165.6198Q116.05937 165.6198 116.8875 165.94792Q117.71562 166.26042 118.10625 166.8073Q118.5125 167.33855 118.65312 168.2448L117.10625 168.44792Q116.99687 167.72917 116.49687 167.32292Q115.99687 166.91667 115.075 166.91667Q113.98125 166.91667 113.5125 167.27605Q113.04375 167.63542 113.04375 168.1198Q113.04375 168.4323 113.24687 168.6823Q113.43437 168.9323 113.84062 169.10417Q114.09062 169.1823 115.24687 169.51042Q116.91875 169.94792 117.575 170.2448Q118.24687 170.52605 118.62187 171.07292Q119.0125 171.6198 119.0125 172.41667Q119.0125 173.21355 118.54375 173.91667Q118.09062 174.6198 117.21562 175.01042Q116.34062 175.38542 115.24687 175.38542Q113.41875 175.38542 112.46562 174.63542Q111.5125 173.8698 111.24687 172.38542Z" fill-rule="nonzero"/><path fill="#b7b7b7" d="M36.7 199.66667C36.7 202.98038 34.01371 205.66667 30.7 205.66667C27.386292 205.66667 24.7 202.98038 24.7 199.66667C24.7 196.35295 27.386292 193.66667 30.7 193.66667C34.01371 193.66667 36.7 196.35295 36.7 199.66667Z" fill-rule="nonzero"/><path fill="#ed0965" d="M46.0125 206.16667L46.0125 193.27605L50.85625 193.27605Q52.325 193.27605 53.215626 193.66667Q54.10625 194.0573 54.60625 194.8698Q55.121876 195.6823 55.121876 196.57292Q55.121876 197.40105 54.66875 198.13542Q54.23125 198.8698 53.325 199.3073Q54.496876 199.65105 55.121876 200.47917Q55.746876 201.3073 55.746876 202.4323Q55.746876 203.33855 55.35625 204.1198Q54.98125 204.88542 54.41875 205.3073Q53.85625 205.72917 53.0125 205.94792Q52.16875 206.16667 50.934376 206.16667L46.0125 206.16667ZM47.73125 198.69792L50.5125 198.69792Q51.6375 198.69792 52.1375 198.54167Q52.79375 198.35417 53.121876 197.91667Q53.45 197.46355 53.45 196.77605Q53.45 196.13542 53.1375 195.65105Q52.825 195.16667 52.246876 194.9948Q51.684376 194.8073 50.29375 194.8073L47.73125 194.8073L47.73125 198.69792ZM47.73125 204.65105L50.934376 204.65105Q51.7625 204.65105 52.090626 204.58855Q52.684376 204.47917 53.075 204.22917Q53.465626 203.97917 53.715626 203.51042Q53.98125 203.04167 53.98125 202.4323Q53.98125 201.71355 53.60625 201.1823Q53.246876 200.65105 52.590626 200.4323Q51.934376 200.21355 50.7 200.21355L47.73125 200.21355L47.73125 204.65105ZM57.903126 195.10417L57.903126 193.27605L59.48125 193.27605L59.48125 195.10417L57.903126 195.10417ZM57.903126 206.16667L57.903126 196.83855L59.48125 196.83855L59.48125 206.16667L57.903126 206.16667ZM61.903126 206.16667L61.903126 193.27605L63.48125 193.27605L63.48125 200.63542L67.21562 196.83855L69.2625 196.83855L65.7 200.29167L69.6375 206.16667L67.68437 206.16667L64.59062 201.40105L63.48125 202.46355L63.48125 206.16667L61.903126 206.16667ZM77.27812 203.16667L78.91875 203.3698Q78.52812 204.79167 77.48125 205.58855Q76.43437 206.38542 74.80937 206.38542Q72.7625 206.38542 71.55937 205.1198Q70.35625 203.85417 70.35625 201.57292Q70.35625 199.22917 71.55937 197.9323Q72.77812 196.6198 74.71562 196.6198Q76.59062 196.6198 77.77812 197.90105Q78.96562 199.16667 78.96562 201.47917Q78.96562 201.6198 78.95 201.90105L71.99687 201.90105Q72.075 203.44792 72.85625 204.26042Q73.65312 205.07292 74.80937 205.07292Q75.68437 205.07292 76.29375 204.6198Q76.91875 204.16667 77.27812 203.16667ZM72.075 200.60417L77.29375 200.60417Q77.18437 199.4323 76.7 198.83855Q75.93437 197.91667 74.73125 197.91667Q73.65312 197.91667 72.90312 198.65105Q72.16875 199.38542 72.075 200.60417ZM80.24687 203.38542L81.825 203.13542Q81.95 204.07292 82.54375 204.57292Q83.15312 205.07292 84.23125 205.07292Q85.325 205.07292 85.85625 204.63542Q86.3875 204.1823 86.3875 203.58855Q86.3875 203.0573 85.91875 202.7448Q85.59062 202.54167 84.29375 202.21355Q82.55937 201.77605 81.8875 201.46355Q81.21562 201.13542 80.85625 200.57292Q80.5125 199.9948 80.5125 199.3073Q80.5125 198.6823 80.79375 198.15105Q81.09062 197.6198 81.575 197.27605Q81.95 196.9948 82.59062 196.8073Q83.23125 196.6198 83.95 196.6198Q85.05937 196.6198 85.8875 196.94792Q86.71562 197.26042 87.10625 197.8073Q87.5125 198.33855 87.65312 199.2448L86.10625 199.44792Q85.99687 198.72917 85.49687 198.32292Q84.99687 197.91667 84.075 197.91667Q82.98125 197.91667 82.5125 198.27605Q82.04375 198.63542 82.04375 199.1198Q82.04375 199.4323 82.24687 199.6823Q82.43437 199.9323 82.84062 200.10417Q83.09062 200.1823 84.24687 200.51042Q85.91875 200.94792 86.575 201.2448Q87.24687 201.52605 87.62187 202.07292Q88.0125 202.6198 88.0125 203.41667Q88.0125 204.21355 87.54375 204.91667Q87.09062 205.6198 86.21562 206.01042Q85.34062 206.38542 84.24687 206.38542Q82.41875 206.38542 81.46562 205.63542Q80.5125 204.8698 80.24687 203.38542Z" fill-rule="nonzero"/><path fill="#98064e" d="M36.7 230.66667C36.7 233.98038 34.01371 236.66667 30.7 236.66667C27.386292 236.66667 24.7 233.98038 24.7 230.66667C24.7 227.35295 27.386292 224.66667 30.7 224.66667C34.01371 224.66667 36.7 227.35295 36.7 230.66667Z" fill-rule="nonzero"/><path fill="#ed0965" d="M45.575 230.88542Q45.575 227.6823 47.29375 225.8698Q49.0125 224.0573 51.746876 224.0573Q53.528126 224.0573 54.95 224.91667Q56.3875 225.76042 57.1375 227.29167Q57.8875 228.8073 57.8875 230.7448Q57.8875 232.69792 57.090626 234.2448Q56.309376 235.79167 54.85625 236.58855Q53.403126 237.38542 51.73125 237.38542Q49.91875 237.38542 48.48125 236.51042Q47.04375 235.63542 46.309376 234.1198Q45.575 232.58855 45.575 230.88542ZM47.325 230.91667Q47.325 233.2448 48.575 234.58855Q49.840626 235.9323 51.715626 235.9323Q53.653126 235.9323 54.8875 234.57292Q56.1375 233.21355 56.1375 230.72917Q56.1375 229.16667 55.60625 227.9948Q55.075 226.8073 54.04375 226.16667Q53.028126 225.52605 51.746876 225.52605Q49.934376 225.52605 48.621876 226.77605Q47.325 228.01042 47.325 230.91667ZM63.340626 235.7448L63.575 237.15105Q62.903126 237.29167 62.371876 237.29167Q61.5125 237.29167 61.028126 237.02605Q60.559376 236.7448 60.371876 236.3073Q60.184376 235.85417 60.184376 234.4323L60.184376 229.0573L59.0125 229.0573L59.0125 227.83855L60.184376 227.83855L60.184376 225.52605L61.746876 224.57292L61.746876 227.83855L63.340626 227.83855L63.340626 229.0573L61.746876 229.0573L61.746876 234.52605Q61.746876 235.19792 61.825 235.40105Q61.91875 235.58855 62.10625 235.69792Q62.29375 235.8073 62.653126 235.8073Q62.903126 235.8073 63.340626 235.7448ZM64.8875 237.16667L64.8875 224.27605L66.46562 224.27605L66.46562 228.90105Q67.575 227.6198 69.2625 227.6198Q70.29375 227.6198 71.05937 228.02605Q71.825 228.4323 72.15312 229.16667Q72.49687 229.88542 72.49687 231.2448L72.49687 237.16667L70.90312 237.16667L70.90312 231.2448Q70.90312 230.0573 70.3875 229.52605Q69.87187 228.97917 68.93437 228.97917Q68.23125 228.97917 67.60625 229.35417Q66.99687 229.71355 66.73125 230.33855Q66.46562 230.96355 66.46562 232.0573L66.46562 237.16667L64.8875 237.16667ZM81.27812 234.16667L82.91875 234.3698Q82.52812 235.79167 81.48125 236.58855Q80.43437 237.38542 78.80937 237.38542Q76.7625 237.38542 75.55937 236.1198Q74.35625 234.85417 74.35625 232.57292Q74.35625 230.22917 75.55937 228.9323Q76.77812 227.6198 78.71562 227.6198Q80.59062 227.6198 81.77812 228.90105Q82.96562 230.16667 82.96562 232.47917Q82.96562 232.6198 82.95 232.90105L75.99687 232.90105Q76.075 234.44792 76.85625 235.26042Q77.65312 236.07292 78.80937 236.07292Q79.68437 236.07292 80.29375 235.6198Q80.91875 235.16667 81.27812 234.16667ZM76.075 231.60417L81.29375 231.60417Q81.18437 230.4323 80.7 229.83855Q79.93437 228.91667 78.73125 228.91667Q77.65312 228.91667 76.90312 229.65105Q76.16875 230.38542 76.075 231.60417ZM84.87187 237.16667L84.87187 227.83855L86.29375 227.83855L86.29375 229.2448Q86.84062 228.26042 87.29375 227.94792Q87.7625 227.6198 88.30937 227.6198Q89.12187 227.6198 89.93437 228.13542L89.40312 229.60417Q88.80937 229.26042 88.23125 229.26042Q87.71562 229.26042 87.29375 229.57292Q86.8875 229.88542 86.71562 230.4323Q86.45 231.27605 86.45 232.27605L86.45 237.16667L84.87187 237.16667Z" fill-rule="nonzero"/><path fill="#ed0965" d="M234.04688 43.7L234.04688 29.3875L239.4375 29.3875Q240.875 29.3875 241.625 29.5125Q242.67188 29.7 243.39062 30.2Q244.10938 30.684376 244.53125 31.575Q244.96875 32.465626 244.96875 33.528126Q244.96875 35.35625 243.79688 36.621876Q242.64062 37.871876 239.60938 37.871876L235.9375 37.871876L235.9375 43.7L234.04688 43.7ZM235.9375 36.184376L239.64062 36.184376Q241.46875 36.184376 242.23438 35.5125Q243.01562 34.825 243.01562 33.575Q243.01562 32.684376 242.5625 32.04375Q242.10938 31.403126 241.375 31.2Q240.89062 31.075 239.59375 31.075L235.9375 31.075L235.9375 36.184376ZM246.17188 38.5125Q246.17188 35.6375 247.76562 34.246876Q249.10938 33.090626 251.03125 33.090626Q253.17188 33.090626 254.51562 34.496876Q255.875 35.903126 255.875 38.371876Q255.875 40.371876 255.28125 41.528126Q254.6875 42.66875 253.53125 43.309376Q252.39062 43.934376 251.03125 43.934376Q248.84375 43.934376 247.5 42.54375Q246.17188 41.1375 246.17188 38.5125ZM247.96875 38.5125Q247.96875 40.5125 248.82812 41.496876Q249.70312 42.48125 251.03125 42.48125Q252.34375 42.48125 253.20312 41.496876Q254.07812 40.496876 254.07812 38.45Q254.07812 36.528126 253.20312 35.54375Q252.32812 34.54375 251.03125 34.54375Q249.70312 34.54375 248.82812 35.54375Q247.96875 36.528126 247.96875 38.5125ZM261.65625 42.121876L261.90625 43.684376Q261.17188 43.840626 260.57812 43.840626Q259.625 43.840626 259.09375 43.54375Q258.57812 43.23125 258.35938 42.746876Q258.14062 42.246876 258.14062 40.66875L258.14062 34.7L256.85938 34.7L256.85938 33.325L258.14062 33.325L258.14062 30.7625L259.89062 29.7L259.89062 33.325L261.65625 33.325L261.65625 34.7L259.89062 34.7L259.89062 40.7625Q259.89062 41.5125 259.98438 41.73125Q260.07812 41.934376 260.28125 42.075Q260.5 42.2 260.89062 42.2Q261.17188 42.2 261.65625 42.121876ZM270.92188 40.35625L272.73438 40.590626Q272.3125 42.16875 271.14062 43.059376Q269.98438 43.934376 268.17188 43.934376Q265.90625 43.934376 264.5625 42.54375Q263.23438 41.1375 263.23438 38.60625Q263.23438 35.98125 264.57812 34.54375Q265.92188 33.090626 268.07812 33.090626Q270.15625 33.090626 271.46875 34.5125Q272.79688 35.91875 272.79688 38.496876Q272.79688 38.653126 272.78125 38.965626L265.04688 38.965626Q265.14062 40.66875 266.01562 41.575Q266.89062 42.48125 268.1875 42.48125Q269.15625 42.48125 269.82812 41.98125Q270.51562 41.465626 270.92188 40.35625ZM265.14062 37.5125L270.9375 37.5125Q270.82812 36.215626 270.28125 35.559376Q269.4375 34.54375 268.09375 34.54375Q266.89062 34.54375 266.0625 35.35625Q265.23438 36.153126 265.14062 37.5125ZM274.8125 43.7L274.8125 33.325L276.40625 33.325L276.40625 34.809376Q277.54688 33.090626 279.70312 33.090626Q280.64062 33.090626 281.42188 33.434376Q282.21875 33.7625 282.60938 34.309376Q283.0 34.85625 283.15625 35.60625Q283.25 36.10625 283.25 37.325L283.25 43.7L281.48438 43.7L281.48438 37.3875Q281.48438 36.309376 281.28125 35.778126Q281.07812 35.246876 280.54688 34.934376Q280.03125 34.621876 279.32812 34.621876Q278.20312 34.621876 277.39062 35.340626Q276.57812 36.04375 276.57812 38.028126L276.57812 43.7L274.8125 43.7ZM288.65625 42.121876L288.90625 43.684376Q288.17188 43.840626 287.57812 43.840626Q286.625 43.840626 286.09375 43.54375Q285.57812 43.23125 285.35938 42.746876Q285.14062 42.246876 285.14062 40.66875L285.14062 34.7L283.85938 34.7L283.85938 33.325L285.14062 33.325L285.14062 30.7625L286.89062 29.7L286.89062 33.325L288.65625 33.325L288.65625 34.7L286.89062 34.7L286.89062 40.7625Q286.89062 41.5125 286.98438 41.73125Q287.07812 41.934376 287.28125 42.075Q287.5 42.2 287.89062 42.2Q288.17188 42.2 288.65625 42.121876ZM290.82812 31.403126L290.82812 29.3875L292.59375 29.3875L292.59375 31.403126L290.82812 31.403126ZM290.82812 43.7L290.82812 33.325L292.59375 33.325L292.59375 43.7L290.82812 43.7ZM301.59375 42.41875Q300.60938 43.246876 299.70312 43.590626Q298.79688 43.934376 297.76562 43.934376Q296.0625 43.934376 295.14062 43.10625Q294.21875 42.2625 294.21875 40.965626Q294.21875 40.2 294.5625 39.575Q294.92188 38.95 295.48438 38.575Q296.04688 38.184376 296.75 37.98125Q297.26562 37.85625 298.3125 37.715626Q300.4375 37.465626 301.4375 37.121876Q301.45312 36.7625 301.45312 36.653126Q301.45312 35.590626 300.95312 35.1375Q300.28125 34.54375 298.95312 34.54375Q297.70312 34.54375 297.10938 34.98125Q296.53125 35.41875 296.25 36.528126L294.53125 36.29375Q294.76562 35.184376 295.29688 34.5125Q295.82812 33.825 296.84375 33.465626Q297.85938 33.090626 299.20312 33.090626Q300.53125 33.090626 301.35938 33.403126Q302.1875 33.715626 302.57812 34.2Q302.96875 34.66875 303.125 35.3875Q303.21875 35.840626 303.21875 37.0125L303.21875 39.35625Q303.21875 41.809376 303.32812 42.465626Q303.4375 43.10625 303.78125 43.7L301.9375 43.7Q301.67188 43.153126 301.59375 42.41875ZM301.4375 38.496876Q300.48438 38.8875 298.5625 39.153126Q297.48438 39.309376 297.03125 39.5125Q296.59375 39.7 296.34375 40.075Q296.09375 40.45 296.09375 40.91875Q296.09375 41.621876 296.625 42.090626Q297.15625 42.559376 298.1875 42.559376Q299.20312 42.559376 299.98438 42.121876Q300.78125 41.66875 301.15625 40.903126Q301.4375 40.29375 301.4375 39.1375L301.4375 38.496876ZM305.78125 43.7L305.78125 29.3875L307.53125 29.3875L307.53125 43.7L305.78125 43.7ZM316.07812 43.7L316.07812 29.3875L326.4375 29.3875L326.4375 31.075L317.98438 31.075L317.98438 35.45L325.89062 35.45L325.89062 37.1375L317.98438 37.1375L317.98438 42.0125L326.76562 42.0125L326.76562 43.7L316.07812 43.7ZM328.8125 43.7L328.8125 33.325L330.39062 33.325L330.39062 34.778126Q330.875 34.028126 331.6875 33.559376Q332.5 33.090626 333.53125 33.090626Q334.6875 33.090626 335.42188 33.575Q336.15625 34.04375 336.46875 34.903126Q337.70312 33.090626 339.67188 33.090626Q341.21875 33.090626 342.04688 33.95Q342.875 34.809376 342.875 36.575L342.875 43.7L341.125 43.7L341.125 37.16875Q341.125 36.10625 340.95312 35.653126Q340.78125 35.184376 340.32812 34.903126Q339.89062 34.621876 339.28125 34.621876Q338.1875 34.621876 337.45312 35.35625Q336.73438 36.075 336.73438 37.66875L336.73438 43.7L334.98438 43.7L334.98438 36.965626Q334.98438 35.79375 334.54688 35.215626Q334.125 34.621876 333.14062 34.621876Q332.40625 34.621876 331.76562 35.0125Q331.14062 35.403126 330.85938 36.153126Q330.57812 36.903126 330.57812 38.325L330.57812 43.7L328.8125 43.7ZM344.82812 31.403126L344.82812 29.3875L346.59375 29.3875L346.59375 31.403126L344.82812 31.403126ZM344.82812 43.7L344.82812 33.325L346.59375 33.325L346.59375 43.7L344.82812 43.7ZM348.10938 40.60625L349.85938 40.325Q350.0 41.371876 350.67188 41.934376Q351.34375 42.48125 352.54688 42.48125Q353.75 42.48125 354.32812 41.996876Q354.92188 41.496876 354.92188 40.840626Q354.92188 40.246876 354.40625 39.903126Q354.04688 39.66875 352.60938 39.309376Q350.67188 38.809376 349.92188 38.465626Q349.1875 38.10625 348.79688 37.48125Q348.40625 36.840626 348.40625 36.075Q348.40625 35.3875 348.71875 34.79375Q349.04688 34.2 349.59375 33.809376Q350.0 33.5125 350.70312 33.309376Q351.42188 33.090626 352.23438 33.090626Q353.45312 33.090626 354.375 33.45Q355.29688 33.79375 355.73438 34.403126Q356.17188 34.996876 356.34375 35.996876L354.625 36.23125Q354.5 35.434376 353.9375 34.996876Q353.375 34.54375 352.35938 34.54375Q351.14062 34.54375 350.625 34.95Q350.10938 35.340626 350.10938 35.871876Q350.10938 36.215626 350.32812 36.496876Q350.53125 36.778126 351.0 36.965626Q351.26562 37.059376 352.54688 37.403126Q354.42188 37.903126 355.15625 38.23125Q355.89062 38.54375 356.3125 39.153126Q356.73438 39.746876 356.73438 40.653126Q356.73438 41.528126 356.21875 42.309376Q355.70312 43.090626 354.73438 43.5125Q353.76562 43.934376 352.54688 43.934376Q350.53125 43.934376 349.46875 43.090626Q348.40625 42.246876 348.10938 40.60625ZM358.10938 40.60625L359.85938 40.325Q360.0 41.371876 360.67188 41.934376Q361.34375 42.48125 362.54688 42.48125Q363.75 42.48125 364.32812 41.996876Q364.92188 41.496876 364.92188 40.840626Q364.92188 40.246876 364.40625 39.903126Q364.04688 39.66875 362.60938 39.309376Q360.67188 38.809376 359.92188 38.465626Q359.1875 38.10625 358.79688 37.48125Q358.40625 36.840626 358.40625 36.075Q358.40625 35.3875 358.71875 34.79375Q359.04688 34.2 359.59375 33.809376Q360.0 33.5125 360.70312 33.309376Q361.42188 33.090626 362.23438 33.090626Q363.45312 33.090626 364.375 33.45Q365.29688 33.79375 365.73438 34.403126Q366.17188 34.996876 366.34375 35.996876L364.625 36.23125Q364.5 35.434376 363.9375 34.996876Q363.375 34.54375 362.35938 34.54375Q361.14062 34.54375 360.625 34.95Q360.10938 35.340626 360.10938 35.871876Q360.10938 36.215626 360.32812 36.496876Q360.53125 36.778126 361.0 36.965626Q361.26562 37.059376 362.54688 37.403126Q364.42188 37.903126 365.15625 38.23125Q365.89062 38.54375 366.3125 39.153126Q366.73438 39.746876 366.73438 40.653126Q366.73438 41.528126 366.21875 42.309376Q365.70312 43.090626 364.73438 43.5125Q363.76562 43.934376 362.54688 43.934376Q360.53125 43.934376 359.46875 43.090626Q358.40625 42.246876 358.10938 40.60625ZM368.82812 31.403126L368.82812 29.3875L370.59375 29.3875L370.59375 31.403126L368.82812 31.403126ZM368.82812 43.7L368.82812 33.325L370.59375 33.325L370.59375 43.7L368.82812 43.7ZM372.17188 38.5125Q372.17188 35.6375 373.76562 34.246876Q375.10938 33.090626 377.03125 33.090626Q379.17188 33.090626 380.51562 34.496876Q381.875 35.903126 381.875 38.371876Q381.875 40.371876 381.28125 41.528126Q380.6875 42.66875 379.53125 43.309376Q378.39062 43.934376 377.03125 43.934376Q374.84375 43.934376 373.5 42.54375Q372.17188 41.1375 372.17188 38.5125ZM373.96875 38.5125Q373.96875 40.5125 374.82812 41.496876Q375.70312 42.48125 377.03125 42.48125Q378.34375 42.48125 379.20312 41.496876Q380.07812 40.496876 380.07812 38.45Q380.07812 36.528126 379.20312 35.54375Q378.32812 34.54375 377.03125 34.54375Q375.70312 34.54375 374.82812 35.54375Q373.96875 36.528126 373.96875 38.5125ZM383.8125 43.7L383.8125 33.325L385.40625 33.325L385.40625 34.809376Q386.54688 33.090626 388.70312 33.090626Q389.64062 33.090626 390.42188 33.434376Q391.21875 33.7625 391.60938 34.309376Q392.0 34.85625 392.15625 35.60625Q392.25 36.10625 392.25 37.325L392.25 43.7L390.48438 43.7L390.48438 37.3875Q390.48438 36.309376 390.28125 35.778126Q390.07812 35.246876 389.54688 34.934376Q389.03125 34.621876 388.32812 34.621876Q387.20312 34.621876 386.39062 35.340626Q385.57812 36.04375 385.57812 38.028126L385.57812 43.7L383.8125 43.7ZM393.10938 40.60625L394.85938 40.325Q395.0 41.371876 395.67188 41.934376Q396.34375 42.48125 397.54688 42.48125Q398.75 42.48125 399.32812 41.996876Q399.92188 41.496876 399.92188 40.840626Q399.92188 40.246876 399.40625 39.903126Q399.04688 39.66875 397.60938 39.309376Q395.67188 38.809376 394.92188 38.465626Q394.1875 38.10625 393.79688 37.48125Q393.40625 36.840626 393.40625 36.075Q393.40625 35.3875 393.71875 34.79375Q394.04688 34.2 394.59375 33.809376Q395.0 33.5125 395.70312 33.309376Q396.42188 33.090626 397.23438 33.090626Q398.45312 33.090626 399.375 33.45Q400.29688 33.79375 400.73438 34.403126Q401.17188 34.996876 401.34375 35.996876L399.625 36.23125Q399.5 35.434376 398.9375 34.996876Q398.375 34.54375 397.35938 34.54375Q396.14062 34.54375 395.625 34.95Q395.10938 35.340626 395.10938 35.871876Q395.10938 36.215626 395.32812 36.496876Q395.53125 36.778126 396.0 36.965626Q396.26562 37.059376 397.54688 37.403126Q399.42188 37.903126 400.15625 38.23125Q400.89062 38.54375 401.3125 39.153126Q401.73438 39.746876 401.73438 40.653126Q401.73438 41.528126 401.21875 42.309376Q400.70312 43.090626 399.73438 43.5125Q398.76562 43.934376 397.54688 43.934376Q395.53125 43.934376 394.46875 43.090626Q393.40625 42.246876 393.10938 40.60625ZM409.40625 39.10625L411.1875 38.95Q411.3125 40.0125 411.76562 40.7Q412.23438 41.3875 413.20312 41.825Q414.1875 42.246876 415.42188 42.246876Q416.5 42.246876 417.32812 41.934376Q418.15625 41.60625 418.5625 41.04375Q418.96875 40.48125 418.96875 39.809376Q418.96875 39.1375 418.57812 38.6375Q418.1875 38.1375 417.29688 37.79375Q416.71875 37.559376 414.73438 37.090626Q412.76562 36.621876 411.98438 36.2Q410.95312 35.66875 410.45312 34.871876Q409.95312 34.075 409.95312 33.090626Q409.95312 31.996876 410.5625 31.059376Q411.17188 30.121876 412.35938 29.6375Q413.54688 29.1375 414.98438 29.1375Q416.57812 29.1375 417.79688 29.653126Q419.01562 30.16875 419.65625 31.16875Q420.3125 32.153126 420.35938 33.41875L418.54688 33.559376Q418.40625 32.2 417.5625 31.5125Q416.71875 30.809376 415.0625 30.809376Q413.34375 30.809376 412.54688 31.45Q411.76562 32.075 411.76562 32.95Q411.76562 33.73125 412.32812 34.23125Q412.875 34.73125 415.1875 35.246876Q417.5 35.7625 418.35938 36.153126Q419.60938 36.73125 420.20312 37.621876Q420.79688 38.496876 420.79688 39.653126Q420.79688 40.79375 420.14062 41.809376Q419.48438 42.825 418.25 43.3875Q417.03125 43.95 415.5 43.95Q413.5625 43.95 412.25 43.3875Q410.9375 42.809376 410.1875 41.66875Q409.4375 40.528126 409.40625 39.10625ZM429.59375 42.41875Q428.60938 43.246876 427.70312 43.590626Q426.79688 43.934376 425.76562 43.934376Q424.0625 43.934376 423.14062 43.10625Q422.21875 42.2625 422.21875 40.965626Q422.21875 40.2 422.5625 39.575Q422.92188 38.95 423.48438 38.575Q424.04688 38.184376 424.75 37.98125Q425.26562 37.85625 426.3125 37.715626Q428.4375 37.465626 429.4375 37.121876Q429.45312 36.7625 429.45312 36.653126Q429.45312 35.590626 428.95312 35.1375Q428.28125 34.54375 426.95312 34.54375Q425.70312 34.54375 425.10938 34.98125Q424.53125 35.41875 424.25 36.528126L422.53125 36.29375Q422.76562 35.184376 423.29688 34.5125Q423.82812 33.825 424.84375 33.465626Q425.85938 33.090626 427.20312 33.090626Q428.53125 33.090626 429.35938 33.403126Q430.1875 33.715626 430.57812 34.2Q430.96875 34.66875 431.125 35.3875Q431.21875 35.840626 431.21875 37.0125L431.21875 39.35625Q431.21875 41.809376 431.32812 42.465626Q431.4375 43.10625 431.78125 43.7L429.9375 43.7Q429.67188 43.153126 429.59375 42.41875ZM429.4375 38.496876Q428.48438 38.8875 426.5625 39.153126Q425.48438 39.309376 425.03125 39.5125Q424.59375 39.7 424.34375 40.075Q424.09375 40.45 424.09375 40.91875Q424.09375 41.621876 424.625 42.090626Q425.15625 42.559376 426.1875 42.559376Q427.20312 42.559376 427.98438 42.121876Q428.78125 41.66875 429.15625 40.903126Q429.4375 40.29375 429.4375 39.1375L429.4375 38.496876ZM436.70312 43.7L432.75 33.325L434.60938 33.325L436.84375 39.54375Q437.20312 40.54375 437.5 41.621876Q437.73438 40.809376 438.15625 39.653126L440.45312 33.325L442.26562 33.325L438.34375 43.7L436.70312 43.7ZM449.92188 40.35625L451.73438 40.590626Q451.3125 42.16875 450.14062 43.059376Q448.98438 43.934376 447.17188 43.934376Q444.90625 43.934376 443.5625 42.54375Q442.23438 41.1375 442.23438 38.60625Q442.23438 35.98125 443.57812 34.54375Q444.92188 33.090626 447.07812 33.090626Q449.15625 33.090626 450.46875 34.5125Q451.79688 35.91875 451.79688 38.496876Q451.79688 38.653126 451.78125 38.965626L444.04688 38.965626Q444.14062 40.66875 445.01562 41.575Q445.89062 42.48125 447.1875 42.48125Q448.15625 42.48125 448.82812 41.98125Q449.51562 41.465626 449.92188 40.35625ZM444.14062 37.5125L449.9375 37.5125Q449.82812 36.215626 449.28125 35.559376Q448.4375 34.54375 447.09375 34.54375Q445.89062 34.54375 445.0625 35.35625Q444.23438 36.153126 444.14062 37.5125ZM460.54688 43.7L460.54688 42.3875Q459.5625 43.934376 457.64062 43.934376Q456.40625 43.934376 455.35938 43.246876Q454.32812 42.559376 453.75 41.340626Q453.1875 40.121876 453.1875 38.528126Q453.1875 36.965626 453.70312 35.7Q454.21875 34.434376 455.25 33.7625Q456.29688 33.090626 457.5625 33.090626Q458.5 33.090626 459.23438 33.496876Q459.96875 33.8875 460.4375 34.5125L460.4375 29.3875L462.17188 29.3875L462.17188 43.7L460.54688 43.7ZM454.98438 38.528126Q454.98438 40.5125 455.82812 41.496876Q456.67188 42.48125 457.8125 42.48125Q458.96875 42.48125 459.76562 41.54375Q460.57812 40.60625 460.57812 38.66875Q460.57812 36.54375 459.75 35.54375Q458.9375 34.54375 457.73438 34.54375Q456.5625 34.54375 455.76562 35.5125Q454.98438 36.465626 454.98438 38.528126ZM470.8125 47.66875L470.8125 33.325L472.42188 33.325L472.42188 34.66875Q472.98438 33.8875 473.6875 33.496876Q474.40625 33.090626 475.42188 33.090626Q476.75 33.090626 477.76562 33.778126Q478.78125 34.465626 479.29688 35.715626Q479.82812 36.95 479.82812 38.434376Q479.82812 40.028126 479.25 41.309376Q478.6875 42.575 477.59375 43.2625Q476.5 43.934376 475.29688 43.934376Q474.42188 43.934376 473.71875 43.559376Q473.03125 43.184376 472.57812 42.621876L472.57812 47.66875L470.8125 47.66875ZM472.40625 38.575Q472.40625 40.575 473.21875 41.528126Q474.03125 42.48125 475.1875 42.48125Q476.35938 42.48125 477.1875 41.496876Q478.03125 40.5125 478.03125 38.41875Q478.03125 36.45 477.20312 35.465626Q476.39062 34.465626 475.26562 34.465626Q474.14062 34.465626 473.26562 35.528126Q472.40625 36.575 472.40625 38.575ZM488.92188 40.35625L490.73438 40.590626Q490.3125 42.16875 489.14062 43.059376Q487.98438 43.934376 486.17188 43.934376Q483.90625 43.934376 482.5625 42.54375Q481.23438 41.1375 481.23438 38.60625Q481.23438 35.98125 482.57812 34.54375Q483.92188 33.090626 486.07812 33.090626Q488.15625 33.090626 489.46875 34.5125Q490.79688 35.91875 490.79688 38.496876Q490.79688 38.653126 490.78125 38.965626L483.04688 38.965626Q483.14062 40.66875 484.01562 41.575Q484.89062 42.48125 486.1875 42.48125Q487.15625 42.48125 487.82812 41.98125Q488.51562 41.465626 488.92188 40.35625ZM483.14062 37.5125L488.9375 37.5125Q488.82812 36.215626 488.28125 35.559376Q487.4375 34.54375 486.09375 34.54375Q484.89062 34.54375 484.0625 35.35625Q483.23438 36.153126 483.14062 37.5125ZM492.79688 43.7L492.79688 33.325L494.375 33.325L494.375 34.903126Q494.98438 33.79375 495.5 33.45Q496.01562 33.090626 496.625 33.090626Q497.51562 33.090626 498.4375 33.653126L497.82812 35.29375Q497.1875 34.903126 496.54688 34.903126Q495.96875 34.903126 495.5 35.2625Q495.04688 35.60625 494.84375 36.215626Q494.5625 37.153126 494.5625 38.2625L494.5625 43.7L492.79688 43.7ZM516.2656 38.684376L518.15625 39.153126Q517.5625 41.496876 516.0156 42.73125Q514.46875 43.95 512.21875 43.95Q509.90625 43.95 508.45312 43.0125Q507.01562 42.059376 506.25 40.278126Q505.5 38.48125 505.5 36.434376Q505.5 34.2 506.34375 32.54375Q507.20312 30.871876 508.78125 30.0125Q510.35938 29.1375 512.25 29.1375Q514.40625 29.1375 515.8594 30.23125Q517.3281 31.325 517.90625 33.309376L516.0469 33.746876Q515.5469 32.184376 514.59375 31.48125Q513.65625 30.7625 512.21875 30.7625Q510.5625 30.7625 509.45312 31.559376Q508.34375 32.340626 507.89062 33.684376Q507.45312 35.0125 507.45312 36.41875Q507.45312 38.246876 507.98438 39.621876Q508.51562 40.98125 509.64062 41.653126Q510.76562 42.325 512.0625 42.325Q513.65625 42.325 514.7656 41.403126Q515.875 40.48125 516.2656 38.684376ZM526.59375 42.41875Q525.6094 43.246876 524.7031 43.590626Q523.7969 43.934376 522.7656 43.934376Q521.0625 43.934376 520.1406 43.10625Q519.21875 42.2625 519.21875 40.965626Q519.21875 40.2 519.5625 39.575Q519.9219 38.95 520.4844 38.575Q521.0469 38.184376 521.75 37.98125Q522.2656 37.85625 523.3125 37.715626Q525.4375 37.465626 526.4375 37.121876Q526.4531 36.7625 526.4531 36.653126Q526.4531 35.590626 525.9531 35.1375Q525.28125 34.54375 523.9531 34.54375Q522.7031 34.54375 522.1094 34.98125Q521.53125 35.41875 521.25 36.528126L519.53125 36.29375Q519.7656 35.184376 520.2969 34.5125Q520.8281 33.825 521.84375 33.465626Q522.8594 33.090626 524.2031 33.090626Q525.53125 33.090626 526.3594 33.403126Q527.1875 33.715626 527.5781 34.2Q527.96875 34.66875 528.125 35.3875Q528.21875 35.840626 528.21875 37.0125L528.21875 39.35625Q528.21875 41.809376 528.3281 42.465626Q528.4375 43.10625 528.78125 43.7L526.9375 43.7Q526.6719 43.153126 526.59375 42.41875ZM526.4375 38.496876Q525.4844 38.8875 523.5625 39.153126Q522.4844 39.309376 522.03125 39.5125Q521.59375 39.7 521.34375 40.075Q521.09375 40.45 521.09375 40.91875Q521.09375 41.621876 521.625 42.090626Q522.15625 42.559376 523.1875 42.559376Q524.2031 42.559376 524.9844 42.121876Q525.78125 41.66875 526.15625 40.903126Q526.4375 40.29375 526.4375 39.1375L526.4375 38.496876ZM534.65625 42.121876L534.90625 43.684376Q534.1719 43.840626 533.5781 43.840626Q532.625 43.840626 532.09375 43.54375Q531.5781 43.23125 531.3594 42.746876Q531.1406 42.246876 531.1406 40.66875L531.1406 34.7L529.8594 34.7L529.8594 33.325L531.1406 33.325L531.1406 30.7625L532.8906 29.7L532.8906 33.325L534.65625 33.325L534.65625 34.7L532.8906 34.7L532.8906 40.7625Q532.8906 41.5125 532.9844 41.73125Q533.0781 41.934376 533.28125 42.075Q533.5 42.2 533.8906 42.2Q534.1719 42.2 534.65625 42.121876ZM543.9219 40.35625L545.7344 40.590626Q545.3125 42.16875 544.1406 43.059376Q542.9844 43.934376 541.1719 43.934376Q538.90625 43.934376 537.5625 42.54375Q536.2344 41.1375 536.2344 38.60625Q536.2344 35.98125 537.5781 34.54375Q538.9219 33.090626 541.0781 33.090626Q543.15625 33.090626 544.46875 34.5125Q545.7969 35.91875 545.7969 38.496876Q545.7969 38.653126 545.78125 38.965626L538.0469 38.965626Q538.1406 40.66875 539.0156 41.575Q539.8906 42.48125 541.1875 42.48125Q542.15625 42.48125 542.8281 41.98125Q543.5156 41.465626 543.9219 40.35625ZM538.1406 37.5125L543.9375 37.5125Q543.8281 36.215626 543.28125 35.559376Q542.4375 34.54375 541.09375 34.54375Q539.8906 34.54375 539.0625 35.35625Q538.2344 36.153126 538.1406 37.5125ZM547.5 44.559376L549.2031 44.809376Q549.3125 45.60625 549.7969 45.965626Q550.4531 46.45 551.59375 46.45Q552.8125 46.45 553.46875 45.965626Q554.1406 45.48125 554.375 44.60625Q554.5156 44.059376 554.5 42.340626Q553.34375 43.7 551.625 43.7Q549.4844 43.7 548.3125 42.153126Q547.1406 40.60625 547.1406 38.45Q547.1406 36.965626 547.6719 35.715626Q548.21875 34.465626 549.2344 33.778126Q550.2656 33.090626 551.6406 33.090626Q553.46875 33.090626 554.6719 34.575L554.6719 33.325L556.28125 33.325L556.28125 42.29375Q556.28125 44.715626 555.78125 45.715626Q555.2969 46.73125 554.21875 47.309376Q553.15625 47.903126 551.59375 47.903126Q549.75 47.903126 548.59375 47.075Q547.4531 46.246876 547.5 44.559376ZM548.9531 38.325Q548.9531 40.371876 549.7656 41.309376Q550.5781 42.246876 551.7969 42.246876Q553.0 42.246876 553.8125 41.309376Q554.6406 40.371876 554.6406 38.3875Q554.6406 36.48125 553.7969 35.5125Q552.9531 34.54375 551.7656 34.54375Q550.59375 34.54375 549.7656 35.496876Q548.9531 36.45 548.9531 38.325ZM558.1719 38.5125Q558.1719 35.6375 559.7656 34.246876Q561.1094 33.090626 563.03125 33.090626Q565.1719 33.090626 566.5156 34.496876Q567.875 35.903126 567.875 38.371876Q567.875 40.371876 567.28125 41.528126Q566.6875 42.66875 565.53125 43.309376Q564.3906 43.934376 563.03125 43.934376Q560.84375 43.934376 559.5 42.54375Q558.1719 41.1375 558.1719 38.5125ZM559.96875 38.5125Q559.96875 40.5125 560.8281 41.496876Q561.7031 42.48125 563.03125 42.48125Q564.34375 42.48125 565.2031 41.496876Q566.0781 40.496876 566.0781 38.45Q566.0781 36.528126 565.2031 35.54375Q564.3281 34.54375 563.03125 34.54375Q561.7031 34.54375 560.8281 35.54375Q559.96875 36.528126 559.96875 38.5125ZM569.7969 43.7L569.7969 33.325L571.375 33.325L571.375 34.903126Q571.9844 33.79375 572.5 33.45Q573.0156 33.090626 573.625 33.090626Q574.5156 33.090626 575.4375 33.653126L574.8281 35.29375Q574.1875 34.903126 573.5469 34.903126Q572.96875 34.903126 572.5 35.2625Q572.0469 35.60625 571.84375 36.215626Q571.5625 37.153126 571.5625 38.2625L571.5625 43.7L569.7969 43.7ZM576.7344 47.7L576.5469 46.04375Q577.125 46.2 577.5469 46.2Q578.1406 46.2 578.4844 45.996876Q578.84375 45.809376 579.0625 45.465626Q579.2344 45.2 579.6094 44.153126Q579.65625 43.996876 579.7656 43.715626L575.8281 33.325L577.71875 33.325L579.875 39.340626Q580.2969 40.48125 580.625 41.73125Q580.9375 40.528126 581.34375 39.371876L583.5625 33.325L585.3281 33.325L581.375 43.871876Q580.75 45.590626 580.3906 46.23125Q579.9219 47.10625 579.3125 47.496876Q578.71875 47.903126 577.875 47.903126Q577.3594 47.903126 576.7344 47.7ZM592.1719 38.5125Q592.1719 35.6375 593.7656 34.246876Q595.1094 33.090626 597.03125 33.090626Q599.1719 33.090626 600.5156 34.496876Q601.875 35.903126 601.875 38.371876Q601.875 40.371876 601.28125 41.528126Q600.6875 42.66875 599.53125 43.309376Q598.3906 43.934376 597.03125 43.934376Q594.84375 43.934376 593.5 42.54375Q592.1719 41.1375 592.1719 38.5125ZM593.96875 38.5125Q593.96875 40.5125 594.8281 41.496876Q595.7031 42.48125 597.03125 42.48125Q598.34375 42.48125 599.2031 41.496876Q600.0781 40.496876 600.0781 38.45Q600.0781 36.528126 599.2031 35.54375Q598.3281 34.54375 597.03125 34.54375Q595.7031 34.54375 594.8281 35.54375Q593.96875 36.528126 593.96875 38.5125ZM604.2344 43.7L604.2344 34.7L602.6875 34.7L602.6875 33.325L604.2344 33.325L604.2344 32.23125Q604.2344 31.184376 604.4219 30.66875Q604.6719 29.98125 605.3125 29.559376Q605.9531 29.1375 607.1094 29.1375Q607.8594 29.1375 608.75 29.309376L608.4844 30.840626Q607.9375 30.746876 607.4531 30.746876Q606.65625 30.746876 606.3125 31.090626Q605.9844 31.434376 605.9844 32.371876L605.9844 33.325L608.0156 33.325L608.0156 34.7L605.9844 34.7L605.9844 43.7L604.2344 43.7ZM616.3594 43.7L616.3594 29.3875L618.2656 29.3875L618.2656 43.7L616.3594 43.7ZM625.65625 42.121876L625.90625 43.684376Q625.1719 43.840626 624.5781 43.840626Q623.625 43.840626 623.09375 43.54375Q622.5781 43.23125 622.3594 42.746876Q622.1406 42.246876 622.1406 40.66875L622.1406 34.7L620.8594 34.7L620.8594 33.325L622.1406 33.325L622.1406 30.7625L623.8906 29.7L623.8906 33.325L625.65625 33.325L625.65625 34.7L623.8906 34.7L623.8906 40.7625Q623.8906 41.5125 623.9844 41.73125Q624.0781 41.934376 624.28125 42.075Q624.5 42.2 624.8906 42.2Q625.1719 42.2 625.65625 42.121876ZM634.9219 40.35625L636.7344 40.590626Q636.3125 42.16875 635.1406 43.059376Q633.9844 43.934376 632.1719 43.934376Q629.90625 43.934376 628.5625 42.54375Q627.2344 41.1375 627.2344 38.60625Q627.2344 35.98125 628.5781 34.54375Q629.9219 33.090626 632.0781 33.090626Q634.15625 33.090626 635.46875 34.5125Q636.7969 35.91875 636.7969 38.496876Q636.7969 38.653126 636.78125 38.965626L629.0469 38.965626Q629.1406 40.66875 630.0156 41.575Q630.8906 42.48125 632.1875 42.48125Q633.15625 42.48125 633.8281 41.98125Q634.5156 41.465626 634.9219 40.35625ZM629.1406 37.5125L634.9375 37.5125Q634.8281 36.215626 634.28125 35.559376Q633.4375 34.54375 632.09375 34.54375Q630.8906 34.54375 630.0625 35.35625Q629.2344 36.153126 629.1406 37.5125ZM638.8125 43.7L638.8125 33.325L640.3906 33.325L640.3906 34.778126Q640.875 34.028126 641.6875 33.559376Q642.5 33.090626 643.53125 33.090626Q644.6875 33.090626 645.4219 33.575Q646.15625 34.04375 646.46875 34.903126Q647.7031 33.090626 649.6719 33.090626Q651.21875 33.090626 652.0469 33.95Q652.875 34.809376 652.875 36.575L652.875 43.7L651.125 43.7L651.125 37.16875Q651.125 36.10625 650.9531 35.653126Q650.78125 35.184376 650.3281 34.903126Q649.8906 34.621876 649.28125 34.621876Q648.1875 34.621876 647.4531 35.35625Q646.7344 36.075 646.7344 37.66875L646.7344 43.7L644.9844 43.7L644.9844 36.965626Q644.9844 35.79375 644.5469 35.215626Q644.125 34.621876 643.1406 34.621876Q642.40625 34.621876 641.7656 35.0125Q641.1406 35.403126 640.8594 36.153126Q640.5781 36.903126 640.5781 38.325L640.5781 43.7L638.8125 43.7ZM654.1094 40.60625L655.8594 40.325Q656.0 41.371876 656.6719 41.934376Q657.34375 42.48125 658.5469 42.48125Q659.75 42.48125 660.3281 41.996876Q660.9219 41.496876 660.9219 40.840626Q660.9219 40.246876 660.40625 39.903126Q660.0469 39.66875 658.6094 39.309376Q656.6719 38.809376 655.9219 38.465626Q655.1875 38.10625 654.7969 37.48125Q654.40625 36.840626 654.40625 36.075Q654.40625 35.3875 654.71875 34.79375Q655.0469 34.2 655.59375 33.809376Q656.0 33.5125 656.7031 33.309376Q657.4219 33.090626 658.2344 33.090626Q659.4531 33.090626 660.375 33.45Q661.2969 33.79375 661.7344 34.403126Q662.1719 34.996876 662.34375 35.996876L660.625 36.23125Q660.5 35.434376 659.9375 34.996876Q659.375 34.54375 658.3594 34.54375Q657.1406 34.54375 656.625 34.95Q656.1094 35.340626 656.1094 35.871876Q656.1094 36.215626 656.3281 36.496876Q656.53125 36.778126 657.0 36.965626Q657.2656 37.059376 658.5469 37.403126Q660.4219 37.903126 661.15625 38.23125Q661.8906 38.54375 662.3125 39.153126Q662.7344 39.746876 662.7344 40.653126Q662.7344 41.528126 662.21875 42.309376Q661.7031 43.090626 660.7344 43.5125Q659.7656 43.934376 658.5469 43.934376Q656.53125 43.934376 655.46875 43.090626Q654.40625 42.246876 654.1094 40.60625ZM670.1094 40.60625L671.8594 40.325Q672.0 41.371876 672.6719 41.934376Q673.34375 42.48125 674.5469 42.48125Q675.75 42.48125 676.3281 41.996876Q676.9219 41.496876 676.9219 40.840626Q676.9219 40.246876 676.40625 39.903126Q676.0469 39.66875 674.6094 39.309376Q672.6719 38.809376 671.9219 38.465626Q671.1875 38.10625 670.7969 37.48125Q670.40625 36.840626 670.40625 36.075Q670.40625 35.3875 670.71875 34.79375Q671.0469 34.2 671.59375 33.809376Q672.0 33.5125 672.7031 33.309376Q673.4219 33.090626 674.2344 33.090626Q675.4531 33.090626 676.375 33.45Q677.2969 33.79375 677.7344 34.403126Q678.1719 34.996876 678.34375 35.996876L676.625 36.23125Q676.5 35.434376 675.9375 34.996876Q675.375 34.54375 674.3594 34.54375Q673.1406 34.54375 672.625 34.95Q672.1094 35.340626 672.1094 35.871876Q672.1094 36.215626 672.3281 36.496876Q672.53125 36.778126 673.0 36.965626Q673.2656 37.059376 674.5469 37.403126Q676.4219 37.903126 677.15625 38.23125Q677.8906 38.54375 678.3125 39.153126Q678.7344 39.746876 678.7344 40.653126Q678.7344 41.528126 678.21875 42.309376Q677.7031 43.090626 676.7344 43.5125Q675.7656 43.934376 674.5469 43.934376Q672.53125 43.934376 671.46875 43.090626Q670.40625 42.246876 670.1094 40.60625ZM680.8281 31.403126L680.8281 29.3875L682.59375 29.3875L682.59375 31.403126L680.8281 31.403126ZM680.8281 43.7L680.8281 33.325L682.59375 33.325L682.59375 43.7L680.8281 43.7ZM684.8125 43.7L684.8125 33.325L686.40625 33.325L686.40625 34.809376Q687.5469 33.090626 689.7031 33.090626Q690.6406 33.090626 691.4219 33.434376Q692.21875 33.7625 692.6094 34.309376Q693.0 34.85625 693.15625 35.60625Q693.25 36.10625 693.25 37.325L693.25 43.7L691.4844 43.7L691.4844 37.3875Q691.4844 36.309376 691.28125 35.778126Q691.0781 35.246876 690.5469 34.934376Q690.03125 34.621876 689.3281 34.621876Q688.2031 34.621876 687.3906 35.340626Q686.5781 36.04375 686.5781 38.028126L686.5781 43.7L684.8125 43.7ZM701.59375 39.903126L703.3125 40.121876Q703.03125 41.91875 701.8594 42.934376Q700.7031 43.934376 699.0 43.934376Q696.875 43.934376 695.5781 42.54375Q694.28125 41.153126 694.28125 38.559376Q694.28125 36.871876 694.8281 35.621876Q695.3906 34.35625 696.53125 33.73125Q697.6719 33.090626 699.0156 33.090626Q700.7031 33.090626 701.7656 33.95Q702.84375 34.809376 703.15625 36.371876L701.4375 36.6375Q701.2031 35.590626 700.5781 35.075Q699.9531 34.54375 699.0781 34.54375Q697.75 34.54375 696.9219 35.496876Q696.09375 36.45 696.09375 38.496876Q696.09375 40.590626 696.8906 41.54375Q697.6875 42.48125 698.9844 42.48125Q700.0156 42.48125 700.7031 41.85625Q701.40625 41.215626 701.59375 39.903126ZM711.9219 40.35625L713.7344 40.590626Q713.3125 42.16875 712.1406 43.059376Q710.9844 43.934376 709.1719 43.934376Q706.90625 43.934376 705.5625 42.54375Q704.2344 41.1375 704.2344 38.60625Q704.2344 35.98125 705.5781 34.54375Q706.9219 33.090626 709.0781 33.090626Q711.15625 33.090626 712.46875 34.5125Q713.7969 35.91875 713.7969 38.496876Q713.7969 38.653126 713.78125 38.965626L706.0469 38.965626Q706.1406 40.66875 707.0156 41.575Q707.8906 42.48125 709.1875 42.48125Q710.15625 42.48125 710.8281 41.98125Q711.5156 41.465626 711.9219 40.35625ZM706.1406 37.5125L711.9375 37.5125Q711.8281 36.215626 711.28125 35.559376Q710.4375 34.54375 709.09375 34.54375Q707.8906 34.54375 707.0625 35.35625Q706.2344 36.153126 706.1406 37.5125ZM730.5625 42.0125L730.5625 43.7L721.1094 43.7Q721.09375 43.059376 721.3125 42.48125Q721.6719 41.5125 722.46875 40.575Q723.2656 39.6375 724.7656 38.403126Q727.1094 36.496876 727.9219 35.3875Q728.75 34.2625 728.75 33.2625Q728.75 32.215626 728.0 31.496876Q727.25 30.778126 726.0469 30.778126Q724.78125 30.778126 724.0156 31.54375Q723.25 32.309376 723.25 33.653126L721.4375 33.465626Q721.625 31.45 722.8281 30.3875Q724.0469 29.325 726.09375 29.325Q728.1406 29.325 729.34375 30.465626Q730.5469 31.60625 730.5469 33.29375Q730.5469 34.153126 730.1875 34.996876Q729.84375 35.825 729.03125 36.746876Q728.21875 37.653126 726.3281 39.2625Q724.7344 40.590626 724.28125 41.059376Q723.84375 41.528126 723.5469 42.0125L730.5625 42.0125ZM732.3281 36.6375Q732.3281 34.10625 732.84375 32.559376Q733.375 30.996876 734.40625 30.16875Q735.4375 29.325 737.0 29.325Q738.15625 29.325 739.0156 29.79375Q739.8906 30.246876 740.4531 31.121876Q741.0156 31.996876 741.34375 33.2625Q741.6719 34.5125 741.6719 36.6375Q741.6719 39.153126 741.1406 40.7Q740.625 42.246876 739.59375 43.10625Q738.5781 43.95 737.0 43.95Q734.9219 43.95 733.75 42.465626Q732.3281 40.66875 732.3281 36.6375ZM734.1406 36.6375Q734.1406 40.16875 734.9531 41.340626Q735.78125 42.496876 737.0 42.496876Q738.2031 42.496876 739.03125 41.325Q739.8594 40.153126 739.8594 36.6375Q739.8594 33.10625 739.03125 31.95Q738.2031 30.778126 736.9844 30.778126Q735.7656 30.778126 735.0469 31.809376Q734.1406 33.10625 734.1406 36.6375ZM749.9531 43.7L748.1875 43.7L748.1875 32.496876Q747.5625 33.10625 746.53125 33.715626Q745.5 34.309376 744.6719 34.621876L744.6719 32.91875Q746.15625 32.23125 747.25 31.246876Q748.3594 30.246876 748.8125 29.325L749.9531 29.325L749.9531 43.7ZM754.59375 40.3875L756.28125 40.23125Q756.5 41.41875 757.09375 41.965626Q757.7031 42.496876 758.65625 42.496876Q759.46875 42.496876 760.0781 42.1375Q760.6875 41.7625 761.0781 41.1375Q761.46875 40.5125 761.7344 39.465626Q762.0 38.403126 762.0 37.309376Q762.0 37.2 761.9844 36.965626Q761.4531 37.79375 760.5469 38.325Q759.6406 38.840626 758.5625 38.840626Q756.7969 38.840626 755.5625 37.559376Q754.3281 36.2625 754.3281 34.153126Q754.3281 31.98125 755.6094 30.653126Q756.90625 29.325 758.8281 29.325Q760.2344 29.325 761.3906 30.075Q762.5469 30.825 763.1406 32.215626Q763.75 33.60625 763.75 36.246876Q763.75 38.996876 763.1406 40.621876Q762.5469 42.246876 761.375 43.10625Q760.2031 43.95 758.625 43.95Q756.9375 43.95 755.875 43.0125Q754.8125 42.075 754.59375 40.3875ZM761.7969 34.075Q761.7969 32.559376 760.9844 31.66875Q760.1875 30.778126 759.0469 30.778126Q757.875 30.778126 757.0 31.746876Q756.1406 32.7 756.1406 34.215626Q756.1406 35.590626 756.9531 36.45Q757.78125 37.29375 759.0 37.29375Q760.21875 37.29375 761.0 36.45Q761.7969 35.590626 761.7969 34.075Z" fill-rule="nonzero"/></svg>