<svg width="29" height="15" viewBox="0 0 29 15" fill="none" xmlns="http://www.w3.org/2000/svg">
<path d="M2 2C2.66998 2.0669 3.42244 2.94091 3.90404 3.36172C4.49525 3.8783 5.05755 4.53664 5.72727 4.94535C6.37083 5.33808 7.01763 6.03466 7.49495 6.6248C8.14122 7.42382 8.93884 8.04082 9.62626 8.80355C9.99112 9.20837 10.2297 9.78329 10.7273 10.0594C11.1 10.2661 11.3906 10.5682 11.7475 10.8058C12.5898 11.3666 13.3968 12.0535 14.2727 12.5306C14.6275 12.7238 14.9457 13.2203 15.2778 12.8887C16.0086 12.1589 16.9733 11.6287 17.6364 10.8562C18.7081 9.60765 20.4244 8.9412 21.4141 7.62339C22.0387 6.79184 22.9126 6.14585 23.6566 5.42951C24.2626 4.84596 24.7899 4.07549 25.4545 3.56345C26.0591 3.09775 26.5746 2.72801 27 2.09078" stroke="#ED0965" stroke-width="3" stroke-linecap="round"/>
</svg>
