<svg width="335" height="1525" viewBox="0 0 335 1525" fill="none" xmlns="http://www.w3.org/2000/svg">
<circle cx="-76.5" cy="1001.5" r="411.5" fill="#F9D782" fill-opacity="0.2"/>
<path d="M101.838 847.773C98.6445 845.904 96.2783 851.104 95.0243 853.247C93.9547 855.075 91.7008 858.6 92.9703 860.872C93.7679 862.299 94.2858 863.681 95.4251 864.932C97.5066 867.219 100.378 868.862 102.879 870.648C110.967 876.423 120.107 880.728 128.669 885.738C136.76 890.472 144.714 895.448 153.295 899.245C155.628 900.277 157.84 901.302 160.033 902.586C161.126 903.226 162.207 904.058 163.447 904.349C164.805 904.669 166.531 905.786 167.742 906.495C168.391 906.875 170.596 908.348 171.251 908.096C171.658 907.94 172.654 908.152 173.154 908.157C173.789 908.164 174.352 907.786 174.943 907.7C175.771 907.578 177.3 905.471 177.695 904.796C178.375 903.634 179.055 902.472 179.735 901.31C180.217 900.486 181.57 898.478 181.059 897.504C180.829 897.065 181.012 896.607 180.687 896.083C180.426 895.66 179.944 895.38 179.779 894.95C179.465 894.133 176.821 893.152 176.035 892.692C174.313 891.684 172.435 890.886 170.748 889.9C169.203 888.996 167.355 888.757 165.785 887.898C163.534 886.666 161.135 885.779 158.898 884.47C153.126 881.093 147.189 878.221 141.426 874.849C131.958 869.309 122.49 863.768 113.022 858.228C110.466 856.733 108.763 853.758 106.256 852.164C105.124 851.443 104.312 850.206 103.238 849.495C102.431 848.96 100.199 847.115 101.035 847.604" stroke="#ED0965" stroke-width="3" stroke-linecap="round"/>
<path d="M135.007 870.792C138.746 864.401 141.766 857.789 147.071 852.459C149.86 849.658 153.103 846.263 156.857 844.762C159.013 843.901 161.001 841.409 163.386 841.06C163.939 840.979 164.265 840.563 164.847 840.478C165.957 840.315 165.369 837.283 165.449 836.249C165.72 832.748 166.214 829.42 167.967 826.289C169.987 822.683 170.985 818.884 174.225 816.11C175.99 814.598 178.614 813.7 180.828 813.053C182.912 812.443 184.614 811.407 186.804 811.067C189.78 810.604 192.738 811.227 195.63 811.952C197.627 812.452 199.336 813.706 201.286 814.342C203.203 814.967 205.512 815.16 207.262 816.184C209.242 817.342 211.712 817.487 213.751 818.493C217.162 820.175 220.759 819.613 224.285 820.745C227.081 821.643 230.304 822.207 233.217 822.478C236.565 822.789 241.265 822.897 244.253 821.129C244.82 820.794 245.357 820.715 245.83 820.263C246.067 820.037 246.615 819.995 246.906 819.823C247.686 819.362 247.221 820.941 247.185 821.49C247.066 823.297 246.667 824.87 246.741 826.647C246.792 827.854 247.048 829.4 246.71 830.557C244.568 837.884 239.82 845.242 234.957 851.044C232.618 853.834 229.737 856.245 227.114 858.791C225.731 860.133 224.23 861.576 222.653 862.7C220.512 864.228 217.977 865.093 215.771 866.463C212.73 868.352 208.053 869.706 204.526 869.027C202.904 868.715 201.348 869.402 199.681 869.05C198.347 868.769 196.733 868.758 195.473 868.243C193.053 867.256 190.315 867.481 187.929 866.537C184.852 865.32 181.96 863.964 179.098 862.289C176.547 860.796 173.418 859.463 171.494 857.171C170.212 855.643 169.602 853.914 168.909 852.048C168.634 851.307 168.083 850.626 167.664 849.949C167.585 849.822 167.48 849.183 167.36 849.153C166.965 849.051 165.803 849.922 165.489 850.18C163.839 851.533 162.396 852.829 160.932 854.368C159.215 856.173 157.538 857.971 155.72 859.676C153.9 861.383 152.925 864.022 151.144 865.725C148.156 868.582 147.226 872.536 145.263 875.89" stroke="#ED0965" stroke-width="3" stroke-linecap="round"/>
<path d="M150.254 847.819C149.987 846.48 149.374 845.076 149.198 843.74C148.965 841.988 148.45 841.329 150.334 840.026C154.879 836.885 157.414 832.499 160.16 827.805C162.452 823.887 162.233 818.193 160.323 814.127C159.37 812.097 158.99 810.029 157.363 808.416C155.566 806.634 153.456 804.736 151.891 802.741C150.254 800.652 148.151 799.108 146.307 797.2C144.049 794.863 141.734 792.544 139.679 790.045C138.126 788.157 135.5 786.856 134.331 784.643C133.447 782.969 132.671 781.313 131.87 779.592C131.27 778.302 131.097 776.8 130.751 775.477C130.341 773.912 130.692 772.344 130.489 770.811C130.409 770.202 130.353 769.55 130.367 768.934C130.396 767.658 130.242 768.24 129.284 768.985C127.497 770.375 126.154 772.312 124.552 773.873C123.672 774.729 123.056 775.815 122.268 776.748C121.244 777.96 120.051 779.108 119.248 780.481C118.389 781.949 117.124 783.147 116.242 784.59C115.569 785.69 115.032 786.925 114.163 787.886C112.598 789.618 111.472 792.066 110.681 794.207C109.422 797.617 109.889 801.503 108.899 804.966C107.425 810.125 106.72 815.877 108.248 821.134C108.96 823.581 109.109 826.236 110.322 828.532C110.675 829.202 111.494 829.735 111.917 830.435C112.627 831.612 113.259 832.854 113.901 834.07C114.719 835.619 115.407 837.188 116.475 838.585C118.437 841.15 120.447 843.015 123.215 844.635C124.576 845.432 125.885 846.402 127.467 846.655C131.054 847.228 134.98 846.671 138.543 846.75C139.62 846.774 140.506 846.018 141.244 847.077C142.156 848.385 142.202 850.413 142.594 851.912C143.089 853.805 142.735 855.963 142.614 857.791" stroke="#ED0965" stroke-width="3" stroke-linecap="round"/>
<path d="M102.194 847.68C104.894 849.26 107.687 850.698 110.394 852.177C113.225 853.724 116.22 854.984 119.062 856.647C124.67 859.929 130.46 863.016 136.116 866.325" stroke="#ED0965" stroke-width="3" stroke-linecap="round"/>
<path d="M146.744 872.845C154.148 877.177 161.494 881.777 168.853 886.083C170.979 887.326 172.753 889.267 174.86 890.5C176.208 891.289 178.757 892.669 179.448 894.087" stroke="#ED0965" stroke-width="3" stroke-linecap="round"/>
<path d="M94.4124 865.092C92.3969 868.537 90.8097 872.945 90.0806 876.866C88.854 883.462 86.6577 890.157 83.9273 896.267C82.8076 898.773 81.7859 901.396 80.4817 903.813C79.5992 905.448 78.7982 907.67 78.5103 909.496C78.3066 910.787 77.5205 912.396 77.7102 913.692C77.8148 914.406 77.3726 915.301 77.3103 916.032C77.2523 916.713 77.3116 917.65 77.1027 918.301C76.348 920.651 77.9832 921.751 79.4897 923.392C81.5597 925.646 83.8403 927.701 86.029 929.842C88.5042 932.264 91.8635 934.322 95.0075 935.781C99.5594 937.894 103.85 940.721 108.185 943.258C111.785 945.364 115.681 947.51 119.5 949.26C121.003 949.949 122.707 950.551 124.113 951.374C125.22 952.022 126.453 952.963 127.748 953.133C129.057 953.306 129.671 953.704 130.733 952.774C131.856 951.79 132.736 950.62 134.024 949.835C135.06 949.203 136.41 947.933 137.267 947.035C138.57 945.669 140.192 944.321 141.303 942.794C143.854 939.289 146.148 935.31 149.124 932.142C150.663 930.503 151.965 928.69 153.482 927.036C155.258 925.101 156.571 922.691 158.699 921.062C161.763 918.719 164.09 915.308 166.969 912.729C168.29 911.546 169.426 909.771 170.792 908.881" stroke="#ED0965" stroke-width="3" stroke-linecap="round"/>
<path d="M246.04 821.32C243.897 824.982 241.845 828.576 238.303 831.097C236.087 832.674 233.944 833.665 231.362 834.598C227.813 835.88 224.516 837.726 220.926 838.967C219.319 839.522 217.701 840 216.05 840.408C214.753 840.728 213.409 840.364 212.093 840.277C209.477 840.105 206.801 839.23 204.174 839.322C202.653 839.376 201.247 838.946 199.734 838.741C197.536 838.443 195.325 838.757 193.129 838.573C191.366 838.426 189.426 838.668 187.6 838.736C181.352 838.97 175.738 840.193 169.833 842.326C167.435 843.193 165.336 844.199 163.099 845.314C161.344 846.188 160.078 847.679 158.499 848.803C150.03 854.83 143.826 863.892 138.64 872.754" stroke="#ED0965" stroke-width="3" stroke-linecap="round"/>
<path d="M129.151 770.067C127.391 773.076 127.784 777.248 127.676 780.631C127.559 784.251 127.779 788.008 127.962 791.629C128.032 793 128.119 794.289 128.377 795.644C128.818 797.957 129.009 800.307 129.443 802.597C129.887 804.941 130.841 807.571 132.08 809.611C133.024 811.166 133.96 812.721 134.893 814.282C135.887 815.946 137.102 817.379 138.148 819.025C140.834 823.249 142.629 827.235 143.915 832.147C144.298 833.61 144.69 835.016 145.074 836.485C145.427 837.834 146.207 839.273 146.314 840.683C146.602 844.46 147.018 848.209 146.77 851.967" stroke="#ED0965" stroke-width="3" stroke-linecap="round"/>
<path d="M83.0081 896.329C80.9833 896.075 79.4261 890.443 79.4261 888.717C79.4261 884.803 80.8874 883.574 84.7992 883.791C88.4159 883.992 96.0949 894.053 98.0329 897.224C100.304 900.941 104.964 902.427 106.292 907.075C107.596 911.642 112.951 914.476 115.645 918.02C121.925 926.283 130.701 932.325 136.739 940.905C145.402 953.216 151.668 962.277 151.963 978.218C152.158 988.755 153.961 999.469 152.411 1010.01C150.058 1026.01 144.981 1040.46 141.018 1056.03C139.155 1063.34 138.209 1070.68 137.585 1078.17C136.905 1086.33 132.335 1094.23 129.625 1101.85C125.361 1113.84 121.016 1126.02 119.028 1138.61C116.57 1154.18 115.579 1171.47 118.431 1187.02C121.745 1205.1 130.424 1222.57 137.237 1239.51C148.671 1267.94 157.09 1297.68 166.789 1326.77C168.529 1331.99 171.245 1337.95 171.614 1343.49C172.156 1351.62 172.103 1359.68 173.007 1367.82C173.724 1374.27 173.455 1380.79 173.455 1387.27C173.455 1392.73 174.194 1398.8 172.56 1404.09C164.491 1430.19 153.567 1456.57 136.043 1477.82C130.997 1483.93 125.067 1489.24 120.371 1495.68C118.497 1498.24 117.394 1498.91 114.799 1500.35C110.375 1502.81 104.637 1504.16 99.8239 1506.17C82.1057 1513.59 66.4402 1519.61 46.4911 1519.61C29.8798 1519.61 13.5347 1521.85 -2.96123 1522.29C-17.6802 1522.69 -32.929 1523.1 -47.3389 1519.81C-52.4884 1518.63 -57.3224 1515.71 -62.0652 1513.34" stroke="#ED0965" stroke-width="3" stroke-linecap="round"/>
<path d="M-65 2C-65 26.2792 -40.9179 51.1028 -27.0792 69.7319C-17.1157 83.1443 -10.7286 94.1028 -4.32311 109.761C1.65226 124.367 10.6343 136.781 15.9654 151.709C21.288 166.612 24.7535 182.423 30.2222 197.221C34.0004 207.444 34.1272 217.103 36.391 227.516C37.9095 234.501 42.1955 241.567 42.5598 248.49C44.4782 284.938 59.8325 320.652 59.8325 357.061C59.8325 375.837 59.8325 394.98 59.8325 414.363C59.8325 439.735 53.1349 464.93 52.4299 490.308C50.987 542.252 42.5598 592.356 42.5598 644.528C42.5598 667.099 37.6248 689.5 37.6248 712.385C37.6248 730.122 40.0923 748.308 40.0923 765.437C40.0923 785.546 53.0807 798.592 57.2279 817.255C59.5213 827.575 66.847 844.815 72.1701 854.13C81.8445 871.061 102.999 890.116 120.15 899.917C130.025 905.56 147.805 915.551 153.598 925.689C156.816 931.32 163.193 932.342 160.864 940.494C158.927 947.274 147.832 938.666 145.5 937.5" stroke="#ED0965" stroke-width="3" stroke-linecap="round"/>
</svg>
