<svg width="339" height="1082" viewBox="0 0 339 1082" fill="none" xmlns="http://www.w3.org/2000/svg">
<circle cx="402" cy="541" r="402" fill="#ED0965" fill-opacity="0.05"/>
<path d="M372.731 2C361.31 2 350.852 13.1693 341.977 19.0856C327.976 28.4199 322.424 39.793 312.59 52.4368C302.365 65.5838 300.415 82.8865 295.094 98.0896C287.079 120.99 284.24 147.585 281.836 171.626C278.888 201.1 280.265 229.801 273.225 258.968C266.329 287.534 261.776 316.487 251.082 343.986C240.818 370.379 235.218 395.653 201.738 395.653C177.355 395.653 158.963 389.514 146.381 367.496C141.576 359.087 139 350.374 139 340.296C139 330.389 158.31 331.684 164.833 331.684C172.332 331.684 187.205 334.966 190.667 342.756C196.072 354.917 185.844 356.843 174.811 353.691C165.511 351.034 161.143 338.711 161.143 330.454C161.143 318.864 162.596 314.823 174.675 312.138C203.19 305.802 229.068 338.503 240.42 361.208C257.94 396.247 259.556 437.72 259.556 476.297C259.556 522.784 260.216 567.904 242.334 611.615C230.915 639.528 220.451 666.32 208.436 693.353C202.162 707.47 200.935 732.111 200.508 747.48C199.794 773.193 197.633 801.449 205.429 826.211C216.025 859.87 226.515 894.48 244.248 925.171C253.653 941.45 258.864 960.686 271.311 974.378C276.926 980.554 280.585 989.604 286.62 995.974C291.957 1001.61 298.011 1006.43 301.929 1013.2C304.827 1018.2 314.536 1026.91 319.151 1030.42C324.437 1034.44 328.577 1040.39 333.366 1045.18C346.853 1058.67 364.553 1069.25 380.112 1079.63" stroke="#ED0965" stroke-width="3" stroke-linecap="round"/>
</svg>
