<svg width="453" height="667" viewBox="0 0 453 667" fill="none" xmlns="http://www.w3.org/2000/svg">
<circle cx="411.5" cy="492.5" r="411.5" fill="#F9D782" fill-opacity="0.2"/>
<path d="M468.636 2C415.019 2 366.903 24.5237 325.22 57.0456C283.334 89.7255 246.365 110.319 224.947 161.484C215.934 183.016 206.572 205.325 206.202 229.026C205.937 245.975 201.993 269.66 207.392 285.857C212.361 300.763 237.706 331.399 257.082 321.711C269.515 315.495 286.539 293.683 286.539 279.013C286.539 248.035 254.263 248.366 230.303 248.366C184.423 248.366 158 310.199 158 350.126C158 370.807 158.061 386.191 173.472 401.602C186.161 414.29 203.71 426.933 220.782 433.141C233.896 437.91 243.396 438.497 257.677 438.497C273.275 438.497 295.12 442.358 309.301 434.48C339.943 417.457 374.601 422.43 409.127 422.43C424.893 422.43 463.19 416.894 471.314 433.141" stroke="#ED0965" stroke-width="3" stroke-linecap="round"/>
</svg>
