<svg width="400" height="1160" viewBox="0 0 400 1160" fill="none" xmlns="http://www.w3.org/2000/svg">
<circle cx="62.5" cy="522.5" r="337.5" fill="#EDF2F5" fill-opacity="0.8"/>
<path d="M-4 2.07543C22.7051 2.07543 57.4101 0.776745 83.1192 8.95693C109.516 17.3558 134.768 36.6743 156.574 52.9733C173.292 65.47 187.679 81.4063 201.531 96.9896C209.217 105.636 211.827 112.97 214.604 124.077C220.933 149.392 223.915 172.039 223.915 198.19C223.915 239.504 221.693 279.595 210.372 319.705C208.191 327.428 203 341.575 198.145 349.237C193 360.575 180.822 367.902 172.28 377.076C159.34 390.975 152.046 412.48 146.04 430.498C142.967 439.718 141 451.075 138 460.075C136 466.075 135.157 467.446 133.813 472.821C130.426 486.369 125.725 500.008 125.725 514.204C125.725 526.807 125.725 539.41 125.725 552.013C125.725 561.295 126.073 570.18 129.957 578.724C132.059 583.347 135.935 597.993 141.902 599.698C146.05 600.883 149.762 605.139 153.188 607.88C158.633 612.236 162.402 602.907 156.95 599.792C148.537 594.984 155.787 609.368 159.583 611.266C167.414 615.181 171.321 606.13 166.355 600.544C155.53 588.365 146.516 573.789 130.804 565.933C124.546 562.804 108.621 562.615 102.024 565.18C90.0824 569.824 81.699 582.782 77.288 594.054C68.7886 615.775 59.9303 637.716 56.6906 661.113C52.3377 692.551 60.0733 718.826 74.9367 746.231C84.3887 763.658 95.2481 780.588 106.35 797.019C109.897 802.268 114.07 807.173 118.201 811.973C120.052 814.124 120.5 815.575 122 818.575C123.25 821.075 129.711 837.178 131.744 847.054C134.196 858.963 136.426 870.119 137.952 882.136C140.717 903.911 140.244 927.539 139.174 949.477C137.983 973.906 135.273 1002.35 126.101 1025.09C117.795 1045.69 107.259 1062.79 94.4055 1080.59C86.75 1091.19 74.7276 1098.82 67.4125 1109.46C58.4325 1122.52 48.3845 1133.92 35.0587 1141.53C27.3348 1145.94 4.09007 1158.08 -4.5 1158.08" stroke="#ED0965" stroke-width="3" stroke-linecap="round"/>
<path d="M91.3663 653.09C85.3797 656.24 79.978 661.403 76.9365 667.505C74.9042 671.582 74.3255 675.86 73.249 680.216C72.4578 683.417 72.8466 686.372 73.2811 689.611C73.7811 693.339 74.5008 697.752 76.2701 701.114C78.3027 704.977 80.3353 708.84 82.3679 712.703C84.0655 715.93 86.5183 718.857 89.1794 721.327C90.5093 722.561 92.1138 723.06 93.6834 723.884C95.777 724.983 98.0046 726.313 100.209 727.162C101.356 727.604 102.456 728.102 103.619 728.51C105.078 729.023 106.521 728.709 107.953 729.215C110.648 730.166 113.966 730.715 116.829 730.656C119.993 730.591 123.115 729.917 126.109 728.963C128.603 728.169 130.942 726.641 133.262 725.421C135.706 724.135 137.457 722.115 139.584 720.389C140.58 719.581 141.075 718.751 142.226 718.146C143.72 717.36 145.128 716.103 146.412 715.027C148.101 713.613 149.177 712.419 150.353 710.601C151.954 708.125 152.796 705.519 153.924 702.831C154.864 700.593 155.169 697.653 155.28 695.264C155.408 692.514 155.693 689.87 155.769 687.158C155.831 684.919 156.152 682.616 155.903 680.391C155.652 678.139 155.58 675.323 154.574 673.273C152.446 668.931 151.359 662.95 147.566 659.653C143.767 656.35 139.798 652.818 135.216 650.769C134.162 650.297 133.734 649.363 132.762 648.807C132.175 648.471 131.597 648.08 131.033 647.711C129.428 646.661 127.967 646.094 126.095 645.619C120.829 644.283 114.543 644.148 109.347 645.904C106.631 646.821 104.06 647.264 101.526 648.597C100.789 648.985 99.9031 648.883 99.1765 649.265C98.6988 649.516 97.6172 649.914 97.0791 650.021C95.7182 650.292 94.7086 650.763 93.4696 651.415C92.8016 651.766 90.9055 652.572 90.9211 653.324" stroke="#ED0965" stroke-width="3" stroke-linecap="round"/>
<path d="M113.507 684.364C111.766 685.28 110.484 686.722 111.573 688.793C111.836 689.292 112.376 690.943 112.885 691.166C113.942 691.627 114.608 691.33 115.621 691.353C120.244 691.458 119.714 683.057 115.299 684.258C114.373 684.51 112.513 684.918 112.469 686.173C112.436 687.119 111.751 688.052 112.546 688.991C114.664 691.489 119.295 687.858 116.389 686.48C115.954 686.273 113.851 686.934 113.849 687.595C113.846 688.976 114.681 689.74 115.942 688.752C116.77 688.104 116.218 686.349 115.024 686.977C114.343 687.335 114.233 687.363 114.622 688.104C114.745 688.337 115.531 689.736 115.51 688.711" stroke="#ED0965" stroke-width="3" stroke-linecap="round"/>
<path d="M116.975 683.392C116.976 679.929 117.443 676.501 117.799 673.072C118.086 670.316 118.004 667.544 118.252 664.748C118.619 660.611 119.234 656.486 119.62 652.342C119.791 650.509 120.605 648.788 120.834 646.966C121.061 645.159 120.95 643.107 121.355 641.354C121.718 639.785 121.79 638.036 122.103 636.412C122.382 634.965 122.787 633.596 122.977 632.13C123.224 630.229 124.075 628.251 123.819 626.287C123.645 624.954 123.963 623.091 124.364 621.799C124.564 621.154 124.72 620.301 124.706 619.629C124.678 618.274 125.087 618.462 126.173 617.704C135.183 611.424 145.277 606.305 154.777 600.964C162.671 596.526 170.865 592.499 178.808 588.32C180.066 587.658 181.863 586.48 181.35 588.798C181.139 589.749 180.791 590.631 180.506 591.548C180.307 592.19 180.416 592.983 180.155 593.581C179.972 594 180.015 594.835 179.934 595.292C179.753 596.303 179.659 597.424 179.469 598.49C179.222 599.874 178.687 601.184 178.648 602.601C178.631 603.2 178.467 603.709 178.313 604.277C178.13 604.958 178.42 605.646 178.318 606.328C177.967 608.677 177.265 610.965 176.913 613.321C176.517 615.971 175.671 618.724 175.442 621.36C175.231 623.773 174.018 626.199 173.579 628.594C173.204 630.631 171.892 632.897 171.846 634.906C171.819 636.102 171.471 637.324 171.471 638.515C171.471 639.384 171.447 640.685 171.107 641.486C170.362 643.245 169.747 645.225 169.223 647.088C168.731 648.839 169.306 651.232 168.505 652.867C168.148 653.596 168.161 654.3 167.963 655.079C167.801 655.718 167.033 655.916 166.486 656.204C164.209 657.402 162.016 659.862 163.41 662.512C164.088 663.801 164.341 664.061 165.806 664.094C166.92 664.12 168.654 663.225 169.289 662.341C170.442 660.736 170.024 659.202 169.105 657.668C168.448 656.572 165.752 657.443 164.896 657.893C162.235 659.293 163.469 663.467 165.592 664.918C166.603 665.609 168.063 664.649 169.048 664.584C170.477 664.489 171.154 663.313 171.157 661.989C171.165 659.11 168.555 656.192 165.497 657.024C164.625 657.261 162.376 658.338 162.339 659.396C162.273 661.282 162.44 663.37 163.351 665.102C164.378 667.053 166.428 666.468 168.032 665.624C169.171 665.024 170.847 663.798 170.953 662.381C171.049 661.093 171.748 660.531 171.05 659.203C170.362 657.898 169.96 657.731 168.803 656.974C167.53 656.142 166.332 656.569 165.107 657.214C164.024 657.783 164.056 658.161 163.987 659.287C163.928 660.249 164.629 661.742 165.695 661.452C166.136 661.332 167.797 661.126 167.417 660.404C167.165 659.925 166.961 658.987 166.322 659.433C165.583 659.948 165.86 661.997 166.831 661.691C167.569 661.46 167.468 660.501 167.183 659.959C166.822 659.273 165.969 659.569 166.253 660.322C166.534 661.069 167.122 661.871 167.744 660.785C168.504 659.457 165.309 658.557 166.989 661.751C167.427 662.584 167.627 660.802 167.417 660.404C167.074 659.751 165.619 660.307 165.591 660.954C165.571 661.406 165.814 663.095 166.509 662.73C167.708 662.099 165.207 662.846 164.84 663.039C161.761 664.659 158.569 665.771 155.466 667.403C153.817 668.271 152.168 669.139 150.518 670.006C148.911 670.852 147.175 672.106 145.406 672.475C144.382 672.689 143.357 673.362 142.343 673.677C141.317 673.994 140.423 674.181 139.463 674.686C137.509 675.714 135.457 676.332 133.717 677.694C131.993 679.044 129.664 679.814 128.117 681.367C127.115 682.372 125.322 682.98 124.07 683.639C121.611 684.932 118.778 686.726 116.038 687.012" stroke="#ED0965" stroke-width="3" stroke-linecap="round"/>
<path d="M108.951 598.257C106.61 599.489 104.023 600.599 101.906 602.166C101.12 602.748 100.298 603.193 99.4207 603.655C98.7459 604.01 97.5208 604.562 97.2888 605.309C96.79 606.916 97.7995 609.112 98.5432 610.525C99.0383 611.466 99.906 611.653 100.854 611.822C101.842 611.998 102.644 611.54 103.602 611.036C105.746 609.908 106.958 607.84 108.67 606.261C110.013 605.023 111.486 603.953 113.04 602.993C114.227 602.26 114.97 600.928 116.122 600.232C117.006 599.699 117.962 598.84 118.674 598.081C119.091 597.636 120.28 596.311 120.238 595.672C120.186 594.888 121.286 594.386 120.799 593.46C120.357 592.62 119.286 593.586 118.688 593.9C117.224 594.671 115.564 595.084 114.05 595.585C112.729 596.021 111.417 596.959 110.185 597.608C109.063 598.198 108.023 598.896 106.929 599.513C105.98 600.047 105.191 600.778 104.235 601.313C103.589 601.675 102.657 602.207 102.119 602.714C101.217 603.564 97.745 606.095 98.5242 607.576C98.9677 608.419 99.035 609.515 99.9 610.11C100.862 610.77 102.851 609.707 103.725 609.246C104.921 608.617 105.91 607.331 106.818 606.384C108.08 605.07 110.191 604.644 111.328 603.138C112.579 601.481 114.058 599.426 115.687 598.151C116.403 597.591 117.081 596.877 117.781 596.283C117.937 596.151 118.582 595.597 118.007 595.802C117.294 596.056 116.561 596.201 115.832 596.403C114.152 596.871 112.44 598.146 110.896 598.958C109.128 599.888 106.977 600.675 105.432 601.929C103.924 603.153 102.503 604.477 100.997 605.7C100.449 606.145 100.132 606.716 99.6537 607.173C99.1583 607.646 99.5777 608.121 99.8352 608.611C100.366 609.619 101.26 609.619 102.197 609.093C102.975 608.655 103.559 607.759 104.265 607.196C104.933 606.661 105.68 605.952 106.249 605.321C108.012 603.364 110.586 602.182 112.191 600.044C112.449 599.7 110.078 600.538 109.569 600.806C108.846 601.187 108.123 601.567 107.401 601.947C106.137 602.612 104.673 603.434 103.879 604.662C103.193 605.723 101.999 606.514 100.899 607.093C99.4951 607.831 103.815 605.822 105.189 605.027C105.861 604.638 104.707 605.089 104.51 605.193C103.794 605.57 103.155 606.064 102.488 606.449C102.262 606.579 101.655 606.96 101.662 607.266C101.667 607.506 105.263 606.289 105.617 606.144C106.399 605.823 107.307 605.829 108.038 605.444C108.805 605.041 109.542 604.701 110.411 604.856C111.315 605.017 111.624 605.302 112.337 605.865C112.98 606.373 113.29 607.214 113.959 607.694C114.55 608.118 114.899 608.816 115.509 609.264C116.065 609.672 116.59 610.176 117.097 610.642C119.077 612.463 121.241 614.246 123.004 616.306C124.129 617.62 125.385 618.799 126.53 620.093C127.578 621.279 129.02 622.057 129.998 623.325C130.472 623.941 131.23 624.411 131.656 625.04C132.325 626.028 133 626.921 133.737 627.863C134.906 629.356 136.662 630.375 137.891 631.852C139.967 634.346 142.544 636.666 145.057 638.673C146.343 639.7 147.546 641.376 148.591 642.637C149.9 644.218 151.25 645.865 152.65 647.358C153.876 648.664 155.028 649.978 156.403 651.132C157.292 651.877 158.232 652.52 159.095 653.314C160.024 654.168 161.024 655.456 162.085 656.063C162.992 656.582 164.055 657.824 164.516 658.701" stroke="#ED0965" stroke-width="3" stroke-linecap="round"/>
<path d="M169.894 665.644C170.47 666.737 171.314 667.306 172.196 668.116C173.316 669.146 174.392 670.249 175.531 671.259C176.451 672.074 177.404 672.807 178.278 673.646C178.575 673.931 178.941 674.166 179.164 674.521C179.576 675.176 179.602 675.099 178.714 675.567C177.289 676.317 175.776 676.921 174.316 677.689C173.702 678.012 173.169 678.484 172.594 678.787C171.314 679.46 175.299 677.747 176.579 677.074C178.03 676.31 179.48 675.547 180.931 674.784C182.26 674.084 183.392 673.105 184.675 672.43C187.352 671.022 179.402 675.397 176.725 676.805" stroke="#ED0965" stroke-width="3" stroke-linecap="round"/>
<path d="M231.834 623.715C229.579 624.902 227.979 625.791 228.354 628.544C228.674 630.888 230.519 632.434 232.784 631.243C233.524 630.853 234.128 630.802 234.72 630.236C235.452 629.537 235.743 628.733 235.979 627.778C236.169 627.009 235.708 625.993 235.354 625.32C234.91 624.476 234.281 624.686 233.507 624.446C231.445 623.806 229.803 624.604 229.394 626.895C229.219 627.876 229.806 629.544 230.813 629.827C231.866 630.123 233.663 629.927 234.365 628.949C234.994 628.073 234.913 626.591 233.989 625.926C233.147 625.322 231.798 625.857 231.703 626.856C231.586 628.089 232.24 628.853 233.428 628.228C234.451 627.69 233.143 625.895 232.321 625.912" stroke="#ED0965" stroke-width="3" stroke-linecap="round"/>
<path d="M227.128 626.637C226.611 625.775 225.919 625.358 225.028 624.955C224.226 624.591 223.66 623.925 222.914 623.503C221.882 622.919 221.136 621.959 220.114 621.359C219.497 620.997 218.965 620.507 218.363 620.15C217.833 619.836 217.608 619.168 217.166 618.723C215.877 617.428 214.821 616.007 213.164 615.143C212.043 614.559 211.016 613.757 210.016 612.997C208.462 611.817 207.326 610.16 205.755 608.995C204.883 608.349 203.919 607.939 203.09 607.226C202.395 606.63 201.725 606.005 201.022 605.416C199.747 604.346 198.492 603.317 197.239 602.228C196.55 601.629 195.956 600.99 195.207 600.485C194.65 600.111 194.558 599.305 193.925 598.943C192.704 598.245 191.782 596.933 190.61 596.128C189.73 595.524 188.787 595.081 188.003 594.328C186.414 592.804 184.784 591.491 183.437 589.769C182.695 588.822 182.035 587.822 181.278 586.867C180.762 586.218 179.802 585.766 179.397 585.082C178.907 584.254 178.396 583.507 177.78 582.762C176.931 581.734 168.052 571.677 168.686 571.318C171.777 569.571 174.985 568.004 178.126 566.351C181.014 564.832 183.991 563.115 187.211 562.736C189.071 562.517 191.815 563.763 192.721 565.485C193.2 566.396 193.845 567.197 194.335 568.129C194.735 568.888 195.68 570.493 195.412 571.353C195.1 572.36 194.941 573.218 194.397 574.179C194.046 574.798 193.779 576.025 193.238 576.449C192.615 576.936 189.146 578.473 189.158 579.054" stroke="#ED0965" stroke-width="3" stroke-linecap="round"/>
<path d="M197.951 602.969C197.051 603.442 196.296 604.657 195.841 605.528C195.328 606.511 194.373 607.641 194.048 608.689C193.001 612.06 191.753 615.398 190.845 618.798C190.145 621.417 190.836 624.055 190.566 626.65C190.397 628.279 190.447 629.872 190.343 631.499C190.22 633.41 191.037 635.39 191.155 637.303C191.341 640.325 192.869 643.315 194.251 645.943C194.881 647.139 195.47 648.793 196.429 649.752C197.391 650.714 198.35 651.636 199.163 652.736C201.222 655.518 203.185 658.219 205.807 660.488C207.309 661.788 209.407 662.313 211.134 663.197C212.658 663.978 214.186 664.8 215.743 665.505C217.064 666.104 218.606 666.228 219.886 666.905C220.959 667.472 222.344 668.074 223.493 668.463C226.316 669.419 229.087 670.115 232.056 670.424C235.136 670.744 238.483 670.711 241.462 669.983C244.094 669.341 247.359 669.284 249.797 668.001C250.841 667.452 251.886 666.902 252.93 666.352C254.281 665.642 255.446 664.583 256.773 663.885C258.32 663.071 259.405 661.643 260.524 660.35C261.624 659.08 263.012 658.188 264.167 656.984C265.219 655.887 265.956 654.581 267.122 653.583C268.16 652.695 268.81 651.653 269.594 650.561C270.483 649.323 271.165 648.053 271.854 646.708C272.347 645.744 272.29 644.936 272.591 643.967C273.33 641.587 273.664 638.946 273.721 636.46C273.778 633.911 274.373 631.282 275.043 628.803C275.37 627.593 275.022 626.268 275.235 625.072C275.413 624.078 275.298 622.678 275.092 621.691C274.81 620.344 274.861 618.887 274.345 617.612C273.763 616.175 273.146 614.432 273.055 612.853C273.009 612.068 272.285 610.754 271.908 610.037C271.396 609.064 270.884 608.091 270.371 607.117C269.202 604.894 268.039 602.704 266.7 600.588C264.97 597.854 262.096 596.615 259.836 594.488C257.403 592.197 254.6 591.027 251.761 589.545C249.188 588.203 246.752 587.361 243.889 586.874C242.879 586.702 241.666 586.725 240.725 586.371C240.176 586.164 239.311 586.237 238.721 586.187C237.835 586.111 237.051 585.807 236.179 585.877C235.493 585.931 234.591 585.687 233.972 585.402C233.4 585.14 232.749 585.494 232.156 585.528C231.244 585.581 230.359 585.866 229.434 586.007C226.979 586.38 224.399 586.544 221.986 587.2C220.688 587.554 219.24 587.556 217.909 587.834C216.415 588.146 214.825 588.971 213.378 589.487C212.177 589.915 211.081 590.486 209.934 591.089C208.59 591.796 207.614 592.757 206.392 593.609C204.265 595.092 202.468 596.928 200.634 598.769C199.843 599.564 199.162 600.396 198.415 601.213C198.068 601.592 197.059 602.535 197.068 602.987" stroke="#ED0965" stroke-width="3" stroke-linecap="round"/>
<path d="M92.3263 656.191C87.4035 658.781 81.6525 661.824 79.283 667.167C77.8017 670.508 78.2489 674.47 77.1603 677.976C76.1852 681.117 75.5243 683.697 75.6285 686.995C75.6825 688.703 76.2629 690.587 76.5099 692.298C76.8548 694.687 77.5552 697.225 78.2405 699.547C78.9973 702.111 80.2004 704.908 81.7284 707.121C84.4502 711.062 87.0623 715.064 90.6439 718.291C92.7077 720.151 95.0614 721.432 97.4226 722.897C99.8797 724.422 102.238 725.528 105.026 726.235C106.392 726.582 107.932 726.697 109.337 726.79C110.635 726.876 111.898 727.168 113.199 727.231C114.248 727.283 115.658 727.741 116.685 727.548C118.154 727.272 119.743 726.882 121.208 726.512C123.959 725.817 126.535 725.017 129.068 723.721C131.671 722.388 134.438 721.644 136.882 719.972C137.837 719.318 138.946 718.917 139.764 718.093C141.179 716.667 142.785 715.407 144.126 713.916C145.903 711.938 148.118 709.428 148.831 706.789C149.002 706.156 149.74 705.454 150.133 704.895C150.994 703.665 151.498 702.328 151.826 700.858C152.568 697.534 153.152 694.109 153.665 690.71C154.014 688.395 154.629 685.568 154.059 683.284C153.39 680.604 153.085 677.974 152.027 675.361C150.916 672.617 150.094 669.873 148.703 667.23C147.963 665.822 147.222 664.415 146.482 663.008C145.396 660.945 143.285 659.131 141.617 657.543C139.808 655.821 137.874 654.326 135.374 653.623C133.828 653.189 132.492 652.495 131.099 651.706C126.503 649.104 121.441 648.237 116.17 648.727C113.788 648.948 111.377 648.857 109.151 649.745C107.14 650.547 105.151 651.182 103.035 651.712C99.9995 652.474 97.2786 654.2 94.4627 655.551C93.7853 655.876 92.7986 656.317 92.052 656.564C91.2077 656.843 90.2949 657.348 89.3842 657.497" stroke="#ED0965" stroke-width="3" stroke-linecap="round"/>
<path d="M209.432 595.044C208.363 595.681 207.5 596.832 206.554 597.647C205.657 598.42 204.732 599.247 203.929 600.117C203.234 600.872 202.248 601.338 201.478 602.025C200.322 603.059 199.33 604.364 198.683 605.781C197.939 607.409 197.056 608.599 196.047 610.072C195.694 610.587 195.413 611.194 195.439 611.776C195.511 613.401 194.793 615.168 194.483 616.755C193.882 619.831 193.486 623.423 193.824 626.538C193.992 628.091 193.435 629.939 193.31 631.54C193.195 633.022 193.303 634.282 193.466 635.746C193.646 637.348 194.269 638.881 195.036 640.338C195.636 641.48 195.913 642.939 196.333 644.158C197.324 647.033 199.344 649.614 201.324 651.828C203.025 653.732 205.282 655.149 207.346 656.631C208.271 657.296 209.163 658.038 210.118 658.681C211.213 659.418 212.525 660.201 213.504 661.08C214.347 661.837 215.393 661.751 216.356 662.106C217.291 662.451 218.562 662.913 219.313 663.588C220.21 664.393 221.426 664.501 222.421 665.152C222.888 665.457 223.535 665.504 224.036 665.767C224.891 666.217 225.8 666.745 226.707 667.064C227.944 667.499 228.758 667.958 230.12 667.929C231.106 667.909 232.357 667.73 233.369 667.564C235.776 667.169 238.135 667.332 240.57 666.867C243.617 666.284 246.7 664.959 249.44 663.517C250.162 663.137 250.918 662.981 251.666 662.588C252.896 661.941 253.922 661.158 255.124 660.526C259.559 658.192 262.523 654.042 265.942 650.479" stroke="#ED0965" stroke-width="3" stroke-linecap="round"/>
<path d="M209.49 595.325C213.278 593.332 216.928 590.82 220.943 589.308C221.822 588.978 223.189 588.572 224.118 588.685C225.469 588.849 226.935 588.41 228.3 588.516C228.92 588.564 229.55 588.571 230.171 588.588C230.794 588.606 231.53 588.889 232.13 588.776C232.721 588.665 233.564 588.987 234.2 588.987C235.051 588.987 235.907 589.107 236.769 589.098C237.757 589.089 238.787 589.232 239.769 589.308C240.113 589.335 240.355 589.142 240.671 589.032C241.203 588.846 241.756 588.866 242.312 588.855C242.863 588.843 243.429 588.965 243.914 589.24C244.838 589.763 246.018 589.736 246.943 590.21C247.612 590.552 248.298 590.788 248.968 591.14C249.63 591.489 250.23 591.966 250.894 592.312C251.501 592.629 252.195 593.065 252.709 593.515C253.055 593.818 253.619 593.691 253.952 593.954C254.289 594.22 254.82 594.241 255.209 594.421C255.794 594.692 256.36 594.955 256.921 595.272C258.161 595.974 259.381 596.869 260.391 597.87C261.344 598.814 262.422 599.619 263.224 600.696C265.185 603.331 266.565 606.496 268.097 609.409C269.05 611.219 270.183 612.896 270.944 614.837C271.331 615.823 271.977 616.873 272.17 617.921C272.253 618.378 272.733 618.8 272.751 619.249C272.776 619.874 272.611 620.511 272.597 621.118C272.586 621.595 272.45 622.053 272.547 622.517C272.583 622.689 272.443 623.04 272.463 623.266C272.486 623.534 272.612 623.961 272.558 624.218C272.458 624.684 272.477 625.54 272.471 626.061C272.463 626.636 272.319 627.285 272.179 627.84C271.947 628.752 272.032 629.718 271.973 630.675C271.945 631.128 272.028 631.568 271.944 632.027C271.836 632.613 271.523 633.178 271.415 633.767C271.197 634.957 271.225 636.247 270.868 637.396C270.596 638.274 270.151 639.043 270.125 639.981C270.114 640.378 270.183 640.956 270.02 641.328C269.674 642.12 269.605 643.072 269.266 643.91C268.921 644.764 268.704 645.956 268.216 646.701C267.383 647.974 266.972 649.488 266.097 650.706" stroke="#ED0965" stroke-width="3" stroke-linecap="round"/>
<path d="M232.415 623.854C231.346 621.823 232.24 618.957 232.268 616.762C232.285 615.469 232.549 614.214 232.617 612.937C232.74 610.606 232.37 608.278 232.517 605.934C232.727 602.564 233.248 599.139 233.252 595.76C233.254 594.33 232.565 591.506 233.443 590.283" stroke="#ED0965" stroke-width="3" stroke-linecap="round"/>
<path d="M235.908 626.113C237.613 624.589 238.294 622.728 239.573 620.913C240.693 619.323 241.99 618.055 243.257 616.613C245.691 613.842 247.61 610.366 249.527 607.226C251.751 603.582 255.055 600.492 257.504 597.082" stroke="#ED0965" stroke-width="3" stroke-linecap="round"/>
<path d="M234.757 629.279C236.249 628.494 238.773 628.577 240.442 628.62C242.661 628.678 244.742 628.962 246.969 628.615C251.029 627.981 255.326 627.964 259.412 628.284C261.789 628.47 264.213 628.389 266.518 628.812C267.723 629.033 269.88 629.746 271.041 629.135" stroke="#ED0965" stroke-width="3" stroke-linecap="round"/>
<path d="M233.058 630.429C233.606 631.016 234.835 631.239 235.547 631.537C237.547 632.374 239.525 633.307 241.417 634.367C243.925 635.771 245.922 637.929 248.397 639.386C249.829 640.229 251.161 641.284 252.56 642.188C254.296 643.31 255.697 644.819 257.413 645.95C259.127 647.08 260.512 648.74 262.29 649.757C262.987 650.156 263.858 651.008 264.21 651.677" stroke="#ED0965" stroke-width="3" stroke-linecap="round"/>
<path d="M229.112 625.848C227.24 622.292 225.251 619.055 222.469 616.143C219.586 613.126 217.101 609.669 214.081 606.772C212.442 605.199 210.607 603.31 209.347 601.425C208.759 600.544 207.67 599.222 206.857 598.638" stroke="#ED0965" stroke-width="3" stroke-linecap="round"/>
<path d="M228.668 628.898C226.3 629.857 222.642 628.043 220.301 627.568C218.396 627.182 216.571 626.755 214.632 626.554C210.856 626.161 207.301 625.346 203.61 624.558C200.54 623.902 197.781 623.659 194.707 623.723" stroke="#ED0965" stroke-width="3" stroke-linecap="round"/>
<path d="M229.733 631.41C219.546 636.77 209.23 641.686 199.042 647.047" stroke="#ED0965" stroke-width="3" stroke-linecap="round"/>
<path d="M231.359 631.579C230.779 633.652 230.08 635.73 229.822 637.878C229.62 639.562 229.698 641.646 229.167 643.23C227.774 647.391 228.347 651.943 228.198 656.23C228.119 658.489 227.68 660.793 227.81 663.035C227.869 664.061 227.694 665.067 227.714 666.015" stroke="#ED0965" stroke-width="3" stroke-linecap="round"/>
<path d="M170.152 572.264C170.928 573.74 171.687 575.227 172.482 576.692C173.141 577.907 174.254 578.815 174.996 579.98C176.494 582.33 178.568 584.407 180.495 586.406C181.602 587.555 182.585 588.691 183.773 589.776C185.434 591.294 187.119 592.78 188.802 594.267C189.754 595.109 190.835 595.817 191.8 596.677C192.798 597.566 193.727 598.463 194.686 599.404C197.283 601.953 200.269 604.135 203.174 606.343C205.174 607.863 207.047 609.557 208.871 611.288C210.02 612.377 211.342 613.269 212.442 614.396C213.252 615.227 214.168 616.034 215.111 616.711C215.949 617.313 216.647 618.131 217.485 618.751C218.657 619.62 219.909 620.399 221.027 621.337C222.564 622.627 224.088 624.195 225.838 625.148C226.095 625.288 228.823 627.081 228.864 627.059C229.263 626.849 228.076 626.623 227.693 626.386C227.232 626.099 226.798 625.791 226.33 625.512C225.38 624.945 224.379 624.334 223.65 623.482C223.032 622.76 222.204 622.137 221.503 621.485C220.72 620.755 219.985 619.949 219.255 619.174C217.112 616.898 214.647 614.765 212.125 612.876C209.843 611.166 207.454 609.537 205.465 607.469C203.709 605.645 201.916 603.819 199.882 602.292C198.644 601.362 197.799 600.224 196.706 599.116C195.672 598.068 194.601 597.063 193.574 596.023C192.057 594.489 190.098 593.354 188.365 592.089C187.531 591.481 186.831 590.706 186.084 590C185.66 589.601 185.139 589.356 184.725 588.931C183.835 588.015 182.865 587.203 182.044 586.225C180.561 584.458 179.215 582.68 177.894 580.809C176.793 579.25 175.883 577.675 174.856 576.077C173.899 574.587 172.814 572.816 171.567 571.563C171.496 571.492 170.67 570.575 170.911 571.134C171.107 571.587 171.078 572.086 171.277 572.543C171.532 573.129 171.875 573.65 172.074 574.263C172.507 575.597 173.326 577 174.254 578.038C175.203 579.101 176.364 579.691 177.028 580.921C178.856 584.303 181.616 587.371 184.403 589.993C186.398 591.87 188.63 593.262 190.781 594.924C191.938 595.818 192.491 596.721 193.529 597.777C196.511 600.814 199.681 603.629 203.25 605.937C204.726 606.891 206.133 607.916 207.543 608.967C208.5 609.68 209.144 610.808 210.028 611.647C212.395 613.893 215.265 615.975 218.073 617.582C220.145 618.767 221.933 620.48 223.731 622.043C225.5 623.58 227.483 624.936 229.324 626.258" stroke="#ED0965" stroke-width="3" stroke-linecap="round"/>
<path d="M111.246 686.689C109.7 683.752 107.694 681.95 105.25 679.714C104.069 678.634 103.063 677.205 102.103 675.927C100.324 673.559 98.2879 671.372 96.4511 669.048C94.6359 666.75 92.9445 664.376 91.1517 662.086C90.761 661.587 89.2133 659.16 88.7046 659.171" stroke="#ED0965" stroke-width="3" stroke-linecap="round"/>
<path d="M114.402 685.028C113.207 682.755 113.118 679.368 113.442 676.851C113.67 675.079 113.065 673.236 112.922 671.475C112.784 669.793 112.718 668.144 112.395 666.481C111.698 662.882 111.31 659.007 111.428 655.345C111.465 654.217 110.748 651.827 111.365 650.968" stroke="#ED0965" stroke-width="3" stroke-linecap="round"/>
<path d="M118.697 684.939C120.184 684.156 121.477 683.109 122.449 681.724C123.268 680.557 124.347 679.232 124.934 677.936C126.324 674.87 128.553 672.243 130.156 669.297C131.849 666.187 133.738 663.075 135.736 660.16C136.501 659.043 137.265 657.185 138.484 656.543" stroke="#ED0965" stroke-width="3" stroke-linecap="round"/>
<path d="M117.559 689.258C120.37 687.779 124.531 688.892 127.588 688.873C131.134 688.852 134.533 689.059 138.096 688.84C142.798 688.55 147.574 688.514 152.154 688.419" stroke="#ED0965" stroke-width="3" stroke-linecap="round"/>
<path d="M115.489 690.037C117.087 693.076 120.656 695.078 123.167 697.297C126.12 699.907 128.773 702.77 131.749 705.357C134.101 707.402 136.031 709.895 138.204 712.124C138.92 712.86 140.361 715.789 141.429 715.767" stroke="#ED0965" stroke-width="3" stroke-linecap="round"/>
<path d="M114.377 689.692C115.637 692.088 115.407 695.255 115.951 697.856C116.933 702.555 117.424 707.423 118.265 712.142C118.783 715.052 119.328 718.212 120.317 720.984C120.89 722.592 121.001 724.674 121.76 726.116" stroke="#ED0965" stroke-width="3" stroke-linecap="round"/>
<path d="M113.277 689.961C111.778 690.866 111.052 693.146 110.127 694.547C109.323 695.764 107.993 696.854 107.337 698.117C105.42 701.803 103.259 704.968 100.575 708.117C99.723 709.116 98.7306 710.466 98.2143 711.685C97.7591 712.759 96.717 713.449 96.0116 714.308C95.1105 715.404 94.2224 717.351 92.9922 717.998" stroke="#ED0965" stroke-width="3" stroke-linecap="round"/>
<path d="M111.527 688.401C108.063 689.985 103.697 689.722 100.003 689.745C96.2328 689.767 92.1687 689.725 88.4176 689.398C84.4724 689.054 80.4139 689.66 76.5732 689.739" stroke="#ED0965" stroke-width="3" stroke-linecap="round"/>
<path d="M126.04 620.955C125.526 622.611 124.941 624.162 125.014 625.908C125.082 627.535 124.707 629.054 124.677 630.652C124.646 632.361 124.098 634.055 123.931 635.756C123.869 636.386 123.941 637.132 123.626 637.696C123.17 638.514 122.764 639.545 122.577 640.464C122.376 641.446 122.233 642.499 122.305 643.503C122.395 644.744 121.768 645.947 121.706 647.178C121.557 650.122 121.265 653.234 120.593 656.107C120.482 656.582 120.426 657.177 120.424 657.667C120.423 658.31 120.154 658.934 120.047 659.572C119.767 661.248 119.785 662.933 119.583 664.592C119.45 665.686 119.601 666.79 119.443 667.898C119.256 669.214 118.987 670.519 119.069 671.845C119.132 672.878 119.063 673.924 119.151 674.952C119.278 676.451 119.068 677.643 118.9 679.134C118.703 680.882 118.106 682.718 118.104 684.455C118.104 684.804 117.862 685.619 118.102 684.847C118.606 683.224 119.147 681.628 119.394 679.936C119.629 678.334 119.845 676.794 120.166 675.208C120.405 674.032 120.666 672.801 120.807 671.611C121.171 668.535 121.061 665.494 121.544 662.417C121.784 660.888 121.788 659.272 121.853 657.724C121.901 656.554 122.019 655.413 122.14 654.249C122.219 653.49 122.182 652.777 122.291 652C122.588 649.884 122.447 647.459 123.053 645.407C123.552 643.716 123.95 641.872 124.111 640.119C124.296 638.119 124.435 636.106 124.681 634.109C124.915 632.203 125.637 630.397 125.966 628.511C126.365 626.225 126.025 623.76 126.7 621.588" stroke="#ED0965" stroke-width="3" stroke-linecap="round"/>
<path d="M118.366 687.749C121.215 686.25 124.064 684.751 126.913 683.252C128.67 682.328 130.426 681.404 132.182 680.48C133.533 679.769 134.625 678.736 135.955 678.004C142.672 674.31 149.809 671.695 156.575 668.135C158.622 667.058 160.756 666.262 162.789 665.192C163.373 664.885 163.793 664.752 163.42 664.043C163.271 663.761 162.579 663.203 162.241 663.356C160.844 663.989 159.501 664.798 158.145 665.511C157.538 665.831 156.932 666.15 156.325 666.469C155.878 666.704 155.372 666.914 155.001 667.266C154.789 667.467 154.704 667.812 154.443 667.949C153.914 668.228 153.012 668.478 152.419 668.606C152.094 668.676 151.78 668.697 151.486 668.852C151.26 668.97 152.165 668.495 152.318 668.414C153.001 668.055 153.683 667.696 154.366 667.336C154.921 667.045 155.475 666.753 156.03 666.461C156.737 666.089 154.61 667.215 153.847 667.455C153.166 667.669 152.586 668.312 151.88 668.445C151.214 668.57 150.612 668.985 150.008 669.303C147.917 670.403 145.895 671.543 143.98 672.928C142.875 673.728 141.498 674.271 140.29 674.906C138.938 675.618 137.613 676.39 136.139 676.8C133.67 677.487 131.209 678.867 128.939 680.062C126.981 681.092 125.023 682.122 123.065 683.152C122.179 683.619 121.293 684.085 120.406 684.551C119.889 684.824 119.375 685.137 118.838 685.367C118.357 685.573 117.823 685.584 117.356 685.829" stroke="#ED0965" stroke-width="3" stroke-linecap="round"/>
<path d="M109.98 605.792C110.362 606.381 111.236 606.908 111.809 607.3C112.618 607.853 113.317 608.506 114.055 609.145C115.379 610.292 116.507 611.82 117.959 612.781C118.784 613.327 119.085 614.112 119.688 614.855C120.038 615.287 120.463 615.622 120.854 616.011C121.663 616.817 122.399 617.539 123.327 618.206C124.643 619.151 126.015 620.041 127.17 621.203C128.179 622.216 128.982 623.4 129.98 624.424C130.539 624.998 130.915 625.695 131.504 626.26C131.912 626.652 132.187 627.174 132.596 627.579C132.943 627.922 133.341 628.253 133.634 628.644C134.493 629.79 135.579 630.674 136.611 631.644C137.307 632.298 137.832 633.119 138.506 633.798C139.442 634.743 140.543 635.519 141.486 636.452C142.977 637.924 144.586 639.033 145.646 640.875C146.314 642.036 147.35 643.208 148.272 644.184C148.892 644.84 149.674 645.433 150.377 645.997C151.617 646.991 152.678 648.067 153.834 649.17C155.227 650.499 156.633 651.806 157.947 653.201C158.349 653.628 158.972 653.919 159.296 654.403C159.384 654.535 159.89 655.047 160.018 655.103C160.517 655.321 161.39 656.247 161.764 656.689C162.306 657.328 162.736 657.889 163.354 658.481" stroke="#ED0965" stroke-width="3" stroke-linecap="round"/>
<path d="M182.982 589.207C182.896 590.162 181.941 590.91 181.748 591.857C181.638 592.395 181.42 592.943 181.241 593.468C180.968 594.272 180.469 594.944 180.319 595.786C180.281 595.999 180.458 596.204 180.49 596.413C180.552 596.822 180.454 597.269 180.351 597.663C180.259 598.016 180.075 598.433 180.062 598.797C180.023 599.927 179.394 601.093 179.218 602.189C179.004 603.524 178.323 604.78 178.323 606.156C178.323 607.355 178.279 608.726 177.923 609.871C177.472 611.324 177.545 612.795 177.036 614.241C176.546 615.636 176.349 617.164 176.058 618.588C175.787 619.913 175.741 621.409 175.047 622.572C174.75 623.07 174.614 624.267 174.485 624.833C174.269 625.779 173.902 626.697 173.737 627.651C173.443 629.35 172.697 631.077 172.185 632.725C171.296 635.589 170.462 638.396 169.907 641.332C169.78 642.006 169.522 642.765 169.281 643.405C169.003 644.144 168.93 644.891 168.7 645.631C168.391 646.627 168.287 647.633 167.974 648.642C167.6 649.846 167.186 651.365 167.212 652.627C167.237 653.801 166.496 654.9 166.519 656.019" stroke="#ED0965" stroke-width="3" stroke-linecap="round"/>
<path d="M126.336 619.013C128.115 618.077 129.87 617.14 131.584 616.101C132.826 615.348 133.943 614.598 135.126 613.75C136.273 612.929 137.483 612.032 138.728 611.377C139.945 610.737 140.885 609.605 142.105 608.963C146.455 606.674 150.806 604.385 155.157 602.095C156.346 601.47 157.633 601.111 158.81 600.492C160.016 599.858 161.222 599.223 162.428 598.588C164.871 597.303 167.221 595.907 169.661 594.623C171.886 593.452 174.112 592.281 176.337 591.111C177.418 590.542 178.499 589.973 179.581 589.404C179.989 589.189 181.207 588.745 181.196 588.235" stroke="#ED0965" stroke-width="3" stroke-linecap="round"/>
</svg>
