<svg width="383" height="764" viewBox="0 0 383 764" fill="none" xmlns="http://www.w3.org/2000/svg">
<circle cx="252.5" cy="252.5" r="252.5" fill="#ED0965" fill-opacity="0.05"/>
<path d="M401.33 138.584C357.464 138.584 333.994 177.239 306.844 205.897C300.632 212.454 297.843 220.479 292.949 227.82C288.015 235.221 284.091 239.863 277.665 245.575C272.05 250.565 257.433 245.824 250.956 245.575C247.134 245.428 245.325 243.876 241.5 243.876C238.339 243.876 233.514 242.958 230.422 242.796C215.461 242.008 196.13 237.838 181.79 243.876C172.994 247.58 171.47 247.952 167.586 256.691C165.387 261.637 166.71 270.585 173.453 270.585C213.662 270.585 182.525 224.508 198.772 204.199C208.751 191.725 212.359 172.299 212.359 156.647C212.359 148.783 215.367 141.134 212.667 133.334C209.965 125.529 205.488 122.758 200.162 117.432C189.066 106.337 168.889 94.5721 152.61 94.1199C142.901 93.8502 133.145 94.1199 123.431 94.1199C117.481 94.1199 105.889 95.7282 101.199 99.6778C78.3582 118.912 63.8442 148.486 65.0723 179.188C65.6213 192.913 84.1265 193.336 94.2517 192.774C111.009 191.843 116.41 174.106 125.515 162.977C132.61 154.305 150.305 137.766 163.032 144.836C171.821 149.719 173.453 156.897 173.453 166.837C173.453 175.142 167.586 178 165.193 183.819C161.5 189.5 159.903 194.12 156.702 197.56C153.5 201 150 205 147.052 210.143C144.105 215.285 144.273 221.893 144.273 228.206C144.273 235.734 146.401 241.21 148.442 248.354C153.155 264.848 160.253 288 166.5 299.5C171.5 309.5 175.415 325.005 188.737 330.334C192.96 332.023 199.921 337.46 204.716 333.73C209.008 330.392 215.188 325.593 216.45 319.912C219.688 305.34 211.566 295.596 197.769 295.596C190.358 295.596 182.948 295.596 175.537 295.596C168.491 295.596 165 302 160.253 306.712C155.505 311.425 147.763 317.966 145.663 322.691C141.58 331.878 134.547 342.413 134.547 352.643C134.547 367.169 134.964 380.368 138.793 394.405C143.773 412.667 153.263 432.438 170.597 442.188C173.752 443.963 177.801 447.504 180.4 449.83C184.513 453.51 189.638 455.637 194.913 457.395C206.786 461.353 219.569 466.822 230.499 472.834C240.358 478.256 251.181 482.968 260.682 488.736C267.852 493.089 274.269 499.145 281.138 504.02C293.29 512.644 301.513 523.461 309.314 535.979C315.614 546.087 323.243 556.57 328.381 567.242C334.918 580.818 343.271 595.903 345.595 611.011C346.689 618.121 348.372 626.351 348.529 633.552C348.71 641.871 347.584 650.676 349.224 658.872C351.902 672.262 350.201 686.54 356.094 699.167C360.188 707.941 363.323 717.533 367.21 726.416C373.771 741.414 382.241 755.006 397.161 762.466" stroke="#ED0965" stroke-width="3" stroke-linecap="round"/>
</svg>
