<svg width="327" height="579" viewBox="0 0 327 579" fill="none" xmlns="http://www.w3.org/2000/svg">
<path d="M-6.07669 576.56C7.85079 574.027 18.4963 564.906 29.9312 557.555C43.1122 549.082 59.4367 546.276 71.9405 536.551C78.7668 531.241 86.9036 528.025 93.9453 522.548C104.811 514.097 114.408 505.044 123.73 494.875C141.548 475.436 153.994 452.708 168.073 430.416C192.155 392.286 194.934 345.985 190.078 302.277C185.892 264.603 175.963 227.394 175.963 189.363C175.963 161.221 196.39 125.371 220.418 110.457C233.544 102.309 251.876 93.033 267.539 92.4529C279.748 92.0008 282.671 95.0752 291.989 100.899C298.917 105.229 297.99 119.497 297.99 126.46C297.99 136.37 293.026 143.657 286.432 150.91C279.049 159.032 272.79 169.796 259.982 170.47C249.393 171.027 254.936 156.97 263.983 156.467C287.423 155.165 309.387 143.1 321.996 171.47C330.612 190.858 321.732 210.208 303.103 220.37C274.925 235.739 241.277 232.484 209.971 232.484C199.079 232.484 186.525 228.794 176.964 223.482C168.515 218.788 158.16 217.241 150.847 211.257C131.499 195.427 114.267 179.03 102.392 156.467C97.2075 146.617 91.37 136.466 87.4995 126.016C83.8185 116.077 79.0314 97.9606 71.9405 90.4525C54.3156 71.7908 50.5254 38.1734 27.9308 24.8825C16.6801 18.2644 3.57611 2.43311 -10.0776 2.43311" stroke="#ED0965" stroke-width="3" stroke-linecap="round"/>
</svg>
