<svg width="428" height="975" viewBox="0 0 428 975" fill="none" xmlns="http://www.w3.org/2000/svg">
<circle cx="411.5" cy="563.5" r="411.5" fill="#F9D782" fill-opacity="0.2"/>
<path d="M429.5 2C384.254 2 282.197 25.4744 282.197 79.4474C282.197 89.3846 280.92 100.248 282.347 110.093C283.211 116.052 289.414 125.618 292.413 130.819C298.821 141.933 302.45 153.978 306.535 166.054C317.542 198.593 332.211 257.742 298.423 282.714C286.124 291.803 220 312.057 220 281.974C220 256.471 267.532 264.652 282.047 264.652C311.254 264.652 327.619 289.587 348.601 304.625C365.565 316.782 382.021 335.96 389.014 355.256C405.685 401.254 397.548 461.284 376.845 504.486C363.249 532.857 341.088 556.305 326.817 584.431C320.082 597.705 309.126 610.249 305.934 624.403C302.392 640.112 300.363 656.49 298.573 672.37C294.297 710.288 298.099 751.776 309.239 788.141C318.197 817.381 325.003 848.188 341.69 874.304C353.564 892.887 365.165 913.858 380.15 930.265C392.01 943.251 420.423 959.734 439.5 966" stroke="#ED0965" stroke-width="3" stroke-linecap="round"/>
</svg>
