<svg width="441" height="562" viewBox="0 0 441 562" fill="none" xmlns="http://www.w3.org/2000/svg">
<path d="M423.494 546.311C425.937 546.86 429.47 545.85 431.861 545.276C433.441 544.896 436.462 544.089 437.968 544.51C439.457 544.926 438.251 548.889 438.768 549.761C439.121 550.356 438.683 552.871 438.57 553.581C438.403 554.629 438.53 555.72 438.325 556.633" stroke="#ED0965" stroke-width="3" stroke-linecap="round"/>
<path d="M-19 2C5.5 6 20.7063 10.0254 46 9C57.296 8.54205 81.5 9 92.5 9C103.5 9 149 7.73016 165 9C196.5 11.5 199.364 13.9002 231.691 16.4258C263.754 18.9307 296.388 31.2118 322.221 50.0484C339.68 62.7788 362.465 70.8698 376.037 88.2121C384.811 99.4238 396.655 114.324 400.384 128.308C402.388 135.821 406.834 142.119 409.08 149.564C411.808 158.609 412.913 167.843 415.263 176.906C420.478 197.019 419.211 220.793 412.558 240.383C402.136 271.069 372.037 285.847 342.994 294.296C319.406 301.157 281.047 304.18 267.343 279.513C264.043 273.572 265.828 262.809 270.918 258.644C278.351 252.562 284.694 252.557 293.913 252.557C313.701 252.557 318.647 274.476 318.647 289.948C318.647 308.551 315 323.022 303.864 337.87C298.89 344.502 294.092 350.347 288.309 356.13C280.4 364.039 277.678 374.164 271.304 382.99C257.933 401.503 259.43 427.728 254.686 449.076C251.165 464.92 255.681 486.757 265.701 499.509C289.758 530.128 328.715 547.801 365.602 557.286C391.066 563.834 413.93 557.953 436.905 546.465" stroke="#ED0965" stroke-width="3" stroke-linecap="round"/>
</svg>

