<svg width="1435" height="985" viewBox="0 0 1435 985" fill="none" xmlns="http://www.w3.org/2000/svg">
<path d="M53.0498 1.20018C61.0498 1.20018 68.9498 2.40019 76.7498 4.80019C84.7498 7.00019 91.9498 10.6002 98.3498 15.6002C104.95 20.4002 110.25 26.6002 114.25 34.2002C118.25 41.8002 120.25 50.9002 120.25 61.5002C120.25 69.5002 119.05 77.3002 116.65 84.9002C114.25 92.3002 110.35 99.0002 104.95 105C99.5498 111 92.5498 115.8 83.9498 119.4C75.3498 123 64.7498 124.8 52.1498 124.8H19.1498V214.2H4.44981V1.20018H53.0498ZM51.2498 110.7C61.8498 110.7 70.6498 109.2 77.6498 106.2C84.6498 103.2 90.1498 99.3002 94.1498 94.5002C98.1498 89.7002 100.95 84.5002 102.55 78.9002C104.35 73.1002 105.25 67.5002 105.25 62.1002C105.25 55.7002 104.05 49.7002 101.65 44.1002C99.4498 38.5002 96.1498 33.6002 91.7498 29.4002C87.3498 25.0002 82.0498 21.6002 75.8498 19.2002C69.6498 16.6002 62.7498 15.3002 55.1498 15.3002H19.1498V110.7H51.2498ZM81.8498 117.3L140.95 214.2H123.85L64.4498 117.6L81.8498 117.3ZM188.294 1.20018H319.694V15.3002H202.994V99.9002H307.994V114H202.994V200.1H323.894V214.2H188.294V1.20018ZM387.395 142.2C387.395 154.6 389.895 165.3 394.895 174.3C400.095 183.3 407.095 190.3 415.895 195.3C424.695 200.1 434.695 202.5 445.895 202.5C457.295 202.5 467.395 200.1 476.195 195.3C485.195 190.3 492.195 183.3 497.195 174.3C502.395 165.3 504.995 154.6 504.995 142.2V1.20018H519.395V143.1C519.395 158.5 516.095 171.7 509.495 182.7C503.095 193.7 494.295 202.1 483.095 207.9C472.095 213.7 459.695 216.6 445.895 216.6C432.095 216.6 419.595 213.7 408.395 207.9C397.395 202.1 388.695 193.7 382.295 182.7C375.895 171.7 372.695 158.5 372.695 143.1V1.20018H387.395V142.2ZM686.504 25.2002C680.304 22.2002 672.704 19.4002 663.704 16.8002C654.704 14.2002 645.704 12.9002 636.704 12.9002C622.704 12.9002 611.504 16.4002 603.104 23.4002C594.704 30.4002 590.504 39.2002 590.504 49.8002C590.504 57.8002 592.904 64.5002 597.704 69.9002C602.504 75.1002 608.804 79.6002 616.604 83.4002C624.404 87.0002 632.704 90.5002 641.504 93.9002C648.504 96.5002 655.404 99.4002 662.204 102.6C669.204 105.8 675.504 109.7 681.104 114.3C686.704 118.9 691.104 124.6 694.304 131.4C697.705 138.2 699.405 146.6 699.405 156.6C699.405 168.4 696.605 178.9 691.004 188.1C685.404 197.1 677.604 204.1 667.605 209.1C657.604 214.1 646.004 216.6 632.804 216.6C622.204 216.6 612.504 215.3 603.704 212.7C595.104 210.1 587.504 207.1 580.904 203.7C574.504 200.1 569.404 197.1 565.604 194.7L572.504 182.7C576.904 185.9 582.204 189.1 588.404 192.3C594.804 195.5 601.704 198.2 609.104 200.4C616.504 202.6 623.904 203.7 631.304 203.7C639.904 203.7 648.204 202 656.204 198.6C664.404 195.2 671.104 190.1 676.304 183.3C681.704 176.3 684.404 167.5 684.404 156.9C684.404 146.7 681.904 138.5 676.904 132.3C671.904 125.9 665.504 120.7 657.704 116.7C649.904 112.7 641.604 109.1 632.804 105.9C626.004 103.3 619.204 100.6 612.404 97.8002C605.604 94.8002 599.404 91.3002 593.804 87.3002C588.204 83.1002 583.704 78.1002 580.304 72.3002C577.104 66.5002 575.504 59.5002 575.504 51.3002C575.504 41.1002 578.104 32.2002 583.304 24.6002C588.504 17.0002 595.504 11.1002 604.304 6.90018C613.304 2.50018 623.504 0.200179 634.904 0.000181437C644.904 0.000181437 655.004 1.30018 665.204 3.90018C675.604 6.50019 684.605 9.80019 692.204 13.8002L686.504 25.2002ZM748.321 1.20018H879.721V15.3002H763.021V99.9002H868.021V114H763.021V200.1H883.921V214.2H748.321V1.20018ZM58.5498 371C67.0831 371 75.5098 372.28 83.8298 374.84C92.3631 377.187 100.043 381.027 106.87 386.36C113.91 391.48 119.563 398.094 123.83 406.2C128.096 414.307 130.23 424.014 130.23 435.32C130.23 443.854 128.95 452.174 126.39 460.28C123.83 468.174 119.67 475.32 113.91 481.72C108.15 488.12 100.683 493.24 91.5098 497.08C82.3365 500.92 71.0298 502.84 57.5898 502.84H22.3898V598.2H6.70981V371H58.5498ZM56.6298 487.8C67.9365 487.8 77.3231 486.2 84.7898 483C92.2565 479.8 98.1231 475.64 102.39 470.52C106.656 465.4 109.643 459.854 111.35 453.88C113.27 447.694 114.23 441.72 114.23 435.96C114.23 429.134 112.95 422.734 110.39 416.76C108.043 410.787 104.523 405.56 99.8298 401.08C95.1365 396.387 89.4831 392.76 82.8698 390.2C76.2565 387.427 68.8965 386.04 60.7898 386.04H22.3898V487.8H56.6298ZM89.2698 494.84L152.31 598.2H134.07L70.7098 495.16L89.2698 494.84ZM202.81 371H342.97V386.04H218.49V476.28H330.49V491.32H218.49V583.16H347.45V598.2H202.81V371ZM382.545 371H531.345V386.04H464.465V598.2H448.785V386.04H382.545V371ZM747.392 371V598.2H731.712V491.32H594.752V598.2H579.072V371H594.752V476.6H731.712V371H747.392ZM813.297 371H828.977V598.2H813.297V371ZM1085.1 603.64L905.902 401.72L910.062 398.52L910.382 598.2H895.022V366.2H895.982L1075.18 569.72L1071.02 571L1070.7 371H1085.74V603.64H1085.1ZM1167.75 473.4L1167.11 484.6L1168.07 481.72L1280.39 371H1300.55L1206.47 464.12L1311.11 598.2H1291.27L1194.95 474.04L1167.43 500.28L1167.75 598.2H1151.75V371H1167.75V473.4Z" fill="black"/>
<path d="M69.1298 754.04C83.3898 754.04 96.0998 755.9 107.26 759.62C118.42 763.134 127.72 768.3 135.16 775.12C142.806 781.734 148.593 789.794 152.52 799.3C156.446 808.6 158.41 819.14 158.41 830.92C158.41 840.22 156.963 849.52 154.07 858.82C151.383 868.12 146.836 876.594 140.43 884.24C134.23 891.887 125.963 898.087 115.63 902.84C105.296 907.387 92.4831 909.66 77.1898 909.66H44.9498V982.2H-0.000193372V754.04H69.1298ZM76.8798 866.26C83.6998 866.26 89.3831 865.124 93.9298 862.85C98.4765 860.577 101.99 857.684 104.47 854.17C107.156 850.657 109.016 847.04 110.05 843.32C111.29 839.394 111.91 835.777 111.91 832.47C111.91 829.99 111.496 826.89 110.67 823.17C110.05 819.244 108.603 815.317 106.33 811.39C104.056 807.464 100.543 804.157 95.7898 801.47C91.2431 798.784 85.0431 797.44 77.1898 797.44H44.9498V866.26H76.8798ZM119.04 894.16L175.46 982.2H123.07L65.4098 895.4L119.04 894.16ZM206.319 754.04H361.939V797.44H251.269V846.11H349.229V889.51H251.269V938.8H366.279V982.2H206.319V754.04ZM526.894 780.6C520.281 777.4 512.174 774.414 502.574 771.64C492.974 768.867 483.374 767.48 473.774 767.48C458.841 767.48 446.894 771.214 437.934 778.68C428.974 786.147 424.494 795.534 424.494 806.84C424.494 815.374 427.054 822.52 432.174 828.28C437.294 833.827 444.014 838.627 452.334 842.68C460.654 846.52 469.508 850.254 478.894 853.88C486.361 856.654 493.721 859.747 500.974 863.16C508.441 866.574 515.161 870.734 521.134 875.64C527.108 880.547 531.801 886.627 535.214 893.88C538.841 901.134 540.654 910.094 540.654 920.76C540.654 933.347 537.668 944.547 531.694 954.36C525.721 963.96 517.401 971.427 506.734 976.76C496.068 982.094 483.694 984.76 469.614 984.76C458.308 984.76 447.961 983.374 438.574 980.6C429.401 977.827 421.294 974.627 414.254 971C407.428 967.16 401.988 963.96 397.934 961.4L405.294 948.6C409.988 952.014 415.641 955.427 422.254 958.84C429.081 962.254 436.441 965.134 444.334 967.48C452.228 969.827 460.121 971 468.014 971C477.188 971 486.041 969.187 494.574 965.56C503.321 961.934 510.468 956.494 516.014 949.24C521.774 941.774 524.654 932.387 524.654 921.08C524.654 910.2 521.988 901.454 516.654 894.84C511.321 888.014 504.494 882.467 496.174 878.2C487.854 873.934 479.001 870.094 469.614 866.68C462.361 863.907 455.108 861.027 447.854 858.04C440.601 854.84 433.988 851.107 428.014 846.84C422.041 842.36 417.241 837.027 413.614 830.84C410.201 824.654 408.494 817.187 408.494 808.44C408.494 797.56 411.268 788.067 416.814 779.96C422.361 771.854 429.828 765.56 439.214 761.08C448.814 756.387 459.694 753.934 471.854 753.72C482.521 753.72 493.294 755.107 504.174 757.88C515.268 760.654 524.868 764.174 532.974 768.44L526.894 780.6ZM571.467 755H720.267V770.04H653.387V982.2H637.707V770.04H571.467V755ZM742.032 868.92C742.032 852.92 745.018 837.987 750.992 824.12C756.965 810.04 765.285 797.667 775.952 787C786.618 776.12 798.885 767.694 812.752 761.72C826.832 755.534 841.872 752.44 857.872 752.44C873.872 752.44 888.912 755.534 902.992 761.72C917.072 767.694 929.445 776.12 940.112 787C950.778 797.667 959.098 810.04 965.072 824.12C971.258 837.987 974.352 852.92 974.352 868.92C974.352 884.92 971.258 899.96 965.072 914.04C959.098 927.907 950.778 940.174 940.112 950.84C929.445 961.507 917.072 969.827 902.992 975.8C888.912 981.774 873.872 984.76 857.872 984.76C841.872 984.76 826.832 981.88 812.752 976.12C798.885 970.36 786.618 962.254 775.952 951.8C765.285 941.347 756.965 929.08 750.992 915C745.018 900.92 742.032 885.56 742.032 868.92ZM758.032 869.24C758.032 883.107 760.592 896.12 765.712 908.28C770.832 920.44 777.978 931.107 787.152 940.28C796.325 949.454 806.885 956.707 818.832 962.04C830.992 967.16 843.898 969.72 857.552 969.72C871.632 969.72 884.752 967.16 896.912 962.04C909.072 956.707 919.738 949.454 928.912 940.28C938.085 931.107 945.232 920.44 950.352 908.28C955.685 896.12 958.352 883 958.352 868.92C958.352 855.054 955.685 842.04 950.352 829.88C945.232 817.507 938.085 806.734 928.912 797.56C919.738 788.174 909.072 780.814 896.912 775.48C884.752 770.147 871.738 767.48 857.872 767.48C843.792 767.48 830.672 770.254 818.512 775.8C806.352 781.134 795.685 788.494 786.512 797.88C777.552 807.267 770.512 818.147 765.392 830.52C760.485 842.68 758.032 855.587 758.032 869.24ZM1077.81 755C1086.34 755 1094.77 756.28 1103.09 758.84C1111.62 761.187 1119.3 765.027 1126.13 770.36C1133.17 775.48 1138.82 782.094 1143.09 790.2C1147.36 798.307 1149.49 808.014 1149.49 819.32C1149.49 827.854 1148.21 836.174 1145.65 844.28C1143.09 852.174 1138.93 859.32 1133.17 865.72C1127.41 872.12 1119.94 877.24 1110.77 881.08C1101.6 884.92 1090.29 886.84 1076.85 886.84H1041.65V982.2H1025.97V755H1077.81ZM1075.89 871.8C1087.2 871.8 1096.58 870.2 1104.05 867C1111.52 863.8 1117.38 859.64 1121.65 854.52C1125.92 849.4 1128.9 843.854 1130.61 837.88C1132.53 831.694 1133.49 825.72 1133.49 819.96C1133.49 813.134 1132.21 806.734 1129.65 800.76C1127.3 794.787 1123.78 789.56 1119.09 785.08C1114.4 780.387 1108.74 776.76 1102.13 774.2C1095.52 771.427 1088.16 770.04 1080.05 770.04H1041.65V871.8H1075.89ZM1108.53 878.84L1171.57 982.2H1153.33L1089.97 879.16L1108.53 878.84ZM1222.07 755H1362.23V770.04H1237.75V860.28H1349.75V875.32H1237.75V967.16H1366.71V982.2H1222.07V755ZM1388.68 959.16C1388.68 952.547 1391.03 947 1395.72 942.52C1400.63 938.04 1405.96 935.8 1411.72 935.8C1417.06 935.8 1422.07 938.04 1426.76 942.52C1431.67 947 1434.12 952.547 1434.12 959.16C1434.12 966.2 1431.67 971.854 1426.76 976.12C1422.07 980.174 1417.06 982.2 1411.72 982.2C1405.96 982.2 1400.63 980.174 1395.72 976.12C1391.03 971.854 1388.68 966.2 1388.68 959.16Z" fill="#ED0965"/>
</svg>
