<?xml version="1.0" standalone="no"?>
<!DOCTYPE svg PUBLIC "-//W3C//DTD SVG 20010904//EN"
 "http://www.w3.org/TR/2001/REC-SVG-20010904/DTD/svg10.dtd">
<svg version="1.0" xmlns="http://www.w3.org/2000/svg"
 width="960.000000pt" height="540.000000pt" viewBox="0 0 960.000000 540.000000"
 preserveAspectRatio="xMidYMid meet">

<g transform="translate(0.000000,540.000000) scale(0.100000,-0.100000)"
fill="#000000" stroke="none">
<path d="M2846 4938 c-23 -32 -20 -55 10 -83 25 -23 25 -24 9 -56 -11 -21 -15
-44 -11 -68 l6 -37 -83 -22 c-103 -29 -284 -106 -379 -162 -116 -69 -294 -204
-368 -281 -252 -260 -315 -339 -379 -472 -73 -148 -95 -239 -88 -352 7 -104
38 -222 72 -281 34 -57 129 -142 194 -172 46 -21 63 -24 135 -20 55 3 101 13
143 30 l62 25 5 -51 c3 -28 8 -177 11 -331 13 -581 28 -1001 40 -1120 3 -27 8
-214 10 -415 3 -201 7 -374 9 -385 1 -10 14 -22 27 -26 14 -3 216 -8 450 -10
l424 -4 5 65 c4 46 8 60 14 47 5 -10 6 -40 4 -67 l-5 -50 218 0 c120 0 220 4
223 8 2 4 8 35 11 68 l7 61 -172 172 -173 172 22 412 c12 227 24 444 26 482 3
39 14 252 25 475 11 223 22 428 24 455 2 28 5 74 5 103 1 60 8 63 82 36 60
-22 328 -22 414 -1 84 21 111 33 119 53 10 26 -11 34 -99 35 -116 1 -139 14
-39 23 93 8 149 31 149 61 0 18 -8 20 -67 23 -38 2 -68 6 -68 11 0 4 22 13 50
20 62 16 100 45 100 77 0 27 14 25 -179 30 -141 3 -181 8 -181 24 0 5 19 14
41 20 45 12 93 53 86 73 -3 8 -38 12 -123 12 -107 0 -124 3 -169 25 l-50 25
-7 60 c-3 33 -9 92 -12 130 -26 336 -159 728 -280 822 l-23 19 28 49 c35 60
37 104 7 156 -30 55 -92 84 -159 75 -31 -4 -49 -3 -49 4 0 19 -40 50 -64 50
-14 0 -32 -10 -40 -22z m273 -89 c67 -64 44 -171 -46 -218 -12 -6 -45 -11 -72
-11 -44 0 -56 5 -87 33 -47 43 -51 87 -10 98 45 12 93 50 121 95 30 48 47 48
94 3z m-1102 -872 c54 -51 119 -113 146 -136 26 -24 47 -47 47 -52 0 -5 -33
-41 -74 -79 -61 -59 -166 -193 -166 -214 0 -19 21 2 57 57 82 123 195 224 328
291 190 95 375 132 392 79 2 -5 -25 -20 -59 -32 -90 -31 -148 -59 -148 -71 0
-6 17 -2 38 9 56 28 148 55 166 48 28 -11 19 -44 -16 -57 -84 -33 -148 -64
-148 -71 0 -12 14 -11 26 1 12 12 122 50 146 50 30 0 35 -31 7 -52 -202 -162
-250 -223 -378 -483 -57 -115 -110 -180 -191 -235 -122 -83 -267 -102 -374
-50 -62 29 -146 112 -174 170 -58 122 -79 313 -46 428 30 106 98 245 161 329
48 65 141 163 154 163 5 0 53 -42 106 -93z m1468 -421 c32 -21 73 -27 182 -27
111 1 128 -9 66 -35 -77 -32 -88 -40 -88 -59 0 -26 31 -32 175 -34 63 -1 133
-5 155 -9 l40 -7 -22 -22 c-27 -27 -77 -41 -171 -50 -70 -6 -94 -16 -76 -33 5
-4 61 -11 124 -15 152 -9 159 -16 44 -40 -38 -8 -85 -15 -105 -15 -19 0 -43
-6 -53 -13 -31 -23 2 -35 112 -43 85 -6 101 -9 90 -20 -27 -27 -139 -46 -277
-47 -159 0 -258 17 -238 41 9 11 11 70 9 229 -1 117 1 213 6 213 4 0 16 -6 27
-14z m-664 -643 c1 -109 3 -259 4 -333 2 -74 6 -439 9 -810 l7 -675 64 -65
c325 -329 309 -327 -44 6 l-53 50 -3 230 c-2 126 -6 461 -9 744 -4 283 -9 631
-12 772 -3 141 -3 262 1 268 3 5 13 10 21 10 12 0 14 -33 15 -197z m450 -1814
c36 -25 37 -42 3 -64 -19 -12 -23 -20 -15 -28 8 -8 19 -5 40 11 25 18 31 19
41 7 9 -11 6 -17 -14 -30 -26 -17 -35 -45 -16 -45 6 0 20 9 32 20 26 24 37 25
44 5 4 -9 -4 -24 -21 -36 -19 -15 -23 -25 -16 -32 8 -8 20 -4 41 11 16 12 32
22 35 22 15 0 175 -175 173 -189 -3 -14 -30 -16 -206 -18 -186 -3 -202 -1
-202 15 -1 9 -72 91 -160 181 -88 91 -157 167 -154 170 3 3 78 8 167 12 89 3
170 6 180 7 11 1 32 -7 48 -19z m-469 -36 l38 -37 -32 -26 c-39 -33 -21 -52
18 -21 49 39 87 15 41 -25 -49 -42 -29 -61 23 -22 25 18 32 19 45 8 14 -12 13
-16 -11 -41 -37 -39 -21 -57 22 -24 l33 26 76 -72 c41 -39 75 -78 75 -87 0
-16 -10 -16 -662 4 l-208 7 0 36 c0 20 -3 101 -7 179 l-6 144 259 -7 259 -6
37 -36z"/>
<path d="M6229 4671 c-16 -16 -29 -37 -29 -45 0 -20 -1 -20 -36 -1 -16 8 -50
15 -76 15 -41 0 -52 -5 -87 -37 -65 -63 -74 -142 -21 -198 19 -20 19 -22 -25
-107 -54 -103 -116 -286 -144 -422 -12 -55 -23 -102 -26 -104 -3 -3 -16 0 -29
6 -85 39 -390 40 -507 3 -111 -35 -229 -127 -229 -177 0 -20 30 -24 61 -9 34
18 36 13 9 -22 -24 -31 -26 -69 -5 -77 12 -4 14 -10 5 -25 -17 -32 -12 -61 9
-61 15 0 19 -7 17 -32 -1 -30 1 -33 30 -33 29 0 30 -1 20 -28 -12 -32 5 -51
37 -41 17 5 18 -1 12 -88 -12 -192 -35 -638 -40 -783 -3 -82 -8 -169 -11 -192
l-5 -43 -307 5 c-169 3 -385 7 -480 9 -193 4 -192 4 -192 -67 l0 -35 62 5 61
6 -6 -59 c-10 -87 -25 -209 -37 -299 -6 -44 -19 -147 -30 -230 -33 -267 -51
-408 -65 -505 -7 -52 -10 -98 -6 -102 4 -4 29 -9 56 -10 l50 -3 17 150 c9 83
24 213 33 290 9 77 20 181 25 230 5 50 12 110 15 135 8 70 14 121 20 175 3 28
8 69 11 92 l6 43 317 -7 c174 -3 319 -10 322 -14 3 -5 13 -136 23 -291 9 -156
19 -305 21 -333 3 -27 9 -138 15 -245 6 -107 13 -201 15 -207 5 -14 54 -17 94
-6 22 6 23 8 17 82 -7 84 -18 235 -41 561 -9 118 -20 265 -25 325 -6 61 -10
129 -10 153 l0 42 44 0 c24 0 48 6 54 13 12 14 20 93 52 482 11 138 22 275 25
305 3 30 9 116 15 190 18 248 22 279 37 284 24 9 84 -18 171 -77 45 -30 92
-59 103 -62 11 -4 18 -13 15 -20 -2 -7 -12 -75 -22 -151 -12 -104 -15 -179
-11 -299 9 -245 41 -325 131 -325 13 0 48 -5 76 -12 44 -10 51 -15 47 -32 -2
-12 -30 -106 -61 -211 -160 -533 -327 -1094 -341 -1148 -7 -26 -8 -50 -3 -53
4 -3 -40 -60 -99 -126 -201 -224 -204 -228 -193 -247 23 -43 28 -44 298 -38
141 4 294 7 340 7 l82 0 96 192 96 193 51 1 52 1 63 139 c125 271 142 307 148
302 3 -3 14 -39 24 -79 10 -41 30 -117 44 -169 14 -52 31 -115 37 -140 19 -72
19 -72 146 -68 69 1 112 -1 112 -7 -1 -6 -61 -76 -135 -158 -74 -81 -134 -153
-134 -160 0 -7 6 -22 14 -33 13 -17 28 -19 168 -19 84 0 259 2 388 5 l235 5 3
27 c2 14 -9 98 -23 185 -15 87 -28 181 -29 208 -2 28 -17 142 -34 255 -17 113
-47 313 -67 445 -20 132 -47 317 -61 410 -14 94 -30 203 -36 243 -6 40 -9 75
-6 78 3 3 27 10 54 17 64 16 62 12 134 277 54 196 66 474 31 682 -63 365 -258
691 -527 880 -138 97 -304 168 -449 191 l-75 12 0 38 c0 38 1 39 28 31 53 -15
84 -8 114 25 38 42 37 83 -1 122 -22 21 -39 29 -66 29 -27 0 -44 -8 -66 -29z
m-179 -112 c25 -41 92 -89 123 -89 9 0 18 -4 21 -9 11 -17 -45 -70 -85 -82
-33 -10 -45 -9 -80 6 -47 21 -69 58 -69 112 0 44 35 103 60 103 3 0 16 -19 30
-41z m632 -625 c213 -105 397 -199 414 -211 16 -12 15 -18 -19 -85 -21 -40
-49 -86 -63 -102 -31 -35 -7 -44 -204 79 -69 43 -169 102 -222 132 -54 30
-100 58 -103 63 -3 5 8 35 24 67 17 32 35 70 40 86 6 15 13 27 15 27 3 0 56
-25 118 -56z m-1152 -156 c-1 -7 -9 -42 -19 -78 l-18 -65 -102 -6 c-117 -7
-180 -28 -234 -76 -37 -33 -67 -43 -67 -22 0 26 65 90 115 115 58 28 70 44 33
44 -22 -1 -81 -27 -145 -65 -36 -22 -50 -16 -34 14 14 25 121 99 164 113 110
35 307 52 307 26z m249 -34 c2 -2 0 -33 -4 -69 -7 -73 -6 -73 -109 -59 l-48 7
7 36 c4 20 15 55 25 78 l19 42 53 -15 c29 -9 55 -18 57 -20z m646 -97 c27 -34
52 -64 55 -67 4 -3 37 -43 75 -90 38 -47 93 -114 122 -149 29 -36 53 -68 53
-72 0 -24 -221 -124 -256 -117 -10 2 -37 57 -73 153 -31 83 -73 188 -94 235
-20 47 -37 91 -39 97 -3 12 78 73 97 73 6 0 32 -28 60 -63z m-819 -50 c7 -7
-85 -258 -102 -276 -2 -2 -26 6 -53 18 -65 27 -79 27 -163 -9 -38 -16 -79 -30
-89 -30 -18 0 -18 3 6 47 22 41 91 103 117 103 4 0 8 5 8 10 0 28 -54 2 -129
-62 -53 -46 -74 -49 -65 -10 8 35 57 87 114 120 32 19 40 28 27 30 -22 4 -81
-30 -129 -76 -21 -20 -40 -33 -44 -30 -12 13 7 45 55 92 71 70 134 87 308 83
73 -2 136 -6 139 -10z m230 -59 c-3 -24 -13 -113 -21 -198 -9 -85 -18 -161
-20 -168 -6 -15 -25 -11 -103 25 -65 29 -66 15 21 231 l61 152 34 0 34 0 -6
-42z m258 -10 c8 -29 31 -114 51 -188 20 -74 43 -157 51 -184 8 -27 14 -54 14
-58 0 -9 -150 -1 -159 7 -2 2 -21 98 -42 212 -21 114 -41 218 -44 230 -5 23 8
28 82 32 31 1 33 -1 47 -51z m916 -467 c5 -11 10 -24 10 -29 0 -4 -55 -49
-122 -98 -67 -49 -144 -106 -172 -126 -58 -44 -71 -46 -87 -16 -10 19 -9 24
12 37 50 34 275 205 299 227 30 29 46 30 60 5z m21 -716 c4 -22 9 -58 12 -80
4 -22 11 -71 17 -110 38 -258 52 -353 80 -540 17 -115 35 -235 40 -265 20
-114 61 -393 57 -396 -1 -2 -88 -6 -192 -9 -105 -3 -260 -8 -346 -10 l-156 -6
-23 88 c-12 48 -40 153 -61 233 -21 80 -39 151 -39 158 0 8 14 43 30 79 17 35
30 66 30 68 0 3 26 62 59 132 32 71 89 196 126 278 37 83 79 175 93 205 14 30
39 89 57 130 31 72 33 75 71 81 21 4 61 6 89 5 l50 -1 6 -40z"/>
</g>
</svg>
