<svg width="239" height="153" viewBox="0 0 239 153" fill="none" xmlns="http://www.w3.org/2000/svg">
<path d="M2.472 34V0.399998H15.048C17.896 0.399998 20.344 0.863998 22.392 1.792C24.44 2.688 26.008 4 27.096 5.728C28.216 7.424 28.776 9.488 28.776 11.92C28.776 14.288 28.216 16.336 27.096 18.064C26.008 19.76 24.44 21.072 22.392 22C20.344 22.896 17.896 23.344 15.048 23.344H4.44L6.024 21.712V34H2.472ZM25.416 34L16.776 21.808H20.616L29.304 34H25.416ZM6.024 22L4.44 20.32H14.952C18.312 20.32 20.856 19.584 22.584 18.112C24.344 16.64 25.224 14.576 25.224 11.92C25.224 9.232 24.344 7.152 22.584 5.68C20.856 4.208 18.312 3.472 14.952 3.472H4.44L6.024 1.792V22ZM40.3275 15.424H58.0875V18.448H40.3275V15.424ZM40.7115 30.928H60.9195V34H37.1595V0.399998H60.1995V3.472H40.7115V30.928ZM82.8049 34.288C78.5169 34.288 75.1409 33.056 72.6769 30.592C70.2129 28.128 68.9809 24.48 68.9809 19.648V0.399998H72.5329V19.504C72.5329 23.472 73.4289 26.4 75.2209 28.288C77.0129 30.176 79.5409 31.12 82.8049 31.12C86.1009 31.12 88.6449 30.176 90.4369 28.288C92.2289 26.4 93.1249 23.472 93.1249 19.504V0.399998H96.5809V19.648C96.5809 24.48 95.3489 28.128 92.8849 30.592C90.4529 33.056 87.0929 34.288 82.8049 34.288ZM116.549 34.288C114.053 34.288 111.653 33.888 109.349 33.088C107.077 32.256 105.317 31.2 104.069 29.92L105.461 27.184C106.645 28.336 108.229 29.312 110.213 30.112C112.229 30.88 114.341 31.264 116.549 31.264C118.661 31.264 120.373 31.008 121.685 30.496C123.029 29.952 124.005 29.232 124.613 28.336C125.253 27.44 125.573 26.448 125.573 25.36C125.573 24.048 125.189 22.992 124.421 22.192C123.685 21.392 122.709 20.768 121.493 20.32C120.277 19.84 118.933 19.424 117.461 19.072C115.989 18.72 114.517 18.352 113.045 17.968C111.573 17.552 110.213 17.008 108.965 16.336C107.749 15.664 106.757 14.784 105.989 13.696C105.253 12.576 104.885 11.12 104.885 9.328C104.885 7.664 105.317 6.144 106.181 4.768C107.077 3.36 108.437 2.24 110.261 1.408C112.085 0.543999 114.421 0.111999 117.269 0.111999C119.157 0.111999 121.029 0.383999 122.885 0.927999C124.741 1.44 126.341 2.16 127.685 3.088L126.484 5.92C125.045 4.96 123.509 4.256 121.877 3.808C120.277 3.36 118.725 3.136 117.221 3.136C115.205 3.136 113.541 3.408 112.229 3.952C110.917 4.496 109.941 5.232 109.301 6.16C108.693 7.056 108.389 8.08 108.389 9.232C108.389 10.544 108.757 11.6 109.493 12.4C110.261 13.2 111.253 13.824 112.469 14.272C113.717 14.72 115.077 15.12 116.549 15.472C118.021 15.824 119.477 16.208 120.917 16.624C122.389 17.04 123.733 17.584 124.949 18.256C126.197 18.896 127.189 19.76 127.925 20.848C128.693 21.936 129.077 23.36 129.077 25.12C129.077 26.752 128.629 28.272 127.733 29.68C126.837 31.056 125.461 32.176 123.605 33.04C121.781 33.872 119.429 34.288 116.549 34.288ZM139.984 15.424H157.744V18.448H139.984V15.424ZM140.368 30.928H160.576V34H136.816V0.399998H159.856V3.472H140.368V30.928ZM2.472 93V59.4H15.048C17.896 59.4 20.344 59.864 22.392 60.792C24.44 61.688 26.008 63 27.096 64.728C28.216 66.424 28.776 68.488 28.776 70.92C28.776 73.288 28.216 75.336 27.096 77.064C26.008 78.76 24.44 80.072 22.392 81C20.344 81.896 17.896 82.344 15.048 82.344H4.44L6.024 80.712V93H2.472ZM25.416 93L16.776 80.808H20.616L29.304 93H25.416ZM6.024 81L4.44 79.32H14.952C18.312 79.32 20.856 78.584 22.584 77.112C24.344 75.64 25.224 73.576 25.224 70.92C25.224 68.232 24.344 66.152 22.584 64.68C20.856 63.208 18.312 62.472 14.952 62.472H4.44L6.024 60.792V81ZM40.3275 74.424H58.0875V77.448H40.3275V74.424ZM40.7115 89.928H60.9195V93H37.1595V59.4H60.1995V62.472H40.7115V89.928ZM75.7969 93V62.472H63.9889V59.4H91.1569V62.472H79.3489V93H75.7969ZM121.407 59.4H124.911V93H121.407V59.4ZM100.383 93H96.8314V59.4H100.383V93ZM121.743 77.496H99.9994V74.376H121.743V77.496ZM135.878 93V59.4H139.43V93H135.878ZM150.363 93V59.4H153.291L176.475 88.584H174.939V59.4H178.443V93H175.515L152.379 63.816H153.915V93H150.363ZM192.482 84.648L192.338 80.328L212.69 59.4H216.77L201.938 74.952L199.922 77.112L192.482 84.648ZM189.41 93V59.4H192.962V93H189.41ZM213.554 93L199.058 76.296L201.458 73.704L217.778 93H213.554Z" fill="#111928"/>
<path d="M0.984 152V118.4H15.528C18.536 118.4 21.128 118.896 23.304 119.888C25.48 120.848 27.16 122.24 28.344 124.064C29.528 125.888 30.12 128.064 30.12 130.592C30.12 133.088 29.528 135.248 28.344 137.072C27.16 138.864 25.48 140.24 23.304 141.2C21.128 142.16 18.536 142.64 15.528 142.64H5.304L8.76 139.232V152H0.984ZM22.344 152L13.944 139.808H22.248L30.744 152H22.344ZM8.76 140.096L5.304 136.448H15.096C17.496 136.448 19.288 135.936 20.472 134.912C21.656 133.856 22.248 132.416 22.248 130.592C22.248 128.736 21.656 127.296 20.472 126.272C19.288 125.248 17.496 124.736 15.096 124.736H5.304L8.76 121.04V140.096ZM43.4329 131.936H59.6089V137.984H43.4329V131.936ZM44.0089 145.76H62.2969V152H36.2809V118.4H61.6729V124.64H44.0089V145.76ZM79.236 152.288C76.74 152.288 74.34 151.888 72.036 151.088C69.764 150.256 68.004 149.2 66.756 147.92L68.148 145.184C69.332 146.336 70.916 147.312 72.9 148.112C74.916 148.88 77.028 149.264 79.236 149.264C81.348 149.264 83.06 149.008 84.372 148.496C85.716 147.952 86.692 147.232 87.3 146.336C87.94 145.44 88.26 144.448 88.26 143.36C88.26 142.048 87.876 140.992 87.108 140.192C86.372 139.392 85.396 138.768 84.18 138.32C82.964 137.84 81.62 137.424 80.148 137.072C78.676 136.72 77.204 136.352 75.732 135.968C74.26 135.552 72.9 135.008 71.652 134.336C70.436 133.664 69.444 132.784 68.676 131.696C67.94 130.576 67.572 129.12 67.572 127.328C67.572 125.664 68.004 124.144 68.868 122.768C69.764 121.36 71.124 120.24 72.948 119.408C74.772 118.544 77.108 118.112 79.956 118.112C81.844 118.112 83.716 118.384 85.572 118.928C87.428 119.44 89.028 120.16 90.372 121.088L89.172 123.92C87.732 122.96 86.196 122.256 84.564 121.808C82.964 121.36 81.412 121.136 79.908 121.136C77.892 121.136 76.228 121.408 74.916 121.952C73.604 122.496 72.628 123.232 71.988 124.16C71.38 125.056 71.076 126.08 71.076 127.232C71.076 128.544 71.444 129.6 72.18 130.4C72.948 131.2 73.94 131.824 75.156 132.272C76.404 132.72 77.764 133.12 79.236 133.472C80.708 133.824 82.164 134.208 83.604 134.624C85.076 135.04 86.42 135.584 87.636 136.256C88.884 136.896 89.876 137.76 90.612 138.848C91.38 139.936 91.764 141.36 91.764 143.12C91.764 144.752 91.316 146.272 90.42 147.68C89.524 149.056 88.148 150.176 86.292 151.04C84.468 151.872 82.116 152.288 79.236 152.288ZM105.562 152V121.472H93.7545V118.4H120.923V121.472H109.115V152H105.562ZM140.816 152.288C138.288 152.288 135.936 151.872 133.76 151.04C131.616 150.176 129.744 148.976 128.144 147.44C126.576 145.872 125.344 144.064 124.448 142.016C123.584 139.936 123.152 137.664 123.152 135.2C123.152 132.736 123.584 130.48 124.448 128.432C125.344 126.352 126.576 124.544 128.144 123.008C129.744 121.44 131.616 120.24 133.76 119.408C135.904 118.544 138.256 118.112 140.816 118.112C143.344 118.112 145.68 118.544 147.824 119.408C149.968 120.24 151.824 121.424 153.392 122.96C154.992 124.496 156.224 126.304 157.088 128.384C157.984 130.464 158.432 132.736 158.432 135.2C158.432 137.664 157.984 139.936 157.088 142.016C156.224 144.096 154.992 145.904 153.392 147.44C151.824 148.976 149.968 150.176 147.824 151.04C145.68 151.872 143.344 152.288 140.816 152.288ZM140.816 149.12C142.832 149.12 144.688 148.784 146.384 148.112C148.112 147.408 149.6 146.432 150.848 145.184C152.128 143.904 153.12 142.432 153.824 140.768C154.528 139.072 154.88 137.216 154.88 135.2C154.88 133.184 154.528 131.344 153.824 129.68C153.12 127.984 152.128 126.512 150.848 125.264C149.6 123.984 148.112 123.008 146.384 122.336C144.688 121.632 142.832 121.28 140.816 121.28C138.8 121.28 136.928 121.632 135.2 122.336C133.472 123.008 131.968 123.984 130.688 125.264C129.44 126.512 128.448 127.984 127.712 129.68C127.008 131.344 126.656 133.184 126.656 135.2C126.656 137.184 127.008 139.024 127.712 140.72C128.448 142.416 129.44 143.904 130.688 145.184C131.968 146.432 133.472 147.408 135.2 148.112C136.928 148.784 138.8 149.12 140.816 149.12ZM166.394 152V118.4H178.97C181.818 118.4 184.266 118.864 186.314 119.792C188.362 120.688 189.93 122 191.018 123.728C192.138 125.424 192.698 127.488 192.698 129.92C192.698 132.288 192.138 134.336 191.018 136.064C189.93 137.76 188.362 139.072 186.314 140C184.266 140.896 181.818 141.344 178.97 141.344H168.362L169.946 139.712V152H166.394ZM189.338 152L180.698 139.808H184.538L193.226 152H189.338ZM169.946 140L168.362 138.32H178.874C182.234 138.32 184.778 137.584 186.506 136.112C188.266 134.64 189.146 132.576 189.146 129.92C189.146 127.232 188.266 125.152 186.506 123.68C184.778 122.208 182.234 121.472 178.874 121.472H168.362L169.946 119.792V140ZM204.249 133.424H222.009V136.448H204.249V133.424ZM204.633 148.928H224.841V152H201.081V118.4H224.121V121.472H204.633V148.928ZM234.007 152.384C232.727 152.384 231.623 151.952 230.695 151.088C229.799 150.192 229.351 149.056 229.351 147.68C229.351 146.304 229.799 145.2 230.695 144.368C231.623 143.504 232.727 143.072 234.007 143.072C235.319 143.072 236.423 143.504 237.319 144.368C238.215 145.2 238.663 146.304 238.663 147.68C238.663 149.056 238.215 150.192 237.319 151.088C236.423 151.952 235.319 152.384 234.007 152.384Z" fill="#ED0965"/>
</svg>
