<svg width="286" height="822" viewBox="0 0 286 822" fill="none" xmlns="http://www.w3.org/2000/svg">
<circle cx="-116" cy="420" r="402" fill="#ED0965" fill-opacity="0.05"/>
<path d="M128.332 255.158C129.832 256.658 132.27 259.884 133.678 261.204C136.985 264.305 139.055 267.948 141.871 271.469C146.656 277.449 150.509 283.829 155.128 290.065C158.804 295.028 163.428 299.197 167.142 304.196C173.11 312.23 179.081 320.266 185.83 327.672C193.315 335.885 200.188 345.121 208.201 352.712C211.127 355.485 216.903 356.918 218.972 360.537C219.502 361.464 221.77 361.723 222.7 362.24C225.553 363.825 224.771 359.866 224.771 358.143C224.771 350.314 215.717 345.088 210.87 339.271C201.743 328.318 193.053 316.319 185.001 304.242C183.147 301.46 179.761 298.487 178.557 295.358C177.813 293.423 175.982 290.692 174.23 289.559C170.643 287.237 165.919 281.454 163.459 277.959C158.895 271.472 153.614 265.72 148.177 260.283C145.59 257.696 143.157 254.716 140.444 252.274C138.756 250.755 138.083 249.034 136.332 248.158" stroke="#ED0965" stroke-width="3" stroke-linecap="round"/>
<path d="M67.2525 226.363C64.2483 222.023 45.832 208.158 58.3319 199.237C60.332 197.809 65.127 191.03 71.7635 187.237C75.5866 185.053 79.2661 182.122 83.3631 179.78C87.2492 177.56 88.8302 173.152 93.7659 173.152C99.1573 173.152 101.456 174.741 106.194 177.111C111.714 179.87 119.002 184.902 122.305 190.091C126.708 197.012 132.143 203.877 135.837 211.265C136.989 213.569 138.212 216.271 139.796 218.308C141.716 220.777 141.647 224.219 143.064 227.053C144.971 230.868 143.771 242.135 139.796 244.407C137.609 245.656 135.94 248.687 133.536 250.022C131.909 250.926 130.599 253.468 128.832 254.658C127.332 255.658 126.219 257.676 124.79 258.492C122.779 259.642 119.962 261.716 117.609 261.806C111.423 262.044 106.905 261.413 101.591 258.032C99.1315 256.467 96.1515 255.108 93.7659 253.705C91.0902 252.131 89.4848 249.715 87.5518 247.353C81.4522 239.898 72.6384 234.143 67.2525 226.363Z" stroke="#ED0965" stroke-width="3" stroke-linecap="round"/>
<path d="M68.8176 205.152C67.057 205.348 66.7664 207.725 66.8429 209.102C66.9981 211.896 69.4518 213.364 71.0667 215.273C77.3711 222.723 84.4593 229.92 92.4049 235.651C98.1821 239.818 103.042 245.018 108.559 249.31C109.774 250.254 111.378 251.559 113.003 251.559C115.829 251.559 115.815 252.101 115.718 248.597C115.542 242.262 110.559 237.952 106.365 233.759C100.918 228.311 95.1593 222.584 89.0588 217.878C85.1748 214.882 81.3223 211.834 77.4572 208.827C74.7436 206.717 71.3302 204.658 67.8303 204.658" stroke="#ED0965" stroke-width="3" stroke-linecap="round"/>
<path d="M82.2058 192.327C80.3264 192.327 80.1441 195.206 80.231 196.771C80.359 199.074 84.4312 202.956 86.1552 204.286C91.8457 208.675 96.7595 213.793 101.844 218.877C106.75 223.783 110.422 229.43 115.283 234.291C116.985 235.993 118.533 237.541 120.22 239.228C121.817 240.825 123.376 242.723 125.897 242.162C131.449 240.929 123.823 232.904 122.661 231.548C120.659 229.213 118.722 226.919 116.983 224.39C114.474 220.74 110.549 218.247 108.124 214.516C106.245 211.624 103.768 208.557 101.24 206.178C98.9347 204.008 97.02 200.315 94.2737 198.745C90.6019 196.647 86.9013 191.834 82.2058 191.834" stroke="#ED0965" stroke-width="3" stroke-linecap="round"/>
<path d="M97.0163 181.96C95.3745 182.142 94.494 185.582 95.1513 186.897C96.4544 189.503 98.1058 191.442 100.198 193.534C106.283 199.62 112.557 206.02 117.861 212.788C120.621 216.309 123.191 219.632 125.65 223.32C126.912 225.213 127.993 227.748 129.6 229.354C130.997 230.751 132.207 231.887 133.659 233.194C136.382 235.644 136.511 233.255 136.511 230.862C136.511 226.749 134.5 222.879 132.315 219.48C128.086 212.902 124.402 205.749 119.945 199.266C118.387 197 115.509 195.587 114.049 193.315C112.267 190.544 108.682 187.388 105.903 185.69C102.877 183.841 99.6068 181.96 96.029 181.96" stroke="#ED0965" stroke-width="3" stroke-linecap="round"/>
<path d="M-61.0115 2C-32.9661 6.35187 -4.85293 7.76611 22.9081 13.9352C49.1334 19.7631 76.3044 24.0556 101.606 33.1642C117.885 39.0247 133.933 41.7991 148.684 51.3157C161.743 59.7408 174.142 69.0171 185.899 78.9988C188.533 81.2353 190.032 84.1343 192.032 86.8727C194.574 90.3537 197.573 93.3611 199.989 96.9845C203.669 102.505 207.075 107.302 209.728 113.437C216.042 128.038 217.229 142.577 217.229 158.318C217.229 168.84 217.196 179.552 213.83 189.648C212.767 192.839 211.341 195.921 209.769 198.89C208.636 201.031 206.582 202.928 205.874 205.23C204.584 209.421 202.418 214.434 200.072 218.16C195.713 225.083 190.13 233.516 188.136 241.492C187.271 244.955 184.806 247.626 182.915 250.568C180.578 254.203 179.068 258.652 176.035 261.757C172.803 265.066 170.126 269.728 166.089 272.035C163.197 273.688 161.135 277.412 158.298 278.914C152.102 282.194 147.778 287.7 140.396 287.7C133.308 287.7 138.768 277.302 143.379 275.764" stroke="#ED0965" stroke-width="3" stroke-linecap="round"/>
<path d="M155.95 268.57C159.404 268.57 163.971 267.791 166.855 269.439C171.093 271.861 170.716 275.893 170.716 280.296C170.716 286.299 169.741 288.494 166.807 293.71C163.302 299.941 156.509 303.621 151.608 308.523C146.049 314.082 140.087 316.152 133.369 319.138C126.648 322.125 119.956 326.661 112.717 328.306C93.7943 332.607 74.3114 347.893 67.8425 366.618C65.4335 373.592 62.9722 379.782 61.7144 387.077C60.4546 394.384 60.4117 401.494 60.4117 408.887C60.4117 422.778 63.2451 436.655 63.8375 450.577C64.7364 471.701 65.2175 493.835 57.7578 513.883C51.9704 529.437 41.9393 540.749 29.5787 551.278C18.759 560.495 6.32896 569.791 -6.46551 576.032C-14.3583 579.882 -22.4066 581.807 -30.5915 584.717C-37.9144 587.321 -45.7444 588.789 -53.1734 590.99C-57.9359 592.401 -64.0682 595.139 -69 595.139" stroke="#ED0965" stroke-width="3" stroke-linecap="round"/>
</svg>
