<svg width="136" height="53" viewBox="0 0 136 53" fill="none" xmlns="http://www.w3.org/2000/svg">
<g clip-path="url(#clip0_927_269)">
<path d="M108.439 15.6577H102.536C102.199 15.6577 101.926 15.9313 101.926 16.2687V51.7512C101.926 52.0886 102.199 52.3622 102.536 52.3622H108.439C108.776 52.3622 109.049 52.0886 109.049 51.7512V16.2687C109.049 15.9313 108.776 15.6577 108.439 15.6577Z" fill="#111928" fill-opacity="0.55"/>
<path d="M135.5 47.3555V52.4966C135.5 52.7099 135.327 52.8847 135.112 52.8847H133.564C126.548 52.8847 120.863 47.1807 120.879 40.1549L120.917 22.3877C120.917 22.1725 120.745 21.9996 120.53 21.9996H115.194C114.981 21.9996 114.807 21.8267 114.807 21.6115V18.6644C114.807 18.5664 114.843 18.4723 114.91 18.4012L124.255 8.29187C124.328 8.2131 124.432 8.16699 124.539 8.16699H127.356C127.567 8.16699 127.74 8.33798 127.743 8.54931L127.82 15.2754C127.822 15.4867 127.995 15.6577 128.208 15.6577H134.957C135.172 15.6577 135.345 15.8326 135.345 16.0477L135.312 21.4252C135.312 21.6365 135.141 21.8075 134.93 21.8094L128.117 21.8959C127.905 21.8978 127.734 22.0726 127.736 22.2859L127.87 39.6688C127.901 43.6726 131.124 46.9156 135.122 46.9674C135.333 46.9694 135.504 47.1423 135.504 47.3555H135.5Z" fill="#111928" fill-opacity="0.55"/>
<path d="M105.475 8.8375C107.912 8.8375 109.887 6.85916 109.887 4.41875C109.887 1.97834 107.912 0 105.475 0C103.038 0 101.062 1.97834 101.062 4.41875C101.062 6.85916 103.038 8.8375 105.475 8.8375Z" fill="#111928" fill-opacity="0.55"/>
<path d="M90.7192 25.5577L95.648 23.2541C95.8878 23.1427 95.9952 22.8584 95.8859 22.6182C95.2412 21.1812 93.9424 18.893 91.4694 17.1006C87.8184 14.4551 83.895 14.5434 81.3011 14.603C78.9317 14.6568 75.4515 14.7356 72.0921 17.1006C71.0139 17.8594 68.4661 19.6538 67.4454 23.0563C66.3902 26.572 67.2766 30.7699 69.7899 33.2386C71.7756 35.1886 74.4116 35.6977 79.5744 36.6967C82.2834 37.2212 86.3181 37.738 88.016 39.7707C88.2501 40.0511 88.8717 40.7947 88.9753 41.884C88.9753 41.884 89.0808 42.9944 88.3997 44.1894C87.0798 46.5083 82.153 48.5217 77.8478 46.8791C75.0122 45.7974 73.4658 43.5189 72.7943 42.3066C72.6658 42.0742 72.378 41.9877 72.1439 42.1126C70.54 42.9637 68.9342 43.8167 67.3303 44.6678C67.1385 44.7696 67.0349 44.9867 67.0828 45.2C67.2612 45.9838 67.5932 47.0001 68.2551 48.0337C70.7587 51.9433 75.7316 52.5869 77.6559 52.8367C83.5516 53.5994 93.0599 51.8665 95.6902 45.1519C96.7665 42.4065 96.7511 38.6737 94.9228 35.9302C92.916 32.9178 89.3014 31.9687 86.0975 31.1272C81.1304 29.8227 78.1816 30.6469 75.3537 28.0533C74.0375 26.8468 73.8399 25.9016 73.8188 25.3636C73.7286 23.0716 76.5949 21.4866 76.8885 21.3291C78.4291 20.503 79.8872 20.5318 81.3011 20.5606C82.3736 20.5818 84.0485 20.6336 85.9056 21.5212C88.1637 22.6009 89.4626 24.33 90.0996 25.3732C90.2281 25.5846 90.4948 25.6652 90.7192 25.5615V25.5577Z" fill="#111928" fill-opacity="0.55"/>
<path d="M16.5504 20.2686C16.6003 20.6413 16.7979 20.9526 17.0435 21.2042C17.5557 21.7306 18.2809 21.9977 19.0157 21.99L41.0156 21.7537C42.184 21.7402 43.3505 21.6019 44.4824 21.3061C46.2762 20.8354 48.4308 19.8882 49.3593 17.9632C51.3258 13.8883 46.5199 8.08247 43.4119 5.47541C33.8671 -2.53021 15.7081 -1.03936 7.14954 8.16508C3.15897 12.459 -0.967806 20.8219 1.01021 22.7662C1.29032 23.0409 1.6203 23.1158 1.77763 23.1504C4.91252 23.8228 6.62386 15.4848 13.6726 10.6626C14.3556 10.1958 20.0306 6.4264 25.9512 7.97296C27.0371 8.2573 30.1548 9.06997 30.9951 11.5118C31.0737 11.7423 31.6608 13.5233 30.7476 14.8893C28.6046 18.0938 20.7712 15.1967 17.5097 18.3474C17.2008 18.6471 16.4314 19.3887 16.5504 20.2686Z" fill="#111928" fill-opacity="0.55"/>
<path d="M36.0526 32.7468C36.0028 32.3741 35.8051 32.0628 35.5596 31.8111C35.0454 31.2847 34.3221 31.0177 33.5873 31.0254L11.5874 31.2713C10.419 31.2847 9.25254 31.425 8.12252 31.7209C6.32869 32.1915 4.17417 33.1406 3.24751 35.0657C1.28293 39.1405 6.09271 44.9444 9.20074 47.5496C18.7474 55.5514 36.9064 54.0509 45.4592 44.8407C49.4479 40.5449 53.5708 32.18 51.5909 30.2358C51.3108 29.961 50.9808 29.8861 50.8235 29.8515C47.6886 29.181 45.9811 37.519 38.9343 42.3451C38.2513 42.8119 32.5782 46.5851 26.6575 45.0405C25.5716 44.7581 22.454 43.9454 21.6118 41.5036C21.5312 41.273 20.946 39.4921 21.8574 38.1261C23.9984 34.9216 31.8338 37.813 35.0934 34.6603C35.4022 34.3606 36.1697 33.619 36.0507 32.7391L36.0526 32.7468Z" fill="#111928" fill-opacity="0.55"/>
</g>
<defs>
<clipPath id="clip0_927_269">
<rect width="135" height="53" fill="white" transform="translate(0.5)"/>
</clipPath>
</defs>
</svg>
