<svg width="193" height="1035" viewBox="0 0 193 1035" fill="none" xmlns="http://www.w3.org/2000/svg">
<path d="M5.44 20.24C3.56 20.24 1.98 19.5 0.84 18.28L1.78 17.18C2.74 18.16 4.08 18.76 5.46 18.76C7.18 18.76 8.2 17.9 8.2 16.64C8.2 15.3 7.24 14.88 6.02 14.34L4.12 13.5C2.9 12.98 1.48 12.06 1.48 10.12C1.48 8.12 3.22 6.64 5.6 6.64C7.2 6.64 8.56 7.3 9.48 8.22L8.56 9.34C7.76 8.58 6.74 8.12 5.6 8.12C4.14 8.12 3.18 8.86 3.18 10.02C3.18 11.28 4.32 11.76 5.34 12.18L7.22 13C8.74 13.64 9.92 14.56 9.92 16.5C9.92 18.58 8.2 20.24 5.44 20.24ZM16.2436 20.24C13.6436 20.24 11.6036 18.36 11.6036 15.14C11.6036 11.98 13.7436 10.04 15.9636 10.04C18.4436 10.04 19.8636 11.8 19.8636 14.6C19.8636 14.96 19.8436 15.26 19.7836 15.58H13.2436C13.3836 17.58 14.6036 18.9 16.4436 18.9C17.3836 18.9 18.2036 18.64 18.8836 18.18L19.4636 19.24C18.6236 19.84 17.5836 20.24 16.2436 20.24ZM13.2436 14.3H18.3836C18.3836 12.38 17.4836 11.36 16.0036 11.36C14.6436 11.36 13.4436 12.44 13.2436 14.3ZM26.1655 20.24C23.5655 20.24 21.5255 18.36 21.5255 15.14C21.5255 11.98 23.6655 10.04 25.8855 10.04C28.3655 10.04 29.7855 11.8 29.7855 14.6C29.7855 14.96 29.7655 15.26 29.7055 15.58H23.1655C23.3055 17.58 24.5255 18.9 26.3655 18.9C27.3055 18.9 28.1255 18.64 28.8055 18.18L29.3855 19.24C28.5455 19.84 27.5055 20.24 26.1655 20.24ZM23.1655 14.3H28.3055C28.3055 12.38 27.4055 11.36 25.9255 11.36C24.5655 11.36 23.3655 12.44 23.1655 14.3ZM36.1713 24.1V10.28H37.5313L37.6713 11.4H37.7313C38.6113 10.66 39.7113 10.04 40.8313 10.04C43.3313 10.04 44.6913 11.98 44.6913 15C44.6913 18.3 42.6913 20.24 40.4713 20.24C39.5913 20.24 38.6713 19.82 37.7913 19.12L37.8313 20.82V24.1H36.1713ZM40.1913 18.84C41.7913 18.84 42.9713 17.4 42.9713 15C42.9713 12.86 42.2313 11.44 40.4112 11.44C39.5913 11.44 38.7713 11.88 37.8313 12.76V17.84C38.7113 18.58 39.5513 18.84 40.1913 18.84ZM47.265 20V5.76H48.925V9.64L48.865 11.64C49.765 10.76 50.745 10.04 52.085 10.04C54.145 10.04 55.065 11.36 55.065 13.84V20H53.405V14.06C53.405 12.24 52.845 11.48 51.565 11.48C50.585 11.48 49.885 11.98 48.925 12.96V20H47.265ZM61.9239 20.24C59.5439 20.24 57.4239 18.38 57.4239 15.16C57.4239 11.9 59.5439 10.04 61.9239 10.04C64.3039 10.04 66.4439 11.9 66.4439 15.16C66.4439 18.38 64.3039 20.24 61.9239 20.24ZM61.9239 18.86C63.6039 18.86 64.7239 17.38 64.7239 15.16C64.7239 12.92 63.6039 11.42 61.9239 11.42C60.2639 11.42 59.1439 12.92 59.1439 15.16C59.1439 17.38 60.2639 18.86 61.9239 18.86ZM71.7117 20.24C69.6317 20.24 68.9317 18.92 68.9317 16.98V11.62H67.4917V10.38L69.0117 10.28L69.2117 7.16H70.5917V10.28H73.2317V11.62H70.5917V17.02C70.5917 18.2 70.9917 18.88 72.0917 18.88C72.4517 18.88 72.8117 18.82 73.2117 18.64L73.5517 19.82C73.0317 20.06 72.3717 20.24 71.7117 20.24ZM78.9356 20.24C76.5556 20.24 74.4356 18.38 74.4356 15.16C74.4356 11.9 76.5556 10.04 78.9356 10.04C81.3156 10.04 83.4556 11.9 83.4556 15.16C83.4556 18.38 81.3156 20.24 78.9356 20.24ZM78.9356 18.86C80.6156 18.86 81.7356 17.38 81.7356 15.16C81.7356 12.92 80.6156 11.42 78.9356 11.42C77.2756 11.42 76.1556 12.92 76.1556 15.16C76.1556 17.38 77.2756 18.86 78.9356 18.86ZM88.5355 20.24C87.1155 20.24 85.8155 19.72 84.9155 18.84L85.6755 17.88C86.5155 18.58 87.3955 18.94 88.5955 18.94C89.8755 18.94 90.4955 18.28 90.4955 17.44C90.4955 16.44 89.4155 16.02 88.3155 15.62C86.8555 15.1 85.4555 14.4 85.4555 12.8C85.4555 11.24 86.6955 10.04 88.8155 10.04C90.0355 10.04 91.0755 10.5 91.8355 11.14L91.0755 12.1C90.3955 11.6 89.6955 11.32 88.8355 11.32C87.5955 11.32 87.0555 12 87.0555 12.72C87.0555 13.6 87.8955 13.96 89.1155 14.38C90.6355 14.92 92.0955 15.58 92.0955 17.34C92.0955 18.92 90.8355 20.24 88.5355 20.24ZM102.158 20.24C99.7783 20.24 97.6583 18.38 97.6583 15.16C97.6583 11.9 99.7783 10.04 102.158 10.04C104.538 10.04 106.678 11.9 106.678 15.16C106.678 18.38 104.538 20.24 102.158 20.24ZM102.158 18.86C103.838 18.86 104.958 17.38 104.958 15.16C104.958 12.92 103.838 11.42 102.158 11.42C100.498 11.42 99.3783 12.92 99.3783 15.16C99.3783 17.38 100.498 18.86 102.158 18.86ZM109.498 20V11.62H108.178V10.38L109.498 10.28V8.76C109.498 6.78 110.398 5.52 112.338 5.52C112.938 5.52 113.558 5.66 113.958 5.84L113.598 7.06C113.218 6.94 112.858 6.86 112.518 6.86C111.598 6.86 111.158 7.52 111.158 8.76V10.28H113.198V11.62H111.158V20H109.498ZM122.842 20.24C120.462 20.24 118.342 18.38 118.342 15.16C118.342 11.9 120.462 10.04 122.842 10.04C125.222 10.04 127.362 11.9 127.362 15.16C127.362 18.38 125.222 20.24 122.842 20.24ZM122.842 18.86C124.522 18.86 125.642 17.38 125.642 15.16C125.642 12.92 124.522 11.42 122.842 11.42C121.182 11.42 120.062 12.92 120.062 15.16C120.062 17.38 121.182 18.86 122.842 18.86ZM132.742 20.24C130.682 20.24 129.762 18.92 129.762 16.44V10.28H131.422V16.22C131.422 18.02 131.982 18.8 133.262 18.8C134.242 18.8 134.942 18.3 135.842 17.16V10.28H137.502V20H136.142L136.002 18.48H135.942C135.042 19.54 134.082 20.24 132.742 20.24ZM140.781 20V10.28H142.141L142.281 12.04H142.341C143.021 10.82 144.021 10.04 145.101 10.04C145.541 10.04 145.841 10.1 146.141 10.24L145.781 11.66C145.501 11.58 145.281 11.54 144.901 11.54C144.081 11.54 143.101 12.12 142.441 13.76V20H140.781ZM153.298 20L150.578 10.28H152.278L153.698 15.92C153.918 16.8 154.118 17.64 154.278 18.68H154.358C154.558 17.64 154.738 16.8 154.958 15.92L156.418 10.28H158.198L159.678 15.92C159.898 16.8 160.118 17.64 160.318 18.68H160.398C160.598 17.64 160.758 16.8 160.978 15.92L162.398 10.28H163.978L161.358 20H159.258L157.938 14.78C157.698 13.88 157.518 13.04 157.298 11.9H157.218C157.038 13.04 156.858 13.9 156.598 14.78L155.298 20H153.298ZM169.795 20.24C167.415 20.24 165.295 18.38 165.295 15.16C165.295 11.9 167.415 10.04 169.795 10.04C172.175 10.04 174.315 11.9 174.315 15.16C174.315 18.38 172.175 20.24 169.795 20.24ZM169.795 18.86C171.475 18.86 172.595 17.38 172.595 15.16C172.595 12.92 171.475 11.42 169.795 11.42C168.135 11.42 167.015 12.92 167.015 15.16C167.015 17.38 168.135 18.86 169.795 18.86ZM176.855 20V10.28H178.215L178.355 12.04H178.415C179.095 10.82 180.095 10.04 181.175 10.04C181.615 10.04 181.915 10.1 182.215 10.24L181.855 11.66C181.575 11.58 181.355 11.54 180.975 11.54C180.155 11.54 179.175 12.12 178.515 13.76V20H176.855ZM183.808 20V5.76H185.448V15.36H185.508L189.608 10.28H191.468L188.228 14.2L191.888 20H190.088L187.248 15.34L185.448 17.44V20H183.808ZM1.64 48V38.28H3.3V48H1.64ZM2.48 36.28C1.84 36.28 1.38 35.86 1.38 35.2C1.38 34.56 1.84 34.12 2.48 34.12C3.12 34.12 3.58 34.56 3.58 35.2C3.58 35.86 3.12 36.28 2.48 36.28ZM6.58141 48V38.28H7.94141L8.08141 39.68H8.14141C9.06141 38.76 10.0614 38.04 11.4014 38.04C13.4614 38.04 14.3814 39.36 14.3814 41.84V48H12.7214V42.06C12.7214 40.24 12.1614 39.48 10.8814 39.48C9.90141 39.48 9.20141 39.98 8.24141 40.96V48H6.58141ZM24.5828 48.24C22.5028 48.24 21.8028 46.92 21.8028 44.98V39.62H20.3628V38.38L21.8828 38.28L22.0828 35.16H23.4628V38.28H26.1028V39.62H23.4628V45.02C23.4628 46.2 23.8628 46.88 24.9628 46.88C25.3228 46.88 25.6828 46.82 26.0828 46.64L26.4228 47.82C25.9028 48.06 25.2428 48.24 24.5828 48.24ZM28.3002 48V33.76H29.9602V37.64L29.9002 39.64C30.8002 38.76 31.7802 38.04 33.1202 38.04C35.1802 38.04 36.1002 39.36 36.1002 41.84V48H34.4402V42.06C34.4402 40.24 33.8802 39.48 32.6002 39.48C31.6202 39.48 30.9202 39.98 29.9602 40.96V48H28.3002ZM43.0991 48.24C40.4991 48.24 38.4591 46.36 38.4591 43.14C38.4591 39.98 40.5991 38.04 42.8191 38.04C45.2991 38.04 46.7191 39.8 46.7191 42.6C46.7191 42.96 46.6991 43.26 46.6391 43.58H40.0991C40.2391 45.58 41.4591 46.9 43.2991 46.9C44.2391 46.9 45.0591 46.64 45.7391 46.18L46.3191 47.24C45.4791 47.84 44.4391 48.24 43.0991 48.24ZM40.0991 42.3H45.2391C45.2391 40.38 44.3391 39.36 42.8591 39.36C41.4991 39.36 40.2991 40.44 40.0991 42.3ZM56.3848 52.48C54.0048 52.48 52.3648 51.54 52.3648 49.86C52.3648 49.04 52.9048 48.26 53.7848 47.66V47.58C53.3048 47.28 52.9248 46.76 52.9248 46C52.9248 45.18 53.4848 44.54 53.9848 44.2V44.12C53.3448 43.6 52.7248 42.66 52.7248 41.5C52.7248 39.38 54.4048 38.04 56.3848 38.04C56.9248 38.04 57.4048 38.14 57.7648 38.28H61.1448V39.56H59.1648C59.6248 40 59.9448 40.72 59.9448 41.54C59.9448 43.62 58.3648 44.92 56.3848 44.92C55.9048 44.92 55.3848 44.8 54.9448 44.58C54.5848 44.88 54.3248 45.2 54.3248 45.74C54.3248 46.34 54.7248 46.78 56.0248 46.78H57.9048C60.1648 46.78 61.3048 47.5 61.3048 49.1C61.3048 50.92 59.4048 52.48 56.3848 52.48ZM56.3848 43.8C57.5048 43.8 58.4448 42.92 58.4448 41.5C58.4448 40.1 57.5248 39.24 56.3848 39.24C55.2448 39.24 54.3248 40.08 54.3248 41.5C54.3248 42.92 55.2648 43.8 56.3848 43.8ZM56.6248 51.32C58.4648 51.32 59.6848 50.36 59.6848 49.36C59.6848 48.46 59.0048 48.16 57.7248 48.16H56.0648C55.6848 48.16 55.2248 48.12 54.8048 48C54.1048 48.5 53.8048 49.08 53.8048 49.64C53.8048 50.68 54.8648 51.32 56.6248 51.32ZM65.13 48.24C63.51 48.24 62.29 47.24 62.29 45.48C62.29 43.32 64.09 42.28 68.25 41.82C68.23 40.6 67.83 39.42 66.25 39.42C65.13 39.42 64.11 39.92 63.35 40.42L62.71 39.3C63.61 38.7 64.97 38.04 66.53 38.04C68.89 38.04 69.91 39.62 69.91 42.02V48H68.55L68.39 46.84H68.33C67.41 47.62 66.35 48.24 65.13 48.24ZM65.59 46.88C66.53 46.88 67.31 46.46 68.25 45.64V43C64.97 43.38 63.91 44.12 63.91 45.38C63.91 46.46 64.65 46.88 65.59 46.88ZM74.7081 48.24C73.4681 48.24 72.9681 47.44 72.9681 46.04V33.76H74.6281V46.16C74.6281 46.68 74.8481 46.86 75.1081 46.86C75.2081 46.86 75.2881 46.86 75.4481 46.82L75.6681 48.06C75.4281 48.18 75.1281 48.24 74.7081 48.24ZM79.8058 48.24C78.5658 48.24 78.0658 47.44 78.0658 46.04V33.76H79.7258V46.16C79.7258 46.68 79.9458 46.86 80.2058 46.86C80.3058 46.86 80.3858 46.86 80.5458 46.82L80.7658 48.06C80.5258 48.18 80.2258 48.24 79.8058 48.24ZM87.0834 48.24C84.4834 48.24 82.4434 46.36 82.4434 43.14C82.4434 39.98 84.5834 38.04 86.8034 38.04C89.2834 38.04 90.7034 39.8 90.7034 42.6C90.7034 42.96 90.6834 43.26 90.6234 43.58H84.0834C84.2234 45.58 85.4434 46.9 87.2834 46.9C88.2234 46.9 89.0434 46.64 89.7234 46.18L90.3034 47.24C89.4634 47.84 88.4234 48.24 87.0834 48.24ZM84.0834 42.3H89.2234C89.2234 40.38 88.3234 39.36 86.8434 39.36C85.4834 39.36 84.2834 40.44 84.0834 42.3ZM93.0853 48V38.28H94.4453L94.5853 40.04H94.6453C95.3253 38.82 96.3253 38.04 97.4053 38.04C97.8453 38.04 98.1453 38.1 98.4453 38.24L98.0853 39.66C97.8053 39.58 97.5853 39.54 97.2053 39.54C96.3853 39.54 95.4053 40.12 94.7453 41.76V48H93.0853ZM100.726 52.18C100.266 52.18 99.8863 52.1 99.5662 51.98L99.9263 50.68C100.166 50.76 100.406 50.8 100.646 50.8C101.726 50.8 102.426 49.94 102.826 48.74L103.046 48.02L99.1463 38.28H100.866L102.826 43.64C103.146 44.48 103.466 45.48 103.786 46.38H103.866C104.126 45.5 104.406 44.5 104.666 43.64L106.406 38.28H108.026L104.366 48.8C103.686 50.72 102.666 52.18 100.726 52.18ZM110.582 44.02L110.362 36.48L110.322 34.6H112.002L111.962 36.48L111.722 44.02H110.582ZM111.162 48.24C110.502 48.24 109.962 47.72 109.962 46.98C109.962 46.22 110.502 45.7 111.162 45.7C111.822 45.7 112.362 46.22 112.362 46.98C112.362 47.72 111.822 48.24 111.162 48.24Z" fill="black"/>
<path d="M95.4036 1023.07C96.4874 1025.19 97.9102 1027.94 98.1096 1030.37C98.2395 1031.94 98.5538 1032.87 100.252 1031.94C103.193 1030.34 106.002 1029.76 109.184 1028.77" stroke="#ED0965" stroke-width="3" stroke-linecap="round"/>
<path d="M134.327 46.197C145.676 47.458 154.751 73.5397 158.217 82.551C164.636 99.2401 161.333 120.641 161.333 138.063C161.333 177.07 143.66 217.495 126.479 251.857C103.934 296.949 84.9847 357.709 84.4703 408.121C83.8526 468.657 76.3898 530.539 101.089 587.93C112.097 613.506 121.879 636.531 127.98 663.984C129.766 672.024 134 685.5 136 692C137.5 696 138.855 702.678 139.636 706.917C141.111 714.922 144.193 721.96 146.33 729.653C158.09 771.989 152.764 815.241 143.098 857.526C139.58 872.918 137.971 892.512 131.211 907.383C123.449 924.461 125.291 945.405 118.17 962.318C113.117 974.318 112.772 989.088 111.361 1001.79C110.613 1008.52 105.368 1027.69 99.0119 1030.87" stroke="#ED0965" stroke-width="3" stroke-linecap="round"/>
</svg>
