<svg width="402" height="996" viewBox="0 0 402 996" fill="none" xmlns="http://www.w3.org/2000/svg">
<circle cy="448" r="402" fill="#ED0965" fill-opacity="0.05"/>
<path d="M-15.5601 2.0157C13.3799 2.0157 43.049 1.08586 69.9711 13.5373C104.911 29.6972 131.754 51.5741 147.166 87.1403C160.785 118.569 158.891 155.846 158.891 189.208C158.891 241.861 148.653 300.979 170.413 350.715C179.871 372.334 200.083 397.939 226.259 398.495C236.724 398.718 244.998 398.318 254.046 392.396C270.477 381.641 280.04 366.479 291.322 350.918C301.538 336.826 311.215 321.909 312.535 304.086C313.498 291.09 299.023 278.744 287.933 274.062C255.081 260.191 218.315 277.959 197.319 303.408C170.274 336.19 166.97 383.131 170.006 424.114C171.735 447.461 184.069 471.129 195.76 490.94C202.977 503.167 209.706 515.923 217.448 527.809C221.048 533.335 226.5 540.5 228.766 544.346C232 549.833 237.399 556.119 240.5 561.5C245.153 569.574 249.547 575.799 253.639 584.265C260.99 599.473 268.089 614.41 274.243 630.148C286.309 661.009 284.545 694.565 284.545 727.065C284.545 786.885 266.649 848.004 229.105 895.281C219.708 907.114 208.505 917.502 199.42 929.507C195.577 934.586 192.858 934.526 187.221 937.708C171.991 946.305 157.564 956.095 141.88 963.937C118.959 975.397 91.3231 989.305 65.0913 990.165C46.7355 990.767 28.5847 993.825 9.9908 993.825C0.66053 993.825 -8.66973 993.825 -18 993.825" stroke="#ED0965" stroke-width="3" stroke-linecap="round"/>
</svg>
