<svg width="163" height="6" viewBox="0 0 163 6" fill="none" xmlns="http://www.w3.org/2000/svg">
<path d="M2 1.75623C14.3319 1.69756 26.5265 2.28062 38.8634 2.22194C49.0488 2.17349 59.1245 3.40769 69.3194 3.35919C76.4429 3.32531 83.6571 2.41934 90.7768 3.27493C94.8376 3.76292 99.0197 3.89225 103.139 4.17772C107.169 4.45691 110.887 4.14087 114.943 4.12157C118.565 4.10434 122.84 4.084 126.443 4.06687C131.133 4.04456 134.805 3.51137 139.437 2.82709C142.184 2.42142 145.393 2.03572 148.164 2.02254C149.6 2.01571 151.037 2.00888 152.473 2.00204C155.343 1.98839 158.081 2.2959 160.986 2.28208" stroke="#ED0965" stroke-width="3" stroke-linecap="round"/>
</svg>
